<mxfile host="65bd71144e">
    <diagram id="QaO4HY7J0hDyM74mY6ZC" name="Page-1">
        <mxGraphModel dx="1150" dy="724" grid="1" gridSize="10" guides="1" tooltips="1" connect="1" arrows="1" fold="1" page="1" pageScale="1" pageWidth="1169" pageHeight="827" background="#FFFFFF" math="0" shadow="0">
            <root>
                <mxCell id="0"/>
                <mxCell id="1" parent="0"/>
                <mxCell id="28" style="edgeStyle=orthogonalEdgeStyle;curved=1;rounded=1;html=1;exitX=1;exitY=0.5;exitDx=0;exitDy=0;entryX=0;entryY=0.5;entryDx=0;entryDy=0;strokeWidth=4;elbow=vertical;" edge="1" parent="1" source="9" target="5">
                    <mxGeometry relative="1" as="geometry"/>
                </mxCell>
                <mxCell id="38" style="edgeStyle=orthogonalEdgeStyle;curved=1;rounded=1;html=1;exitX=1;exitY=0.5;exitDx=0;exitDy=0;strokeWidth=4;fontSize=26;elbow=vertical;" edge="1" parent="1" source="9" target="8">
                    <mxGeometry relative="1" as="geometry"/>
                </mxCell>
                <mxCell id="41" style="edgeStyle=orthogonalEdgeStyle;curved=1;rounded=1;html=1;exitX=0.116;exitY=1.014;exitDx=0;exitDy=0;entryX=0;entryY=0.5;entryDx=0;entryDy=0;strokeWidth=4;fontSize=26;elbow=vertical;exitPerimeter=0;" edge="1" parent="1" source="9" target="6">
                    <mxGeometry relative="1" as="geometry"/>
                </mxCell>
                <mxCell id="9" value="" style="rounded=1;whiteSpace=wrap;html=1;fillColor=none;strokeWidth=3;" vertex="1" parent="1">
                    <mxGeometry x="450" y="279" width="570" height="270" as="geometry"/>
                </mxCell>
                <mxCell id="2" value="" style="shape=image;verticalLabelPosition=bottom;labelBackgroundColor=default;verticalAlign=top;aspect=fixed;imageAspect=0;image=data:image/png,iVBORw0KGgoAAAANSUhEUgAAA8AAAAPACAYAAAD61hCbAAAAGXRFWHRTb2Z0d2FyZQBBZG9iZSBJbWFnZVJlYWR5ccllPAAAStxJREFUeNrs3c+PHFmC2Pcgt3NnVk5vV8PA+iRNEpDXJ2mKxvImo7OKdTQwRegiQIfO0sWQLk1edMkDScN1JvsvYPVNF4PVBxs+cJPZV60B1kDAAgIsMEeAgBUFqKvhhH9sabyKVxnZXSSLZGZVRsR7Lz4fIJU9q93p7lfJivjme/FeUQAAAAAAAAAAAAAAAAAAAAAAAAAAAAAAAAAAAAAAAAAAAAAAAAAAAAAAAAAAAAAAAAAAAAAAAAAAAAAAAAAAAAAAAAAAAAAAAAAAAAAAAAAAAAAAAAAAAAAAAAAAAAAAAAAAAAAAAAAAAAAAAAAAAAAAAAAAAAAAAAAAAAAAAAAAAAAAAAAAAAAAAAAAAAAAAAAAAAAAAAAAAAAAAAAAAAAAAAAAAAAAAAAAAAAAAAAAAAAAAAAAAAAAAAAAAAAAAAAAAAAAAAAAAAAAAAAAAAAAAAAAAAAAAAAAAAAAAAAAAAAAAAAAAAAAAAAAAAAAAAAAAAAAAAAAAAAAAAAAAAAAAAAAAAAAAAAAAAAAAAAAAAAAAAAAAAAAAAAAAAAAAAAAAAAAAAAAAAAAAAAAAAAAAAAAAAAAAAAAAAAAAAAAAAAAAAAAAAAAAAAAAAAAAAAAAAAAAAAAAAAAAAAAAAAAAAAAAAAAAAAAAAAAAAAAkLkbhgAANuvN3TuD8m1wzf+a2Z/8+V/MjCYACGAA2GSwbpVv2xf+R8N3/le+vOT/bNjyP/b0kv/Z9x/53zkpg/rUTxsAAQwAeYbtMlJD3IbI/fxC6A6K68/SpuqkfJ1e+Osfq/8c/rooQ3nq0wOAAAaAeOJ2cCFiw+tX1fu7s7lcP5Rn5et31fv5y/JsAAQwANQTucsZ3C8FbpSB/H3x8wyyOAZAAAPAR0J3+0Lo/rqK3KGRSdq0iuLfXgjjE8MCgAAGoCuhu5y9DXH7q+qvzeZ2L4xnxWJJdfhrm3MBIIABSD52BxcCNyxdHhTd3XSKjwtBHGaHl7PFJ5ZRAyCAAYg1di/O7P66et8yMmwoiqeFmWIABDAALQXvxZldy5hpykn1+r4KYs8UAyCAAdh48A4Ls7vEJ8wITy8E8dSQACCAAbhq8H5Z2I2ZtCyDeCqIARDAAFwWvMvnd38jeMnM8YUgtmQaQAAD0MHgHbwTvJY00wWn7wTxzJAACGAA8ozei8Fr0ypYbKg1LV/fWS4NIIABSDt4B4VZXljVckOt78rXsSOXAAQwAPFH7/JZ3q8Ks7xwHWF2+NsqhmeGA0AAAxBP9Ibg3S9fAyMCGxcCODw7/K2NtAAEMADNR2+I3eXSZtELYhgAAQyQZfSGd8/zghgGQAADZBW9ljeDGAZAAANkG70hdL8WvZB0DIcNtI5soAUggAF4P3rDkuZRYfdmyE2YDf6mcLQSgAAGEL7nz/UulzgDeTsqX9+VIXxsKAAEMEBXonf5XO+osJkVdNGsWDwv/I0l0gACGCDH6A2hG2Z5w7O9ljgDS9NisXHWkaEAEMAAqYfvdvHzhlZme4EPCc8Hhwg2KwwggAGSil6zvcB1TAuzwgACGCDy8B1U0TsqzPYC1xdmhcMO0o5TAhDAANGE77D4eZkzQB2Wm2ZNDQWAAAZoOnqXy5wflq+BEQEaMitfjy2PBhDAAE2Eb4jdUbGY8bXMGWjLcnn00zKGTw0HgAAG2GT4LndzHhkNIDJHxWJWeGYoAAQwwHXCd1gsljkPjQYQuWkVwlNDASCAAdYJ31HhGCMg3RAOG2YdGwoAAQzwqfC1sRWQg1lhwywAAQzwTvSGzaxC+H4tfAEhDCCAAXIN3/uFHZ0BIQwggAGEL4AQBhDAAMIXQAgDCGCA6OI3hO9D4QsghAEBDJBr+I4KuzoDCGEAAQwIXwAuCeGDMoSnhgIQwABxh++wCt+h0QC4lhDAj4UwIIAB4gvf7fLtifAF2Ljj8vWgDOGZoQAEMEC74TsoFjO+I6MBUKujKoRPDQUggAGaDV9HGgE0L8TvN+XrqRAGBDBAM/E7KhbLnYUvQDtmhR2jAQEMUGv4Dqvw3TYaAFGYFjbKAgQwwEbDd1CF777RAIjSUeH5YEAAA1w7fh8VnvMFSMH588FlBD8yFIAABlgvfMNsb5j1HRgNgKTMyteBZdGAAAb4dPiG4H1WOM8XIHXODwaic9MQABHF76Py7ZX4BchCWMnzqvzdft9QALEwAwzEEL4heMOs78BoAGTppFjMBk8NBSCAga6Gb9jYKjznOzIaAJ3wtFgcm2S3aEAAA52K31EVv3Z3BuiWEL9hk6xjQwEIYCD38B0UNrkCwCZZQAtsggU0Gb9hIxSbXAEQ2CQLaJwZYKCJ8N0uFsudhS8Al5kWi2XRM0MB1MkMMFB3/D4qzPoC8HHhGmE2GKidGWCgrvANs77hWd9towHAGqaF2WCgJmaAgTri91GxmPUVvwCsa1iYDQZqYgYY2GT4Dgo7PAOwOdPCbDCwQWaAgU3Frx2eAdi0cE0Js8H7hgLYBDPAwHXDd6tYzPq6OQGgTuHc4DAbfGooAAEMtBG/+1X8bhkNABoQ4vdeGcFTQwEIYKCp8A3B+7B82aAEgDY8LSP4gWEABDBQd/w63giAGJwUiyXRJ4YCWJVNsIB14ne50ZX4BaBt4Vr0srw2jQwFsCozwMAq4WujKwBiZoMsQAADG4nfYRW/A6MBQMRmxWKDLEuigQ+yBBr4WPw+Kt9eil8AEhCuVa+qx3UALmUGGLgsfMOS5+fla2g0AEiQJdGAAAZWit/tKn4HRgOAhM0KS6KBd1gCDVyM3+Uuz+IXgNSFa5ldooG3mAEGlkuen5QvNwkA5OiofD2wJBoQwCB+w5LnsMuzs30ByFlYCh2WRM8MBQhgoJvxu1/F75bRAKADTqsInhoK6CbPAEN34/dRsdjsSvwC0BXhmvfSUUnQXWaAoXvhGy7+YdZ332gA0GFHheeCQQADWcev530B4GeeCwYBDGQav8PCkmcAeFeYAd5xXjB0g2eAoRvxOyrfXopfAHhPuDa+cl4wdIMZYMg/fsOSZxd1APi0oz/58784MAwggIH0wjd8ox2WPA+NBgCs7Lh8HdgcCwQwkE782uwKAK7O5lgggIGE4tfzvgBwPTbHggzZBAvyit9R+fZK/ALAtYVr6UubY0FezABDPvF7v3x7YiQAYOPCM8FHhgEEMBBH/NrpGQDqZYdoEMBAy+EblmeF+N03GgBQrx9+8V8d/bf/2/8ugkEAAy3Fb9jsyk7PAFCz//uzfvE//XdPiln/74ZNsXYm475jkiBBNsGCNON3IH4BoPH4Lapr78vdw7kNJyFBZoAhvfh1zBEAtBO/F50fkzQZ9x2TBAIYEL8AkG38imBIlCXQkE78jsQvAEQTv0V1TQ7LoYdGDNJgBhjSid9nRgIAoonfdx1Mxv0jowcCGBC/AJBz/IpgEMCA+AWAzsSvCAYBDFwjfkP4jowEACQTvyIYBDAgfgGgM/G7dFRG8IHRBQEMiF8AyDl+RTAIYED8AkBn4lcEgwAGxC8AdCZ+RTAIYED8AkBn4lcEgwAGxC8AdCZ+RTAIYED8AkBn4lcEgwAG8WskAKAz8SuCQQCD+AUAOhO/IhgEMIhfAKAz8SuCQQCD+AUAOhO/IhhacNMQQGPx+0T8AoD4fcdo93Du/gAaYgYYmonfcGF7ZiQAQPx+wMFk3D/y0wMBDOIXAMg5fkUwCGAQvwBAZ+JXBIMAhqTjd798e24kAED8rul2GcEnfqoggCGV+N0u316Wry2jAQDid02n5WtHBIMABvELAOQcvyIYBDAkE78hel+LXwAQvxswKxbLoU/9tGEznAMMm41fM78AIH43ZRDuLXYP5+4tQABDlPG7bTQAQPxu0PLRKkAAQzSeiF8AEL91RfDu4dyxirABngGGa3pz9064II2MBACI35odTcb9A58EuDozwHC9+B2JXwAQvw0Z7R7O3XfANZgBhuvFr+VIACB+m3ZvMu4fGwYQwNBU/DrrFwDEb1ucEQwCGBqL30H59kr8AoD4bTmCbzkjGNbjGWBYL35D9D4XvwAgflt2fgSjM4JBAEOdwjO/jjsCAPEbg+3CfiQggKEOb+7eCWf97hsJABC/EdnfPZw/MQywGs8Aw2rxOyp8wwoA4jdeB5Nx/8gwgACG68ZvWF70ykgAgPiN3G07Q4MAhuvE76Cw4zMAiN802BkaPsEzwPDh+LXjMwCI35TYGRoEMFxZ2FDCjs8AIH5Tsl3dwwACGFbz5u6d++XbyEgAgPhN0Gj3cH7fMMD7PAMM78fvsHx7aSQAQPwmbmcy7k8NAwhg+FD8DgqbXgGA+M1D2Awr7Aw9MxSwYAk0vM2mVwAgfnOx3NATEMDwtjd37zwrbHoFAOI3L9u7h/NnhgEEMFyM31Fh0ysAEL95Cptiuc+BwjPAEOI3zPqGTa8sfQYA8Zur8Dxw2BTrxFAggKG78btVxa+lzwAgfnN3UkXwqaGgqyyBpus89wsA4rcrwj3PE8OAAIYOenP3Tjggft9IAID47RDPA9NplkDT1fgN34C+MhIAIH47yPPAdJYZYLoYv+G5X8cBAID47arze6Hdw7kNQBHA0AHh2RfP/QKA+O0yzwMjgCF3zvsFAPHLTzwPTOd4Bpguxe+gWDz3a7kPAIhfFsLzwLcn4/7MUNAFZoDpkufiFwDEL2/Zqu6RQABDLt7cvfOo8NwvAIhfLrO9ezh/ZBjoAkug6UL8Dsu3l0YCAMQvHxWORpoaBgQwpBu/YVlPeO53YDQAQPzyUbNi8TzwqaEgV5ZAk7sn4hcAxC8rGRSORiJzZoDJ1pu7d/YLmzoAgPhlXfcm4/6xYUAAQzrxG5Y+vy7s+gwA4pd1hSXQtyyFJkeWQJOrZ+IXAMQvV7JV3UuBAIbYvbl75375tm8kAED8cmX7u4fzkWEgN5ZAk1v8DorFrs9mfwFA/HI9YQl02BV6ZijIxWeGgMxY+gzUfTN4Uv11uCH83YX/v5Pq//8tf/LnfzFd529QnV3+rvB7bfvCf/5V8fMO99t+7yF+qclyKfSOoSAXZoDJRrX02db9wHVMq4j97cXYXTdiW/odeDGSlxH96+oGduhHi/jlGh5Mxv2nhgEBDPHc+A0KS5+B1cyq1/cX/vqkjNysdzu9EMiD6vXlhb8G8cvHWApNNiyBJhdPxC9wiWmxmMUNM7qzFGZy61IF/vQDcTysQvjXVSQPfXTEL1ywVd1r3TMUpM4MMMkrb9zCjs/PjQR03kn1CjO7YUb3xJBc63frdhXDX1bv20ZF/NJ59ybj/rFhQABDezdo4RvJ14XZX+iiaRW706IDS5gj+X07vBDFQ6Mifumc8Hv2VhnBft+SLEugSZ1dn6E7wozudyF4u7yUuS3VFwzH1WsZxSGCf3MhjBG/5G25K7Sl0CTLDDDJqm68XhoJyNasWMzuLqPXjEPcv5PDjXF4JOXL6t2Xk+KXfO1Mxv2pYUAAQ7M3WmHX54HRgKwsZ3mPPcOb/O/p7SqEwwyx2WHxS15mxWJXaF9MkhxLoEnVffEL2QhLar+vondmOPJQfYERXo+qo+pCDH8lhsUvWRhU92KPDAWpMQNMcqpZhVdGApKP3uVMrxmEbv0OF8Pil3yEWWCrdRDAUPPNU3jud2gkIDnhJunbwkwvYlj8kotpGcA7hgEBDPXdLI2Kxe6DQBpC6IbZ3m9EL5/4/b5dhXD4PW8DLfFLOg7KCD4yDAhg2PzNkTN/IR0her8to/fYUHCF3/fLWeF9oyF+iZ6zgUmKTbBIyRPxC1GbFYslzk8918t1VF+cHFdLpEdVDA+MjPglSlvVPdqBoSAFZoBJgjN/IWpme2niOhBmg78u7AEhfomVs4ERwLDBGx8bX0FcTqvwfezZXhq+HgzKt4fFYnm0VUHil3jYEAsBDBu62RkVNr6CWITYtcyZGK4NIX7DOaSWR4tf4mFDLAQwbOAGx8ZXEEf4htleNzbEeK0YFYtZ4c6HsPilZTbEIno3DQGReyh+oVXT8nWvDN9b4pdYhc9m+IwWi014TsSv+KU1W9W9G0TLDDDRqp7zem0koLXwDTO+U0NBgtePYXUTPhS/0IowCzwzDMTIDDAx89wvtBO+O2X47ohfUhU+u+EzHD7L1Wda/IJ7ODhnBpgoOfYIWglfM77kek0JO0aHc0oH4hca41gkomQGmFj55hCaMStfB2Z8yVk4o/rCM8Iz8Qvu5eguM8BEx7FH0IiwQ+cDG1vR0etMOD4p6U0WxS+JcCwSAhg+cVPi2COo3+PCOb643izPEU5ux1rxS0Ici0R0LIEmNvfFL9TmONyIlOH7SPzSdeHPQPizEP5MVH82xC9s3vKLJoiGGWCiUR179EoAw8aFc1EfeMYXPnoNGhaLx28G4hc2KnzhetuxSMTCDDAxSfp5LIj0piOE723xCx9XHZ0UZoMfV392xC9sxlaR4KMG5MsMMFGoZn9fGwnYmLCk88BSZ7jyNSkcm7QvfmFjbpkFJgZmgImFXZ9hM8LNRTjS6J74hasp/+zMwp+h8GepaPnYJPGLez0QwGSmeu5qaCTg2sLSTcudYXMhHP4s3S5fT8UvXNtw93Dufo/WWQJNDAH8UgDDtYRNrsJy5xNDAbVdq8J1KiyL3ha/cGXTybi/YxgQwHT9huKlkYAre1wd5QI0c90Kf95q3dBH/JK5nTKCp4aBtlgCTdvsCghXE2Z7b4tfaFb1Z+529WdQ/IJ7PxJjBpjWvLl7Z1TYEAGuwqwvtH8NWx7tcl/8wtoOJuP+kWFAANO1m4dw7NHASMDKZsXiWd+poYBormXD8u15cc1z7MUvXbuelQF8yzDQBkugaeuGYSR+YS3hXF87PENkqj+Tt6o/o+IXVjPYPZyPDANtMANMWwFs9hdWE87yfVDeZB8ZCoj+2haWQ4dl0SvPBotfOswsMK0wA0wbNwgj8QsrCZvs7IhfSEP5ZzWcF7xTrLhBlvil48wCI4DpDLv/wacdVfHrbF9IK4JPqgg+Er/gnpD4WAJNo+z8DJ9kyTNkfs0Tv/AWO0LTKDPANM03ffBhs8KSZ8hG9Wf5dvVnW/yCe0MEMF3i2V/4qGmx2OXZkmfIK4JPqgieil+4lGeBadRnhoAGfWUI4FJPy5vkB4YBso3g8GjDzv/4z//lkzJ+7xsRuPQe8cgw0ATPANOIN3fvDMu3l0YC3uJ5X+iYaqbLXhjwvp3JuD81DNTNEmia4vkOeD9+Pe8LHVNt9nO7+h0AuFdEAJObavZ3aCTgJ+GZwFue94XORvDyuWC/A+Bnw93DuftFBDBZ+NoQwE+Oi8XMr9kf6HYEz4rFecFTowHuGWmOZ4Cp1Zu7dwbl22sjAeeOyvA9MAzARbuH8/BM8MhIwLlb1RdEUAszwNTN8xyw8ED8Apcpb/bD74bHRgLcO1I/M8DU5s3dO1vl2w9GAooDm10Bn2KHaPiJWWBqYwaYOjnrkK4Lz/neE7/AKqodog8KO0TDyBBQFzPA1KKa/Q3P/m4ZDTocvzt2egbWtXs43y7fXrqG0vFraJgF9mUQG2cGmLrsu3AjfsUvsL7qmKSdwkww3bVV3UuCACYZNjBA/AKIYHAviQAmb2/u3gnf2A2MBB10In4BEQwbMdg9nJsFRgCTBIeYI34BRDC4pyQ6NsFio97cvTMoFptfQRfj1w0qUIvdw3m4vj4vX9tGg45xJBIb9ZkhYMM8r9EhN375++IP/uT/udL/7e/f/FHxN//vH4hfgBWEACgj+F75l68Km0zSvXvLA8PAxu5fDQGb4uij9Hz2d+Y/hexn//XPIRuiNvzPlm5+/tfnryb8/z/+4flrKURyiOWl//Tvfw7n//Rv++IX6BRHJNFBjkRis/e/hoANcvRRJJYzsxfDdhm778ZtbC6L7d6f/vjR/5uLkbyM4mUo1zjTHC7EB+IXaFJ4JriM4B0RTIcsj0Q6MhRs5D7ZELApb+7eCbO/AyPRbOT+QRm4N0PoVoG7fOdtP4Vx+f7708Us8zXi2FFHQKvMBNMxs8m4f8swIICJKX6H1YWYGkP3Dz7/68V75LO4KVnOEv/+35evEMXh/eNhLH4BEQzN2ykjeGoYuC5LoNmUrwzB9d2sAjcsWw4zuU0+e9vlLxjCWL87c758FjnMGIfl1CGMy/8sfoFoXFgO/cpo0JF7TQHM9e/9DAHXVW1+9YORWD+8wkxu71eL+DKrm4QQwCF+v68uwie9vTPPAAOtKiN4VL49MxJ0wBc2w0IAE0MA3y/fnhiJjwszuSF0Q/AulzSThZOLUVwG8cyQACIYavGgDOCnhgEBTNsBbPOrDwRv2L24F2Z3w0ZVljJ3RQjgqSAGWojgR8XizFTI9hprMywEMG3H77Cw+dVPwbuc4V0+vwuCGGg4gsMs8MhIkDGbYSGAaTWAO32hDaH7h3/64+IZXkuaWc1JFcTflTHsAg7UEcHhi+mhkSBTR2UAHxgGBDBtxG/nNr8Km1T1/psff4pem1ZxTafLGC5fxzbUAjYUwOH6HCJ422iQKZthIYBpJYBHRQc23Fg+y/uLv/cfzfJStzA7/G0VwzPDAVwjggfF4ngkZwSTI5thIYBpJYDDhTXLb5dD6IbgtbSZlmN4OTPs3GHgKhG8XTgjmEyvkWUA3zYMCGCajN/sLqrL6A2zvTawIjKzYjEzfGRmGFgzgkeF45HI0+0ygn1BjACmsQAO5/7eT/3fw/JmEmSZNLBuBNsZmhw9LQP4gWFAANNUAIfNr5J8rmi5kdUv/v5iiTMkbHohhm0GAnwsgu0MTW5OywD+wjAggGkifvfLt+ep/XOHmd6we/Mf/r3/6IdIdjcBIYJDDDtaCfhAAIcvrV8XNsUiL/fKCD42DKzjpiHgCn6TzAf8878u/ui//6vi83/2l0X/H74Wv+Qq3NCOytfLsxe91+XrUfkaGBZgqToyZsdI4J6UrjMDzFpSOft3+VxveIcOW84K+3YcOLd7OA/7dzwxEmTEmcCsxQww69qP9R8sPNt7cbZX/ML5n9fn1azw/fJl6SN0XHV2qi/FcG+KAIYVRbfUJOze/F/8D/+22Hrwr4pf/oO/coQRvG9QLGZ8figj+Fn52jYk0GkHxeJ4NXBvSudYAs3KYlv+HJ7ntZMzXNm0WCyPPjIU0D27h/PwRdgrI0Embk3G/ZlhYBVmgFnHqO1/gLDM+Rd3/sP5Mucw6yt+4cqG5euZ5dHQTWUshDPFnaFKLiyDZvWeMASs6s3dO+Gb4laWToZlzWG29xd/9h/OIxjYuLCByDfl66kzhaE7dg/nz8UDGTiZjPu3DQMCmE3G76BYnB/YePiGja0cXwSNOipfj8sQnhkKyD6AnQ9MLiyDZrW+MASsqNFvh0P4hiXOYamz+IXGjcINcbVh1sBwQL6q42PuGQncqyKA4W1fNfE3Cc/0hiOMhC8IYaCxCJ6Wb0+NBO5V6QJLoPmkJpY/h6OM/tbev7OpFcTtqLA0GrJULYUOe30MjAYJswyaTzIDzCpqW1KyXOr8x//kX4tfiN+oMCMMWaqWQh8YCdyzIoChhiUlnvEFIQxEF8HTwlJo3LOSOUug+ag3d++EJVE/bOwD98vfny91Fr2QlceF45MgC5ZCkwHLoPkoM8B8ykaWkoTwDccZff5PzfhChh4WixnhR+XLUSqQMEuhycDQECCAuY7fXPe/IARvCN9f/oO/Og9hIEtbVQi/KiN4ZDgg6QieFpZC0+F7V/JmCTQfdN3lz2FTq7DcOezwDHTOSfl60Ns7mxoKSI+l0CTui2o1A7zHDDAfM7zSh+rzvz4/y/e//Mf/p/iF7touXy/PXvSe2ygL0lPFwwMjQaLsBo0A5krWWkLy03O+/+wvi96f/mj0gOVNyCvPB0OSEXxcvh0bCRL0pSFAAHPVG9eVhOANZ/mG53wB3nHx+WDfykNawiywpaRkew9L93gGmEu9uXtnWL69/NT/3vI83/C8L8CKpuXroLd3NjMUEL/dw/mjYvElFqRkp9rQDd7uF0PAB3xy+fNyubP4BdY0LKpl0YYC4ldGRPizOjMS5HYviwCGd29QLxWCN4Sv5c7ANZwviy4jOJwfPDQcED1nA5PNvSzdZgk073lz986gfHv93ofll78/P9YonOsLsGHhzNHHvb0zzxpCpHYP5y9FBYm5NRn3Z4aBi8wAc5n3Lm5hk6vP/+lfil+gLvcLm2RB7MwCk/w9LQhgLvPTMxNh1jec6Rte4a8BajQoX8+rs4MdmQSRqWbSnhoJUrynBQHMxwzD/7Oc9XWmL9CwMAv82mwwROlx4VgkErunBQHMB4Xjj2788vdbZn2BloUZYLPBEJnJuB/i9xsjQSrXkt3DuQhGAPNhf3T33/3GrC8QkeVssBsYiEdYBj0zDCTCMmjeYhdozlUzLE/K18hoABHfdNspGiKwezgP9wvPjASpXD8m4/4Dw4AAZhm/2+Xb82KxAQ1AzE7K10EZwSeGAlqP4NfuHUjt+lGGsOtHx1kCLX4flW+vXMCARIQv7MJxSfcNBbTusSEgtevH7uHc9aPjzAB3N3xD8IalS0OjASRqWr7uWRIN7TELTKKOi8VssOtHB5kB7mb8hk1lXolfIHHhd5gNsqBdZoFJ0fkGi3aIFsB0I37DRlfheV/HigA5CL/LXlaPcwANm4z7R4UdoUn4+lFGsOtHx1gC3Z3wHVThu200gExNC0uioXF2hCaX64cl0QKYfOJ3v7owmfUFcndaRfDUUECjEexZYLK4fpQR7PqROUug84/fR4Ulz0B3WBIN7fAsMFlcP+wSnT8zwPmG71YVvkOjAXTU+S6flkRDM8wCk9v1w5LoPJkBzjN+z885E79Ax4XHP15WvxOB+pkFJqvrx+7h3PVDAJNA/I7CH9jCN7AAwXYVwfuGAmoXZs3MmJHV9aOMYNcPAUzE8RuOOLLZFcDbzh8J8Vww1KtaLvqNkSC364fngvPiGeA8wnerCl/fUAF83FH5euC5YKhHGQqD8u21kSDH68dk3D8wDAKY9uM3XGic7wuwupPytSOCobYIDl/Kj4wEuV4/bI6VNkug047f5WZX4hdgdeF35mubY0FtLIMm5+vHK5tjCWDaid9RsdjsyvO+AOtbnhfs0RHYsMm4H2bJpkaCTA2KxeZYQ0MhgGkufsOD+Da7Arh+BD+vvlAENutbQ0Dm148Qwa4fCfIMcHrx67kagM076u2d2dwENqiMgx8KX9aTv6eTcf+BYUiHGeB0wndL/ALUZlT9jgU258gQ0AH3q43fSIQZ4ETit1g87+uBe4B62SEaNsSRSHTMtHzds0N0/MwAi18AfhZ+176sfvcC11CGwKywGRbdMSwWzwW7fghgrhG/50d1iF+AViLY7164Ppth0bnrR7X6gUhZAh13/DrmCKA9YRlbWA59Yijg6myGRVevH9WRYETGDLD4BeByy7OCzQTD9RwbArp4/dg9nLt+CGBWiN998QsggiEj3xgCRDACmMvid1S+PRe/AFFG8L6hgPVVy0BnRgIRjADm3fh1hhhAvDcxz6vf1cD6LIOmy9ePV2UEu34IYMQvQHKeiWC4Esug6fz1QwQLYMQvgAiGDqjOBLYjLiJYBAtg8St+AUQwdIIzgUEEC2DxC4AIhk7wHDCIYAEsfgEQwZA/y6BBBAtg8QtAHhE8NAywku8MAbwVwY5IEsBZx++++AXIUjgiyU0MfJpl0PA25wQ37IYhaCx+wwf7ZbE4CwyA/JyWr53e3pklnvAR5c3+6/JtYCTg7evHZNx3/WiAGWDxC8BmhN/xL80EwyeZBYZLrh9mggWw+AUg1QgeGAr4oO8NAXwwgl0/amYJdL3xGz7Ir8UvQOeEZWxhOfSpoYD3lTf5P7g/gg9fPybjvutHTcwA1xu/Zn4Buul89U91LQDeNzUE8OHrx+7h3PVDACcZv9bxA3T7Jua5YYBLOQ4JXD8EcEaeiF8ASsOzFz3H38H7poYAPn792D2cu34I4PhVNzojIwFAZVReG54YBvjZZNyflW8zIwEfv36UEez6IYCjjt+R+AXgEverawTws6khgE9fP8oIdv0QwNHGr2UKAHzIs/JaMTQM8BPPAcOK148ygl0/BHBU8Rue97U8AYBPeV5dMwAzwLDW9aOMYNePDXAO8PXj11m/AKxjVr5uOyMYzs8DflXYOBTWun44I/h6zABfP36d9QvAOgbVtQMwCwyuHwI4KY47AuAqth2PBOd+awhgveuH45EEcCvKG5dHhR2fAbi6cDzSfcNAx00NAax//Sgj2PXjijwDfLX43S/fnhsJADZgp7d3JgLorPJGPuylMjASsP71YzLuu36syQzw+vEbljxbdgDAptgZmq47MQRwteuHnaEFcN3xu1XFr02vANiU82tLdY2BLvIcMFzj+lFGsOuHAK5NiF/fsgCwac6Tp8umhgBcPwRwZKpNr/aNBAA1sSkWXWUJNFzz+mFTrNXZBGu1+B0WztwCoBm3e3tngoBOsREWbIRNsVZgBvjT8Rt+GdvxGYCmvPQ8MB3kSx+4vueeBxbAG/kgFTa9AqA5x729s1PDQMfYCAuub6swcSeAr+PsRS88UG7TKwCaclTG74FhoIOmhgA2Yrh7OH9kGATwVeI3bHjlYXIAxC/Ub2YIYGMelhE8NAyXswnW5fEblg+EzRgsfQZA/EIDyhv2vzEKsDHhUZpbk3HfIzXvMAN8Oc/9AiB+oVlTQwAbE1rmmWEQwJ9Unfc7NBIAiF9o1MwQwEbtOx9YAH8qfsOGVw+NBADiFxr3O0MAG/ekjGCb+grgS+PXtuEAiF9oz9QQQC0shRbAlwozvwPDAID4hVbYrAfqsb17OH9iGBbsAl2cz/4Oy7eXRgIA8QvtsRM01GpnMu5Puz4InZ8BtvQZAPEL0ZgZAqjNs93DeedPurEEerEm3pFHAIhfEMCQs0Fhw99uB/DZi95++bbvzwIA4hcEMHTA/d3D+VAAdzN+HQ4NgPiFuDgKCerX6aXQXZ4BtvQZAPELcZkZAqjdoOjwUuhOBrClzwCIXxDA0GGdXQrduQCulj47BwsA8QtAl3VyKXQXZ4DDdP/A5x0A8QtxcUYpNGpQdHApdKcC+OxFb1i+3fdZB0D8AsD5UuhtAZwvS58BEL8Qt1NDAI3q1Mk4nQngsxe9R+Xbts83AOIXonZiCKBR27uH886sku1EAJfxOyjfvvbZBkD8AsB7HpYRPBDA+QhLn535C4D4hfhZAg3N68xJOdkHcLXxlTN/ARC/kIbfGgJoxX4XzgbuwgzwM59lAMQvAGinrAO42vhq4HMMgPgFgE8a7B7OHwngNOM3hK+NrwAQvwCwuq/LCM52/6ScZ4AfFja+AkD8QmqmhgBalfWGWFkGcLXx1chnFwDxCwBrG+0ezrcFcDoe+swCIH4B4MqynAXOLoDPXvRG5dvQ5xUA8QsAVzbcPZxnd5xsjjPAZn8BEL8AcH3ZzQJnFcCOPQJA/ALAxoRjke4L4DjjN+xW5tgjAMQvAGzOw5yORcppBjh8M+HYIwDELwBszlbVWgI4FmcveoPC7C8A4hcA6vB1LrPAucwAh42vzP4CIH4hfTNDANHZKjLZbPhG6v8C1ezva59JAMQv5GH3cP43RgGidGsy7s9S/hfIYQbYsUcAiF8A0F55B3A1+zvyOQRA/AJA7Ua7h/OBAG6P2V8AxC8AaLC8A9jsLwDiFwAal/QscMozwGZ/ARC/AKDF8g5gs78AiF8AaE2ys8CpzgCb/QVA/AKAJss7gM3+AiB+AaB1Sc4CpzgD/LXPGgDiFwDaj2ABXKOzF72twuwvAOIXAGLw9e7hfEsA1+d++dryOQNA/AJA67aqRhPANbH8GQDxCwDx+EoA1+DsRW9UmP0FQPwCQEwGu4fzkQDePEcfASB+AUCr5R3AZy96w/Jt4HMFgPgFgOiEWeChAN4cs78AiF8AiFcS+zVFH8BnL3qD8m3o8wSA+AWAaO3vHs4HAvj6zP4CIH4BIH7RzwJHHcBnL3ph1+d9nyMAxC8ARG+0eziP+uSezyIfwBC/jj6COEyr95Py9WP5Oq3+eum0jJKTj/0XnL3obb/zZ3r5nz+v/joYGmrEL3TbZNy/cfE/lzfUrh+QhuUE5lGs/4A3Yh698mb5dWH3Z2gjdEPI/q56PymD47ThP/tb1Q1NeP2qendjg/gFPqqaeXL9gHadTMb92wJ4/Rvg8Mvqpc8P1GpWBe/3VeiexPwPW80gh9eX1Q3NwI9Q/AKsEMauH9CsnTKCpwJ4vRvdZ+XbyGcHagveaRkUs5T/ZS7sEh9uaDwyIX4BVg3ii9cPQQw1XLvLAI7y2h1lAFfLH3/wuYGNCLO635Wv49hneDfwuyN8u/9VFcNuZsQvwKpBvLx+hBjeNiKwEV+UEXwa2z9UrAF8v3x74jMDVzYrX99U0Tvr4gBUs8Nfi2HxC7BmDA+qa8fXrh9wLQ/KAH4qgFe7cX1V+PYN1hW+YTsO4Zv7TO8VfqdsX4hhy6TFL8CqMez6AVcX5WZY0QVwdaP6yucFVv/lUkXvkaH45O+X5db84WbGl2ziF2CdGB65fsDabpcRHNXETIwBbPMrWDESyte3ZShMDcWVftcMi8XzXn7fiF+AdULY9QNW97QM4AcC+OM3pWHzK0tM4HLLZc6Pu/psbw2/cwbl20M3MuIXYM0QXl4/LI+Gj9y7lgH8hQD+8I1ouAF95nMCl4Zv2NTqaRkIp4ZDCItfgGhCOMRv2MD1ayEMl7pXRvCxAL78BvR5sfgWDbgQBuXrgfAVwuIXIPoQfuL6Ae85LgP4ngB+/6bT2b/wzi+LKnxnhqK1EA4rUoZGQ/wCrBHCgyqETerAz6I5E/hmRIPilwQshJ3ydsoouCd+2xPGvnzthJ9FsThXGfEL8EnlTf6smu3aqa7pQEStF9MMsLN/6brwrVjY3OqpoYhP+TvqUeH5LvELsKbdw3l4Pvih6wcdN52M+zsC+Ocby0H59trngg4Ly50PPOcbfQSH31WWtYlfgHUjOMTvM9cPOu5WWCHR9j9ELEug/TKgq0Lw3quWO4vfyFXLosOytnvVzw7xC/BJ4dnHalm06wddFkXzxRLAX/k80EFh1vdWGQPHhiK5ED7/2VU/Q8QvwKoh7PpBl0XRfK0vgbb8mQ4K3/weCN88lL/DPNslfgHWtns4D7Nhz1w/6JjWl0HHMANs+TNdEnaDvC1+81FtWmanT/ELsJZqNvi26wcd03r7xRDAlj/TFU/LCLjtaKMsI/ikiuAjoyF+AdaI4HBkUohgJ0DQFa23X6tLoM9e9MKSjx98DsicJc8dUv5eGxWLJW2IX4CVWRJNh3wRNoZr62/e9gyw5c/kbla+dsRvd5Q/66NisaSt67t8il+ANVRLoneqewfIWasN2HYA/8bPn4wtn/f1bE/3Ijj8zG8V3X2uS/wCXC2Cz+8dCs8Fk7dWG7C1JdCWPyMAyF31ey4sZ9v32QdgHbuH83D9GBkJcjQZ91vr0DZngId+9GTqqQAgKD8Hp+XrXtGdzbHEL8DmAiH8PrU5FlmqnnnvXABb/kyOwmZXDwwD74RwuIl5LH4BWDOCwz2F363kqLUWNAMMm43fI8PAByL4UcY3MeIXoL4IPhLBZKi1FmwlgM9e9LbLt4GfO+KXjkVwjjcx4hdABMO6BruH8+3OBHBh9hfxiwgWvwCIYLqslSZsK4A9/4v4RQSLXwBEMN3VShM2HsDVsSBDP2/ELyI42ZsY8QsgguG6WmnCm135FwXxS6QRnNoRF+IXQATDRrRxHFIbAfylHzWJeyp+2WAEhyMuUvk8iV+AuCLYOcGkrvE2NAMM6weAc37ZdASHqJyKXwDWjOCUvkSFKNrwRpN/s+r53x/8nEnUSRkAtw0DNf5+fFm+tiP8xxO/ABHbPZy/ivT6Aav4YjLunzb1N2t6Bnjo50uiZuVrxzBQlzIwwy/+e+XrNLJ/NPELEL+d6l4FUtRoIzYdwJ7/JUXnYVIFCtQZwbMqgsUvACurZs9i/BIVomtEM8DwaQ/KCDgxDDQUwdPwmRO/AKwZwSeRXD8g6kZs7Blgz/+SqKc2vaIN5e/M5+Xbfkt/e/ELkKjdw/mT8u2+kSAxjT0H3OQM8NDPlcSciF9aFAJ0Jn4BWEe1M7SVa6SmsVZsMoDtTEdKls/SQCsubIolfgFYl+eBSU1jrdhkANsAi5Q8qDYkgjYjOHyD/1j8ArCOybgf7mGsYiMljbWiJdDwvuMyBI4MA5FE8KPybSp+AVgzgsO9zLGRIBGNtWIjAXz2oid+SUVYLiQEiM1BUd9SNvEL4PoBrds9nDeyDLqpGWDP/5LMhcJ5v8SmWo5fx1Jo8QuQsWpXXb/nScUwpwD+tZ8nCQhLny0VItYIflpsdim0+AXoRgSHexv3N6SgkWY0AwwL4RtSm0UQu019RsUvQPeuH1a4ETtLoKFB39j1mdhtaFdo8QvQMdWu0I+NBAK4KG7U/TeoNsB66edJxGZlENwyDKSg/J26Vb69Ll9b4heAdewezsP1Y2AkiNjOZNyf1vk3aGIG2OwvsRMEJKPapO0qS6HFLwCuA8Su9nZsIoBtgEXMpmUUTA0DiUXwUfl2In4BWEc1s+a+h5jV3o5mgOk6UUCqVp0FFr8AuPchFVnMAAtgYnVk4ytSVa1cmIpfANZRbYh1ZCQQwDU4e9ETv8TMbojk/BkWvwC4ByI5u4fzWhuy7hnggR8hkTL7S/I+MgssfgH4ILPARK7Whqw7gM0AEyvffJLrZ1n8AuBeiJQlPQP8pZ8fETL7SzbemQUWvwCsxCwwEat1J+i6A3jLz48I+caTHD/T4hcA90TkYFDnf/mNOv/Lz170/sbPj8iEc393DAMAwPmGQy/Lt6GRICaTcb+2Tq1tBtgO0ETKN50AAO6NiFidO0HXuQTa8mdiM6uelwQAoDifaQv3RjMjQWRqa8k6A3jo50ZkvjEEAADukYhebS1ZZwB/7udGZI4MAQCAeySiV1tL1hnAngEmql/svb2zU8MAAPC2ybh/KoKJTJLPAA/83IjId4YAAMC9EkmorSUFMF0QNr86NgwAAJebjPvhXmlmJBDAV3D2oid+iYn4BQBwz0RCdg/ntTRlXTPAApiYfGsIAADcM5EUAQxXEJY/nxgGAICPm4z74Z5pZiQQwAKYdFnKAwDg3gkBXGsAOwOYWHxvCAAA3DuRnFqasq4AdgYwMTi1+zMAwOqq3aBPjQQRqKUpbxpXMjY1BAAA7qGg7gA2A0wMLOEBAHAPRZqSmgHe8vMiAlNDAADgHook1dKUlkCTq1PHHwEArK86DslzwGRp4wF89qI3NKxEYGoIAADcS5Gu3cP5xtvSDDC5+q0hAABwLwUCmC6YGgIAAPdSUHcADw0rbevtnfmlDQBwRZNx370UMdh4W5oBJkc2vwIAcE8FAphOmBkCAAD3VNBEAP/KsNIymzYAALinIn0bb8s6Anjg50TLLNcBAHBPRfo23paWQJMjB7cDAFzfzBCQGwFMduwADQBwfZNx3wwwAhgiZ/YXAMC9FTQWwNuGlRb5phIAwL0Vedh4W9YRwFt+TgAAAMTWlpZAk5vvDQEAgHsrEMAAAAAIYAAAABDAkI6pIQAAcG8FAhgAAAABDAAAAAIYAAAABDAAAAAIYAAAABDAAAAAIIABAADotN3D+ZYABgAAIHuTcf9UAAMAAIAABgAAAAEMAACAAAYAAAABDKnYMgQAAIAApgu2DQEAwMYMDQECGAAAAAQwtOpzQwAA4N4KBDBdYAk0AIB7K2gsgGeGFQAAgNjaUgCTm6EhAABwb4UAbiqAAQAAIDoCmOycvegNjQIAwPXsHs7dUyGAIQEDQwAA4J4KmgjgE8OKX9YAAO6pILa2rCOAf/RzomVfGgIAAPdUJG/jbWkJNDkaGAIAAPdU0EQAnxpW2v5lffait2UYAACuZvdwviWAicDG29IzwORq2xAAALiXImlJPAMMMRgaAgAA91IggOkCmzYAALiXgnoDuLd3NjWsRGBoCAAA3EuRrsm4v/G2NANMts5e9PziBgBY0+7h3PO/ZKuuAJ4ZWiIggAEA1rdvCIhALU0pgMmZZ1cAANxDIYBrD2CIwdB5wAAAq6vO/x0aCXJVVwB/b2iJhCU8AACrE7/EopamNANM7izhAQBY3W8MATmrK4BPDC2RMAMMAODeifTU0pR1BfCpnxeR2Dp70fOLHADgE3YP5+Geyf4pxKKWpjQDTBdYygMA4J6JtKQzA9zbOzMDTEz27QYNAPDpeyZDQCwm435SM8C1FTtcwZZf6AAAH7Z7OB8Vlj8Tj9pass4ANgtMTL4yBAAAH2T5MzGprSXrDGBnAROT4dmL3sAwAAC8bfdwHu6RrJYjJmaAYQO+NgQAAO8ZGQIi82OKAewZYPxyBwCIn0fFiM00xQCe+bkRmXAmsAgGAKhUm18NjASRqa0lawvg3t6ZACZGDw0BAMBPPCJGdCbjfnoBXLEMmtgMzl70hoYBAOi63cN5uCfaNhJEptaGrDuAZ35+RMgsMACAeyLiVGtD1h3Av/XzI0JDs8AAQJdVs7/uh4hRrQ1pCTRd5RtPAMC9EMQn6SXQAphYmQUGADrJ7C8CuCZ2giZyvvkEANwDQUTq3AG69gCuTP0YiZRZYACgU8z+Erna27GJALYMmpg9MwQAQIc8MQRErPZ2bCKA7QRNzMK5wPcNAwCQu93D+ahw7i9x+10OATzzcyRyD8sI3jIMAEDG8Rvudcz+Erv0Z4B7e2dTP0ci54IAAOTuYXXPA9GajPu1t+PNhv5dPAdM7EY2xAIAcrR7OA/Lnj3yRewaacamAnjq50kCzAIDADmy6ScpaKQZmwpgG2GRgu2zF71HhgEAyMXu4Tzc29j4ihQ00oyWQMPbwoZYLhIAQA7xG+5pvjYSJCKfJdC9vbPwL3PqZ0oiLBMCAHK5p7HxFSk4nYz7WT0D3FjRwwaEpdCeBwYAkmXpM4lprBWbDODv/VxJyH27QgMAicZvuId5aCRISGOt2GQAT/1cSczzMoItGwIAUorfcO/icS5S01grNhbAvb0zAUxqwgXkpWEAABIS4ndgGEjJZNzPL4CbLnvYEM8DAwBJqJ773TcSJKbRvaKaDmDPAZOi8DzwyDAAABHHbwhfz/2SomnOAWwnaFL1xPnAAECk8RvuUTz3S6oanSRtNIB7e2fHfr4k6vx54DKCB4YCAIgofsM9yvPCeb+ka5ptALfxLwgbjmA7QwMAMcVv2LBzYDRI1Mlk3D/NPYA9B0zKtgs7QwMAcXhS3ZtAqr5r+m9oBhiuEMFnL3qeswEAWrN7OA/3IiMjQeIab8MbbfxblvHwQ+E5BdJ31Ns7OzAMAID4hbWdTsb9L5r+m95s6V926udNBkZmggGAhuP3ifglE600YVsB7DlgRDAAwHrxG8L3vpEgE600YVsB7DgkRDAAwOrxG2Z+3W+Qk1aa8EZb/7ZlMLwubNlOXjwTDADUEb+e+SU3s8m4f6uNv/HNFv+lzQKTm/OZYOcEAwDiF+JswTYD+Ds/d3KM4PL1UgQDANcM363y9Vz8kqnWWvBGm//WjkMiYyfl66C3d3ZiKACAdeO3fHtZvraNBhlq5fijpZst/8tbBk2uwgUrzAS7cAEA68RvuHd4JX7JWKsN2HYAWwZNzsK3t6/KCB4ZCgBghfjdLxYzvwOjQcZaPRK37QCe+vnTAc9sjgUAfCJ+H5Vv4Zlf9wvkrtUZ4Btt/9uXURD+oO/7HNAB4Xnge729s5mhAACq8N2qwndoNOhC/E7G/Xtt/gPcjGAQLIOmK86f6Tl70fOFDwAQ4jdE72vxS4e03n4xBLCNsOiS8295LYkGgM7H75Ni8byv+wG6pPX2uxHDKFgGTUfNisVRSVNDAQCdCd+wIuxZYZdnOhi/bS9/Dm5GMhiWQdNFg2JxVNITs8EA0In4fVQ44ojuiqL5YpkBDjf/P/hM0GGz8vWgt3fmkQAAyC98h+XbE+FLx30xGfdPBfDPEWwZNCyOBjuwUzQAZBG+W1X4jowGHRfF8ufgZkSDYhk0LHaBfH32ovfIsmgASDp+7xeLHZ7FL0TUejdiGpXyhj8sg3bTDwthiUhYFn1kKAAgmfANKxrDrO/AaMDinnYy7n8Ryz/MzcgGx/OP8LPwZVA4LinMCI8MBwBEHb7D8hWONXoufiHexostgL/1+YD3DIQwAEQfvuE1NCIQd+PdiG10wk1+4Vsz+JhZ+XpsaTQAtBq+Yanz16IXPn7fOhn3b8X0D/RZpN8QPPRZgQ8a/K//399+9mf/4nZ4vuib8nX0f/yj/2VmWACg9ugNjyftV/eqAyMCK7VdVGKcAQ6/TF77rMDlyvgt/uf/6/a7/+Oj8AumDOGpEQKAjYdvuD8Ns72jwoatsI5bk3F/JoA/HcGeoYDV4/ei8AsmfNNmVhgArhe9y9neEL7bRgTWNi3jdye2f6hYA3hUvj3zmYG14vddJ1UMH4thAFgren9TvQNXd1AG8JEAXj2CnQkMV4/fD8XwtIzhEyMKAD9F76BYrDwUvbA5UZ39e9FnEQ9a+Lbgvs8O4vfa8RtsV6/iz/7FP5yFEC5f31dBPDPKAHQoeLeq4P2yere8GeppuSjFPAM8KGyGhfjdRPx+yjKIf1uYIQYgv+Bdfgn8a8ELjYlu86voA7iKYJthIX7bcVK9flfF8akwBiCB0F3O7v6qWBxT5D4Smhfl5lepBPCosBkW4jcmp1UYLyP5x+qvZ9ULWNEf/5tvDQKsZ1C8ffbul9X7MnyBOES5+VUSAVxF8OvCQeOIX0AAA0Dsot38aulmAoPoDgHxCwAA8fsm9n/AFAL4qc8R4hcAAKJ3JICvqbd3dprCQIL4BQCgy/Eb687PSQVw5RufJ8QvAABotuwDuLd3FnabnfpMIX4BACA64eijJI7MvJnQoJoFRvwCAIBWyz+Ae3tnx4VzRhG/AAAQk9lk3D8WwPV47POF+AUAAI2WfQD39s6OCrPAiF8AAIjB6WTcPxLA9frW5wzxCwAArUtun6YUA/hp+Tr1WUP8AgBAa06rNhPAdertnYWBtiM04hcAANrzzWTcT25i8maig20WGPELAADtSHL2N9kANguM+AUAgNYkOfubbABXzAIjfgEAoFnJzv4mHcBmgRG/AADQuGRnf5MO4IpZYMQvAAA0I+nZ3+QD2Cww4hcAABqT9Oxv8gFcMQuM+AUAgHolP/ubRQCbBUb8AgBA7ZKf/c0igCtmgRG/AABQjyxmf7MJ4GoW+IHPJeIXAAA27nEOs7/ZBHAVwUfl28xnE/ELAAAbMyvj92ku/zI3M/vhmAVG/AIAwOY8zulfJqsA7u2dHZdvU59RxC8AAFzbdDLuHwnguD32OUX8AgCAtso+gHt7Z9Py7chnFfELAABXdjwZ96cCOA3hmwrHIiF+AQDgarLcXynLAO7tnc3Kt298ZhG/AACwtnDs0UwApyVs1T3z2UX8AgDAyk6rlspStgHc2zsLPzjHIiF+AQBgdQ8m4362j5PmPAPsWCTELwAArC67Y486FcAVs8CIXwAA0E75B3Bv7+ykyHgNO+IXAAA24Olk3D8RwHkIxyLNfKYRvwAA8J7Tqpmy14kAtiEW4hcAAD7oIOeNrzoXwFUEhw2xjn22Eb8AAPCTsPFVZzrpZsd+uGEW+NRnHPELAADnbXTQpX/hTgVwb+9sVnRkbTviFwAAPuGbybg/E8B5R3DYEfrEZ138AgBAh52U8fuoa//SNzv6wz7weRe/AADQYZ1sok4GcHU2sKXQ4hcAALrocRfO/L3MjS7/1M9e9F6Vb9s+/+IXoGl//G++NQgAtCEsfe7sjfHNjv/wLYUWvwAAoIEEcP4shRa/AADQIZ1d+rx0w2fAUmjxC9A8S6ABaFinlz4v3fQ5OBeWAZwaBvELAAAZN0/nCeDCUmjxCwAAWXvQ9aXPAvj9CH5avk2NhPgFAICMTMv4fWoYBPBl7hWWQotfAADIQ2gbS58F8OV6e2c+IOIXAABycTAZ92eGQQB/LIKPyzdLBMQvAACk7KiM32PDIIBXieAH5ZuHxMUvAACkKLTMA8MggNfhaCTxCwAAqTl/rHMy7msZAby66mgk35qIXwAASIkjjwTwlSP4qHw7MhLiFwAAEhCe+9UvAvhaPA8sfgEAIHZWsArg66uORnI+sPgFAIBYee5XAG80gmeF84HFLwAAxMlzvwJ44xEcztB6bCTELwAAROSp534FcF0R/Kh8mxoJ8QsAABGYlvHruV8BXKvwPPDMMIhfAABo0axqEwRwfWyKJX4BAKBl501i0ysB3FQEhwfMbYolfgEAoA02vRLAjUewTbHELwAANM2mVwK4tQh+VL758IlfAABowrFNrwRw28IH0PID8QsAAHXyGKYAbl+1KdZOYWdo8QsAAPU4bw6bXgngmCLYztDiFwAAxK8A7kQEnxTO4RK/AACwWQd2fBbAsUbwtLAuX/wCAMDm4vfYMAjgmCP4qFhsjIX4BQCAq3LckQBOJoKfFo5HEr8AAHA1R447EsCpRfCBCBa/AACwpnDWr8cqBXCyEeyBdfELAACrcNavAE7eTtcjWPwCAMBK8eu4IwGctuqM4M5GsPgFAADxK4BFsPgFAABCKxyIXwGcYwQfVB9w8QsAAJxPlJXxa98gAZxlBJ8vbcg9gsUvAACIXwFM9hEsfgEAQPwKYLKPYPELAADiVwCTfQSLXwAAEL8CmOwjWPwCAID4FcBkH8HiFwAAxK8AJvsIFr8AACB+BTDZR7D4BQAA8SuA2UQER/0HRPwCAID4FcBkH8HiFwAAPulE/ApgVo/g0xgjWPwCAID4FcDUGcFT8QsAAEnF76mhEMBcIYLLV4jgI/ELAABROxa/8fvMECQRwgdnL3rhL0fiFwD4z+zdMW7bZhiA4b9D1tY3KHOCJID3aOjeBF681T5B4hPEPkHcE4TZvBhQ9g7M7sE5QAH2Buqcpf9nUo5q2LHliBJFPg9AsFk/IIHefuRPoHfKHL6HxtB/NsBbFMH5diR+AQCgV07FrwCmmwg+zbe1/OUSvwAAcK/DHL9HxiCA6S6Cy3yLMu3s3QLxCwAA3xW/xV/n+C2NQgDTfQR39q1g8QsAAPfGbxx2NTUKAcwWR7D4BQCA74rf3k9941cAs5kIjs8kRbGW4hcAADoVv7l95mjL+QzSMEI4PpP0Jf/ne/ELAAArd5LD99gYtp8N8HAiOE6Ifp2WPBxL/AIAwJ3it/Wh+BXA9DOC40X8B78XLH4BAOBOdWoeeS6NQgDT3wieH441Fb8AAPAoVb5eOOxqeH4yguH6+teT43x7J34B+ufnvz8aAkA/nebwPTKGYbIBHrAnv32NAI5t8Ez8AgDAd8Vv5tfiVwCz3RFc5VsU76X4BQCAW129Rpjjd2oUApjtj+A6vhec4/fUNAAA4H/KNn697zsC3gEemd2zvVf59iFfO6YBsDneAQbYuHjk+cgpz+NiAzwyF/vn8VjH1SPRpgEAwEjNH3kWvyNjAzxiu2d7x+mWU6IB6J4NMMDGxGuBJzl+Z0YhgBlfBE9S80h0YRoAAhhgwCJ4Dx10NW4egR65i/3zKjWPRPuHAACAoYrfvE/FLzbAXNs92zvIt/fJAVkAnbMBBliL2PrG486+hsIVG2CuXeyfl6nZBlemAQDAlpsfdCV+uWYDzK12z/bepuaALNtggA7YAAN0Kra+x8bATTbA3Opi/zz+T5ltMAAA2yS2vi/EL3exAeZetsEAq2cDDLBytr7cywaYe9kGAwDQY/Eb1daXB7EBZilOigZYDRtggB/mhGeWZgPMUtqTop/mqzQNAAA2JL7n+0L8siwbYB5t92xvkm8f8lWYBsBybIABHqXO11EO36lRIIDZVAgf59ub5LFoAAEM0J2TfJ3m+J0ZBQKYTUdwkZp3g1+ZBoAABlihKl+HOXxro0AA07cQniSPRQMIYIAfF8HrcWcEMFsRwr4dDCCAAR4jHnH+M3ncGQHMlkXwThvBb00DQAADPECZmk8b1UaBAGZbQ7hIzWPRE9MAEMAAt6ja8K2MAgHMUEI4AvidEAYQwACtOjUHXAlfBDCDDeGDNoQL0wAEMMBowzc2vqVRIIARwgACGGCIrg64yuF7bBQIYMYawk6MBgQwwAjCNznZGQEM1ydGRwi/EcKAAAYQviCAEcIAAhhA+IIAZoAxfJC8IwwIYADhCwIYIQwggAF6os7XSb6mwhcBDKsJ4VepeTR6YhqAAAbohcvUnOpcGgUCGLoJ4QjgP/J1YBqAAAbYiCo13/GtjAIBDOsJ4SI1G+EIYQdmAQIYoFvxaPO0Dd/aOBDAsJkQjviNx6O9JwwIYIDVi9iNg61K7/cigKFfMTxJHo8GBDDAKsS292OO3qlRIICh3yFctBEcMVyYCCCAAR6kjuhNzba3Ng4EMGxfDMfj0b8nW2FAAAPcxbYXAQwDC+Gd9G0r/NxEAAEMjFydmnd7p7a9CGAYdgw/b0M4tsOFiQACGBiJOMSqTM2299I4EMAwvhieLMSwzykBAhgYYvTGo82fPOKMAAYWY3j+vrAYBgQwIHpBAIMYBhDAgOgFAQxDjeHJQgwXJgIIYKAn6jZ6P4teEMDQRQzHAVrzIJ6YCCCAgTWLw6s+peb0ZgdZgQCGtcXwzo0YLkwFEMDAitX5qvL1uY3emZGAAIY+BPF8O/yyvXt3GBDAwLJmC8Fb2fKCAAZBDAhgQPACAhi2IIifJY9MgwAGxqpug/eL4AUBDGMK4vk7xBHGL9u7LTEIYGA4Yrsbgfu5vVfe4QUBDHyL4qIN4bietffCZEAAA71Xt9c8di9z7NbGAgIYWD6MJ20M/7oQxcIYBDCwfvOtblz/LMSuzS4IYGANYbyzEMeFOAYBDKwscuuFyJ3lyK2MBgQw0M84nr9TPA/iX9pQTsn7xiCAQdym9v5v+vb48syhVCCAgWGH8mThjzfD+NkdoTwxORDAsEGXbcjeDNsvd4Rusr0FAAAAAAAAAAAAAAAAAAAAAAAAAAAAAAAAAAAAAAAAAAAAAAAAAAAAAAAAAAAAAAAAAAAAAAAAAAAAAAAAAAAAAAAAAAAAAAAAAAAAAAAAAAAAAAAAAAAAAAAAAAAAAAAAAAAAAAAAAAAAAAAAAAAAAAAAAAAAAAAAAAAAAAAAAAAAAAAAAAAAAAAAAAAAAAAAAAAAAAAAAAAAAAAAAAAAAAAAAAAAAAAAAAAAAAAAAAAAAAAAAAAAAAAAAAAAAAAAAAAAAAAAAAAAAAAAAAAAAAAAAAAAAAAAAAAAAAAAAAAAAAAAAAAAAAAAAAAAAAAAAAAAAAAAAAAAAAAAAAAAAAAAAAAAAAAAAAAAAAAAAAAAAAAAAAAAAAAAAAAAAAAAAAAAAAAAAAAAAAAAAAAAAAAAAAAAAAAAAAAAAAAAAAAAAAAAAAAAAAAAAAAAAAAAAAAAAAAAAAAAAAAAAAAAAAAAAAAAAAAAAAAAAAAAAAAAAAAAAAAAAAAAAAAAAAAAAAAAAAAAAAAAAAAAAAAAAAAAAAAAAAAAAAAAAAAAAAAAAAAAAAAAAAAAAAAAAAAAAAAAAAAAAAAAAAAAAACgD/4TYAAnDavGSk7cvwAAAABJRU5ErkJggg==;clipPath=inset(10% 2% 12.67% 1.67%);" vertex="1" parent="1">
                    <mxGeometry x="508" y="313.45" width="200" height="160.55363321799308" as="geometry"/>
                </mxCell>
                <mxCell id="3" value="" style="shape=image;verticalLabelPosition=bottom;labelBackgroundColor=default;verticalAlign=top;aspect=fixed;imageAspect=0;image=data:image/webp,UklGRqwYAABXRUJQVlA4WAoAAAAYAAAA/wAA/wAAQUxQSF4NAAAB8IZtu2nL8f/dY4xZqdoxK3bbtm27K42obdsdJ20FH8U+PrHbjnGk4xRipzjHGPf1orSx1hxvI2ICNBZD6rTqbqNHv2ze53582MkXXHLdwvuWLC/Oy5fct/C6Sy44+bAffW7eKx63SadVpxTUhrELWnnOI1/3mV+cfvX9K5ja/oGrTv/F59/wyDlaOXRx4IUuSNI6j9lt39NvWcGqXXKfc6m1evW11pJzn4tZ9Yr5Zx0w7/FzJCl0YajFJEnrP/fzx9/Qs7JzX6pXy9p7tbX02aycbz7+C89fX5JSHF4pSQpP+MTxi1i59KXaxmbqbWzX0hdWXnjcJx8fJKU0pGKSNOfl+12cAXKuXpnpbWzXnAHypfu/fEJSisMoJElzXvurGwFyrjY2M9PGrjkD3Pyr10xISmHwxCjp+YfcCLgvNjYz28Yu2cCNBz9fUkyDJkna8fP/BGquNmY0GrvmCvz7CztISkMlJEkv+7+HwLnaNqPUtms2PHTkKySlMEBCkjbY459ALrbN6DV2ycA/9thASmFghCRt851boWYbm9FsY+cK87+9jZTCgAhJ2vmQ+yAX22aU23bJcN/BO0spDISQpF1/vhhyNTaj3sY1w+Kf7SylMASStPWBSyBXY8ajcc2w+ICtpTT2krT+t+6DbGzGp40z3PuN9aQ41kKSPnwTZGMzXm1qhps+KKUwvpL0/L9ArtiMX5ua4U/Pk9KYikFbHAq5YjOebUqG326uEMdRJ334DlyMzbi2cTa3f1Dqxk4M2vUs6I3NOLdxD2fsohDHSyd98mFyxWbc29TCwx+XujESonY4C7KxGf82znDG9ophXCRp3v3kis0wtKmZe98jpfHQac6hkMFmKNo4w29nqxsDIerJV1MqNkPSphaueIJSGHVR+tByemMzLG3cs3Q3KY62JP0CMjbD0ybDT6Q0yjrNvYhSsRmiNrVw/mbqRlfSU2+lNzbD1MY9Nz1J3YgKUW9ZRg9muBp6lrxBMYyiIH0aMjZD1ibDx6QweqK0DxRshq1NgR9IcdRE6QhqxWbo2tTKb6Q4WqJ0ItnYDF8bZ46R4ihJ6s6hN2YYG2dOj4qjI2n2BfTGDGXjnnM6xVERNfsP9GCGs3HP+Z3iaIjqLqAHM6QNPedExVEQFc6hBzOsDT2nSXHmBekkejBD27jnGCnMtCAdQW/M8DbO/FYzPmpfsjFD3DjzPcWZlfRpijHD3LjyUXUzqdNboWKGuqnwOnUzJ+lpyyiY4W4Ki5+oNFOi5t5KxoPOZG7cVHFmBOkiemyGvE3POVKYEVG/oMdm2Nv0HKQ0Ezp9mGLM0DeuvE/d9Et68goqZvibypLHKk23oDlXkzEtaDKXdgrTLOowetwIpucXStOr0zyKbdrQduUd6qZT1I73UzGtaAp3ba04jYLOJmPa0fScqjB9On2KjJvCzuylbrpEPWIxFdOSpvLADorTJOhsMqYtTeZUhemRtDvZbg678F6l6RA0904qpjVNZcEmCtMg6TB6THuanp8rTV3SC7DdJDY8U3HKpL9QMC1qMhdqypN2J9u0qV14r9LUBK1/M5VmofCfOZrapG+TMa1qMl9Smoqgbe6jumFcuXNzhSlIOpiMaVeT+aHS5AXtugSblnHl/u0UJi3pF2SaBpPZX2mygnZZjE3bunL/tgqTlHQImeYh82OlyQna5n6qaV1X7txcYVKSvkt2AznzZaXJCNpwPpUWrtwwR5OZtBfZbiC78H6lSZD+RaGFTeFPmsSkl1PtFsI2z1dcq6ijyM2UOXTtgnZ8GJs2duXerRTWIumL5HZy5uNKayH9m0I7F/6ktYx6AbabyYanK65R0iHkpsr8SGmNNHEjlZauXN1pTZNeS7UbyjYvUVyjX5NNSztzoNIaaOImaltRuWaWVh/1Cuy2ss3zFFeTtD+9aWtnvqu0GoVLKbR24S9abdATC3Zj2SzbVWEVnT5FNq3twu5Kqwg6nkx7Z/5LcRVafxHVzeXKDbO1ctTzwQ1m6lMUJXX6Itm0tzMfUycp6AQyLZ75b0VJmn0T1Q3mylVJUtDjM24ys2wnBSXtRjEt7srblZS0P32j9XxXnaQzKW1G5gQFaWI+tc1cuXaWpEeuwLS5WbKtgt6A242XKurz5GbLfESdfklPq/fsr6TTKW40Z45T6K6mNlvhH0EbP4Bp9crt6+qxKxrOLN1eL8ct5+doHqXhKm/V58gNV9hLP6ZvuJ6v6zByu9FzsE5uOWcO14UUWu4EXUJtNwrn6rrG+4sWNt7F8T7ccJVrZi1pvBtnL2+8m+eUxlsw4cZbNFEab/7E8sa7ec6Sxrth9r2Nd/WsBdSGK1wcr2u8P+vixjtHF1DazZnjdRLZLXeYDiXT7j0H6of0bjb3fFWfJTdcYU+9n9pwlTfrZbjhqM/So1fQcku31Ub3U5utsmhC3ZVUN5oLf5X0/+RWI3O0gn5OT6O7Zx91+gzZrVbYQ0mvw80GL1TUritot8VbKWjOLVQ3mStXJUk6jUybZ45RUNK+9G4y93xTnZLeR2m0ypuUFPSYHrvBbJZsryBpnRuoTVa4LEpS0LFkWjxzqKKkTp8ju8Fc2FOdpKjngN1cNvnxClp5vQXUBqtcO0urDDqaTHtnfqe4ik4fI7u17MI8pVUEPbbHbi6W7KCwCkn/otDahYu0+qR96N1YznxdaTVRL8F2U9nwDMXVSLOvp7YVhcui1jDpZ+S2cubHSmv0SqrdULZ5ruIaSLOvo9LShUuD1jjpALLdTHbm20prFPUc3FTkJyiukaS/UWjnwvkKWvOkz5DtRrILuyutRdC2D9BOlTs2U1gLRf032W4iO/NzJa3di3EzwTMU10rSXym4gUzmPAWtfdIHyW4iF96uNAnSujdRaeHC1Z0mNelrZLt57MwnlSYlaO7d1AaqzN9QYVKUtB8ZN47JfFNJkxu0w4PU5qncuYXCJCnpIDJuGpP5rpImO2iHB6l2w9iVO7dQmDQl7UOmach8XUmTH7TFXVS7WUxl/oYKU6Ckr5BpmczHlTS1E9dRcKOYwmVRU5z0foqbxYU3K02RpAvJuElM5jQFTXXUs8B2g9imf7zilCnp5/Q0CT37KGnqgzZZQMXNYQrXraswDZT0PortxrBdeKOSpmXQqWSag54jFTU9o3a4n4qbwlTumKswTdRpL7LthrBdeK86TdugU+hpCnqOVNT0jdrqLgpuBlOYv4nCNFLS26i2G8HYvFpJ0zrpZ/TYTWDT82MlTe+g7mIyjUDmT5r+SY9+mIobwBTu2VFx2qnTu6nGg8/YvEGdZmDS/vTYA8925ttKmolBOpMee9DZ9JygmRq10XVk7AFnk7l8QnGGKOmxD1EYcDaFu3dW0ozt9GqoeLhR8AvVaQZ32p1a8UAz1bxXnWZ00rcoxoPMuPB5Jc3woJ+TjQeYcWZfRc08/S+98eAyzvxGCjNOQTqF3nhgGfccJQWNwCidTm88qIx7TpCiRmJUOIveeEAZ95wsRY3IqHAavfFgMs6cIEWNzCidTDYeRjbOHCVFjdAo/Q+lYg8gm1r4jRQ1UqP0M1yxB49NMftKUSM2SN+Agj1wbAp8XgoauSFod8jYg8YmU9+jGDSKk175ID14wBj33P1CJY3oTo+5lt7YA8XGmSt2UaeR3WnD06kFe5DYFHPihDqN8CTtAxl7gBgyfFtKGulResdD9MYeGDbuufeNUtSoT3rkv6gFe1DYFPOnnZQ0BjvFQ6A39mCwcQ8/ljqNxSi9+XZKxR4INrUw/9VS1JgMSXNPgGzsAWDjHo7cVEljNEkfuodSsMeeTSnc8T4paazGoG1OgN7YY83GPRw5VzFo3HbSO26GbOyxZeMM179ZShrDMWrDgyqlgD2WbCiFft/1FIPGc5Kecg7kij2GbGqG058gJY3tkKR3XAW5Yo8Zm5rh8jdLKWicx6BZn10EuWKPEZuaYcEnkkLUuE/SJt+9F3I19liwcc1w1zc2lJKGYJK2+tG9kIttjzzbLhnu+t5cKWkghiRt/b2FUIptjzTbLgUWfmuulIKGY0jSxp/7DzhXY48oG9dsuOZTG0spaFiGJK3zrouAXGw8goxdCnD+OzopBQ3PkCQ969d3AbnYeKQYu2Tgzl88U1IKGqhJ0ty9LqzgXG08IoxdsqFcsMdmUkgasjFJesr3rgDIxcaeYTZ2yQCXffeJklLU0A1JUnzBvlcClFxt7BliY9dcAK7Y53lRUgoaxDFJSs/+1h+WApRcbeNpZmzXXACW/OGbz4ySUtSAjkmSdt7t0OsLQO1z9SqngVdZc18ByrWH7bajJKWowR2TJK3zxL2PuHwpqyx9LtUrY6+VjVeuJfeFVS69/NC9nzhLklLUQA8pSlLc4a3fPvaaxay2lr7PuZRSV19KybnvS2W1i6869ltv3jFKUkxBwz50USt3W71o732O+vvtSytTWZcu+utx++3x4m2SVo5dUBuG1AWtMqy7zTPfstfXDjr8hHP/cvE1N96yYNH8m2+85uI/n3P8YQd+dc83P2f7Ca06dCmoMUPsuqA1jrNmz5lYd2LO7FlRaxxSikFjFFZQOCBmCgAAcDoAnQEqAAEAAT5tNpZHpj+ioah1uSPwDYlN2yzOb+oT/neWyVxG9/xn5R+OZk3vX5RfmR0y23/h3+m8/Qjf0s+NP5v996gv8O/wX+3/svwAfwr+u/rd1n/MB+z3rMf5X1P/57/U+wN/hv9V1gvoAfuB6dPsp/2T/uemHqqHmX/H9slfHvgyu2FGlWaFITAWMB47gY6uJXKsv2M+kWnyf/WeoaIN67a3E9jVZcNq0acIRALiOExcRoiLG4LWjTg/siPVxQLaVWZ5z+KjJon8UNSABEQoNSLr0/JaEdYAINt9qI82jJn4ZslJVkSlTaVMQJX/+pfz/2uPZOrb+99OA9sf040rwvdjazsd6itQ0F/9fr+Ml5oeq1LyplOtYtIQ8lZh5t3c2rjoQO8DvwEMvZ3vvekUWVAp7SKs/xMQNQeVcpjgKyNEhmKn3qPCjowgRVbnUPdGhpTu2pmB/XJ6mpBYkjNtPVddsewcE97eCcUESbW54G8t0IU1mOV/1xol1+Woc3QOOTx0Cv2kCJxbDZLz+nV/oxGLAAPHbIzleLkeC5sVmjJykjOqEnawqN66ZvPcCX+G7r9wgYz5rV2B2Kd4CexO4nWj2YgYeu9Oa6kZjCeCuHyiH21tLPwA/f9tB/H6Qt4bUpf5KAVL2xi1C0P1f+fpnGg12oKhiv0cncm1vvi297ZFgzFYtbGcbGCcvr7SzxHm1ZbAHDfbCg/I76cj2/kXLwPE2z/rLo1cvK+xPGFwCG/1zEp2IfzD/Mwm7TS6Lz6dXAKgZC4zDu0xjxYnHxKcAbaqKlNDqTxlerrESMPslBe+RH7HVs5VY7KR8Mr9NcFuCKKL5TmIZpbCo9obT9zZ+FAAAMRoDl0VRIQ1tLY0/yFqjczzz/26ToU0W3kV+x11X20kODYp25s4zLrCnwvVqCcFXEwkVAAABfUf7uHJnsv3fJ4yB+bFeb8T6DF9Xm2TuLwJTreIYwzh3QHYNCHP4ZfjYguFmGYjT+kAAAEswDwhbsKw1bTvtA7wzHbh/Zqku5SRP6YI7zCWeMBG9bf0Vt+kXkfVWsEAABpL6OcydVo8YrEaT++JKvhJVHaQWRHYsT9JhLp7JoaTiKXa7tepdtqJaqAez///4T3HM12Onhx/rU1/FIBKT7gL5sUyb+eLOP5GMBUTTXvhV3LLHMchUSUJtipoAEzyejIU7KDl0MU9VC2dtvNTUgyzteBjXcmyOYK7oeJrzZlYdvF6/bVd4khoCHbbiaWhnsnm08Ozda8Kg0gRXCFMjUQ0Sq4QhbWoUVwn+AuRKZbji6NyC9LZIwjVQwjQRmx8s9dir8cI1VoiuIbOIwGotln48c9KSMJqlOaXk5eV+LBeu8B0HfhDyVM/HaueB7be1fceA7WKg6hMdsTmZnx/RBbD22zyvFTHenKwh6EjBgrIEtp/5nEi/rZOLGvhhukpDQIF+Fl8D186vlJ3Q+bJPUczKH6Fa64qR+jtWPFRChx6MH5a5X8hXMNVg2IgKE6fFV6bOivfWSvPIjzcgqjrBY6qInCpzGCZpjM/peJy6w5t1PSsmmFXstNDrfzGGP1KplOGRZAGNr8FCHiTzzmJW8TS/kGywmHiiQIrX1qtRfCekxSaB90S8JiGSxsUKgdEWbQfziSTBaw5rl77Xt7eGHL5v5E9PoCRzr4r4xlXiZg9K/IBIJ2vV6xmpG487ioUO5knFWmp1wzIFnpXcde8icGJBlb1wc6g6wt90bjJiZttiIvD+asQcH7twy7vGzfF60kAFjoAtA7rUXpP8l6Lgo45jqk76eNSjofsXpTTj9SoFqj21KMw1r4oC+EAz++vL6saGwzUha2Xx3EYjItHuxwoR2bXjgmJMF+8jh8LC8qjzGTjfBjwZLh63pARgi6OrXrvgdlupIl6c/g6hRUWiFakAMAZWGGsiCxEBe8sD2YzK3fRHNR9+c/Qe1Xxjp3pOTAFuuLYMOY7SCtqrtk1Zkn76ZM3DYPy9782FGaLhF7PNZa6yF9UQvPn9sl0E8gtAADFwDUrc5wgXb5Z4yHrlt0S6jN+mc+087w2k8U3hloCjqlWV0e/BNxgOrIVaVlIFKa3C30xdj4rWQCon4hqnLmyZvgjCDEtPzezg+YTVtAUYSQOY2zU6xuoUmaxGUhcEa7Dh2MuRzyuRRQZQvSRwpScN7SxIcnQDx2M39rTBpMSQVoRxMz9m2yBq+bC0NV1ZH2JNGcYEmS1kZ+0e0+pg+BKR5PdCWZU8fNRAgDTnWeLqnV6Cv2T7idaaN0omIyvHa/32BvJ9X36Jvrcw8kDCi4Eo6bFijfSYKPdiM/m8j0JdaUzDA3XGDMiH5SQW2eBO45OIV8cgDIXM9t9pvC7VNwX3L5/BLEsIxtB7cQMP8DM+rk9ewHFMMBs3QkdBgF049iw5BghI200CKrAAvsit9SmY+oKfhnzsgXFcMPzceT9HszOMCcCZfC0xPhBWeeKa4ZPIggicZL3IgZkcmyd/itaeF3W+gIVqc85+kCVhjvaCDKOfRtAF7xTKWWB0H1/LDuzXq47re64TJZzrY4fJd+AL94IDDCPRjYplMhn6xu1STBnlRfRYl9+hpOoOujbYmPXo+WnK2nebl/yQkN6sIv7oGizI2nZDcP531XZqJt4XIGz3RdQaMC2Y1NUS9uhg+HEHxlbhrugmdK+Foidkp+SHKUqWuV2p/XxJC28urQEVcfAsuHZA24ZSHe0NQZtQLgeHhpWsAqi5UvPCMWFQVLLoDxASzBqDahFHjRIP8ur81XXpxu8jtQkSqRPPQ/XnpoHhUsPtvZK9GF21fO+qDzzIkXPUbZtjUd4K00Ve42WDS5xOz9pKHXMXPw+/f02ZlC+fwWkPRv4v9UDSbWj3UJgC/STwKE8U7WRcRb9LkrSGySlrP1CYXldVdTQ3yGGux59aX/FBTt7BBeMo0mJ8nJ1tcoZP3W/ZdlV6DtSSWBR+YisuJ56+zLBM5XrY9pnSyKl20dRk4D4AO1xA//6HOXB8W0hnUVsV00DTFp+RAxzODQ9xdBceeGxudrXrX6zNdVVXa42/5dXOcrLfLTgufFR7QcrO0pHMRunbqKHsEk7GT9PSJwmSmQt9QB1kKQEoFHCO5oGYfg/sPppG+hPhgBB/1+fR63a6d8y+DDxyVp+k5iUjnwFssk99p0KrmfhcQngdr27U0ENOOToARhnX6GfsxHIbz85j2y4vdVviL+5In5xbblFxvMur1aJoCdc4jVBH0nOlY2kvdwgfXpPx66se7HpRF26NfOJxxMxNcgVcAJIAidA0dOGgoXYivLJaDCW+sFUmhd7cNexGrf/1FF/U3vTajnrRXvnKeSug13B7MtvnhnCAqHIolGMflyQk2K2ONbg78G302h2G/ZNdj68W0bKetLtNngFmD5EAs2XQhN63+Gcw2CYXFW+T6HN8upQkQKmBgAtCsP+PrQLzwLeZqTveOWpYlz6DN7WMbVUiakuzHPneM5LbL/zfooNz9mDLkPbs+Uyo8cRbb6shmgHk4xCQv8ugoFs0mYCyVdLmrgUu7kAAEVYSUa6AAAARXhpZgAASUkqAAgAAAAGABIBAwABAAAAAQAAABoBBQABAAAAVgAAABsBBQABAAAAXgAAACgBAwABAAAAAgAAABMCAwABAAAAAQAAAGmHBAABAAAAZgAAAAAAAABIAAAAAQAAAEgAAAABAAAABgAAkAcABAAAADAyMTABkQcABAAAAAECAwAAoAcABAAAADAxMDABoAMAAQAAAP//AAACoAQAAQAAAAABAAADoAQAAQAAAAABAAAAAAAA;" vertex="1" parent="1">
                    <mxGeometry x="800" y="294" width="180" height="180" as="geometry"/>
                </mxCell>
                <mxCell id="5" value="" style="shape=image;verticalLabelPosition=bottom;labelBackgroundColor=default;verticalAlign=top;aspect=fixed;imageAspect=0;image=data:image/png,iVBORw0KGgoAAAANSUhEUgAAAgAAAAIACAYAAAD0eNT6AAAACXBIWXMAAAsTAAALEwEAmpwYAAAAAXNSR0IArs4c6QAAAARnQU1BAACxjwv8YQUAACwjSURBVHgB7d39VRRLtwfg8l33fzUCIAIwgoMRqBGAESARCBEIEYgRiBGIEYARMEagRsDtPTOt48B8MR9d1f08a/UaOM6577mKU7+qXbXrSQLokLu7u2fVSzzbw9d4nlbP8+rZGr7t2dhT257xf/7X8Am9sX/2Y/jP4vn15MmTmwQNepIAClUN5tvDL7fT38G5fo3BfHSwH/21XEQIiHDwbfh1TzBgUwQAoHFzzspHf218Zt4mEQiuhs83gYB1EQCAlRkZyB+aedeD+kODPZP10iAMfKnCwGWCFREAgAeNLa+PD+ijs/LR97FesToQIUAYYGkCALTc2Kx8O3V7eb1NemmwMnBahYFeggUJAFCIRyyvp2RW3hVXaRAErhLMSQCABkxYXn9oVj76PpilVz0nVRD4lGAGAQCWYHmdTPWSIMAMAgAMDWflltdpk14SBJhAAKB1LK/DPb3qeaOnAKMEALI1YdNbPZCPzsq3k+V1mMdFcmqAIQGAjZjSstXyOmzWr+o5q0LAaaLTBAAWssDy+viADuSlVz0vrQZ0lwDQUQucKd9Oltehzc7SoCzwK9EpAkALWF4HltSrnrcaCXWLAJCRRyyvm5UDq3Rib0B3CABrYHkdKFgv2RvQCQLADFOW10PMyi2vA21kNaDlOhUARmbm2+nfM+WW1wHuu0qDvQG9ROu0NgBUg/1e9VI/W8PX7QTAInpJO+FWakUAGM7sY4B/XT27w6/N3gFW5yLpItgqxQaA4aB/kAaDvgEfYP16yXHB1igqAAwH/f3qORq+ArB5Ngi2QBEBYDjwx6D/LpnpA+SglxwXLNr/UsaqgX+/er5WX/6snpNk8AfIxXb13Faf0e8TRcpyBSAG/uolfqj2EwC5u0qOCxYnqxWAWOqvnovqy5j17ycASrBfPV+rz++DRDGyCQDVD07U+G/TYGc/AGXZrp6L6rP840gHVTLWeAlg2LDnQzLjB2iLXnJcMHuNBoDhrP8k2dwHbNCvX7/+PL1er//6+/fvP9+Pvyee0X82ybNnz+49W1tbaWdnJ+3u7va/39vbSx3iuGDGGgkAw2N9n5NZP7CkesCuB/KHBvN4Hf26SXUI2N/fT//991//teV6yXHBLG08AAyX/GPw304AQ/PMykcH+Vmz8VJEIIgQ8Pr16/Tq1av+9y1lNSAzGw0Awx2iZ8mSP7TW+ABdD94/fvxIP3/+/DOojw/sDBweHqaDg4O2rgxcJccFs7GxADCs958loBilLa+3SZQJ3r171w8DLdNLbhfMwkYCwLBT1EkCGjFteb2elbdxeb0Ntre308nJSRuDwEVyu2Cj1h4ADP6wWg/NvC2vt18EgY8fP7atNNBLjgs2Zq0BwOAPk827vD4+oNNtsUfg/fv3/UDQIjYINmBtAUDNn654aNPb+PL66NK75XWWFScFYn9ABIEW6SXHBTdqLQFgeNTvOkFhLK9TklgF+Pr1q9UAHmXlAWDYAzou89lO0JBFl9fNyilZbBJs2WrAVXJccO3WEQDiQp/tBCsw75lyy+t0XQtXA3rJccG1WmkAqAb/uNTnXYIHWF6H9WvhasBFclxwLVYWAKrB/7B6+ZhovfHz5JbXIS9xVDCODLZsNcBxwRVbSQBQ9y+T5XVor5Y2ELJBcIVWFQAuqpfWtakqyUMz7xjIx3/N8jp0S31csEWXDPWS44IrsXQAqAb/12lwux8r0NUb0YD1cVyQh6wiANj1/wA3ogG5cVyQUUsFgK5s/HMjGtAWjgtSWzYAFDv7j0H65ubmT63c8jrQJWdnZ+no6Ci1yEVyXHAhjw4AJc3+YxC/vLzsD/jfvn3rvwJ03evXr9OHDx8cF2QxMfu/y1hVZ7+rEu7d/v7+Xfznejwej+f+Uw3+dxcXF3ct8z6xHtVv7uFdpm5vb++qZa27Z8+eFfMX0OPxeJp+Dg8P+xOnFrm9G/SoYZXuMpz9x8B/cHBQ1F84j8fjyemJ1YDr6+u7lnmfWI3qN3P/LjOx1G/G7/F4PKt5Tk5O7lrm653VgHsW3gR4l1HXv9jc9+bNm3R1dZUAllVvhovX6JwXz9OnT9Pz58//fD1utONmfYqofi2Z44Ltt1AAGCao25SB+Av28uVLZ+6Be+rBO556MK8H8q2trf57Rgf5+lmlCACjJ49iolJiKHBcsL0WDQCHKYOjfwZ/6IbxAXp8hh6D+uggv46BfJUiBEQgqI8ll8JxwXZaNAB8rV72U4MM/lCm0UF60kA+/mttFp9h0Zo3AkEJn2ctvV3wrAoBx6mj5g4A1eAfsfpnatjOzo7BHxo0rU4+urzelYF8FS4uLtLp6WkRn22Hh4f91QC3C5ZvkQDQ+K1/x8fH/XoUsLx5B/J11sn5VylBIH4uPn/+nPb29lKLdO52wUUCwEVqcPd/1M5i6R/417QNbyXWySknCLTwdsHYmPGmK6sBiwSA2P2/nRpi6Z+2m3fDW5fq5F0XA2wEgZy18LhgHNV414XjgnMFgKaP/0Uafvv2bYJSjA7Q44N1LK8byJlXKRufW7gacJFaflxw3gDQaP3f7J+mqJOTixJWA/b399PHjx/bdlzwuAoBl6mF5g0AsfOukU4QZv+sQg6NYWBZ0Tsgup/mPCFyXLAc8waAxs7/x9KXVr/U2tYYBhYVg3+ciIpmQjmL44JREmjZakCrjgvOGwDi/P/GP0XjBz2W/2knjWHg8UrZIBglgSgNtEhrjgvODABNNgCy/F8GjWGgGTYINqYVxwXnCQD71cvX1IDoP/3ly5fEZtjwBuWJC4ZiJSD3JmmOC+ZnngBwmBq6ACgGntKv1GyCxjDQPZoHNeYiFXpccJ4AcFK9bPxPK3a7vnjxInWZxjDAImLwj1MCud806LhgHuYJABepgRbAsfQfJYC20BgG2JRSNgi28bhgGqwGFLF0PU8AaOQIYPzwxg9HKSLR7u7u9i/HsLwONK2UDYKOCzYn2wBQwgbAGNiPjo7Su3fvDPJAdmLwj4nUp09571NzXLAZ/5vjPdupAb9//045i2Wr29vb/l8ugz+QoxhYY3NgDK45f07VqxW5ly0WdBKX6A3v0snSPCsAjdwCmHP//1iyir9QAKUopSTguODmZLsCkPPxv5YdYQE6IAbUWLXM/fOr7gDbotWAWHq5qCbTH4eN9bIxzwrAXWpAlZZSrhr6LQFYibhfJbqs5r4a0NLjgtlsEJxnBYAxmhMBJYuBNZbZcz+CF0Elyha5b2JcwHb1xL6ALJZhBIBHOD8/TwAlqzcIfvjwIfsNgrHvqoQViwXEBsGvTW8QVAJ4pOvr6/6Zf4DSlbRBsGXHBXvV87Ya765SA6wAPFLLlqWADitpg2DLjgtuV8/XpkoCVgCW1MKLLYAOu7y8TMfHx44Lbt5FGtwnsLFNZlYAlhQBIC7faFFtCuiw6MIaA2vud7G08LjgYfVcb3JfgBWAFWlhGgU6roRLhULLjgv2qudNNQau/UpHKwArEmk0ri92QgBoiwgAsTcg94G1ZccFt9NgJWDtZzQFgBWK/gBxMVDL+lkDHRaDf5x6is+2nLXwuODFujcHKgGsSRwR/Pz5s5IA0BrRNyAmOI4LbtTabhW0ArAmNzc3/SWpeAVog5hhx16n3AfWlh0XPFnXSoAAsEb2BQBtU294LuH4c+xhyPlm2QWsJQQoAWxI1M+i5SZAW5TSQTC0pGdL9Ak4SysiAGyQo4JA29Sbn0vYgd+S44IvV9U6WAlgg+q0HEdWANogLhKKzYElDKwtOS74eVXNgqwANEQLYaBtSioJxIbG+AwudDWgVz0vlm0bbAWgIREA4rxqLJ8BtEEplwqFWLUoeEV2u3qW/k22AtAw+wKANooj0KXck1LwiuxS+wEEgAxEDS3qZ7lfvgGwiJI2CBY6GeulJUoBSgAZiL8kkZS1EAbapN4geHCw9rb2Syv0dsHttEQpwApAZmIVIPoFKAkAbRGTnGiKVkpDngKPC+5UY2YvLcgKQGYuLy+L2UULMI+6zFmKAo8LPuo3VwDIkBbCQNvEBWklGb1dsIDTWvvVYv1+WpAAkClXCwNtUuqEJvYwFFK+WHgvgD0ABXC1MJCDehAcf/39+3d/0vLz588/Xz/0lK6A44IL7QUQAAoRg3+EgNKW0YA81IN1PRhPGrzr944O2vYk/ZX5Ru3Tauw8mffNAkBhzs7O0tHRUQK6Y3wwHv3+x48ff/75tFdWJ+MJWfxQ7MzbF0AAKJCrhaEciwze47Pztiydt1WmJYG5uwMKAIXSQhg2Y96l87bWvZkuTgrEhCyOOmbioho/387zRgGgYDH4x9naaFoB3Dc+eNePujerlNmE7Fc1fj6f540CQAu4Wpg2UvemJJmFgLnKAAJAS2S4DEWHPTSTrl/VvWmrjELAXKcBBIAWsS+AVXls3Xv034UuyuRz+KoaQ1/OepMA0EKOCnabujc0Kwb/6+vrJldk59oHIAC0VJQEYl+A1YCyLFP3tnQO+cjguPbMroACQItF+owNglYDNmfS4KzuDd0TqwANNgt6W42jF9PeIAB0QKwCRBA4ODhITDZv3bt+r6VzYJpYiW3wGuTjahw9m/YGAaBD2hwEJjVhmTR4P/QKsEqxCnt7e9vUXoCZDYEEgA6KIBDNgyII5NBESKtUoK3iOuGGJl1fqnH09bQ3CAAdF8k0alS7u7v9MBDfR0BYZPPgIme+Rwd4gzfQdg1uBrypxtEX094gADDVtCBg6Rxgurg+OG4ObECvGkd3pr1BAACANYlJVOwDaMDMXgD/SwDAWjRY5py589AKAACsUUPDaIyjUwdSKwAA0EECAAB0kAAAAB0kAABABwkAANBBAgAAdJAAAAAdJAAAQAcJAADQQQIAAHTQ/yUA2KD6ltG4fnz0efr0aXr+/Pmfr0ffO/7v1KLX/s3NTfr+/Xs6OztzS+kC3AUAwNzGB+L6+0mD9+iAPe168VW5uLhIp6enWQWBXO8CEAAAOuChgXjS4D0+Mx99bwliVeDt27fp8vIy5UAAWJAAADAwPhA/NDBvbW39896HBvGuefPmTRYhQABYkAAAtMG0AXnS4D2p3s1iYiXgxYsXjZcDBIAFCQBA0xatdz/0SrNiBSBWApokACxIAACWMWlAzmWzGpsTqwBxUqApuQYAxwCBrEzbrDar3j36HqgdHh6md+/eJf5lBQBYmcdsVlPvZt1iL0Cs+jRFCWBBAgBs1qTmLKO/Vg/es5qzQG52dnYa2wyoBACsjc1qMN3+/n6/SRB/CQDQMJvVYP329vYS/xIA4JFsVoNy+Pt2nwBAJ9msBt1S/33mLwGA4mzPuEks2KwGjPL3/j4BgI1adLOaJXOA9RAAWEg9aBu8AcomADBVDOAHBwf9IzSxi9ZADtAOAgAPisH+w4cP/YEfgPYRALgnBn59swHaTQDgHx8/fuxfnAFAu/0vwVDM/A3+AN0gANDnukyAbhEA6Hv//n0CoDsEAPqzf8f7ALpFACC9evUqAdAtAgDO+gN0kADQcTH4uyQDoHsEgI6Ljn8AdI8A0HFm/wDdJAB0nN3/AN0kAHTc1tZWAqB7BAAA6CABAAA6SAAAgA4SAACggwQAAOggAQAAOkgAAIAOEgAAoIMEAADoIAEAADpIAACADhIAAKCDBAAA6CABAAA6SAAAgA4SAACgg/4vAcCIXq/Xf/3169c/z+/fv/uvP3/+TM+ePUsnJyeJcgkAAC1SD97jr6ODd3xd/1o9uI++dx4CQPkEAIAMjA/Eo9//+PHjzz8ffe9jB+9ViP/d+N/c3t5OlEkAAFjS+IA8z+A9/n2JSv3vZkAAAFjQ1dVV+vbtW//15uamswNhhJi9vb1EmQQAgDnFgH96etp/Jf3ZS0CZBACAGWKWf3x8bOAf8/Tp00S59AEAmOL8/Dy9fPnS4P+AOAlAuawAQIuNHgV76Cx3fL2/v58ODg4S98Vyv6NukwkAZRMAIHPzDOLjO8sXORJ2eXmZ/vvvP8e5xhj8p4vB3wbAsgkAsAEPDeIhjoitYhBfRvxvvn37Nn39+jUxEL/3Bv/pYuWIsgkAMKdJ57inDeKlnPGO+nbUuo+OjhKpX/NnutevXyfKJgDQSTFA108YHcTrX3+oqUubxYz31atXnS8FXFxcbLyrXmniZ8S+kfIJAHRCDOAxw+1645ZplAIG4ueE6T5+/JgonwBAq8VMLgY1R7jm0/VSQPy8REBksvfv36v/t4Q+ALRW7OLe2dkx+C8oSgFdXQL3szJZ7Pr//PmzzZEtYgWA1oml7Ddv3vgwf6QulwK+f/+e+FfM9mPDX9T8nftvFwGAVonB68WLFzZxLamrpYAuL//X5/p3d3f7rzHw6w3RbgIArRLHtwz+q+FUQHsZ7AkCAK0RNX8buFani6WAtl5uE4N8dHs02DNKAKAVdG5bjygFRKvgrjR9ef78eWqj+POL3fswSgCgFQz+6xOrADFr7MIGsLq5Td0Iqn6FNhIAKF58SH/69CmxHnUpII6AtV0EnfEz7qNBIE4JxGvdTGq0mySURgCgeDq3rV+UAbpUChg1euvdpAY4dRCIUBBtpW9vb/uvQgI5EwAonvP+m9GlUsCiYlPdrI117969E1bJik6AFK1ejmX94vc6TlrwOG3dYEi5BACKZvDfrLOzMysu0BICAEXTunXzohRgZzyUTwCgaAaizYsNbUoBUD4BAFiYUgCUTwAAHkUpAMomAFC0ra2tRDOUAqBsAgBFc6lJs5QCoFwaAVG0aExzd3fXX4quu66FeI1ObPXXo/+8fi+rEaWA6+trDYKgMAIArRCDTzyLrAiMhoG6hWu8/vz5s/91tL5ltroU8OHDhwSUQwCgs2aFhSdPniTmE6WAV69eTeyVD+THHgBgJZwKgLIIAMBKOBUAZREAgJWJUoD7GaAMAgCwUlEKAPInAAArFSsASgGQPwEAWLmTkxOlAMicAACshVIA5E0AANYiVgDOz88TkCcBAFibKAXUbZiBvAgAwNpEYyClAMiTAACsVdwWqBQA+REAgLVTCoD8CADA2ikFQH4EAGAjlAIgLwIAsDFKAZAPAQDYGKUAyIcAAGyUUgDkQQAANk4pAJonAAAbpxQAzRMAgEYoBUCzBACgMVEKiNUAYPMEAKAxSgHQHAEAaNTl5WX/ATZLAAAaF6sASgGwWQIA0DilANg8AQDIQpQB4mQAsBkCAJANpQDYHAEAyEZ0Bzw9PU3A+gkAQFbOzs6UAmADBAAgO0oBsH4CAJAdpQBYPwEAyJJSAKyXAABkSykA1kcAALKlFADrIwBAxg4ODtKzZ89SlykFwHoIAJCxnZ2d9P79+9R1SgGwegIAZO7du3dpf38/dZlSAKyeAAAF+Pjxo1KAUgCslAAABdje3u6vBHSdUgCsjgAAhYi9AHt7e6nLohRwfn6egOUJAFCQDx8+pK47OTlJNzc3CViOAAAFic2ASgGDUgCwHAEAChOlgNgT0GWxAuBUACxHAIDCxGmAOBXQdUoBsBwBAAqkFDBwfHycgMcRAKBQUQroem+A6AvgVAA8jgAAhYrB36mAQSkgjgcCixEAoGCHh4edbxMcjYGcCoDFCQBQOG2ClQLgMQQAKFwcCXRjoFIALEoAgBZwY6BSACxKAICWsCFQKQAWIQBAS8RFQbEM3nVKATAfAQBa5OjoqPNtgpUCYD4CALSINsEDSgEwmwAALaNN8IBSAEwnAEALuTFQKQBmEQCghZQCBqIUcHl5mYD7BABoqSgFvH79OnVdrALEagDwLwEAWkybYKUAmEQAgBaLwV+b4NQvAygFwL8EAGg5bYIHlALgXwIAdIBSwKAUcHp6moABAQA6II4E6g2Q0tnZWf9kACAAQGfEXoC4L6DrlAJgQACADnFjYOp3B1QKAAEAOkWb4AGlABAAoHO0CR5QCqDrBADoGG2CB5QC6DoBADpIKWBAKYAuEwCgo6IU0PXeAEEpgK4SAKCjlAIGlALoKgEAOixuC9QmWCmAbhIAoOO0CR5QCqBrBADouDgS6MZApQC6RwAA3Bg4pBRAlwgAQJ82wQPHx8cJukAAAPrioqCTk5PUdTc3N0oBdIIAAPxxdHSkTXAlglAEAWgzAQD4Q2+Av+JUALSZAAD8Q5vgAaUA2k4AAO5xY+BAnAqI44HQRgIAcI9SwEA0BlIKoK0EAOBBUQqIVsFdF30Bzs/PE7SNAABMpE3wQJwKUAqgbQQAYKIY/LUJVgqgnQQAYCptggeUAmgbAQCYSSlgQCmANhEAgJncGDigFECbCADAXKIUEPcFdJ1SAG0hAABzc2PggFIAbSAAAHPTJnhAKYA2EACAhWgTPKAUQOkEAGAh2gT/pRRAyQQAYGFKAQNRCjg+Pk5QIgEAeJQoBegNkNLl5WX/gdIIAMCjKAX8FRsCYzUASiIAAI8WtwVqE+xUAGUSAIClaBM8oBRAaQQAYCnaBP8VGwKVAiiFAAAszY2BA3Ek8PT0NEEJBABgJWwIHDg7O+s3CYLcCQDASkQpIBrj4FQAZRAAgJU5OjrSJjgpBVAGAQBYGb0B/lIKIHcCALBS2gT/pRRAzgQAYOXcGDigFEDOBABg5ZQC/lIKIFcCALAWUQqIVsEoBZAnAQBYG22CB6IUcHFxkSAnAgCwNjH4axM8YAWA3AgAwFppEwx5EgCAtVMKgPwIAMDauTEQ8iMAABsRpYC9vb0E5EEAADbmw4cPCciDAABsjDbBkA8BANgobYIhDwIAsFHaBEMeBABg45QCoHkCANCIKAXoDQDNEQCARigFQLMEAKAxcVugNsHQDAEAaJQ2wdAMAQBolDbB0AwBAGicGwNh8wQAIAs2BMJmCQBAFqIUcHJykoDNEACAbGgTDJsjAABZUQqAzRAAgKxoEwybIQAA2VEKgPUTAIDsaBMM6ycAAFmKUkC0CgbWQwAAsqVNMKyPAABkKwZ/bYJhPQQAIGvaBMN6CABA9pQCYPUEACB7bgyE1RMAgCJEKWBvby8BqzFPAPiVGqAJCDBObwBYnWwDAMC4WAHQJhhWI9sSgBUA4CHaBMNqKAEARdEmGFZjngDQSw0QAIBJ3BgIy5snAPxODdja2koAk0QpQG8AeLxsVwB0/gKmUQqA5WRdApDugWnitkCTBXiceQLATWqIph/ALNoEw+NkuwIQ3AUOzKJNMDzOzADw5MmTOAbYyFHA3d3dBDCLGwNhcfM2AmqkDBB/oS3tAfOwIRAWM28A+J4acnh4mABmiVLAyclJAuaT9QpAePXqVQKYhzbBML95A8BVakiUAdT2gHkpBcB85goAT5486aUGbwV0GgCYlzbBMJ9FbgP8khpycHBgMyAwN6UAmG2RANDYPoAY/CV6YF7aBMNsiwSAi9Sgo6OjBDCvKAUoH8JkcweAYUOgq9SQSPRRCgCYlzbBMNkiKwDhW2pQnPH1lxmYV3xeaBMMD1s0AFylBsWmHnsBgEVoEwwPWygAVGWAq9Tg5UAh9gJYBQAWoRQA9y26AhA+pQZZ0gMW5cZAuO8xAeAsNSyW9Pb29hK03c+fPxOroRQA/1o4ADR9GqD24cOHBG13fn6enj9/nt68edP/+urqKvF4Pjfgr8esAITz1DDtPumKX79+pcvLy/7P+8uXLyOE91/j+/jnvV4vMZ9YOfS5AQNP0iPd3d3F2mSju2rig/HFixc+AJfw9etXy6ITxEBbiqhxx+AWf5a7u7v+TKfo4udGHKHu+h6I+PPe2dlJTajGy9SEJzM+xP4vPV6sAjT6E1W3+4zZEHRZfLjFEysCtdEwEOFAb/wBnxsw8NgSQIjNgI3dEFhTCoCHxX6B2DcQ+wdi5hOPvQQDPjdgiRWA2AxYLWvEkcDGm/TH0pZaKEw3vkoQM+FYGahXCeLp0ln52BB4c3NjYyWdtcwKQGj8SGBw8xcsLmrho6sEcdqga+JzQ2mErloqAFSrAL3UcGOgWsxeHPFhGTE77vJg2MXeGjH4f/78WZdAOmmZTYC1k+rJ4pq+qOl9+fLFkh5ziRlwLAHHknj83HS9hNTV5lrx/3dMHt6+fZugS5YOALEKMNwLkEUIqHf32g/AQyIcfvv2rf8qKP6ry0cHDw8P+58Zp6enCbpiFSsA4aR6XqWG+wKEWNJzxIda3UQnBv14je952KtXr1KXxVn5CAGfPmVR1YS1W3YTYN9wL0Dj3QFr9gN0WwzyMZOLZi9Ry4+l3YuLC4P/FDEDVgdP6ezszD0jsKiqDPAsugPeZeTg4CDaL3mmPF+/fr1rk+oD/K4ayIr6M8jhub29vWMgfi+qlcSi/vymPdWE6O76+vqu6+LPtak/g6akGVayAhCGlwRlVUCLNO+IT3fErD82gprpLyb6aPh78lf8XkSL7NJ/T2IlNP7/iMeqBhtRhY6vdxmJ1GdGOPlpywpAzPxL+n3P5akGhjseVupKQMz427aytwpWAO5b2QrAiKxWASLF2w/QbrFxKzZwsZj6DDwPK20lIPZx1DN+l0Exj5UHgKoUcJUy2hAY4i+Gvt/tFYO/Zf/FtGWZe91y/32KjZtRwvn582f/9JOBn0WsYwUgnKQMLgoaFasA6mDtFE18mN/r16/T9fW1wX9O8ftULR9nNYmIgT5Wb+K/KwKwExw8xloCwHBDYHZttbT8bJ8Y/M3+5xM/+3Ec0t+Dx4lJRJN3B8SgX8/2Y1Uigpw/R5axrhWACAFx5dhlyoiaZ/vo5jdbvUwcs8WDg4PE40U5MX4fNxUE6kE//jdj0DfbZ5WepDW6u7uLn9TblEGHwFHxl0jLz4HSNwxFx0ch4L4YnKKzX8wS1YXXJ7pL1p0mV9F+PMqU//33X//VDH+14s9nZ2cnNWGODflrUU3Ep47xq2oFPOl//Ff1/3iUArKadkcA+P79+5970aEU47PO+D4GiXhi0Nja2uoP+AaOzYhBOp4QF0vFIBOfLfFaB4IoUY2WqeLPpv5zi9f4M4s/u/qfwaasNQCEKAVUISBOBRyljMQSXv0XFjahHrzrAbv+/unTp/2WxfHP4uvR946/kq8YxOuZO5Rg7QFg6CQNLgvaTpmID9vYDxBLyDaRlaseMNepHrDDpIE5ZnGj733o3wHIyUYCwEgp4GvKSKT12GBzfHycKFNc+DPtGOD4gPzQwDw+eI/P1AHaaFMrAP0GQVUIiJE2q7Z8cbb3x48f/XsDKM/R0VF/ALdkDrCYtZ4CeEgVAmIVYD9lJEoAUQqIPQFdo20o0AVOAdy3tj4AU0QpoJcyUu8HsNwLQFdsPABUgaSXMuwSqEkQAF3SxApAfWFQdjvv6q5bANB2jQSAUIWA2HWXXSeeaBKkJg5A2zUWAIay2w8QohRgFzkAbdZoABjeGvgyZXZ1cL0pEIB20PX1vqZXAOpNgdntB4gmQXH9JwC0UeMBIFQh4KJ6OU+ZiSZB8QBQNisA92URAEIVAmKkza4TT5wKsB8AoGzR8ZV/ZRMAht6kDPcDRLc8TYIAynV9fZ34V1YBYLgf4E3KTKwAxPXBAJTJCsB9ua0A1E2CTlNm4o5v+wEAyhP1/y7e9TJLdgEgVCHgpHq5SpmJUwGaBAGU5erqKnFflgFgKEoBvZSZKAXYFAhQjk+fPiXuyzYADJsEZbcp0H4AgHLE8r8VgIflvAIQISCKNtntB4gygCZBAPmL+114WNYBIAwvDcqySdDBwUECIE8XFxeW/6fIPgAMnaQMmwSdnZ3ZDwCQoVj6Pz3NbgE5K0UEgFz3A2gSBJCfGPxfvnyp/e8MpawAZN0kyH4AgDzEhj+D/3yKCQAh1yZBh4eHmgQBNCgG/PgsNvjPr6gAEHJuEhRXCAOwGb9+/erP+N+8eZN2dnZs+FvQ/6UyRSkgbnbYThn5/Pmz9AmwBvG5GgN+tPSN5/v37/3X+Gc8TpEBIDYF3t3d1SEgG3WToAgBpXBBBrBOMUDXg3Q9Oapff//+3f+1nz9/9r+uf+2hf4fVK3UFoN8kqAoBx9WXWe3Aq5sEHR8fpxJIz8Ak4wPx6Pf15KEeoOtfG3/IV7EBIESToCoEROE9q448sSHw27dv6fLyMuVOuoZ2Gh+YZ826H/p3aLeiA8BQbL//L2W2HyBKAVGfyn2AdUUm5GXaknk9664H74dm20J9XhpsFjczwRUfAIb7AaLoHvsBsunIE82B6k2BOSfpehONZkawvGnL4JOWzM26WZP2B4AQTYKqEPC2+vJzykgcC3z//n3W+wHqXbWxdwG6bJklc7NuJsm5XXwrAkCoQsBlFQLi0qCjlJHYDxDJP+4NyNX5+bkAQLGW2ag2+muwDg2urvZmvaE1ASBUIeBdFQJ2qy/3U0ZiFSCaVeRab4//NmUAmjBtYB4fvG1Uo0RWADYrSgFfU0abAuv9AC9evMjyAyv+m+LWLHcasIhJA7Oz3fBXgwGgN+sNT1ILVasA+2kQArJSX1KRq7jZUCmg/Zzths1p8HP1dNg6f6JWBoBQhYA4HpjdlPbk5CTbO6ojqcYPa85LVl03aWB2thvyFH8nGyqvHkevnGlvaG0ACFUIuEiZNQkKsQoQqwE5EgLWQztU6J74HL29vU0NeTm8QXeitgeAiF3ZXRoUH+qxHyDXD/X6TgPlgAFnu4HHiOuJ47O0IS+iZf60N7Q6AIQqBGynzJoEhTgRkHuToPjhjRMMJa8GaIcKNOXi4iIdHDSzCF0N/jPH99YHgFCFgMPqpbEYNkn0Bijh0qDXr1/3n1evXm2slqUdKlC6WP5vaAJ1U43/L2a9qRMBIFQhIDZDZNUkKEQAyLlJ0LgoC+zu7qadnZ20tbXVDwSTfsAtmQNdFZOmOP7dkC9VAHg9602dCQChCgFRCthLGYnBLkoBLuUBaI8Y/CMENGTmEcDQtQCwnTJrEhRi9ptrkyAAFtPw7v8w8wRA+F/qkLg0KA06BWal3nUPQPmi30vD5lpS7lQACMNUlF0nnlgqiouDAChXTOia2vk/FBsA51pO7lQJYFRVDojdGY0VaCbJuUkQANM1uPO/dh4X483zxs6tAIyIUkAvZSZKAbrwAZQnk74pl/O+sbMrAKFaBYgTAbEpMLsmQbEpEIAyHB0d5XCk+1c1+38+75u7vAKQhm0Ss9sPsLe352pegELEZ3Ym/Vy+LfLmTgeAMLwt6TxlJjYENryRBIAZ4nM6LlDLxEKdhzpdAqgNLw2KP8HsmgTlfGkQQJdlsuxfW2j5P3R+BSAMj0y8qZ6sOvFEm91Ilg3dJQ3AA+pr0zNr4z735r+aADA0bBL0JmUmftDsBwDIQ+z0v76+zvG69E+J5VTlgJO7DL179+4u/vM8Ho/Hs9mnWoW9q5b7725vb+8ydZsewR6AB1S/mV+rl/2UGU2CADYnZvn//fdff1N25qXYw2oVe+EVAAHgAXeDTYFxc+B2ykhsBowQYFMgwOrFIB9H+qI1+6tXr0ppytarBv+d9AgCwAR3gyZB1ykzsQIQIQCAx4vBPgb4GPDj2d3d7b8WuOn6UbP/IABMUYWA6Kec3Q682Hl6fHycABioZ+sxgNeDe3j69Gl6/vx52tra6n9fD/Itabn+6Nl/EABmqEJAnPM4Spl58+ZNurxc+NQHQHbqQTvEwDz+fagH8Pr78QG/ox49+w8CwAx3mgQBTDXv7Lv+9fGHR1lq9h8EgDlUIWA7DfYDZPWTGoN/hIAIAwCPMWlQrgfv+uswaXZOI3aG/WseTQCYUxUCXqcF+yxvwsXFRXr79m0CumeRpfPx2bnZd9HOq8H/XVqSALCAXPcDnJycpNPT7C41BGaYtXRez74tnTOiVz0vhi3slyIALCjXJkGHh4fp0yedIGFTLJ3TkKWX/msCwIKG+wEiBGynzMR+gJubmwRMZ+mcQp1Wg/9JWhEB4BGqELCfBiEgK7EZMJoECQG03WOXzkf/XSjMZTX4r/TCOgHgkXJtEiQEkLtZs+/xpfOHXqFjemlFdf9RAsASqhBwUb0cpAxFp8DM7qqmJSYNypbOYS161fNyVXX/UQLAEnK9NKjmdADj5l06r99r6RwaFTP+F+sY/IMAsKRcmwTV4vKg6BOgY2D5lmmXavCG4sTgHzP/tdVzBYAVqELAYfXyMWUqBv9YDXBMsFmWzoE5rX3wDwLAiuTaJGiUIPB4ls6BDdnI4B8EgBXKtUnQuK4FAUvnQCF6aU0b/h4iAKxQzk2CHhJHBuNK4S9fvvT3CuR6qZCbxoAOuKqet5sa/IMAsGK5NgmaR/QOiNWBCAPfv3/vB4L4fplgoF0qwEwrudxnUQLAGuTaJGgZdRCYFgZGB2+zb4CZ4gM1Zv2XqQECwJpUISCuDn6dAOC+q7ThJf9xAsCa5N4kCIBGxKz/XTXwN74L+3+JtRj2bI6LG/LcWQfApkVr1p0cBv8gAKzR8BynXrwA3XaRBgP/yaov9FmGEsAGlNAkCICVu6ieT9Wgf5UyJABsSClNggBYSszwz6vnLKfZ/kMEgA2xKRCg1a6qJ2r7l7kP/DUBYINK6xQIwFRX1RNn+D+VMuiPEgA2rAoBe2kQAnTJAShLDPIx4H9LBc30JxEAGiAEABShlwaz/DjR9aXJpj3rIAA0RAgAyMKv4ROD/I/hazy90mf4swgADRICAFaqN3ytB/X6+9/D738Ov+4Nn19tH+SnEQAaJgQA9NWDduiNff9j5J/fe23b0vymCAAZcDoAaIHehNfxwXt8dt7pWXiTBIBMCAFAg3rD11lL5/V7/8zOzb7LJQBkZNgs6GNyjTAwP0vnPIoAkKEqCJxUL+8T0AW9Ca/17Lv+3tI5KyUAZKoKAftpsBqwnYBc9Yavv8YeS+dkTwDI2HBfwEn1HCRg1RZZOjf7pnUEgAJUQeAwDUoC2wmo9Yavszaujc/ODd6QBIBiWA2gZX5NeCydw4YIAIUZBoEPyUkBmmPpHFpAACjUcJNglAX2EyymN3y1dA4dJgAUbhgEDpPSQFdMWjoPMfu2dA7MRQBoiZE9Av8lmwVz1pvwaukc2CgBoIWqMBD7A+J5lVwytEq94euspfP6vWbfQLYEgJYbKRHsVs9e6i7tUgFGCAAdMiwTRAjYT38DQSkrBL0Jr5bOAR5BAOi4KhTUISACwc7wNWyn1e0l6A1fLZ0DZOL/AWgjuJqRzjE6AAAAAElFTkSuQmCC;" vertex="1" parent="1">
                    <mxGeometry x="1320" y="616.45" width="200" height="200" as="geometry"/>
                </mxCell>
                <mxCell id="40" style="edgeStyle=orthogonalEdgeStyle;curved=1;rounded=1;html=1;exitX=1;exitY=0.5;exitDx=0;exitDy=0;entryX=0.871;entryY=0.998;entryDx=0;entryDy=0;entryPerimeter=0;strokeWidth=4;fontSize=26;elbow=vertical;" edge="1" parent="1" source="6" target="9">
                    <mxGeometry relative="1" as="geometry">
                        <Array as="points">
                            <mxPoint x="946" y="780"/>
                        </Array>
                    </mxGeometry>
                </mxCell>
                <mxCell id="6" value="" style="shape=image;verticalLabelPosition=bottom;labelBackgroundColor=default;verticalAlign=top;aspect=fixed;imageAspect=0;image=data:image/png,iVBORw0KGgoAAAANSUhEUgAAAggAAAIICAYAAAAL/BZjAAAAAXNSR0IArs4c6QAAIABJREFUeF7sXQl8FOX5fmc3m5uEK5zhlENA8EBbkT9yaNGqlYqiFa9aqrbaitVWKW011nr10FqPtmqtR+sB3nfrFUHxDMqNEEKEAIGQkIOce8z/936Zd/pm2M3uzs5uNtl3fj/I7uw333zf883uPPMez6uBbIKAICAICAKCgCAgCFgQ0AQRQUAQEAQEAUFAEBAErAgIQZBrQhAQBAQBQUAQEAQOQUAIglwUgoAgIAgIAoKAICAEQa4BQUAQEAQEAUFAEAiPgFgQwmMkLQQBQUAQEAQEgZRDQAhCyi25TFgQEAQEAUFAEAiPgBCE8BhJC0FAEBAEBAFBIOUQEIKQcksuExYEBAFBQBAQBMIjIAQhPEbSQhAQBAQBQUAQSDkEhCCk3JLLhAUBQUAQEAQEgfAICEEIj5G0EAQEAUFAEBAEUg4BIQgpt+QyYUFAEBAEBAFBIDwCQhDCYyQtBAFBQBAQBASBlENACELKLblMWBAQBAQBQUAQCI+AEITwGEkLQUAQEAQEAUEg5RAQgpBySy4TFgQEAUFAEBAEwiMgBCE8RtJCEBAEBAFBQBBIOQSEIKTcksuEBQFBQBAQBASB8AgIQQiPkbQQBAQBQUAQEARSDgEhCCm35DJhQUAQEAQEAUEgPAJCEMJjJC0EAUFAEBAEBIGUQ0AIQsotuUxYEBAEBAFBQBAIj4AQhPAYSQtBQBAQBAQBQSDlEBCCkHJLLhMWBAQBQUAQEATCIyAEITxG0kIQEAQEAUFAEEg5BIQgpNySy4QFAUFAEBAEBIHwCAhBCI+RtBAEBAFBQBAQBFIOASEIKbfkMmFBQBAQBAQBQSA8AkIQwmMkLQQBQUAQEAQEgZRDQAhCyi25TFgQEAQEAUFAEAiPgBCE8BhJC0FAEBAEBAFBIOUQEIKQcksuExYEBAFBQBAQBMIjIAQhPEbSQhAQBAQBQUAQSDkEhCCk3JLLhAUBQUAQEAQEgfAICEEIj5G0EAQEAUFAEBAEUg4BIQgpt+QyYUFAEBAEBAFBIDwCQhDCYyQtBAFBQBAQBASBlENACELKLblMWBAQBAQBQUAQCI+AEITwGEkLQUAQEAQEAUEg5RAQgpBySy4TFgQEAUFAEBAEwiMgBCE8RtJCEBAEBAFBQBBIOQSEIKTcksuEBQFBQBAQBASB8AgIQQiPkbQQBAQBQUAQEARSDgEhCCm35DJhQUAQEAQEAUEgPAJCEMJjJC0EAUFAEBAEBIGUQ0AIQsotuUxYEBAEBAFBQBAIj4AQhPAYSQtBQBAQBAQBQSDlEBCCkHJLLhMWBAQBQUAQEATCIyAEITxG0kIQ6O4I4Pdc13Vd0zRNDzIZ9Tnbb33f3ecv4xcEBAEbCAhBsAGaHCIIJCsCSAJobJrW/lLXO3IC3M/3GaTBPA4/ozbWtrxvamchF8kKjYxLEBAEokRACEKUgElzQSDeCNBNnj3ta/ymjec3bv505+dP/GZbTg6sfd18881aUVFRgJ0rJJHAtjfddBOaH1Qb+kv78TxGf2o8VkISKV4hrBuRHi7tBAFBwGEEhCA4DKh0Jwg4gYDhDqAbsukeKCoqcuHNmm7KdOOmc9LNOZj1APcVFRWp73xRUZF5M+c3fNxvvcFzIsDPG8SaoMbJCMwhFoxgZCPI2IO5QZyAVfoQBASBKBAQghAFWNJUEIgFgSDmf/OGym+2lid/RRLoCZ2Z9Q+5+dKNGUkA3eiJKBikQO3Hz4lkcPcCEQPjXNS/shxQn3xsdD6Lu8K0MtB5uJuCk43O3Bg4Lh4zwV5LfEQsF6EcKwhEgYAQhCjAkqaCQGcIcALQWTu6aQe7gRo3XXyCVq4CfhMOFVNA5yISYb2Z8xs03eyRIFjaq26KiorMf9RvMIsFJypWYmH0YVoimNUACQqdp4OlwjpGOncodwW5IywWC7E8yFdUEHAQASEIDoIpXaU2AuQWoKds6w2dP83TEz3dfAk5/lRN/dATPd1ccT/d4EMhbrgezBuy9ebPbtQdSAHfz/sO156fj0iG9Xjr+IMFQFox4kTBYkUhC4OCycCK3BtCFFL7qyizdwgBIQgOASndpBQCFAjYqc+dP61zssBIgLKjc3LAUOxwc6f9wW6++NmGDRvUd3nSpElBb45kVaB22Hb58uUqFoF/hsfTe25NWLBggdk/fr5gwQJ1vLGpcxrtlRujs/HiGJYvX0439Q7jJWsDJwPYVyjrCH4WDFvab1g6hDCk1NdTJusUAkIQnEJS+unRCFj94dbJhvGnm5H9Vn883Vh5f0ga8IZofQLHeyFPKeQ3ZOPpXN2cjRsw4E28qqpKKygoMG+QdFPHz4gk4F/+nl7z8/N+GDFQTThZYK+RaCjiYpCODpCRNYF/zi0MFlw6ZEdwssAtMDzY0ji+Q7wFI2JCGHr0t1Um5xQCQhCcQlL66akI8FiADhaDYP5xurEzH/8hN0b+ZG413fMnb3pqx330ZG+9mSNhwHb4ObcO0M2f37xnzZqlFRcXq1PMmjUL6DWdE/chmUACQOQCPysuLlYxEcYxutEPnldZEfA9JyF0brJOMPKhSEMwawbN0UqYQrlVeBCmNfWSyAH+DRYrgfstrhwhDD312yvzigkBIQgxwScH9zAEDlEU5IGCwYIKg4gOqe8UOcitPv1QvnyOI6Uishu3ugHTjXv58uXqZk2b8Rma/Tvc6OhJn4gBP4aORZJg3R9sX0NDg1ZSUoLkQB1qkAtFEnBDCwMSCW59IPLASEYHSwWRHTqWrB9kcSAyYVhNlFuDf2bBjFwjytXBdRs4IbCSA7a+ZhyD6DH0sG+1TMc2AkIQbEMnB/ZEBKyZCFb/Np8zPZ3yGzqPEbCazOnp2Pqkj/vp5m/F1EoK+M2bXltv6Pw9kge8AeMNHvvu1auX3hkp4H1ie7I0BCMX+DmRk1Dtwo3N6vLg8+dWEd4uVJwF4Ut/EX+DqJndWjNDQl3DQhJ64rdb5hQtAkIQokVM2vcIBLgQET1V4t9QOf1B5IpVgCHXDAiWAUDmfwKN4gOM98oSQOZ5a7wAvsd21pv21KlTD/ne4tM9Ws6nTp0KJSUlYPw19xE54ESB+iYiEOI9jlE3LAhIGNRrg2jQ+czz4H7r5zR3Ogb74POiz3GeaAXhMQ5Wi4Q1doKOpcBIHqxpSdnsEI9gFX/CfoKpQbKsCnFD9IhvvkwiGgSEIESDlrTttghY5IvJDdBhPsHSEq0uBn5AsFgC/JxuUvypl1sIOBEgEsD75bEB/Mkd91vJAZKBSZMmaRs2bDBvYEQSqE98Txu2D7VRO2pjIRvqMGOfcsVY+8X3LS0tWmZmpo5/sT2+xr/W99xdEWw8FlJ0iOuCuzZmzZoVIOJFRMGa7cHJGxOJUqcOVquCxmSNYbAKOHXbL4QMXBCIAAEhCBGAJE26LwJBXAaHqBfi7ILl5AfTH6AbDQ8gtKLDyQDGC+Dn4Uz15OM3ggGVG4AsAvzmzm/+dEPesGEDkgRzGNb39AHtRzKBpILv53PgfdFNnm7wBgEyz8fPhWSgpKTE7Jf6IZJgxYlbIcjywNvgPnpvDa4k4hQs/sKaZcHTLqk/CqCk95w0BAs+tWapGGRSrArd96dBRh4BAkIQIgBJmnRLBNRTbrjqhsYPvWrL8v/V98IaT8DdBdY4ArIKWMiBivAn9EKY5k2rALkGsL31NVsBM5CSnubpRtza2qqVlpbizV9ZMcaMGQOlpaV4KO2jbtRnuGF7vrpjxozRMjIyMCNCkQDqE9tYiUMwIsLaU2aFeRwRBSQRwUhIMCJE7gj8jAdKEpZ87NxVQwGTfD0odsGIGVEZFZwwUBopl6rGz4OJV7F9Vi0MIQ3d8udCBh0MASEIcl30KASsxYKsVRD5ZLkoDycEFt+1OiSYxYC7EIggcJcBBQiSNYDOzU3zVvD5k3qwhcGbMt2srTdovDnff//9+YcffnhBbm5uvsfjGaDrelZGRkb/QCCQ5Xa7szRN6w0A6S6XKxsAPACQE+YCaAOApkAgEACAel3X8XWrrut1gUCgPhAI1La1tdXhv9ra2voFCxZ8jeMgkkF9WwlBBHNTN9rOsCI3hTVGA4+zpmzivmBkAfeTFgMjCyY5DBbkaI1fsASyCkHoUb8oqT0ZIQipvf7dfvaWqoeHCBJ1JnfMixZxYSKrsqBFfVClE5LrgF7jDYlbCIyblBmwR0F+httA3UTwSXrq1KnKLB/k6VxZCsgaMG3aNNcf/vCHPmPHjh2VlZU1IC0trdDlcg1PS0sb6XK5BgPAEE3TBgFAVlcvqq7rewDgQCAQwL9lfr+/3Ov17vL5fBUHDhzYtWzZsl2PP/54q2FtUKmL3PpB42dxFR1wMlwZijxYgiKVNQatLywQknQbsFv1mlJGSXTKGkhqJQr4PhJJ7CApr6orUXPs6itSzm8XASEIdpGT45ICgUgIgjUzwaozwJ8iSUaYT46nGtLTKfeJ87ZEBEIF/HHfvxVAtAjcf//96fPnz5+Ym5s7LD09/TBN0ya73e4JLpdrHGYpJgXoDgxC1/XtALDR5/Nt8Xq9G71e7/avv/66bOHChbs6656sJhQIyeMbWPaGSR6CpYJyTYlg5wqmtUC1JriSpTWAMZhlQciBAxeLdNFlCAhB6DLo5cQxIGBmIYSqcGipg9ChrgHVAugs0BDHxgMM+VjppkMWA2tsAboJDFeAshRYAwLJt//YY48NOvzww8dlZmaOy8jI+IbL5Tpe0zQkAim76bqObosSv9+/sq2tbV1dXV1pcXFxWVFRUSuCwuMjrO4W/BwtMgSeNQiyM/0HqxKksW5mjQl8H0QKukNFSla1soMlS4pJpezl3O0nLgSh2y9hakyAaiHwoMNQhX2s9Q54pUFLbQCz6JAl355khRW4XD0QTdgWDQBK/TP95RRHwH3xd999d/bFF188MTMzc1JGRsY33W736QCALgHZwiPQ6vf7P/H7/e81NjZ+XlNTs3nevHk7CF/+F4MuiSTwQE88BYlEUaoovac1Jh0Ga8ApFZYKJosdSvKZT4kTB2O/xCmEX3NpkQQICEFIgkWQIUSEAFVQVFr+JKWLRwZzIVhFi4gY8L/8rFwWmO+3ugwM60AAbzKhUv/w+GXLlvUdMmTIhOzs7BM8Hs+pmqadAACuiGYqjSJBoNrr9b7U2tr6WnV19aaRI0eWcYVFltKpLpFQwY48lRIbWq0M1kJXJPdsWKECVncVEQaaAOkm4HtrKWtxP0SyzNKmKxEQgtCV6Mu5O0PALJLEGwVzKXDfL9cu4K4EnuJmFBnqoE/AzqGCA5nVwFQnNNLglBmbyAGlE86dO9fzm9/8ZkKfPn2mezye77tcrinUXpY5IQjU+/3+ZS0tLc/u2bOn9LLLLtuFqY607qT9YE21pEBIi7gUPeGbAk0sDsWcjLV2BLqs0NpAfgd+XQbT2QhyXYtlISGXipwkUgSEIESKlLSLOwKhUhR5tgF/CqP9RArwB3rZsmUBykigpztr+WKyFpAyIRfpsQa64aSDif8MHz5cu+eee4b279//8F69ev04LS3tjLgDJCeIGAFd1zFz4h/V1dVvvPfee2UXXHBBYzAdByOLRMWJWAIeFUkkiwLLfFBj4NeUNaiRrFdUsItSJa2WLq7TIcJLES+tNEwgAkIQEgi2nCokAnQd8op6h0jgMl+uGXQYwi+s3BBUjpjp93eogkh1Cbi0MAUY4s2EIuUpBe/yyy9PW7p06YiCgoIZmZmZP3O5XIfLmnYPBPx+/6M1NTX/LCsr++r444+vRaEoDHjko6fAUp6BQqmU1I5nr1jSJel66xDYSMfxLAgkCp1pKeAxUiyqe1xXPX2UQhB6+gon+fyCWQ2MH0h1k+c+XVI9JFLAgw+DlUjGftDMbJQ7pvoBKsiQyAHVDiBLgVWyuKioKO373//+iIEDB56dmZn5SwBAgSHZujECfr//g7q6ut/u3bt3/ZlnnllDUyHCwFMpjevCLH7FglSpsNQhpbcNiwKpc6ruSXwLr1mrS4xrLFgCGlURLGN84n7oxtdcdx26EITuunI9ZNycIIQqxUspi6GmbJVI5oV8DJJAh6p4Ar6RSBFXJTzuuONcv/rVr4YOHz58YXp6OpKCLhcf6iHLnXTT8Pv9q2pqan5ZXFy8funSpY0kVc0HyoWZiDCgEJNVCyOYvDO6s4y6D2aapJUsWAMbiSDjX6a1IAQh6a6enj8gIQg9f42TaoahaiPw2AL6UeQxBtZJ8PgCVhZZPXGhuiHu4xLHzGysVAuN4DRTwRDdCE8++WSfiRMnnpydnf07TdNGJBVwMpi4I+D3+/9ZUVFx72uvvbb17rvv9mIdC7QG8OqUOAgW6NihzDXPgLCKMfEMCyQI1rgEHnzLy04TSTAZrqYJUYj7lSAnMK83gUIQSDQCwdQPeZQ3vbbIH6thknuByvsy6VxTu4AHl5ErAY9lmQdARYmuvvrqrPnz5x/Vp0+fP7jd7uMSjYWcL/kQ0HW9obW19c6PP/74Hz/5yU9quCATjjZUrIJhXaDgxqAlqimgkcs7W7UUrBYE9l7IQfJdLj16RGJB6NHLmzyTY64E06/KXQrGSDG1Udc0TQUhBtMy4DNCpUNrGeUQZZLJaqAqCxYUFLiuv/76XieddNJVhgshPXmQinEkuh9ADwDg34APAPA1vfe3e7Qbd7afpHm/FwLNWLDp0C0tFyCjD4DLA5CFek4uHTSXpqQcXG4AzQWg4V83gCutx2Z0BgKB1bt27brkkUceKV++fHkbiTIRYMFKWRtBr0gQlCWLtBSYu8EMaOSFwUJZFkKUnxayEONXRQ4Pj4AQhPAYSYvYEDDLLpMZ1Zq2aLgUzGsRfyitwkYGWaAfVip53EHxEIdJxXqCyRtPnDjRfc8990wYNGjQY5qmHRHbtLrgaHWj9wEEkAT4ARpKAfatAqheD3BgLUDteoC2ui4YGADkjgQ9d1S9NuD4PBh0AkDvyQCZ/QC0tJ5CIppaWlrufu65536Pss9UJpuyXYxUWNRdUOmSpLbJy1VzomBk2JBLTLkycOEo8Ja0FJAsG+mQHYSWrPE6kvXQNZd9Tz+rEISevsJdOD+rPLJVcpZnHnCde6sbgdIVcSpGRoKSP+buA/pBxh9oHnCIrxcsWOB+7LHHfpiVlXUXAODjbnJviggEALwNoO9+u06r+E8+7HwFoGVfco873Oj6HwswaKYPRpyZBgXT2q0QaJFQ98Dus/n9/g9Xrlx5zs0331yLgYmsgJNSbLRkxuDETE0FXuyJZkzqjPjeUmpc8YRgVSKt+4UgdJ/rpzuNtHt9M7sTsik6Vu5KsKYwWssrU8oXh4r0CyhVjGckGD/G6polSwG+JlLA+zECEcHr9f4rLS3tnKS3ge9+uxW2PJIBO14C8DUbU+npVmStnRxkFwKMOg/g8B8C5HWfWlW6rteUl5fPGT169GbSVaCARh63wIMag7nE0BWBC04uCHxtqRmiiAPJi3NywIMbLXE8Pf3iSdFf2MROWwhCYvHukWcjS4F6VGoPIVDzJDMotxwYKYnqB4+kkFm8gTqQq9RRNgL9sOKNnjISeNAhVUjE4//yl7/knXrqqa9qmoY5je6kA33fRwAb7gGoeBPA32TECsjvuVonFduQ1h73MObiNjj88nTIGZZ0S8gHpOt6U0NDww+nTp36PKVJ8loQqNZI2husQJQp6Y2uB4pVYNLQGDejB7MoWLMc8KtWVFTkIj0FsSYk9eXSrQYnBKFbLVfSDrZD3QRrURoaNSnI8QBEw6xqEgPSvOfEgI4vLi426yIEizG46667es+dO/cDADgsqQojlf4LYN0fABq2Afhb2+MIZIscAVc6QFomQOEZoB9xbZPWf2qyilU1NDY2XnnUUUctxxRJvHFTjAK+MVQ6lRuCAhlxP6v70SHzgQDiRMEqtBQsPZgBK6wz8qtMWgZBQAiCXBa2EeAxBqFMndQ5r5eA+7CojVHcpoPFAD8jXQM+MK58SPsNCWRYsWJF3xkzZhQDwJikIAY7XgBY/VuAg9sBvAfbAwplcw4Bd7oOnjwNCk8HfcqSg1rvw3Od69yRnhra2truuPDCC+/euHFjh8UndwOPU8Az8qqSFMzI3Wys2JgZp8CDFzsRGTNLQjgyM+kkpRAQgpBSy+3MZJlLwbx+mOIbqb/RD5OZshgkEFFlJXBSYC2gRMWT6AmMz+Cxxx4bdMwxx7yhaRrWROi6UsqtNQCfLQGoeBWgpQYg0OoM0NJLZAik5QQgq0DTJ//qoHb4D3tFdlD8W+m6Xtfa2vrHxYsX3/Xggw/68SYfTMYZMx2QAJP7AS0KvMw0jRRJNb4mCxwVJ8N9pDZqkSYXqeb4L3OPPoMQhB69vPGZnEUNUf0IBXuCIaEjFnDVIcaAWwpIhY4IAquq2EHDAK0GL7zwQuGkSZOe0zRtcpcRg8r3AVYXtacWtuyPD9DSa/QIuDygZw4MwIj5TdoxN+ZCRr/o+3D4CF3X9zU3N//myCOPfAzrPViFl4JVkaQhGLoepqsACQB+xgN8aV+Q1EdVz4TXepD4BIcXt4d3JwShhy9wPKbHlRDp6YXOwy0JFJBITz1IFCgYi4sc0bHW1EUKQiRxmptuuil3/vz5f3O73d8FgOACP/GYMPW5+x2A1b8BqPsKAK0GsiU/AjmFoA8+uRGOvVXTsod0aeyCrut7GhsbF/fq1etldA+gmicGNWIQI3c5BAloRJwVMbCmRKoP2r+QZt0GXi2SAhoZeZC4hOS/apNmhEIQkmYpusVAlKXAqhtP6Vdc14CecFgUNl1rHarfUeAhzt7qTiBz7BVXXJF55ZVX3u52uy8BgJyEIlW7CeCTawD2lwC0Vif01HIyhxHIHQkwcgHA0b8B8HSdJ0LX9U0HDhz44Te/+c0SHsyIs7UqM5aUlCgNBdzQmoApkRTIi/u42wEJ+LJlywKEmjWbiO0XkuDwpdVTuxOC0FNX1sF5UcwBplKROdN4cjHr2lMQIlkLGFkwgxFR5IgPi9wJFN2Nn3GhI7QcrF+//oqMjAysqIh6v4nZ0GWwuqgVdr6cYcoSJ+bMcpZEIIBZEfnj/TBpsRsOWwjg7pJinX6/3//u2rVrLzvmmGP2UJlxJMVoUSAYeFwCJwkGOTAtCpaU4Q4EIIikuTI6YB8GiRDCkIjrrhueQwhCN1y0RA85mLYBjoHpG6hARIMckByymZ0QRMtAtSWxIyPty4w1QNPrxx9/fFTfvn3/qWnahITNt+zJdn0CtBZI5kHCYO/SE2G9iYEzQT/mt81a38ldwRSavV7vw//+979vvPTSS5t5ICPiYlQdxe+KynTgsTpWgSUqe85IOn0nFQEIor6odncp/nLypEZACEJSL0+XDo6uDfNpg4+G1JCsxWaoSh0pIuIxrPSyIgW4L5g7AYnBI4880veEE054yO12n5oQkaPmPQCf/xpgJ2YgdHMp4y69XHrAyfseCTDuMoBx3wdIS6wnS9f17fX19dcfe+yxrwQRW1I3cSIJVqSptDTupxoPvFokF1DiAcbUjwQu9oBrN05TEIIQJ2C7a7fWFEZrJTlecImeVIy5mimL+B6DEA0Nei1YhgJaN7lZFcnBhg0bFns8nqWapuXHHb/db/vgy1vTYN+HAAFv3E8nJ+hGCKT3Bhi1AGDy9QB5KK2RuA3dDlu3bv3xOeecU87Pas10IOlwKgaFMuS8ZgkPZqR+eDYD7gtWYl3IQuLWujucSQhCd1ilxI+xgzIi/ZjgX4qQJnJgiB1hIJULf6QwzoCkY7ENkQPjtbreuAoixhl8+OGHUwsKCh7QNO3IuE/1qwcB1t8NULc57qeSE3RzBLDU9dBvB2DilS4YekoiJ3Owra3tnkmTJt2CJ+UWBfwKktQ4SwXmgYwd1Bh5EGOwWg5BiIK4HBK50kl+LiEISb5AiRqeNXXRel6WRqWuGWtJZtyH0dX0ZGPEF6gfLhSBoTQuLItL6V3XX399xq233npLWlrajwEgPW5z9bcArLkVYNNfJRMhbiD38I4Ljgf9iJ8f1EadnTDVxkAgsK66uvrKAQMGfGbECiirHAYxMnIQLD7BTIk0vpdmTQf0F7KAYjM2IdjqSQBjD7+mI5ieEIQIQOrhTUxrAc+ZtuZVG08aHcgB4WLEGCjrgSHs0qHaIpXAxfYYpY0E4bPPPjs1Pz//Lk3TRscN37Y6gC9vAdj6CEDrgbidRjpOIQTyxwdgwk9cMPEniZp0m9fr/eeLL764dOnSpY1kUbBmOuB+stxxSx5ViGRBxLyktConTVuQstKkxChWhUStdpKdRwhCki1IIofDrQbWnGmSbrWOh9Kp0FKAfs5gaohUN8EoSNPhGlu2bBmKHd3ldrsvjFsQYlstwBc3t1sMUk322KUBeNwAbhdAuvE3zdX+Hj/Dv7giLkOZ2h3kJyCg/y+23R9AvxIA7vMFAPA9/sPX+M/rb/+Xalv2UIAjfwkw4aqEzFzX9W319fU/6t2790qqy0AnZuWk1S4Wl4BvTWuCVaqZkYZDshwstVWEICRklZPvJEIQkm9NEjkitf7WPGkuhkQuA16SmddPMCKoQ4ofkRoinmfFihWz+vTp83dN00bGZZJIDL78HcDGe4wSynE5S9d2muYGyEwDyEhrJwDqb1o7KcgwCEFXjJCIQqsfwOcHaPUBtPkBmtraXyPB6Ilb9mCAo24EOPxHiZid1+v13n/dddfd9O6777bgCUm2mbsdWElpNSYursQrQ+Jn1riETn4PeugCJmLZuu85hCB037VzYuQdCAJ2aM1SsJ4ELQi4j1sOyGKA+9FqgEGI+FRD5ODiiy/OuOaaa5amp6dfFxeJZF9Tu37Bmt8B4OuesOHNPyu9nQxkeQCyjddoAeiOG5KFZm87WWhsBWjxtb9Ha0QP2PTswXUw7UGXNuKMuEs06rq+sbKy8pITTzxxHUGXn58fwPge470KZKRdcsx3AAAgAElEQVQKkeR6oHRIynDgKcrBKkPy3wPjoUFIQg+4VqOZghCEaNDqIW1D5EKbQirWGgrGk4pGEq8UjEgBiDxgimcoIJnYuXPnuKFDhy7XNG284/ChmNFXDwF8ci2Av9nx7hPWIT79IwFAItArAyAnvd0ikAobEoWDre3/WrwATd2cNBQcDzD1tlYYMiuj3ZcTt83X2tr6iyOOOOKveAaUbA5RLVLd1KlCJKuFgrEI5g0/VAokj0Ui8hG3GUnHSYdAXK/gpJttig8oWJGlYBXguFuByAH+NYgB/thoVJ4W/xqxBqZMMgYhYvvVq1df3KtXr3sBIMNR6PUAwI6XAT69DqChzNGuE9IZWgWQEORltv9DN4Fs/0OgsQ2grhngYBsAvkaXRXfbRp3bDEfflAW9J8Z15H6//63PP//8ouOPP77WqsJoiU1AMmBqJZCbEAdHMQ1kUQjmdsB2zPUoloS4rmrydC4EIXnWIu4jsVoO6OmAyjLzAdCPBbkU8DNeiRFJBOVj42fkTkCf6MMPP5x7ySWXPJyWlnaW45OqWQPw6S8Adr/leNdx6xDdBTkZAPmZAL2zATzd1E0QN4DCdIyuiJomgIbW9piG7uSWOOa3Oky4SoOMvvFEr6mmpmZ+v379ivEkY8aMUdoJVCXSkGtWKceUZUQyzTQoa2wC7UcrA5doltTHeC5j8vUtBCH51sTREXFlxGCqiCR8xIIQVQ15/GEwCi5htoJ6YggmmUzkgEoyv/XWW1MGDx78OmZdOTqRtgMAJb8G2PSAo93GpTNNa3cX9M4C6JMNkJ34ytRxmVcydIoZFXUt7YQB3RIY05DsG5KDafcBjDpPBw1TSeKyBVpaWm6ZPHny7UgO0IqXkZGhvrdIEIx6J4dUhuQjwSwHng5JOZBB3Ax4mFFlWhNrQlyWMzk6jdfFmhyzk1GYCISKO6B4A2uxJTqQF1rCfdYURpRLRnKAn3355Zfn5eTkPOJo+iLKIJc/B7DyUgAUPErWDUlBbjpAvxyAvtnt6YSyxR+BNh/AvoPtpAGtC8m89T8OYMYjAH2OiNso/X7/R0888cRpt956azOPSyDdBMMdaBIFDFykwRBBsDwsKCbAB8wIg5CDuK1kcnQsBCE51iEuo7BWYaQMBToZlWTGHwSUTLYOAuspMLMkvtaJIJBLAcnB/Pnz02+77bY/ud3uyxydSP0WgA8uB6h839FuHesMHwYxlqB/DkBBwgT2HBt+j+sIUy0rG9rjF9AtkazbUTf6Ycr1WBAqXpGo+tdff33syJEjNyAE6HJAawLGJFC8ELcooLAStuPZDSGKPfE4BJ4eLUQhWa+1GMclBCFGAJP0cCXJaoztkLoKuJ/kVslyYAggUTW4DsQA21O8Adc1wP3PPPPMoEmTJn0KAAMdw8LXCLDxPoDPlzjWpWMdIbKZnnbXwaA8gGBCQ46dTDqyjQCShZ21OjS0aEqPIdm29D6gz3m2VRs8MwO0+PCExsbGi7/1rW89+9FHHwUogNH4LuuUAkmw8BRI3MdjEvA3wvAnmChS2iNzYSYbwjIeBxAQguAAiMnWBX1pi4qKXDx9KUxQoroWuDoiBjRhTQX8MWGuBbMKoxFvgDrxzm01XwK8NQ+gcYdzfTrRE6YdYsZBYe92gSLZug8CGNxYUdvugkg2wabRCwGm3QvxCmL0er3/WLRo0eLVq1d7KU4IF46sCaS6yIkCvjYylsyYBNxHcUlFRUUBcllaKkKKJaH7fCsiGqkQhIhg6l6N8MtLmQlIEKjGgvElN+spUMEl9oNgKiIWFxcrlwL+NTIW0DypCi1h+y+//HJBTk7OE44hg1aDNbe1/0uWDeMKMCURSQEGHMrW/RHYVd8EVQ3ZSSUPjeWlZy8DGDIH4mFNCAQC61999dWTr7vuulp0NSBRwEBGS2VIMy4BF5ncDqSVwESViASoOg2WDAchCN3/G9JhBkIQetCC8kBEqqXAvuCYmcALtajXFHvAgxGNVCi0FBxyfUyfPj3tgQce+LOj8Qa1GwHenAvQtCs5VgMDDPOzAIb3Th3BouRAPnGjQI2Fr2vaYxU6xuAlbgzWM406D/T/eyigeXo5HuGq63rjtm3bvjl27NhSPC1PhQxWNtogCfgbESA3JMUlBLNK0lQ0TbIauu4Ccv7MQhCcx7RLeuQmP7IUUA4zvrfGHNAg0Q1haLWb1gMeiEha72g5uO+++3Lmzp27TNO0kxyZJGYobPwLwKc/d6S7mDvBokaD8wEGxV0tN+ahSgcOIYAFp8pr2gMbk8H9kJ4PcPqKVugzxVlxMQOuffv2TZ8+fXoJWhLwu41ZSCSoZNRwIMuhqb7IkeYFn6xEgdqJLLND12YSdCMEIQkWIdYhWC0H2B/TN1CmQHoKwM9I/IiUEQ0XgqmIGKw880MPPdRn5syZazRNGxDreNXxbfUArx4PULvJke5i6gTjCw7r3y5zLFvqIvD1AYDqxuQQYpp4NcA3/gDgSnd8PRobG39wxhlnPFVVVWUWwuAZDnhCynLA11xUiWslEEHglR/xQYTtF5eD46uX2A6FICQWb8fPFkoIyaqOGEwZEQkCyibjoLi+AbkW8AkDLQevv/766LFjx250ZvA6QPnzAMULAQJdnLeOxGBMf4BcIQbOrG0P6WV/Ywt8XZPZ5RaF/PEAp3/QDJn9HQ+AaW1tvfOiiy66+YsvvlAkwbAoKEEl2qgqJNVxYLVYDhFUshAD1YVYErr/90EIQjdeQ15bgWIOcDpMBdGcHVoNjNQlVEZU+6kiI9VTMJ4a6OlBBSSuWLFi0uDBg0scgQmLK733PYDyZx3pznYn6EoYO6Bd2Eg2QSAUAgeaALZVd32MAgYwjjqHSqQ4tl5+v/+5GTNmXISWBNJJoM4xLsEIUu5QLho/R6LAYps66CjxTCkm0yyWBMdWLbEdCUFILN6Ons1KEMitYJAE81xc64B2WskBG5hKY0RCUVtbOy8/P/8ZRwbtbQB4bkLXBiJi8OH4Ae3VEmUTBCJFoLYZYGtVpK3j0k4fc7FXO/FRj9MVIv1+/4qTTz75lIqKCt2S4YDzoEqQmM1E8+pQ8In0ElTj9h8kU0DJiHtSKZESvBiXyyLunQpBiDvEcTmBuW481oDLJrM4A/xCm6WaiRiQxgGOjurIc9nkNWvWXJqdnY2FD2K/RireBHh7Xte5FFwugAkD2lUPZRME7CCAt0rUUqist3O0M8fkHuaF+Ws8kJbjTH9GL7qub3/iiSeOu+mmmxpzcnICFJhsDWA0xJRUMDNJNHOCQA8mlFrN/+JnQhIcXbaEdBb7j39ChiknMem7rqs1I58fZ+y0n9ryokvkViD5ZGumAukbYH50S0vLTzIyMv7oCDn48EcAWx7sOjPtqH7t9RHkSpcvkRMIYEokBjNWHXSit+j7SMvywSlvtcLA6Y6yBF3Xdz/99NNH3njjjQ282BOSBVbHgSSZdfwdofLR1kqQvFw0abCweASu8hr9/OWIhCIgP5sJhTvmk9F6YZCQqZJoVUhkegcq3sDIVlDHojIiHwVKJxtPDBhzgK6F69LT03/nCDlAl0LdV0z1Oeb5R97B4DyAIfkAcSueF/lQpGUPRAClnEv3t1eUTPSG0sxTlvph6m8dlfTUdb3i2WefPebcc89FM4mOFgTcjHLRptw6yTQbbgflckCSQBYE+sKzWi/qMwlaTPSFEvv5hCDEjmFCeiA/njXuwPgyYhqjuZZGzEGHYETyISJBMFwKKv2RE4G2trb7PR7PopgnhPEGz44FaN4bc1dRd5CTATC2vwgcRQ2cHGALARRaWrfnIGiQ4GpdGuhDTmnQTn3DUdEOXder3n///WNmz55dhTd9kmc2HiLMstGIFboacCN3A6ZABhNTCoaruBtsXW0JP0gIQsIht3dCqxASSZzyiozYM6/KyKsxcssBFVziloPNmzc/4Ha7f2BvdOyo6hKAV2cA+Jtj7irqDiYOkgDEqEGTA2JGAN0OexoaYFetozfriMaVNzYA52xxVHlR1/W9K1euPG7RokX7aAwkrBSsbHSwktFWawJZEPCvoZtgxDSK8mJE69xFjYQgdBHwkZ7WqnPAa7HzmgvUHwUnUjAi7sd4Ayq4FCwgcePGjX/1eDyXRjqmkO3W3w3w2c8BdFN/JeYuI+pgSF67AqK4EyKCSxrFCQF0O2zbD4DFoRK5pff2w9mb3JA1yLGz6rpeuXLlym/MnDlTkQRyIeBrdDlgSvTo0aMDPOiZBJWMypEqrZqrLfLBoQVBshscW664dSQEIW7QxtZxMHVECjpE6wFuXD7ZUq5ZfY4iSBSMiO9ZvIESQMJ9mzdv/qvb7Y6RHOgAxRcAlD2d2HiDDA/A+AKAjLTYwJajBQEnEUDZZkyLTGT2f1q2rs9e3qQNO82x4EUMXFy5cuXxM2fOrBozZoxuFHhSQYuok2D8xqgUSHQ3YIEnI+ZJCSlRejX7ayJCv2HianDywnO+LyEIzmPqVI9UdRHjC/ALpyRMefYCjzsggoAnN76kmhFvYAof4WdEDPD1xo0b/+bxeL4f04BR/OjNkwH2mHnSMXUX0cGIzIh+AP0lOyEivKRR4hFAa0JFrQ77GxP3G6u5AGY8CjDmIsfmq+v6rg8//PCESy+9dG9paakq8oTuBjyBpYaDKcnMS0VbiIIpqkTyzP+TTxBXg2OL5mBHibt4HRx0T+8qVOElo7yqIgmEAQUkksUA/YFUmdFoo6oyUrwBHdfa2npTenr6L2PC0t8C8NIxia2nkJXeHoQoVoOYlk4OThAC9S3t1oSEFYLSAMZf7oPpf01zKrdX1/Wyt956a9pVV11VF65cNGU2ILqktkgqrriPUiBDoJ9Im0uCLoDufRohCMm5fmaddZ4qREJIxpdPjZy7FvA9C0yktTWVEQ0LAqxbt+7azMxMTGW0H9zkPQjw4lEADdsSg6CmAYzoA9A/16nfvcSMW84iCKA1AbUTULo5Udvo7wHMetKRbGUcsq7rW1588cUZ119/fR2+R3dDkEqQZgVIfEgJld3AraBG32bgYqLgkfNEhoAQhMhwSnQrlbbItMzV+bmUMpEDgxQotwJZDihjgbIVsA2mK+HftWvXLs7KyroVAOw77ht3ALw6HaCxIjG4oLVgbAFAlicx55OzCALxQKCmCaCsOgC6bp+YRzOu4Wd64aTnPYC6CQ5suq5v+P3vfz99yZIlLehqIJJgTYHkSou8wBOlQKLVE30NXEQJh8fdDg4MV7pwAAEhCA6A6HQX1gBFa40Fw6+n1o4TAxoHEgQKSCSxEyQIhnzyvTGRgwPrAV77P4A29SAR/21ALsCwPpKhEH+k5QyJQKDVhwJLfmhqc+auHWbMev9veLXTV3jA7UzFUr/fv3LMmDFz09LSMGhRPbcYtVt0LO5Ew+EiSpwk4Of4+xUsu4HSHxOxDHKOyBAQghAZTolopSRIuRASsWoLQTDXjFQSMVuBRRKrmAOLwIm2d+/emQMGDHgRAOyXjq1ZC/DqNABfAkylWFhpVF+APtmJwF7OIQgkDgGMR9hVl7C6DnqfKU3ad1ZlO1XDwe/3P5+WlnbByJEjoby8HAmCjgGLlNlgAIkZDSjJTLiaIkq0g2IUWEaD2TZxiyFn6gwBIQjJdX2o9eBpjEZQD7obzLShWbNmuYzCKYpD4H/kVkCdAyaRqrIWPvjgg6MGDhz4XwDIsz3dmi8BXv0/AF+j7S4iPhCLKo2RQMSI8ZKG3RMBrBK5vRrAlwDdkL5TAE7/AMDjjJaT1+t9eNy4cT9FSwKCT0JK+POFGgm4lZSUoFVBKS1STIK1uFOHWtFMRKl7LmjPG7UQhC5e02DuBG45wDqpwco1IzMnnQMUQSouLsa0RqV1gMejXxDJwd13393r9NNP36RpWn/bU61eDfDaiYkhB+JSsL1McmA3RKDFB1C2H6CxLf6D73sUwGnvA6Tbf05ggww0NzffMHHixPuQJFDqI35O6Y9EEkhAiY5FSebOtBGonbgc4n9JhDuDEIRwCMXxc2s6Iz8VK+NsWg64SiK5FKxVGXnMwdVXX53xk5/85HNN08bangZKJ782M/7kAFUQh/cBKEiwpL1tYORAQcAhBNDlsCNBFSL7HQ3w7XcB0ns7MXh/fX39pfn5+ctRSImTBCrwhCfBBxfjIYaqQWK2FYkpBdNGMK2oxsOSpD86sVo2+hCCYAM0Jw7h5IDXVaDgHa51YFgE1Frx+gpoviOCwF0LGH+AAUQ+n+91t9s9x/Z4938O8PpsAF+cS9umuwHGFEgdBdsLJQf2CAT2NvhgZ20aGEqpcZtTv2MAvv02QHofJ07RVFZWNuukk05aZw1cpLgECl4kpUU8KZduxvc8aJFlM+BHIsnsxCrZ7EMIgk3gYj3MGoxoMGXVLekdWF0L5Mfj6YwYGIQMnWosoFvBIAf/dLvd59seZ6LIQW4GwGH9AZAkyCYIpDoC9c1eKKvxAGonxHPrf2wbfPvdNPD0ciLlsvapp54au3DhwgYj/VERAHRzoiyzYT04pPqjpUS0YgI45RA6CWJFiOf1EKJvIQhdALpBizG8QJ2dLAg8OJEPi4shUXEUXmMB27LYA62xsXFRdnb2fbZVUg6sA3jlhPhbDjBDYXQ/SWHsomtQTpukCGBcwtZ9rdDicyY3McQ09cFzfNrc1wHcscuS6rq+bdy4cZPwVD6fTzOsCRiwaN7YkSjg59ySgO87syawByexJHTB5SoEoQtA54GJwU7PAxPRmoDpjLShi4HXWMD95F5A18KKFSuOGDRo0MeaptkTQjq4A+ClowFaa+KLDFZgHOqIHzS+45TeBYGuQCCge2FLlQcaWuJ79sMuBJjxCIArdhEyv9//8pgxY87D1Edj0EojATeqAImZDfge3aO4YYYDJwiG1VS14Q9OErAY38sgVO9CEBKPe4dURn56TgyML5VGecSYsYD7uOWAEwP8bMmSJTmLFi3ahYHEtqbVUgXw+sz41lYgyWQJRrS1RHJQCiGg6z7YXpMG1XFOLT78xwDH3+MISWhpabkxKyvr91TUCd0MRBIou4FIAmU3sIBFMyCbYhKovD2tulR/TOz1LwQhgXgHsxzwL4C1fDMOjVwK+BozF8h6gO9REImGj9aDLVu2lGqaVmhrSmgxeGMOQM0aW4dHdBBmKqBkcp49/hLROaSRINDTENhVC7C7Pr6zOvLXfph6ixOBQIHKyso5gwcP/pjkmDEuCjMcePVH+j2zkgSaJBV1srpf8XMhCfG9FDo8tCbuVHImRICCE43XChQkCdbSzbifJEqtQYm8OiN+CdHnt2XLlkc8Ho+9oMSAF+Dt7wBU/Cd+i5TmAhg3QDIV4oew9NyTEdjb0Ag7D+RAHEP19OkP+7Txi+y5JjtiH3jnnXeGnHzyybWhLAkkooTxCHgoulFDxSKIFaHrLmyxICQQ+1CpjVwlkUqjGoRBrQ+lM1IgIjLxuro6FX2M5GDNmjXz8/Ly/m1rKnoA4IMfAGx9zNbhER3kcQNMHCSZChGBJY0EgRAIoPJi6X58yogfRCe/GIDh82LObNB1fd+8efNGvfLKK35e2MlqRaCJkDIsyi/T7yGXYg4W0C2WhPhdBtSzEIT4Y2yewaqaiB9wywF/TzEHvMYCfk5uBVJKfPXVV0eOHz9+s+1prL0D4PNf2j487IFIDiYNAsC/sgkCgkBsCNS1AGytih9JcGUAfHd1G/SemB7bQAG8Xu+DM2fOvKaqqiqAlR+xP8xqMArJdSjuhJ9ReWhuSeD6CEGqP8aRKcU6+55xvBCExKyjRimM/HRWMSQiCFShEd9b0xl5YOJVV12Vdc011xywPYWtjwKsvNT24WEPRG2DSYMB0L0gmyAgCDiDQL0iCX4I6PFh3Rn9AeavA8gaFPN4a2pqTpk6deoKa80GJApGcSdVr4ETBDrpsmXLAqSJgPu4gJIRmyAEIeYV6rwDIQhxBNjqUuCnCpaxQJ8H0zogQSRyLRQUFLhWrlz5hNvtPtvWFGo3Arx4NEAgThrwaDGYPATALZeYrfWRgwSBzhBoamuCjXuz4+Zu6D8V9NNW6Fpadsxf4FWrVo285JJLKmk6RmEns6gT6iPggxD+5VYEcrficSHKQ4s2Qpy/JTEvfpzH1927VyWci4qKXBSVixPidRYMqwHmCauURirhjITZmrFAEsojR47Uvvzyy9Pz8/OftQWQtwHgmeEAbbW2Dg97EFoMjhwqAkhhgZIGgkAMCDR7ATZUxs/dMHohwMzHAbTYDBW6rlcuWbJk3PPPP6+eRlDplQUvdiAK+LkRuGgWdCKEeOojumaN31SxIsRwCYU7VAhCOIRi+1y5FihLIVSdBYpDMMiBuSZIECgwkYaBJGH58uWDjzrqqO22hqb7AF6aClCz1tbhYQ8SchAWImkgCDiGQIvXD+v3uOOV3aAf+ZsGbepvY64R3draet+YMWOur6ioCOADTk5OjqpxzYMWKd7KGouAQYsLFizQ0OWAgYlomeVyzOS+laBFx64qsyMhCM5jqnoMVqmRyAKXQMYLn4aArgWKOSCzGy/fjIIjF110UdYNN9ywCQAG2xp68UKAsqdsHRr2INQ5OLpQLAdhgZIGgoCDCGCp6I2mBd/Bjo2uTn5Fh+FnxHyvqKysnEX6CMEqP1JRJ7IikDWVMhsMa6wah7FPrAjOr3aHHmNe9DiPr9t2zzMWiO1yISRDUtSUUUYJZTZZdC+YEsq0v7Gx0bVly5Y7PB7PYlvAbHoA4KOrbB0a9iBUSJxaiJFEYZtKA0FAEHAYgXiShLRc0M/7ulnL6JsV66hfeOGFgddee209Bi1y8SQjYFE9Wxnn0IkgGH/RcqDzoEUai1gOYl2V0MfLr3kcsA0mhoSnoawFdDWce+65KrSf4g6M17QeGqUzokvBCOrRysrKxo8aNcqe1GHTLoBlowBQFMnpDUnBscOc7lX6EwQEgWgQaGqrgw2V+dEcEmlbPX+CV5u/wRPrA4DP53tj7Nix8/G8RBLwNZNhRt0XFaxIwdpUr4Gq2xqRiWroFIuAr4UoRLqakbcTghA5VhG3JOsBz9ulOASrKBJXS8QT8LRGI19Yw4Ceq6++OuOnP/0pRhXaW7OnhwI07Y54DlE1PG54VM2lsSAgCMQJgX0HAb6OU6G1UecCzH4m5oHX1dWd07t379dGjhwJVNjJKA9tWg+sqY/4O0nCSVxAySAGiigUFRWpuAbZnEPA3s3GufP3xJ7IR4YXLJU4V9YDKznAyZOMsgGEshygCBJtqGOOrzdu3Hifx+P5oS3AXj0BYN9Htg4Ne9DkwQCZsVeCC3seaSAICAKRIRC32g0awP/9A2BczNopgXXr1o2dP38+FpbDrAYdf+fwL+ojUFlo/IyXhg4moMQVFg2yIFkNkV0lEbUSghARTFE1MkWRuBASk1BW1zGVcMbYA2LLVusBNsTj9u7de+yAAQM+iGoU1HjtnYZSYhy+NxMGAuTGtWS9rSnLQYJAyiNQur8ODjQ5725wZwKc9zVA5oCYINZ1/ZPRo0fPIgElIgfUKScJJMNMv5lEFNBVaxFSEl2EmFbl0IOFIDgEKMUdsJQbMnvhnVlZD3CjlB2yHHByYATqqDXBjAWMP/jFL36Redlll+3RNC36AKHmSoBnRsRHDGloPsAQ539/HFoO6UYQEATW7gFojUPMUd54L5yzOWazYW1t7Vl9+vR5kwITyc1gBGibCou4kEQSjN9Q9bRDFlkiCpbaDXF4Ikq9S0oIggNrHqyMM7kUqHu6mCmt0VLG2cxaYMPRMF9469att6elpV1ja5gohtS409ahnR7UPwdgVD/n+5UeBQFBwDkE8Bb5RQWAPw6u+bGXAsx4JNaxNq9cufKwE088sYaXhjbqNigBJau7wVLMCdPJFREQXYRYlyL48UIQHMA1VNYCXbh0CnQX4GsMuKFiTNytwOssoNrY7t27Jw0ePPgTDPiNepjvnAXw9YtRHxb2gJwMAHQtyJUTFippIAh0OQJIDr7cFYCA7mxBFJdbh5Ne1mDYaTFN0ev1PjV69OhF6GrAgEVSWORZDWhhQEsrCSgtX77cVFkMVswJByS1GmJaFvNg+Zl3AEfuXrCUJcVYgw4SyuEKMaE7Ar8kc+fO9dx3332rNU0bG/UQd78F8J9vA+j+qA/t9ACsrzBliAghOYuq9CYIxBeBZq8fNsRBbRHjEBbujXns+/fvnzVt2rSPqSMjrVtVfkS3K6Y9BqvVQO2DZTUIQYh5WVQHQhBiw1HhR3EHPK2RAhTJtUC1FtByQJKieNFTESZMacSYA5/PpyGbXrNmzcXZ2dkP2hrev3oDtNXZOjTkQaiSiORAyjY7i6v0JggkAoHqpkYo25/j+KmGnHwQTn0rN5Z+dV2vWLJkyUSs1YCWU2PTMQ6LSzGTNkJnZaHpN5j6MB7eJB7B5gIJQbAJnEEMFH5oNaACTFSUycjLVYE0uOF7civge3ItGFoHKiiRXBBr164dOnny5M0AEH0gENZZqF4dw6yCHIqzHD8AoFems/1Kb4KAIJA4BMr2N0J1k7MkQXOhNkITjDwnO5aJNDc3L5k4ceI95eXlWMjJVFmkByheGppSH3naI52bp5bT77IIKNlfGSEI9rEz6y1YpJTRP0ZaCNS7SmsMFphItRbQeoCN0YJQWlr6L1tlnLcvA3jve0ytNIbJ8UMxWwGzFmQTBASB7osAPkdv2AOAVSCd3NJyAnDxwZhiHHRdb1m/fv3RU6ZMKccfMIpFoGGiJYECFrklAeMRjAewoCWhjQc4sSDYXG8hCDaBw8NCFWRCwsBrmSNhCEUQeGAi9rlq1arZBQUFb9ga1qMZzqc0otXg8Nhynm3NRQ4SBAQB5xHw+X2wbk8a+JzNbNAHzW7STns3JisCBiyOGzfuB2hFQJVF0kigmg0lJSXqRo8Bi+imXbBgAbohdK6HQFYD88nMsJWI4vMAACAASURBVO6KFcHepSQEwR5u5vVnuBJUtg0XRiK9A8xYMLYOgkjcckD10Y3AxI80TTsi6mH99wyAiteiPqzTA9LdAEcMBnDH9HDg7JikN0FAEIgNgboWH2zdl+ZoiWjNpcMpb2kwZE5MY9u3b9+pAwcOfN9qRaBYBOyciAISBH4yoxy02kWVc6UUdEzLIUGKduGjzAUqFmKttUBBiWQ5QMY7depUMygRz0uBifi6tLQUSz0vys3NvS/qMVWuBHh9prOuBSzApOIORCkx6vWQAwSBZEdg54EAVDY4y/zTewNceCCmmQcCgQ2//OUvpy1btsxLxZxQep4CFq0Ki3gy4yGMiyepBzYWgyBpjzZXRSwINoDjwkiG6QpxNNUSKdiQuibVRCQItM/qWrjtttvyzjnnnA2aphVENSTdB/CvvgDehqgOC9tYlBLDQiQNBIFujcCGygA0tTlKEvSR59drc57MiwWXgwcPXjVhwoR/IkHgUsxGIDdqIigyQNkM+JoHLFKgojWrTIo5Rb8qQhCixwyPMOst0OGapimCwMmBVU65uLhYKSZa3QvYX1tb250ej+fqqIfzyTUAG+6J+rBOD8D6CiiGJJsgIAj0XAS8/iZYvyfb0XgEzQ1w9lcAeYfZxk3X9apXXnnlqOuuu66aOsE4BHy9YcMGikMw3QuU1cAFlEgbAY/hVl5nzay2p9htDhSCEP1SIRHQSMGLXAvGhajSGq3uBToFT200LnaF/4YNG4ZNnDhxHZZFj2o4jRUAzwyL6pCwjdNcABMHAWREL94Ytm9pIAgIAsmFQE1jG2yrTnd0UNmFrfC9nTH5Jtva2m4bP378LaiuiJLzaEnAWC20FGA8AgkohbIiULo5xSCwBznJaIhisYUgRAEWa2paEKyxB4bugcKVRJHwNcUfoLXAMJVhvi+mNGJq40Nut/uiqIaiBwBePArgAPIKBzessYC1FmQTBASB1EBg2/5GqHFWH0GfvbxVG3VOLCTh4KeffjrlvPPO20PkgOo1oMIiLYwRsKjeB6v2yIgBvRSCEMVVLQQhCrBIeTIIKzVxDFaMCU+B7oVJkyZh+qNJDHD/zp07jyosLDRlRiMezp73AN6ILWL4kHP1yQYY0z/iIUhDQUAQ6AEIBHSAdXsA2nzOTub7bQCu6LXeaBBer/eJ0aNHX0FxCAZRwCJO6iZPVgR8zS0J1loNPPWRpPDF1RDZUgtBiAwn1coSnGhKLGP8ARIDo1ypqr3AizFZ1MCw1oKyHKDprLS0dLnb7T4jimEA+JoAnh4K0FYb1WGdNpaURuewlJ4Ege6GQG0zQGkVOJn6qI9aWK/N/ncsAYu+TZs2HT137txtFLDIYhGoVoNZyAl/d3m1R1wCSwlovipiSYjgGhWCEAFIRhOz7oKFkZrkgOSUMaURN0PQo0NgIu4n1cSVK1dOGTRo0KeRD8FouekBgI+uivqwTg8YWwDQO8vZPqU3QUAQ6D4IbK8G2N/o7HjP3wOQNch2n16v95n09PRLR44caWY08IBFDPpGNwNqIpDmDLoarGSBMhtEfjm6pRCCECFevGIjHsLrLxhMVe02Lk4kBR2w5TUXkCCg7oHX630uLS0tunqpLVUATzqsbNg3G+AwcS1EeClIM0GgZyLg1wHW7/ZDm9/t1AQDeYcfcJ29oQ9gzQZ7m2/jxo1HTpo0qQxrNFCgInZlFU/CBzLjwSxA2WQkxayEEdjvtvFarAhh1kQIQhiAuFuBN6X6C7iPpJXJtWBYEJTlADeueUCuhRUrVhwxbNiwz6L+zqy8FGDro1EfFvIAzFqYNBgAXQyyCQKCQGojUNvcDFurnDUlzl/vhd6TbAcj+Hy+Z0eNGnVxMF0EI6Ohw42erAnkXqCKupTZgAss5aAju8yFIERBEChjgbS/6cKjWgvYlWHmIlyVgBJlLeBrjDvAdqWlpS+43e5TI1smo1XdFoDnxkd1SNjGkrUQFiJpIAikFAJbq7xQ22z7hn4IVhn9Ac7fo4Mrze79xldSUjL5nHPOwUJOHWo04Hsq5IQPZmhF4AGL+DnGhhmxCWZ6Ou6X+gzhr2q7Cxa+5x7UwmpFYH4sJY4UohiTSm0k1wJej0aaDpSXl08cMWJEdDWZMa3x1RMAqj5xDlkRRHIOS+lJEOgpCHj9AGt2B0DXbfsFDoFi7usAhd+2jZDP53vO4/FciEWcUBuBV3skVwOv9ogPaujuJYVFqy6CZDNEthRCEDrBiccdWGMO6DCq2lhcXGx+mUgQCdtY6i1Q5sLLbrf7W5EtkdGqZk277oFTG9ZamDQIIMu5BwWnhib9CAKCQBcjUFkfgJ21zhGEtGyAC2oA3PakEXRd961Zs2biWWedtROrPfJ4BBJOQs8BxSGQFYFSHvFBjsUh4EtMPpMYhDCXmRCEMASBf8xVE3E/VWykNiitbCUH+BlqH5B74d133x03atSoNVF9/dF68NoMgH2rojqs08aD8gCG9XauP+lJEBAEehICbbB2Tzq0ep2bU4xWBL/f/2JaWtpCzGhAKwJZB1B+2chmQBdDBwlm43caXQzq95rFJXA1XCEKIVZZCEKYy59bEYziH2i6UpoH6FowDsfsBUyzUdkLqHtAokgkrmQQBIw9iN56UL0a4KX2gEdHNizffNRQAJcsvyN4SieCQE9EoL61Db7a65gMs65DE3y/OUNzZ9qNiPatWrVqzAUXXLCXqyti2iPPaOCuBlwWSn9EcsBdDYabQchBJ9eu3CE6/2IrSWXyV+FrJAncemDJXFBxB/i5tVoj7luyZEnOokWLKgAg8ihhzM55/USAvR849xM0uh9AP5FTdg5Q6UkQ6KEIbNuvQ02TY/eJwJwXal0jv2vbdInqiunp6Zeji4EQLy0tVa9RYZGrKxrZZKiRQIGKyorAgszNstCirBj8+nVs4Xva16Oz9EaDICjNA2spZ7xAjYtVxR9gjAJmLqDfrK2t7UGPxxNdzYX9nwO8fJxz8GIRpilDnOtPehIEBIGei0Crrw3W7UmHdhkBJ7ZG/ZKWTM2dYcuKoOv6gcWLF4984YUXvBUVFRisqAaGVgRyNeB7tCJ0Ug5axSPwctB4jMQkHLq8QhCCXPLBJJVJ94AsCNaKjXgxLl++nAf1qNcYbevz+bQZM2a4H3/88R0A0Dfyb5kO8NosgL0rIj8kXEsMTMx2zGoY7mzyuSAgCHR3BHbVAeyuc24W33oVYNjptvvzer1/GTdu3A340IVP/iwWQb3ncQjG77LabxTSU3EIZBnmdXWEIAhBiOaiPKRiIx7MLjJV1hn3YeyBVVaZAhPxc7QgfPXVV9elp6f/LpoBQNWnAK98M6pDOm2cnwkwzmEVRudGJz0JAoJAMiIQCByE1RU5oIMzD5RpuQAXVgO47D2o6Lq+/bjjjjti7969Sn6ZijghdEEqPWLMGD68KUsDuRgMiwEJJikCkYzQd/WYnFnwrp6Fw+enwMQg3ZrxB5wcYNwBmrSwYiNG01JqI6kmYj9lZWVfaZo2PKqhvj4LoPL9qA7ptPHkIQCZac7118N68vk1qGt0wesf5cBnmzLhqx3psL+23RLqduswptALk0a2wanHN8Lk0a2Q5tbB5VwiWA9DM3HTQes3rt3OfWnwxse5sHJtJlTuT4OGpvbFyckMwOihXph8WBt8+/iDah3V2smvX+SLVNXYBOXV2ZEfEKblt14BGBZdjTre44EDBy464ogjnk9PTw/Q/pycHJRYViTB+D0mcqCa8EJOlPbIFXHFgnDomslXxIJJkKwFHsjCsxbUkZTaSJkLuI9ZDzD+AD777LO5/fv3fymqL9eB9QAvTI7qkE4bD8gFGBGFd8O5Myd1T3hz+WRjFvzu0b6wpzp68vStbzTC7VfsB5SVkC2xCPgDAI++ng8PPG8v5u3yeXVw6Wl1kO6Rh8ewK4dflNUVAFga2oFNT+vVqF1cbztSWtf1NcOHD5+GQ7HGIuA+ymqgQk40ZFZxFydyiKtBSELHxZWftSCkCdMXeZlQnrlAaYtUMQzLOpP2AVNNxF6VzDIShNLS0pVut/vYqL5Xq64E2PzXqA7ptPGRQ6XeggWge5b3gX/9Jw8C5jOIPbiRHHjSdHju1t0wpL/PXidyVMQINLa44Ko/DYANZRkx369w7Y4e1wJ/XlylLA2ydYJAdSNAWbVzEH3nE4CCb9ju76mnniq4/vrrGzMzMwMY50XaCCScRLVwDGuCIgRoOTDix5AcdAhUFHIQ5GZoe3V67oFIDjoQBJwqD07E92g5wL9IDijvFl+XlJSYRmcMUFy2bNmgo48+ejvTQwiPXEMZwPIxzrnFRBSpA+avfJgDtz7WD7w+5/nxqCFeePKmPfJUGv4qj7oFuhH+9FQfeLa4V8ykznpydBXNOLIJ7vppVdTjSpkD2q0IjRDQbT/5d8Cq31SAeZ/bhs/n8/3H4/GcVVhYqOozkAQzdoipjxSPYNVFMDRs1HktMQnOmEdszyj5DnT+FzL55hjViCiDwVqt0biYqJwzKnaZ2GG+LdVdwHZUzhlft7W1PerxeM6LahBrbwf4fGlUh3TaGEWRPLayipwbQ5L0tLBoMGzZ6WTW1qETw5vN4gUH4MJT6pNk1t1/GLv3p8H3bhwMaD2I55aVocO91+6Fo8e2xvM03bfv2qYDsHV/H8cmMH+DDr0n2roP6bpeW1hYONTlcpnBikQO8C8RhNGjRwfwgQ4zGpjAHeojKME7i3iSyDCzxbW1MI5dHEnYEY9BwOGReiKZpnAfiSPha7QacNfCmDFjFKZo8sK/ZWVl5ZqmDYx4qr5GgH/3A/A79AMl1gMF/YEGN5zz6yFQ2xDfGwxf56mHt8AD1+1TAXGy2Ufgv5/mwI0Px8fiE2xUuF5XfLcOfnC6g6l99qefXEfq4IXVOz0x+3ZoVmMvBZjxiO05NjQ0LMrLy3uK5Jd5ESfURSAzLK/RQBYEJr+szm8QBTwGf7vlSxuV2dv2EnaPA6l4R1FRkYvrdePoKbWRxx+UlZW5MAAG91HmAral7Aa8UD/99NOT+vTp82pUOJc/C/DuAudAE+sB4NPneTcOgaaWxPPhCSPb4NFfVQpJsHlFP/teL7jz330ddymEGw5mOFzx3Vr44XeEJByCVU0TwLb94SCM6HNdc+nawn0aZPSLqL21ka7rX7lcrqORIJD8MrYxghE7qCsWFxermz6v8siIgUp5xE1iEf6HcuJ/MW1dBvE/yJrayIU00IrA0xpxNMhIeXAiuhVolGQ92LZt2wculyu6IgovHg1Q86UzEx7YC2C4c9ZAZwaV2F5q6t0wbwmSg8RZDqwzPGJ0K/xzaaWkREa59K99lAM3PdzfQRG/6AaAJOHyebVw2ZlCEjogh5kMXziY0fDNe2q1SVfbS0UBCDz++OMDbrrppkYcI4knGQJKKpvBeJBTv9lIEijA3FoO2iAHpI0gFoSonmyj+251y9bByjtjTVDEiWSV0Y9lWA/UHLEok2E5UNcXWg5KS0vVvkAgcEDTtMyIwdi7CuC16RE3D9tQdA/gpMWFUNvQ9fEXC79VD9edfyDskkmDdgRKvsqEH/9hIGAqY1duGE9y54+rYM7Upq4cRvKdu6bRD9uqnfliZQ0MwHk7XeCyV3q+tbX1b5mZmdeiFQGBQksC/uXyy0QScD8SBYpHwPe8FDQBLVaEdiTEgtDxq2cWZzIsCKbuATXD4EQelGhoHpjkwEi3gYMHD16Tk5Nze1Tf7I+uAtj0QFSHhGzcKwPg8MhDH5w5aXL1ctFvB8PGcntqbfGYyX3X7oNpRzTHo+se1Wdzqwan/bwQ6hu7zurDAc3O1OHF23dBv3x/j8I5pskE9FYo2ZkRUx/84NPe98OgE20RDl3X9w0fPnwk6iFgl1ifAbMYJk2aRBYEdDWo+gz4OVoRyI1MKY88m0FIwv8WRgiCgQVlL1DlRlbK2YwroNRGPITcC1S1ES80tB7ghiShrKxsq6ZphRF/gTA48ckBAD6HnlRS3Hrw1Fu94E9P9+0y83Swdc/ODMCLd+yGfnlyo+nse/GrB/vDmx87k0kX8fcvTMMjx7TCI0srnequZ/TjYI0GfdS5zdrsZyKvctsRQX3r1q3HzJkz5ytruiNZEdDSi+4GXsSJ1XDQli1bZtqqWBnolA9WFILQLqd1CA7oWqDMBVLfosqNPP4Ar1OSVkZigBfo3//+9/5z5sz5GhV6I/4l2PoowMpLI27eacM0F8BRhSltH5r+o+HQ0pZ8l/d5JzXA9RfUOLPOPbCXL7ZkwA/vGJR0M0NH468uqYazTjyYdGPrsgF5A174ssKeX8A6aM0NsHBvI2TYq0Pv9/vfHjNmzHfKy8vxQU0JJ7EaDaiJADwWwVrpETMYcEj0gMiGl9KxCMn3C9o1V7vCgQITufUASQLmy+LnVJTJMFNhDq2J34YNG5Q9FJUTN2/e/OeMjIwroprKS8cCVLeXio55mzAIIDd5TOsxzyfKDpLxCZRP4YXbd8HwgaK4GGxZL7plMGzcnpzXLqpkvvL7XVFejT26uQ5bqzSodchtNv1BgPGX2QWsbujQoUN2796to3ASuhvwt9ioz6AIAm5cehnT1Xl9BiIJBlGQdEeJQTCvRbNyI+4h7QN8jeQALySWG4tpjaiYiATB7ABdDFi1EXds374drQeRl02sLwV4dqzdL8ahx00dBqlcieaEK4ZDqzd5uS8KKP3sPAlYtF64WCDrR39I7riZ319ZBScd65Ab0LlvfNf11OLzwrrdzlgRek88CPM35NqcjL53795vHXvssasMNwN2o4SRqIATWRCwuiMJJxFJwMZEEKSA0/9WIHl/RW1eJTYOM60HnBwYIhoqewE3ij/gFRspQJHEkTB74c033+xzyimnVABA5BFWny8BWHunjaEHOaSwN8DgPGf66oa9PFecC7c9bi+nOlHTxcqQ79xTAb2yuzhEP1ETjvA8S/5WAG996lzBwAhPG1WzSaPa4PHf7InqmB7dGJ+z1+xqAa8/8mytzgCZtxqg39G2IPP7/Z+OHDlyFmUxYCdU4REf5kg4iYsmYRuKRSCSYDwgKteCYVVOWTeDEATmqWdCGWb8AVdNxAvGqLeg0huRIOCFRxoI6PfasmXLPR6P5/KorvBnhgM07ozqkJCNjxkG4E7dZT3lZ4Wwvy7y0A9nQI++lz9cJalzHLWWVg1OWjwsKeNG+Dix8uP79++E9PZMOtkQgQNNAKXOCCfBkb/2wdRboi+r2n4zbxo+fHj/iooKdPWawkmcAAQjCcuXL1eLac1kYPEIKbvYqXsnMYIT8SIgYkDf9nPPPdeFFw3FHlBwIn7Oay7g+8bGRhcyVkpv1HUdnZSR11WuXAHw+kxnfmiy0wEmJV+AlzOTi6yXb142HLCoT7Jv35l+EIoWOVgZL9knHGZ875Rkw/X3F3SLWaCeBepayGYggGIVWAraiS1zQAt8b1cmuOxxhC1bthx90kknbeFuBmNYZtojL97EXQzYjgcrirJiSse5q8smaHAiaXQbObIdCjNR7QU8mKsnonvhpZdeyj/zzDORIET+CPvx1QAb73XiqwVwxGCALGfcgc4MKLG9lFd64OylQxJ7Uptny0zXYcUDO8AduSPK5pm6x2F3PNEXlr/Xq1sM9pjxLfDQDXu7xVgTNsht++uhpskR36b+7Xf82uA5kf+Gskn6fL53R40adQY9tGGwolUXAZsbJaDxpVJWxM2o0WBaC7iabqoKJyX/o1acrnCe2ohWBKPEszIzGbUXFDakoIivmfaBIhdW98LmzZuLMjIybohqyE8XAjQ5FBl97DDM04nq9D2p8Z+X9YEn3nTkNyohsGBEPEbGywaw6PZB8OVW53R34ompZDMEQbfV54e1u23d1K296eOvbNWm32/rYkA3g8vl6k/FljCTgdIdmXCSHiwOAR8IyR1hrfAYz+spmftO3buJsSq8vDMjB4eII1FwYkmJSkVU5IDEkVjlxr2apkV+h9rzHsAbc5y5Pgb0AhiR2nUXzr9pCGzZ2X0sKPgUik+jsgGccm0h7K915P4SdzjzcgLw3r0OxQzFfbQJOgE+d5fsxECA2E+Y2c8H51emgWbPzfDRRx+NO/fcc3dRqiMnCEYMgqmsiKq4BplAdUU1dp7uqH7sDTd0KloRUpYgcGJgsEUVmIgbL8xkFPhQ+ym9EV9z6wG+R5Kwfft2dExGfodadSXA5r/G/oXCHlI8OBEhOP7y4eBtr7LdLTZJmfvfMn3jsuHg7waxIzhiLAf9yUM7usU1ltBBVjbUwc4D+Y6c87TiVhg005YVwev1/n306NE/sxAElGDGOjkdYhGQIGDaI4nhWTMaeIyaEARHVjb5O+FFmWi0mNpCr8nFgHUXyK2An6H1gJd2pgBFjD+oq6s7Oy8v719RzX7ZSICDKJkQ44aO7GMiV3WO8WxJe3h3CVA0r7NF1YDBiqm+1R10wZyrh3UrGNCCgJYE2RgC/oAOqyucYeiTfuaHb95l16TUMmzYsL6U7khloJEg5OfnB+h33BqsSNUdrRYEmqEQhNS52jsUZWIXgLIikJIixR+ge4G0vFntBWSkGpID9HNt27btY5fLdWTEEFZ9AvDK8RE377Th0HyAIc4Qd2cG1DW9CEHoGtxjPWt3JAhv3l0BBVK8ybr0OnyxSwOfA7VGeo32woJtkVtjO47Ej67ewsJCleqIJaAxUBHrMmAzKgHN4xAMMTxTWVFnqW2pnO7oDNuL9RciwcdbAxTpWkArArkXcEgkrUyZC+i/IgsCZTAQQYjavfDJzwA2/NmZmR833Jl+4tELfiW9XoA2H0CbH9SPB0buu90A6WkAHuOfA1didyMIt1y2H06bpsrYp/TW1OKCGVd2LwvCqr/vgAyPA/72UCuPXbd5Abx+AK+v/S8GIKO1MMP4zuD3J9m2miaAbQ5pIpy1xg99ptiyIhw4cODCKVOmPE9uhvLycrVY5EJAkoDvuRWBoDSyGTD9vcMCiwUh2S62+I3HtCAYpzBvT6zugkpvNIJY1OfcvUDSyshOn3zyyfzzzz8f5dUiv829dAxA9RexzxALMx2dhO4F/EFrbAbYXx8+cAnJQr9eADmZ6OC1jUmyFmgKNaE/L94HM450SMfeNmrJceAJPxoOrUlYXCsYOp40HT5+ME4xCEig65sAahsB/GGexJEs9M0DyI3te+PoFRDQ24MVndiO+W0bHPUbW4U5AoHA+hEjRnwDh0GpjvgaYxCmTp1qkgP8fTfizEgsyQxWpEwIPC5VFRUjv6E5seDJ04dZe4FiDyiDAd0LlBeLFgQiENxyYJQQNWsvRJ3e2FLVXtrZiW1Yb4BBkSdOOHHKTvtA0o0/bvvroj+VSwPonw+QlxMN1TLPgzr+qOffXbbHfl0JR4xu7S7Djes45y8dAl9X2rUox3Voh3Tep1cA3r7HoZsg9Y7fmwMHAaptCjAN6gvQy261ZIfxQ9EkFE+KdRswDeCMVXZ70WfPnp1XXl6u8ogpDsGoz6DcDNQxFXBCNwPFIeBnkupo62fY7nolz3HkYiDfEsUc8MqNqJ5oyCqrql5UuZG5IFTsAWYv7Ny5EwvFR36XRmEkFEiKdUP6cmwSuRfw6WdHVfgnn3DzzkgHGNqv3Zwaxfb8+73g1sciF7GMouu4NH3nLzuhd64DP6RxGV1iO73qTwPh4w3dg9wdNtQLy27Z7RxA+L2p2N/uSohl87gBhg/s+kJt1Y0+KKuO3f/hSgdYuA8g3V581c0339yvqKioGWWXKQ6htLRUuRmMOAQz3ZGXfzakl9GSoKU6SUg5CwKPP6DvoqZpHVIcqf4Cmp8wtRHbYeSrUX8B640rYoD7jzvuuLRly5Yh7Y8cy/+eBlDxRiw/Be3HJpN7AX/kyisBnHLLYmzCsIKoSEJ38mUP6uuD1/7okEBW7FdSl/fwtxd7w0Mv27sRJHrws49pgj/+pMqZ07Z6AXZWhXfDRXo2jFMYNSiq702kXUfcDq0hnztkYZn1ZABGnx/dk4Ix0MbGxutzc3PvQ6tBYWGhZgQsmhUecT9ahq1xCBSngA+M1mDFVHM1RH5Ti/jqSN6GwYITSUURR43WAVYGVEPfFBVnwgsJMxiQCFBZZ2Sl7733Xu9Zs2ZFV94N3QvoZoh1Q9cCuhi6egsEALZFB0FEQ0aSMHxAVE9E3UUL4YK59XDt96TkM10H67ZlwPdv7R51RP5+/V449nAHBK7QDI+kGv32Tm4uF8DoQV2rqvr5Tj/ouv2AIsJjzMWtcOJjtvQQdF3f43K5DissLFQuBkp7RCsCiSNZCQK5GdCKwMkBlYA2rM4OL5iTi+9sXylHEMitwANUKXuBLg6EmMo7kw5CS0sLZjjgheHiBKGtre12j8dzTcTLUvMlwIv2ypkeco6pw6K6eUY8xmgbllXG7lYIdc7szHZ3Q4Tbgl8PgTKHytNHeEpbzR5aUgnHjJP4Aw7eyYsL4UBD7PcUWwsS4UGOqSjiL8mOfe2ZCvHYMtPbLXBdtVXUBmBPva0n/w5Dzh+rw9lbbN+nrrjiit7//e9/1RcNH+iIGKDQHW6UmVZSUqJ8fbwuA42jqKjI5AqplslgG/iuuu5iPG+H4ETyL7EYBBWgaOTEcguCwonUE5GBIklAN8OOHTtQXjnyKjOrbwT48pYYp4FpgkkijoSBVXYCEqNBYGBfgLzIArA2bM+AS24Z5JinI9gwUUkP4ynbbKo24k3mrT9XKEU+2f6HwD3L+sDjNmtpYCKM26VDmze+P2nHT2qB+69zoFBTTYP9gMRIL5rCAoAsW0kAkZ4hdDsnKzx+b1cLZA+xFaDy8MMPD7r55pvreSYD6SHg4HkswujRoxVJoDRHUtYlgpBq1gPEIr7fptgvM0d7CBZ/QNYDktokKwK3IKD1AAfCqzciOTjvvPMy7rjjjtqoBvnGbIA9Sv87ti03A2DCwNj6iPVo9DWW9yoAHwAAIABJREFUOhisFWo86GoYGflcZ/90GNQ3xv7wwoeDF8Cgfj645fJqOHpsu3kZZZ0xMPLvL+VDYzPqw0T2dbrx0mqYN0MUFK3Lvac6Dc68YSigxyrchq72XtkBOGFyC1x+Zi2MGNT+JH6w2QVX/WkAbNye4bjlHs+JwYmjh8T41I+8sGwPRDTRcECE+3zM0K77lcc4BAdqM+gn/L1FO/xyWwShoaHhsry8vH9zNwMFKm7YsEE99CFJ4HEIXG4Z4aUHSZ72GA72nvJ5ZL9oPWW27fNQcyargfFaVXCkGAQ+XSaSpI5Fy4GRMqM9/vjjeRdddFF0jxNOxR+MGwCQb+s749xq1jcC7I2OH9k+eRRpXO+UZMP19ztnXsUbw/yZDbD04pqQw8ff/Mdez4eHX8mH5tbQXys0/GCZZyz3LNuhCNzyz37w4srckNCgBgE+xd92xX7IzgzNJPbWpMG8JUMcrc1x9LhWeHgJJizFuCXCekBDHDGwXZCsK7Y1u+ugzRdz5Kk+ckGbNmeZLVOIz+f7xOPxzMZMBoSAyy5zTQRMdUQCgNo3mNHArQhIECgGgWBMFVdDShEEa4EmXHRrBUdST6QLgVVxxOwFlFY2v2r19fXn9+rV658Rf/cOrAN4YUrEzUM2xDsWlnbu6m1rAqPwszIACrGKa2Tb3J8VQnWdM/7sn55TC98/LXJdh8qaNLju3gLYsjO9w0MiuiX+fM0+mD5ZxJFCrWJDkwvO+uWQDrEIiFvffD/ccEENzJnaFNkFYFgTMK7BiQJe+JX7790V0DfPARnhr/e2K4smYuvKWIQDzXVQWhUzQYD8cQBnf2UbrXnz5uWtXr3aR7LLSAQwEw1dDaEUFdGSjK4FPClPdcT3qUIO1Fxto97NDuQFmgxioPJciSBwiWV0L/AUR5wquhms8sqlpaVvu93u6RFD4VT8AeY7HzU04tPGpWG8MhdCDRYVFjF9K8INb9Lf+cXQmM3MZ0w/CDcvqo7wrB2boXW1sdkFJVsyAZ98vzGhReIOIkBSxe9VemBjeTpMGtUGwwZ4lcqwnS0ZroNDxo1uOQdM7xHjMWZI12U0fLYDzTwx+/v0iw42a56cyAKRLMA88cQTA5cuXdpgre5IrgQKVEQ3A1dWJIJAJMEgB0pVMVWIgs2vXcSXZjI1NOdq5LKqNSbXAr7hwYloOcB9hvaBKsyE70n/YMqUKZ6XXnopOtmzN08G2P1O7Jj0zQE4LPLI/thPGKQH1D3Y7oC5NZrBRflDd+vj/eD54tDm6nCnHlPYBk/fvMf2zSlc//J5YhB48KXeKk7E7ubodYC6B5i9kMht9OCu00VYvVMHvx77fWbWUwCjv2cLtU2bNk2eOHHiNsNyoKMVmCwIRmYa9ovuBTCk9c0S0PgBBStiKkOqFW6KfeFsLVniDzIsCGqN6ew8vRH3UQYD+qGqqqpcGMRikAT1Fy0ISBAwXcZW/MGyUQAHVapNbBsGJ2KQYlduB1sA9th7srY97CijspHoX3jzYNi8I3r3ZVaGDs/ftgsG9HHApGx7wnKgEwjgdfDdJUOhoip6XzxeB8/dugsG9nXoOqhrAtiXYP0LtLzFUOMkpjXYvLceGlojV5kNcTJ97KI6bcbDtlheU1PTTWPHjv2jy+VSWgj4z5DLV0GKBQUFHYJZSFXRUFRUBIFEk8j6nCoBiylBELh7gTFANXcszkSWA2PRVXojbsXFxS7Kl0VyQPEHGKj40EMPDTj55JO/jvjL42sCeKIXgB5BiHZnnaJDFvUPunrrCoIwpF97QacoNswsmHfDEEBTczTbDRfWwLlzGqI5RNomMQJYCOqkxcM6DSC1Dh/dQk8W7Yk9a4F3XIP1FiKPZ3EE0q4kCDVNDbBtf+Rp4KEmPOB4Hc74yNb9Stf17cOHD59UUVGB6emmYBKRBCzeZAQpmmdfsGCBTgSBdpIYAt5DUkVR0Rbgjly0Ce7EmuJIRZqs5Z1pWCixbCgn8pEqvAoLC12bNm36YW5u7l8insbO1wDeOiPi5iEbJkP8AQ6umxAEHGpLmwbn/noI7NofGUk4YXIz3LN4H6AgnWw9B4FoanUgOfjXjZWA7gVHt1QjCAAB+HyHK2ZhEqzHcKH9jKk777yz99/+9jclmESKiviaNBGsqY74GZdcJosBc09jkx6fipQyBEGtpnIhtbM/Igi4H0kCr7+A+1gNBspeUEWbjFRHLBv6ptvtnhnxj8fH1wBsvCfi5iEb5mcBjHMuhc/2gLrClzpiEEC6vcwEjGT/2V8K4KP1ncc5oYjR63+sADQty9bzEPjp3QNg1brOr4H83AA8+qs9MHxgHDINsJTz3hRyMeAltLpCB38g9nvNOVsA8sbauihffvnlofPmzSPgVUojxSEY9wBVlwG3YIJJRhyCMiJIFoOtJUjeg4gYGCRBDfTcc89F94G6CxgEQV3AVH/BiGilZ0iufwBXXnml5/7770c6G/nd6tUTAPZ9FDtII/oCDLAfeBf7AIweUCkNxV4StWEYOwYpxrCh5P2rH+bCHU/0hdYginuYV//Ebyph5OAYhXBiGKMcGl8E0OX0w9sHwrqy4DE8p01rhCUX1kBOVoyuwFDT8BpFzeI7zY69HzYYutQctnY3QKsDZOv//gEw7ge2kPv000/Hn3322aqCFLoaeMCiUbTJfCIggoCNyM1gLdpkDKLHP0XEzupsLVeXHWSKJCEpIPVEHA0pJ+JrEkdCs1Ow9Ma77ror56yzztof1SyeLgRockA3IFnqLyRKRZFAjlJNsbO1qap1wy//VgBfbPnfTaJ/bz/89ed7nfU3R3WBSONEIYByzNfe29GahEGINy/ar4ow2U2pjHj8SKyRYCdqG9vFKdE7awEqo0v4CgrNYQsDMPPfthx/Bw8eXDxhwoSHsF/uYigvL6eFCFrZEdvjfQK1EPB1qgkmpQpBUDUYaHFJIIkCFHn2AhVnoguUZJYbG9u1ezGD4cMPPxx4wgknRJeO8M80AD3GSOhkKu+MYGCZ2haHfbShfjTzcgAGOlu58utKj4pLyM8JwNjCNkj39PgHgkTdkrrFebbv8SgxLXQnjRvWprQqErJV7AdoTlChrr69APrFnEQQGyzNXh+s3xNZAFBnZxowzQdnrLLVj8/ne33UqFHnGBYEfeTIkSZR4HEIGKxI6Y5GoGIHwSTr8Hq6uyFVCIIZf2AssKl/QOWdyYoQpLyzWaSJUhwrKyunDxw48O2IvzX7Pwd4+biIm4dsmJkGMDk2M3vsg2A9eH0A5dEpTds6fzLUuLc1cDlIEAiCAJIDJAmJ2EYNBsAHi67ePt+pA0sxtzWcnKE+OK/CFkHAWOXZs2cXFBcX+zGToby8XLFBjEMgyeWSkhKMPVNDQxczSS7TWCnVkVcEFoJgayWT5yAef4CjIksCLjZaEGikKLFMgYl89LxQE4kkbdy4cXFWVtYdEc9y7Z0Any+JuHnIhr2zAMYmQYAiH2A8Sz3TeaIs+Rw70NKDIBBnBL6OY6lnGjpWckTtkGTYvqgA8MXoVtFcAbi40QvuTFsiMPfee++A3//+9wfJxYAkwXAzIzFQhIFIAhVvKi4u1tHCTPFq5GrAtj2dHKg5JsO1E88xEEEwZJVVJgIJX1gLNJHMJsUg0Lh4FcfS0lIUS3rZ7XZ/K+Jxv30mwI5XIm4esuHwPgADY08pjn0grId4B12J9cDR5ZLOkgSB5jaAiqr4DqYrFRStM1uzuwnafNmxTlg//cN6beAJtnwmb7/99ohLL720ihMEsiDguAw9BAxUN31NaEXAQEVSUxSCEOsKJt/xigQx/WxFEHAjDQQKUOT1F1ADgYskYXskB9OmTdNWrVqFSieeiKf64tEANV9G3DxkQ6y/gDoIybbFszpdQW+A3jnJNmMZjyAQOwL76wAOxKns98A+AHkx349jnyP1UFbtherGyH8zQ5xZP+6Pbdrk66KXRsVsy9WrJ86bN68cazIY3Zupjrz0M35GLgZ8zQkC1mdgWggJClpxbhmi7anHWxAMK4kho62pMs/WAk08g4GqN1L2Aul2I7DoYrj11luzFi5cGLrub7AVeHoIQFOMKYHJoqAY6grbXQ3Q2BLt9dd5+z65AP1tqas6Ow7pTRCIFwK79gM0ORyw2DsXoOD/2fsSOLmqKv3vVe/pJJ29k+7OnkDICiEgimhEQUQFt4DCiPp3HR033NCZUXRGQR23UWdcRlRARYIgIioIGAEVhOx0EpJOp5P0kt73vare//e9fqe8XenlLfdVVVfe/f2S7q669757z73vvXPP+c53Muy+6egHjmiwmCy/FnjZXZ5W49SpU6++4IIL/qQmbWJHAlKkkiCuBlVBSE79zDZnSk6GrFcQkjkQLKYkOwGHWBAEf8BNISBF7gFaEMS9IPiDH//4x/O2bt1qxdM6LrdPA6I+U/ySIGhTmsOVJpuwTiUhVA4mk3b4fTZIgOHCp9qBHp/PB5HFnJnA3AxzQ3JsDOvcZfEP+CulLxrGq//iyRIxMDDwn6tXr/5SUpgj8QVxybujKgiCP+CARUng72dS0qasVxD4ohf3Ahc3mUGRnyW7GGg94IaRDI6sQ0sCczA8+OCDFWvXrj3ieJczOROTNPkt0/KBdc7THfu9nOf2NJm2dnlPZ0t+Y55+Msk86lkYYcNQAg4l4Pe+4bmHYcAzMsitkDz1nSdNxH1mdpyxMo5tVZ7CMqLR6ANLly59M5M2jWdFUCmXOXwbg5AIdRQXA7+zz5pZ7WY4ExQEK8RR9iotCOJi4BrbHAinRTAQgyAKgrgZaEV48sknzysvL/+rw9seOP5r4NHXO64+bsXZ04BV8/z3k4oehqJAWxfQ7fJURKWAJ6BMxFmkQm7hNc5sCfC+IS7BjauOigHvG3Id5Hh6b6ZO5nvqYhiO+QNR5c0Yxlu7PFkQTNNsqaioWFpfX2+91NXETQx1pMXYTv8sXAhWBIMU24qQIFUMFYTUbZ1Ar5SUzTGRxVEuSgvCWARJYkUgOJHEGiz79+9/2/Tp07/neMDPfhrY5zwictx+K2YBizyBdx0PVXtF8iSQe55x3wPDp1sViKsoyAemFQAlxZn/gNMuoLDDUAJjSICRQV29I9iEoWGAHOFqoZWtMA9g+O+MovSlcna7eLool2/oAXK9AZff+973zvrd735nsbvR1UDiu1WrVplUEPgZlQSxItB6oPLkCKOigj8QCWStFeGMsSCoSZoIVFT39tatW62/BaDI31WKZcEf8PPDhw9/Oy8v712O742HrgDqHnJcfdyKa0qBGZ7Cf/1fW1cP0dg/KGZ52klXjnpd8wn7CSWQCgmo9w3vmUy3FIwnk+ebBtA14C5f+xh9ma99pseYv8VTQpo777yz7NOf/rSVFlJVECT1s5Kh0bIiJLsYksIc2Y0A4LNSSTgjFAQVh6DSLHN1BX8gFgQSZQhAkSBGxsmKgkBtMxqNPpyTk3OJ4+fCr88F2vY6rj5uxc0VU/fB4H/2YQ+hBEIJTHUJ1HZ2o6HTP4Ly4h8CZzs/o6lie/TRR1fecMMNp2w3wyjKZWFUFJIkaSdKApUB2z19xrgZsllBSIATFV8R8QcEIFrpnQV/YG8ESxbr1q1LyGQsF8OxY8fqAcx2fK/ecxbQ5RzTOGa/PDFQQQhLKIFQAqEEpqoEOvoHcKTZtwUBGz4VxQW3eqJc3r1797qrrrrqGEVIoKLtXkgwJRKDQKIkcuIoZRSbYhIXgsWxk62silmrICRTLHOxxbVgEyXJ3BMyINWyRDCI0iAWBFoPPvnJT+Z9+ctfdpeW7BdlQL9PDgSC9kiSFJZQAqEEQglMVQkMx/uxp7bI7/DNJW8YMF7xK0+KxsGDB89fu3btQY5BcjLwGT+Gi4FVLLeB4mpIuBHEhCCu61BB8LuqKW6vRi7w0rYVYRRAkVYE4g+SGRRtS4LFtKgoCMZtt902/R3veEeTq6ncMRMY7nbV5LTKRXnA+kX++ghbhxIIJRBKIN0S0JG0aeElJq583NPhtqGh4U1btmz5PUMdbQxCglVRAIqSj0EyO1JkO3bssBJJSAQcFQTbXc32WYk/sN6b6d4vQV4/mSQpmQNhMgVBSJIY5lhRURH50Y9+NO/yyy8/4WrMOtI8F+cDa6cAB4IrwYSVQwmEEjjjJLCrNo5Y3Fc8pjl7Q9R4/T5PLoaurq6PrFu37ge1tRZpk+Vi4C+0IDB6gb8nKwjJGATWIVhRrAf2ATQrlYSsVRBs5UCSM42ap7gaJHrB1hCtdVYxCPyASgIVBACRp556quIFL3jBYcc3tS6SpJJC4KwFji8bVgwlEEoglEBGSkAHF8KMFSa2HfX07hocHPzWmjVrbqqpqWHouvVSF2ZFO9TRVFM+21iEMTM6JoU7hgpCRm64CQYlbgZlIUclaiLFMv1LksWRYY5UECRxh1Axk0GRl3nwwQdXrF27ttKxHJr+Cvz2YsfVx61YOhNYMst/P2EPoQRCCYQSSKcE9tWbGIx6erknhj1tEfBmYsXdl2g0+tvly5dfIyGO4h6QdM7sUXIy0JJgAxYtBYEWZwIUbQxbIpIhtCC4X4eMaKFaEcSdYvuQrA2qWhD4NxUENcSRn1E54GYiWVJlZeWatWvX7nY8uao7gcff6rj6uBWnIkmS/1mHPYQSCCWQbRLY3xDDwLAvNkUzpyhmvK3PUx/xeHzP4sWLL87Pz48TeG4XK6ujkCWp+Rjs94JlHRAlweY+sD7L9qRN/jS5zN68Y7oVOGQqCdu2bWOoY8KCIAoELQgq9kDlQXjyySfPLS8v/5vjae//CvDMpxxXH7fiirnAXG/MYf4vHvYQSiCUQCgBTRKobBhE37Bfxrco/p/pCYNgmmZjJBKxkuNUVFQk3Av2IVDolq2sjgQpigLBwySxCJK0SUCKQpwURjFo2h+p7Ea1IDBWVQUpEoegMChyQ1gKhRLmSB+VWA8sS8Kzzz77qrlz597reA5Pvgc4/EPH1ceteE4pMN3vPeV/GGEPoQRCCYQS8CWBI80xdPR7Ov2Puu5bGoAib8Dt8vLyYjVhE/ulgiChjko0Q4JNkXXoYhCyJPugqRImhRgEXxsjxY2T8QdUCGzfkWVBIL6ALIq2W8EiSFJQrFaiJjIo1tTUkG3LUh7279//9unTp/+v46n86Vrg2N2Oq49bkSGODHUMSyiBUAKhBKayBGraTDT3+Ldcv/FQL0rO9mRW/ehHPzr7m9/8JvMx8Nlu5WNgYdpnEa2atImWA1EQ6GYYI2lTVioHnLP/hcrszWrNT829YCsKBJpYeAOCFNVETcziyM8V/gMrEoLJmg4ePHhTYWHh5xxP+cGXAI1POK4+bsXzFwNMbBSWUAKhBEIJTGUJ1HXGUd/pK8zROsa/akefseilnnJbf+tb31r4kY98pKusrMwgFoH98SDIFz8BiuyekQxCuayEOVo4BFEQ7GXIWuUg6xUElSyJ7gWhWLbJkWg+skiSJLyRFgS6GPiBhDeqGITDhw9/Ky8v7z2O78/7NwOtzjGN4/Z7wRLHlwwrhhIIJRBKIGMl0NxjoqbN/2nn8t8DFVd4muZdd91V/rGPfayDbgZ2IIRJAlRMTvusZnVUMQhyceIPFHe2pzFlaiP/C5WhM0tWDhieYltMLOyBrRUagj2QaUgWR3IfcMOwSLrnQ4cO/XdBQcG7HU/53vVAh/OoyDH7peWAFoSwhBIIJRBKYKpLoL2/G1XN/hM2XfITYPXbPEnjgQceWPq+972vRXAI0glJkwSHQJCiakGQtM/bt2+3whxVoiQl14+n8WRyo6xWECQExU6moWIQDJqKqqurI9wEdDHY4ERRIqgcJGRDZYE4hCNHjmzPzc19jeMF/dU5QOchx9XHrJgbAc4LEzX5E2LYOpRAKIGMkEBHP3Ck2f9QXvS/jVjzvlIvHT322GOrXv7ylzcsW7aMoY50J1tuBj7nhQ+B1mRREHbs2JFwI4iLgfUlaROt07bCkHXuhqxWEBQTEH+1FARJ1DRWJkepL6GOYkUQC0J1dfXdhmG81vGm1JHJMVQQHIs7rBhKIJRAhkugd6gLB07N9D3KLbcCG72FkP/1r39dtW3btgY75TMPg3GbLZfRbHESJCklEerIdwaLWBGSszpmY06GrFUQqBDQcsCihjfamt8ooiRGMtiMWRaTokKvbLkZREGoqqp6IicnZ4vjza1FQcgBzgszOTqWeVgxlEAogcyVQO8QcOCU//H5UBB27dq19rWvfe1xFYMgPAgcmJq0SVI/KxkdWcVyM9iHzfjNN98cufnmmxMREP4nlzk9ZK2CoIY5iovBVg6sEEf+Tr8Sf0qoo705RoEU+ZmEOR49evTJSCRyvuPlu3sZ0HPccfUxK4apnv3JL2wdSiCUQOZIYChWj711Zb4HtOGT3bjgy56wDLt37163efPmYyRKmixpkz3OBB+CgBTlXZKERQhdDL4XNkUdJPEgcOEYWmNhD0h4IS4GCXNUMnhZHAgcppidJJLBvYKwFOhxl/zxNPGECkKKdkx4mVACoQQCl8BwLI49db7DHLHuI8ALvuFpuLaCUFNRUWGKgsAw9pqamrhEMEjCJiUfA98Zwodg/RSWpGymW85qC4IKUhQ3A/kPxJckFgThQRDf01gYBG6IWCzm0oIQKgie7uAMbPSrHTNwx0MzMThkIC/XxMK5UWx7WQ8uu6A3A0d7Zg6psT0X3/t1CfZVFaB/IAIjYmJJaRRf/2ATigqy7nA3NRd5KAbsrfM/dh8KwtNPP73uoosushQEyeQoPAgcmBDmySBtymUrYROLikGwLQkhSNH/iqa2BzsulVpeAoNAn9HWrVsjRKWqIEWGOooFwY5msBQnG3/AXy2ipNCCkNo1zJSrff2u2fjZw2PjqgryTCwvG8Y/v74DL97YnylDPmPGMRw18KU75uCv+4rQ0jk2g+/M4jjuu6UOs6ZnpZt4aq11higIb3jDGyz6RJVyWSFLsrRJWhHEgsC/7WgGFX+QbEXIOi00ay0ItmZH8Ii1aMKmKPgDWxO0MjoSgyAmJX5ONkW6GSSKgZTL/Hf8+PEn3GEQQgvC1Hp6nT7a6ro8bPt3Zy7T+bNieNPLuvHO13TCyOo7K/2revB4Pr5x12zsOVKImIP3/kvO7cM3PqQhvC79U5/aI8gABeGZZ55Zf+GFFx4TqmUKVHIx8HfSLItyIIyKwqYo6Z6Ftp/1szlhU9Y+xlSiJLoaBKjILI5JyoGVqEl1L/B7NaMjQYqhgjC1n0teR0+3wjd/OdtV87klMbzigj589Jp2yx0RFn0S+FtlkaUYHK1zl5skJwLs+M5JTCt0oE3oG27YU7IEMkBBIAbhqquuOkb8geRiIEkSh8qUz3Ymx4QFgYqERDEIT4JEMQhIMRtDHCmPrFUQ7H1J7gPxD1k8CEK3zO9VqmWxICQzKVIxYF0m9HCNQdi+Cug+6u8hEYIU/cnPZ+sPfK0UT1UWeuqF7odLz+/DZ25oC19MniT4j0Z/2V+Eb98zC0dO5nvu6YGv1KFsXtRz+7ChBgkMxZqwt26B357MjZ/qMLbcOstLP8Qg0MVguxcsJcEOc2R3CQWBf4yRk8FyMfA9oiZtCtM9e1mJNLcRHIIMY9u2bRZ61k7baUUyEKiYnKxJ3AuiQNkIVwwPD/86Nzf3lY6nFfIgOBZVplZ83U3lONnkKfV8YkpUFC67oA8fv64NM6aFJ1g3a/3EviL8772z8PwJ74qBXO+XX6jHqophN5cP6+qWQN9QFJWn/N1Q1pv7S1Fs+rSnfkiUdPHFF9fbU2NGR8vFYEetWQqCOm0yKjJnD6MYCFCU72wrQoJISbeoMqG/rLUgqMqBSrUsGAQqCaoFQYiS7MRNlotBrAdcKDv18905OTnOqZa1KAgh1XI6b5RXfLgC7d3+09dzDlQUXvmCXnz4mvYQMDfJoj7w5HT8/I8zcNiHxSD5End9vgGrFzPLb1jSJoGeoQEcPOXNJKcO2gdRkq0gNJSVlYFsimJBYPd0MSjJmviOsJQDFglzFDeDYA/4XWhBSNuO8nZhwSAITzZ/Cs2y9EgFgb+rFgQ1m6OtFNAEJQrC7Tk5OW9yPKIwWZNjUWVqRZ0KgsyRisKrXtiLD7yxA3NmxDJ16ikfVzRm4DdPFuPOh2bi+Cl3GAMngw0VBCdSCrhOZ/8wDjf7XlzzxbdFjbPe4cmC8Ic//GH5O9/5ziZhUqytrVWtAJaCoIY6qkmbVAyCyoNgH0KzDnCUtRYEbvPkjI78bCIeBH5vhzlaSiH/I0CR+IOKigpGNXzLVTbH+zYA7c/5u+MIh98SZnP0J0TvrYNQEFRF4YqLenH9K7uwsuzMNX1TMbjr0Rn4+cMz0Njm6ZnvaIFDBcGRmIKt1NrXjeoWTwyI6sDMl9w5ZKy63pPfafv27Us/8pGPWNkcFR4EhrVb2Rx5nbEUBAlztN8jFtWynedZhhYqCMHuHq29J3IxsFfVgiBsilQCiE5VqZbFxUBXhDAoyqgOHjz42cLCwk87HuX9m4HW3Y6rj1vxgiX++wh78CQBhjgy1DHocvHGfrzvdR1Yu+zMMYG3duXgvj9PB0momtr1uHEmWqd7vliP5YvOXEUs6D3sqP/G7i6caPefrOnyPwAVzuFg6tj+7//+b+HnPve57iQLgmnz3ggHgqkkbbI+EwyChDgq4Y0SJRcqCI42QYZUUsmSREmQKAYBKPJzuhjUMMfKykor3TNdDDZ4xaAF4fnnn//otGnTvuh4eg+/Bqh90HH1cSueWw4wmiEsKZeAnygGL4Ndu3wIN1zRhUs29aEwP+ueN5ZIGKJ4z44ZIM6gfzB1Rsxf31qHxQvCKAYv+1Jbm5Md3TjV5d+CcPXOYWPuZk+a+9e+9rX5H//4x/tUJkUBKdKFoFoP7PeCFeYoBHuURVIEQ6ggaNsgKepIVQ4IIGHGLV5aJUri39XV1dbn3AikWJbLbX2mAAAgAElEQVThiQWBf9tYBKO9vf3Ns2bNus3xFB5/G1B1u+Pq41ZcuxAo9mRN83/tM7yHm380Dw/8pTjlUpg3K4ZrL+3GlS/stWids6Hs2D0N2x+bjr8fKEI8DbrPQ9+oxbySEPOR1r10rHUILb3+H2bX1gyheKmnfq688sqSvXv3RlUXA2UiZElUEOhq5k+VSVElSxIZChGf/XcadnWwq5k69T3YeYzZe3JGR7oZVAVhjBBHK+61s7NzVDIRpnumBWHv3r0vmTNnzh8cT+XZm4B9X3ZcfdyKq+cDs4r89xP24FoC379/Fn5wf4nrdroakGjpBWsHsO3Sbly0bgC5OVPrGVRVm48/7S7CXY/MQIemaBCvsv3zd09ielEYZupVflraPd80hK4BTy/2Udd/+wAQKfAypKGFCxfOycnJMSWCQZQD/hwLg8BcDMkRDKwrGAQZRDZGMmStgqACFLmATpI1sZ7QLMuiq26GqqqqdStXrnzW8a488N/AUx92XH3cikvnAAum++8n7MG1BB56uhif+f481+2CaFBcFMe1L+/GxRv6ce7qwSAuoaXP5o4c/HV/ER74y3TsOVIAM0N0mmd+dByRrH3iaVm64Dt5riGG/mF//tJIPvB2b/s/Ho9XLV68eBMnKhgEWg7UZE38LhmkKO4FiWJgHTXVM/8OFYTgt4/2K4irgdELEuaYnM1RcjFIiCMHIZYGG7hiJWt69NFHV69YsWKf40Ge+A3wyNWOq49bsawEKE/fKdb/BKZuD7ueL8S7v1yacRNg3ofXvrgHF64dwPrlg2nPVsiwxP3V+fjdX4vx9IHMs3atWTqEn32uIePW8Ywb0L76OAaj/tI9F8wBrm/1JLpoNPrk0qVLLXQjLQgVFRWwwxwtkKJqQZAEfmqYoxAlCdWyHcVg/zAyRBX2JJoxG2WzPm1FMUgeBoliYC4GuhboT1JdDEkgxUQ2R0qNLgYqCPfdd9/ic88997Bj8XccAO5d57j6uBXnTANWZsYp1v9kplYPdc25uOpT5Rk9aJ6KL1rfj1dd1GsxBS5bNIz8AHNA0CJAK8GR2nw8e6gQO3YV4USjJ7xYyuT69iu78ME3tafseuGFxpHA3roYhmL+LAjFi+O49oQnJWN4ePiOxYsX/3NjYyOVA+uFTgVBcjHwbyoJYkEQkKIdwcCvLaplFuIP+I6REloQpuCuV3EItCKIZYDKgUxHzeaoEiXZygF/WBiE7du3l1500UXMAuasDLUDd85xVneiWjMKgDWZd4r1P7HM72EoauDF71viKGNgJs3mvLMGsPnsQWxaNYg5M2OgxYGkTBGXj9XuvojFJEmF4MSpXDxzqAh/e64QXb0uO0qzcL59YxNetD5Mx53mZQB218YQjftTEErWxPDGg5766Ovr++zq1au/RjmoqZ6FDyFJOSDtsjEeUdII1c7IIdQuoQUh7RvM4QBs14KYfiyCJEn5zC7GysPAz4UoiWGOcilhVHzwwQdnXXnlle7slD8tAmIDDkc9TrVp+cC6hf76CFt7lsDb/nMRnqv2j6vyPACNDZcuHMbsmXGUzo5ZigMtDdOnxTEcNUBlYGDQQFt3Dupb+C8Xvf1TSxEYT1S/+XIdyudnRzSIxu2Q+q52nTQRM/1ZrudfaOK1T3vqo62t7f9t2LDhl5y4gBRJhCfZGAVjQAuCKAb8cqwIBn5up3+WhIChgpD6HeXtimNxINgLaqgYBJVmmd8TpMifwoMgV+cmuummm4puueWWNlcj+tk8YNCbvyxxnYJcYGOZq8uGlfVJ4H/um4UfPRBiQPRJNPU9hREMqZf5GFeM4hnLNeBP61z08hhe9YgnC0JNTc3W5cuXP8M8DMkgRcEgiHtBVRBsFkVLIZBMjkqq54SCkRFS1jgIT1qYxusH1tV4UQwqURIvLjgEAaRIumcZmJ3hS2iXyZvQaRiG8+Pk3UuBnhP+5pkbJmzyJ0B/rf9+oBD//F+hi8efFNPXem5JDA9/ozZ9AwivPCKBvuEYKhs8vdhHifDsdwMX/8CTVPfs2XPeq1/9agtHpioIYxElqVkc5WJqLgaxOtg/+Y4ILQieViUNjcTFIDkVBH8gqZ45JCZrogWBG0EsCSoGgcqB0C1LZsfjx48/HYlENjie0r1rgY6DjquPWTHMx+BPfj5bN7Tm4jWfyGygos8pZnXzt7+6Cx98YwhQTPsit/R241irbxZFbLkF2HiTp+k8++yza66++uqTdC+wA0YxSJij3WEi3bOKPVAVhLHAicr7xtO4MrVR1loQKPAkNkVrrlu3bo2IuUhVEsSCYKNWWdfKxWBbEKykTax/5MiRO3Nzc9/oeEF/+0Kg6SnH1cetSBcDXQ1hSYsEXv6hxejo8WcZTcvAw4vi/lvrUBFSLKd/J9S0x9Hc7f8muuy3wOJXe5rPY489VvHWt761PSnE0crYW1NTk2DROv/88y0MAlM9KxEM1mvFDnFUM0B6GstUaJS1CsI46Z4t/AGtCAJS5AYgUlUWS83mqCgIVpgjy4EDBz5cVFR0q+PFfeKdwBHn7Mzj9rtiLjA39ZS/jueZ5RW/ftcc/Oxh/4efLBdTRk4vxB9kyLIcOAX0akhGdu2xPhQvm+ZlVt/97nfnfelLX7LCWYRqmfgyhjnyMCi5GJIplllfrM82MNFSECTMMRtDHDm/rFcQOEmFRZGKgTVnLjZdDFQQmIhDXAySk2FwcJDpnS0XA3/SgkA3w86dOy9esGDBHx1vzgPfAZ76oOPq41YsnQEsme2/n7AHTxLYV1WAd3wpjCTxJLw0NqLlgBaEsGSABPbVxzAY9YdB8MGiCGB44cKFs0mzTOUgHo8bEuooPAhVVVWWi2GsHAwCbidZkqR5DhWEDNhXHodwGlES+7FBitT+LDcClQMpVBJUNkVREkQ5YL3f/e53Szds2OAcVND4V+DBiz1OQWk2vQA4JwTK+Rektx4YAviyDy7OGNpgb7M481r9178042Wb+868iWfijHfXAlGfuTCmlQFv9qbwxWKxp3Jzc1/OCIb6+nriDywrADEINkgxATIUFwO/Z4ijiFMBKWY9SdIZYUEQJkWxJNB/JFYElSyJ35MwSTI6UpGgYiDpnulioAXhpz/96YJLL73UCpx1VKI9wO0aTNNhqKMjcQdZ6TPfn4+HnvZk2QxyWGHfE0jgsW+fREmxz5dSKGE9Eth5Moa46cuCYM7ZFDVet8cTGKu/v//Lq1at+gInIxwIQpAk7gWZqBrqKDgEfkfLM10MSohj1kUuqIudtS4GTlIFKYqbgZ8zokHFIIgVQSwIlZWVFg+CKihJ+fzzn/985lve8pZTru6Yny8ABppdNTmtchjq6E9+GlrvP1qAt38xdDNoEGVKupgxLY4d3zmZkmuFF5lEAoPxLuyrnelbThVXDOPy33vi9W5ubr5mwYIFvy0rKzPGyuQo7gUbh2Zu3brVevmLBUGUA35mKwgJIr5sDHHkPLNWQVAplu1NaSVrUi0I/Ly6ujpio1UNpnpWmRTVCAYJc1y7dm3koYce6nG10e9ZDXRVuWpyWmWu1JYl/voIW/uSQE9fBC/9l8W++ggbp04CoXshdbKe9EqnuoGT/kNNzfWf7DMu/LInM96zzz674eqrr662cQfWGZL/JQMU+RnfA/Pnz48nWQ8kgsFqm+15GLJeQVA4sq25SpINycewfft2KgWjeBAITlm1alWEnNzEINiWAyb2iNjxskY8Ht9lGMaaSW8KqaAr1HH1fGBW5mXKcyyHLKj4hR/Pxf1PhKm3p8JSPv7dk2CK7LBkgASONAMdGnJhbP0FsOLNnia0Y8eO5ddff32TzYGQcA1QQRgriyMvIlwIO3bsiNM1fffdd8cV0LvkYshaN0NWWxCS8QdCkZnsYuBGoJuBGAQqEuvWrQOVA1VJoKJA1Cs31+Dg4Gfz8/OdM3U8+S7g8I88bepRjbxGMrT1AU09QN8Q9d6RLtUtbc3aivsBSooAZo8sKfQ/3izs4Vh9Ht70byHtdaYv7YaVg/jJv7rzBGb6nAIdX0ffEJp689EzOP4zwjpmGQCTx82f7u6wsqcujuGYfw6EbUeBGSs8ieLb3/72gltvvbVXAIoCTmRnfNZXVlYygkGsyNYTkm6G8WiW1UGEYY6eliR9jehioKZHX9HIvjYsC4LtO2L0QkRSPquj3LFjR2ITi6Ig7oWhoaEIFYTGxsYXL1iw4GHHszt2N/Cnax1XH7eim6RNVAjqO4FozBsBKB8EOQYwpxiomDXye1gs/eol71+CvsFQHpm8HR75Vi1mz4hl8hDTO7aYSZN/FO19uYjFTZge3M18RhAbtXAmsHASIPbO2jjicX8KQn4J8E8dnuW2YMGCGXl5eZZJKT8/3/pZU1NjSmQCFQSC1FWAIt8R/N5O9Ge9S+Q9Yr9XBIeQlVaErH7KqfkYqCDI4qopn4UHQQiTBIMgygHbiIJQU1NjEOCyffv2RS960Yucgwp6a4FfavBd5+cAmyah/D3WBrT1AnGN+5WSy88Fls0BZoaWhTA3g+dndMoaPvN/x12ntk7Z4NJ5odZeoLYTGNKc2TInAsybDiyZNfbsnjnBF7I/BWHWWuANlZ6kF4vFduTm5lr0i2p4o2RyVLM4so7CrGuSSZGfkf9A3NRy8BQlwdOgpkCjbFYQEumdZTFpUbAXWBgVEzwIVBAEtEktUjgQ+KHwINAkRSvCN7/5zZnbtm1zl/b5ztnAkHft19pLEQM4fxxFgxaD2g4gFrDPlUpK+Sxg3pnL6tg/aODF/xwCRjP1+fbjfz2FjSsHM3V46RlXU28D6jsWYDjmK8xw0sHTorB49ujnQ0d/PY40+/bLmRWvHDYu/4OnCIaOjo6PrVmz5vuNjY2mZHJUXQyMYODchCSJrgYbvJ6gVBblgGGOrJvtJEmJF+Kkiz4FKySne1YtCJwOrQjkQRALAj9TiZKoIMi0q6qqLKplWhCY3OPKK6/M//73v+/ubX/veqDDm/Y7SvznLASmK8kkuVUPNcLyHaaykJdh6ZwzFqvw84dn4mt3hcyWqdxyTq5FO+HfaT3I5qOPE0FInfY+4EQ7MJRidwstjWctGME2VbV0ob3Pf4jjpn8Dzv8PN7NP1N2/f//Gyy67rJosisQgLFu2LOFiYCVJ9czf6WIYi2pZrAyK29rSEzwNaIo0yurbSJQEWQvbj2QpB/xMiJKEZpmfqdkcJYKBFgSaoioqKoza2lrQzVBbW7vXMIxVjtf50dcDx3/tuPq4FQkOoqmfZTgOVDYAwym++dXBFRcAa888hsfegQhe8n4NbiP/OyLsQZHAB9/Ugbdf2RnKhBgDHhwITE5XobVxQxmwt84/gyLncOXjwMJLPM3m3nvvXfz+97+/XSwIaiSDGsUgnSfjEPi5KAj8XTI6ChA+BCl6Wpa0N7LolqWoZEmqBUENdRQFgd+reRjYB90L/EkNtK+v73NFRUWfdDzDym8BT3/EcfVxKxbmARsWAQPREeVAJ9bA6+h4XFs+dyT64Qwqdz40E9/4ZeZaEdbxoWYCvzIAnSokj4K8EdyZ0ILfGLk5Jp7+4YngL5TpV2ju6cGJ9ukZ82zQ8YyK5AFv7QJyvGGgPv/5z8//wQ9+0MdnN4uKQ+DfwqjIaAaxIIibQYiSbLCiBVK0EzbRZR3P1lTPlEvWWxCSlQMJdRQFQb3XaUnYuXMnFYOEXGwrgqQDpfWAkQw4evTouhUrVvzd8bOCREkkTPJbCAZatwh4rj4zlAN1Psw2yayTQRXqejwRdQ4APQMjpxI+fOQBREWFoZq5BkDLxuwigJEfAZVMxCLQpPUeE9hsAqK6MNjvugjg91xN5/VnTOC15siDoxrAnwzgexnyFPnWR5rw4o0aYu2d7hfuR7r2urgfB0f2Iw8ksh8lEoh+ee5HcpgUB7cfLWN3dUsUbX2eqIidTjst9WauBt502NOlTdM8UVpauq65udk6LZaWlkKiGUQx4OfFxf/g5KaSIBwIVBAkA/A4VoSsdTNkyK3tad0nbKQyKdKKIBgENqIGqCoIAlCkxsgiSkKScmDhD2praxnJgC9+8Ysz3/72t7sEKs4Chvw+pgHkRUbcC5lYyKOwet5IvLSOwluPURktvSOpYt2CMKlQ8aG8YMbIA1rTsGRqD/+9GJ/+3jwdM/XcB6d0hQn8kwmMx97Fc9O2CDDg+SrAh0zgbWM8CpkKaZcB3GwA/rnyvA1wWmEcT/xPCmiVOf+WnmG09Oahf9j9fszNAabljfAI6LS4xU0TBxuj6BvyBOLzJvUUtlpyNfAKby7awcHB7yxduvQmyd4oOARaEWpraxMgRMEhiHth586d1neMYlCtB/Y7REiS+GeoIKRwK2i71Hi5GOwFZgSDQasBNUXbekA/kxXBwDoS3sjfBaDITca/L7/88vwf//jH7p6H928GWndrm1/GdkQ3yLqFI1EXXgtPYQ1dAMOyBjWFZOXlAAumj8Rt+xmbMqdozMArP1qBjh5/EVxexXSpCbzfBJY76GC7AdzqcUleCuDrk+ikfEo+YQBfNIAWB+PRVYVL+YNPncJ5ZwUI1KViWtfJ/RhFNK7nhM7QYUYDLfK5H+PxGCobczAwrEukmdfPlluBjZ/yNK7Dhw+/5Oyzz95Fy0FjYyOtwBZQMTmbIzuXfAxyIYlkkFTPZxpQ0ePjwtM6paNRAoMgpEkKTaalIJA9USwHaqpnG8g4KnpBJkAlIRaLGQ0NDc8bhjEJMYEy7T+/FTh6ZzrkkPprUkkgeJEneLeFIZtUDnTHass4qCgwVHO+nlDN2uZcXP0p59vArTjGqk945L+ZwBaXZ5cbIoDbWBrGp90TBwpcDJzKyNcMIBWvrE2rBnHbZwJiTaR8T3UNoaEr37X1yqm8qChUlAB00bktVFwqT+lTot1eP1X1r34WmDti4XVbbrvttvKbbrqpizkYqCDwxC+hjvyjsLAwzsOgpHyWUMfkZE2sS1eDnYfBVJl6+WE2AhWzVkFQSZK4eAoHQsLFwM/tUMdEmmd+lhziKFgNuhhYREGoqan5RGFh4eccb9iaXwGPvclx9SlfsSgPOMeFkkCFgERP9OmmokwvGMFMMGTTR+E75N9+MA9/eMrDA97ldYkDeLcJvMMEvIyaroY3RQCnZ21e7388KCKcVi2ALxnA0wE+ZQrzTTzyrZMoKnCpKTmR+0B0GNUteZZrKxWFLjBGKFGBdVKIeThwBigHPhkUr7/++jkPP/xwtKWlJU4rAl0MFC8VBmufjrgZzDFcDORFSORjSAYr2kuUSNoUKghONm1m1OEjKZGKkxiE5AgGWxu0iJLUNM9UBrhRWMTFID/FvUDzVGlpqXHHHXeUXXbZZc6RM9E+4I6ZgKkTU54ZAh93FE6VBAIPj7WmPmSTD2NGYPjMPUGPyCX/vAQDQ8G9DZlo+mvx8XEGTncC3Qw84TsprzCBL/t89zKK4isRIOqzn7HG+29vb8XrX+IuuaqTeYP5S2ra3GMMHHU+QSWGBq6aPzmYkZaDg41D6B8OEPXodzKa2i96WQyvesyh1jT6mvF4/PnS0tIL5OVNpUDFILC2ECZJwqbKykqLMEl6SsYiyOcqmyI/y8aQR4ePCU0LnaJukiiWaTGwcjKIkkD3AU1FdDFwSMKDkMyBIMOlgiDgRH5G9wJ/XnfddQVf//rXW11N6951QMcBV02mfGWe1NeQNGWc7dbKh3Fr+qIyOC7mm5iMT36ShThYU4C3/sfCRD4snev2QhP4qgnoyOVJRMdrI0DTJAOcD+DXccBbYNnozp8H8L4I0KVRKKsrhnDXF9zhhB1dnjlMiDdIVyGoYuW88ZMhxeJxHGqMoC8VDpx0CUG57sZPA1u+5GkgHR0dHz7rrLNuk8aqgkA3g+RkkGiGqqoqi++AQEW+DySaQawH7EfFIShKgfWeYdijp4FmaKNsVBCsOSXl6k7kYZBMjkz1TOuBFCZpYv4F4T9QIxhsBcEiSFIVhN///verzjvvvD2u1nbHW4Dqu1w1yYrK5Gmn+TR5x53qGqGIDuB06VpuZSVAeYnrZmqD//zJXNz3uN500G82gU9olg/zln5skrv/G0xMpfG6fOW+JwI4T2Iy/lLMmBbHg/9Vh+JCzc/j2o4eNHTpXUAvO2o8bhHTjONISxSd/dlvORC5vfpxoNQbQVI8Hm/u6en578cee+wXr3/96xtLS0stCwK7tjkRzGXLlpkkwrPZchPJm1RGRWZ0FKCi5GSwE/+plMvW79nkasgaBUHIKsayHtjEFtZ2EzZFsR4kJ2kSF4MoCPyb2ANxL9B68Lvf/W7l+vXrP5Gfn/9Pru/96l8AO65z3SwrGiS/gNv6oqhuyc0I5UAErEFJuOpT5ahr9oIQGL3KhHeS04CYgyDKJwzgsXGeANeawCcDuC5DIt8bAfzY0Ih7/c6NjbhwrWasSl3HMOq7MidMMNmSwPU43gY0B+BSCWKD6egzbwZwfStAoiSfZWBg4Ht/+ctfvvqKV7yiMTmSIRmHoLoZxMXAA6XNiWDdGWpWR3VoVBCyhTwpaxQEARLaGlxivUQhkA9UmmVxLZB3m+GNrMPvSa3M38VywN+pJNxyyy2ztm3b9vGCgoIbPe/VaA9w5xwgfoaYB5MFRVAg0doEIh5pTp9bYaIFJCbBRzKqrr4IXnVjhS88ApUDWg2uCeAlLVMnpdBbIkAye8C5AL4f9waCdHJfcOe/OwLsd1J5jDrvuaoT732dZh7H+s4h1HVm3qmcSgLzr5A7gdE9VBDOpFL2CuCKP2qbsWmaXT09PV+89tprv7d3714rfppuBzVxEz8jHoHpn5WkTXRJWwoCv6cVgT8TCEV7hEk4BAsLp23waegoqxQEUQ6SfkoGR+vlb4epjAInUu5q5IIoB3YqUMuCsHPnzivnz5//I8Mw/Nmg2flvLgBank3DctuXJGqfYYgRxBAzR+KnU5nMZfX8kQddKq/pRtp8KJ+9ACB2wmPZe6QA7/1qKYaj3m6xt5rAR1LwaGGkwY0R4Kg9z4tN4CumHtzBRKKjksCQS+cI35Hetp7Xh699sNnjqozTrHMghiPNOYGAR3SMlPfr4tmDqGr2viHdjsN6RuSO4IbIDklSqHTcr1tuATbe5Hb0k9aPRqN7Dh48eMOVV15pebyEMIl5GURB4E81JwP/FlZF/m7TLSf0BDXsMVsAi96eXpOKP3UVVMZEe6Wsi3OBxrIeiILAOszBwJ8Eo1BBUGJhaTGIMDHTl770pWk33njjvxYUFHxU26z+9i/Awe9q685xR7zpl80FZo7xnKGSwBMKiYkYPnWmF6LJ1y/yxuNgy+6uR2fia7+YjbhLcb7eHOE4SGUhZTJzLPwDux381XsBXBsBnMIMl5cN457/HOHS11aGolErVHBYE/mRtoGloSPyMZDdkWRiY4X+MrKDin0qnw9vPAiUjMcP6l9GPT09H/rwhz/8k9tuu43WhES441hKAl0NtCIIHkGwCHQ1iCUhSUlI8V3sXx7JPUx5BcF2LSRCGiVigQvF7ySHt7gWVHCiGr0gCkJNTQ0XlVYDWhtKL7zwwnsikYg3ho7x1qvhMeD3L9e/mhP1yBuenASTxVgzXo8obvo5U/kgSK00nF1t9jRglT8a5e/cMws//X2J47w5awHc4VKhcDaZzKzF49u7IkD3JMNbunAYt//7KUwv0iycg2lIlZ5pS0HFoHQGUDp9cop0WhGea0hN+Oe0RcCbNSuEY8h+cHDwe3fcccfNX/ziF63QFbob6GLgO0EJfbQ2nupmSGZVlK4FpKgcXqesojBlFYSxiJAEVaqGNarJmbiAaopnwR4QkCIJmoTz4JFHHlm1cuXKJwH4dymM9UD42Txg0F2EpK/nCqmP3SQuoqJQ3Qown/yZXFbMA+b6y1L5zV/Oxp0Pz5zUgj0LwN1xIMB0Vxm5kvcZI4RK4736F86N4o5/P4U5MzXzhzCC5qRmLENGSnicQfHpzxwlDPF1Qz1OzpLDkwXJahDE2e8BLv6+ho4m78I0zb8/9thjV73rXe/qpGuZrgY15JE9SPIm/j5WhkfhRVBDH6d6VMOUVRC4SJJrQRQCRYNLWA5oQdi2bZuFPWCYiigIpFiWvAvk3xaQIwGKjz/++PrFixc/QRfU5FvLY40/XQscu9tjY5fNJEW0y2ZW9Y5+oKplxA95JhZaXJjTPsffrfLln83BPY/NGNeSQFDiLSZAYqIzsXzaAB4eQ8QL50Rxx2cDUA5oHdtbN4C4Gdw9nskLyQyTJGSa4QHWwD26uzZ4K8LL7wWWvj5lUjRN8+Cf/vSny975zne2Cu2yXHws+mW+S6goiCXBtlYLeDFBnKS8l6bc3e3vqZeypTv9QskWBEVrSygH1OiuueYaKxmAECPZSZmITjXU3Au9vb1WvT//+c/rlixZQstBsA+O538I/OU9qZGgT1S+lWL5+aYz1+XAzHvkcPBZvn3PbNz++5ljKglMoXzzlHt8+BSI0px4hNdFABWjv6R02FIOtLsVeN3DzQPo7A/2HtcnHr09UemlRXEyd+NEVyV3CfOlBFVyCoHrmgCGOaawmKZ56JFHHnn5+9///oR5V41ooNWZkQ3EIzDLI98rBCuqQxRSPpVpUUIfWW8q8SRkhYJg4w2EyUosBtai0XrAn6prgX+rygF9TTQnVVZWrlq7du1ftLsVGNrY3zLiUhhojKK3Nhf87OmPpWbrE2xHymM/hb7HyoYzU0mg+ZVWBAIXfZYfPlCCHz1QMiq6gRkcHorrYUn0Oby0Nn8kAki+vrOWDOGHn2oMRjkgIv+5BoLS/JNVpFViHi6uQzngZRmmzENDUGXuZmDjJ4FBOy+okQcULwam8T6cDRTOBXKDyX1CJeGBBx7Y+rGPfaxD3AzJ9Mt0N6ghj4J1oziEdyeZillEFSoIQW0au1/VeqBmabQ1OdW9YNCtIO4FAhRtV0JCMY04fFgAACAASURBVBLswfbt25ds2rTpWcMwCOb2X3prgVN/Ap77JtC6y39/fnrYxJtKw7OQyZT2N2QWdwFZc6yMkSYQ4z/NIDaR+8zCkdBHDeWp54rwse/MT/Ak/KsJvOEMth6oIv2AARRuDiCUUb3IgUag12m6KpcLnqr96HJYVnW6FXhY8GM5kOv2DZmoPJXeA+aiS4F1H4I578K4MW2Rh7Sx4wvRNM1nv/e9713+9a9/vU/FItCCwKJaEeyEfxbTIt0NqrLA3H585ySF3k+Zuz29C+xlkycJm12oFgTR4FTLAcNSzj///IhiHiL+IMF9cOONN0573/ve94hhGJu9DUk0lzjQthf442uAvuDRt47Hem65nocCL8jTF9PLphuTkJsTx9LZESssSy3ETDDJzrBmQBvvlE0VQJ6e51BXbwTXfX4R0JKL3wak0zjeH5lSMcfE8LYO5F0RoOl6IBrH/no9i6jKbbwQ4qZuoK4LiGrej27XjFYwHhRy/VvBrEszLJqHhUwpC7cCl/wImLFC24ii0eg9H/jAB9728MMPx5MwCRaBkprEiRcV5UAsCHZonTUeNbpO0gBMBUvClFMQBJio5lrgAqjZGvm3kCJRq6uurk4oB/xu586dCQXhnHPOybnvvvt+nJOTc42vndVeCfz+ZcCAZhIXX4OyG+tUENhl0ObFyebs5DR/uBnoJFegxkIGSDJBaiw131yAZXuLpjjfmgaBFMeBmxqBxQGnVj7U3I7u/tkaRvyPLhgJsHSSLvky5Us1HYVP+XUa3Izq2PuHY3iuQZO2oVEoM1YBV/4JKK7Q0unAwMCtGzZsuJmdScgjf09O4iSAReFGsN8/8aSw+1F5G6YCy+KUVRDs1beUNFEOxLQj1gMBJkq+BbYh9oD+JMm5sG/fvo8WFRXd4nk3RfuBP1wGNBG6kKFlY9nYxCd+hstsd+RLSHVxohzImBimSeInXYXm4816HjyjhnSoEPjmfGBA/8FW19QD64dPoPP7gPe1ALkBW15p9dpZq9f6RfAqQaxOCvkDaIFLdaFrjPeNzsJMksQkZWpZ/3HgglsAw79rta2t7Yq5c+fukGgFTlnFJKxYsWKUDVAFLtqh92NRLge82fUszJRREMZjTLTe9LaPQUnKZGEP1JBGmoRYxHpADW/fvn3LN2zYcNCzKGkt+Lkev7TnMThpqAOkONZ1gvTljnU9mnGp7LgphxqBbo3+Zp4UeWIMonxzAbCvaHxCgCCumc4+C0zgU43ACo3rM9F86jpN1Hfqe+Z5sSgxPDCVBGQako+NKdKeQRMHG/XJMoh9mFcCXHscyPdHZWOa5qkvfOELq2+++WZqdwxrtCwIdFlv3brVetHzEMrCdM/CvSPvo2SmRZnqVOBIyOwFtiWpZmoUUGISpaUFTLQtCPydQBHmWzDUbI1c1M7OzghBJ+Q7qK6ufsowjE2e9mbz08ADF3lqmvJGa0q9xTtPNtAgTmQTXdOrJWRPnT5Mgh9Oicnkye/r8oCvlgIdmWe9dTJ8R3VoKHlLG3DZZPyJjnpzXmlfPTBo5efxX5ingJEtbktLL3AsRQRpBXnAhkWnp1h3O+ax6jd2AyfadfQUfB/MBlngL0x5eHj4Z2vXrn0n3x3yWlJcBBIxl7AK0NVAS7aKS0gmUmI/mY5DmDIKgi3MhA8nGXNAhUDydbMurQc254G1niRFUhkTKysrP5ufn/8ZT7uz+SnggRd6apqWRotmjrClBVHIuLgzOR9gABdi4iRSRXsp5HEgsFJH4R2zZYmOnibu47ki4Ptzge4sUhQou5f0ADe0ATkptrDG4t3YVavH9EMadyqrXsNeU4VH2LJ4cupkrzv5SHMPOvod+la8XkRju+uagUJ/tOnt7e1XXXjhhQ9zVCTXE/IkRWE4jYpZiPpsRSGx6acKUHFKKAhcAHExUDGghYACtn+3LAc060i4CevTeiAKAt0LNvbAWLVqFe666645mzdvPuQppLGjErh3w1TAl/zj7grKdy5X6BkEyGkfZCHIiilvvRYm5OnVBIBbPAtYqCcadsLp8HFSVQD89/ypryi8rAe4vi14nMF4Aj3e3o2mbj0Kgt8cHamwImwq967ATHaPpepQMNk43HxvRAAqCT4sCWRajEQijHRLsCeKq0GUBCFPksNqEsui9Srjfwp4UfIIpVhjdia8KaMgSCwppyXuBbIkqqhRfqcSIpHMgpTKNiAxMddDhw4xauEtzkSk1CLm4K4yIK7JTOl6AD4auM3F4PZSQUQNyBgKcvuxsazI7ZBG1SeHw15NoadesBB+Bs9HR3su8H9zgQOawWZ+xjVZ28I48M5W4Lz+9CkGMsa9dSaGYv6fdwwX3MyT+WSTn+T7ILEIQVoMOS1ieojtmWolpwCgu8EHwdLAwMDnioqKvsJcDYxqkHTQFIXkaiCB0jg0zJaCkByBl8luBr/bPBVbxBpjcr4FsR7Y31kWBFVB4O+iHKicB7fddtucSy65hDZxd7bb+BBw73qg60gq5qz/GrOKgNXz9fer9vjsSb0IcenbCxhsrJnSzUB3g47i16LhdQxDBnC0APjJXKDRP0Lb6zAmbHdFN/CaDoChi5nwhOke6MahJj3WgznFwEoNoa66wbP/UKbdA3ndbgKdWA631/Zbn3wJDIP0WAhYXLFixXLyIrALm4aZxEkWaJHWamFZFII+NfpB8jUIcZI9jIy0HnBsmXD7TrZU1hiTmKgshYGfC9+BdCKuBflbydhoEJhYVVX1k5ycnGsnu+hp3+/6HLDnC66bZVSDtQuB4vzghkQWQ56MdG/3sxf0YWahv5SKnDXz2R+1qVv9SsEPJsLvtaV9fwRoygXunwXs8mdg8TWk+VHg8m7gBb3A9BiQadGa++qHMBjVs/G9AmWTBRwEyM+yblQEhzvgHDoH+nC4yf+96GvD+Wx86T3Asjd67mRgYODmDRs23CoMi6TqLykpiUtUg1Aw8wJUElgkX8M4QEXrFed5QAE2nJIKgqXZjA5tTEQsMF+3HXISoeWAhQvINM6333777EsuueQ4AHfO7O5q4J7VgDnFKe+IwGfIY5CrzgQuTOSiqxAQdr7Gh97eOoB5JfwWjosPYzdpcv1ec6L2tJ73RYA+A/jLdOBAEXA0X/9jZ0YcWD8AbO4FVg4B0+IAXQmZWobjwJ5aPaNjPhPePzrKAGnLNbm8ZDwE8VJxDaoQe7C7Noa46c76GtR4vPZLV8M1x4Eib6Bn0zSPrFixYmNNTQ1f6vJit9gVWYRhMSnkUQ66cYnEY10lKi9UENys51j5FpIyYiVecwwnsQGK1iWYqVHlO6DlgJ8fOnToCwUFBZ9wMw6r7r1rgQ7vdAmurxdkgyWzgVI91tZxh6mTEIa88WSC1FWYurq9T09vmWBFmGgmfG9TaRjiP1uBaMgbCaHkPyoV7cqzvogve3PECjArBtAyMCcK5JsAOQsK4iM/p1LRuRd1+/YZ/cOXro4yrxhg1tYgCynMm3uCvELq+j77vcDF3/N6PbOlpeW1F1xwwaN0NYibgcqCKAmCR+AFVIuCuBuSMz16HUjQ7YI8S/oau0qMRHeCcBsI6QQ1L8Ed8EJMxGRbD2ROFp0yi1gQqqur9xmGsdrVwFqeAX5zoasmGV2ZJ1+eNIJ0NYycNPQ8/HSe2rgwOgFWmWZFyOiNl4bB6bQecPi63AsiCl3ASSZhohLN/RhU6Rxsx+FGvRTVQY3Vab9vOgLMXOW09qh6sVjsz7m5ua9kVByL0DBXVlZaGp9gEZgHiH/b7y+rLt9hNsPiqD4zkTgpwB3lSe6JRpJzQZQDfqGGNvJvWg4ECGJbEAzR4Pg9rQiSrfGRRx5Zu3TpUqbicjfn+zYC7fv9TSbTWjOzI02lOe5E4Woauvz9uk/pvF1p2tVFmKN7fK6EHFaeUAI6+QZ0K6ocOPchXQ1+Cm9hS+EP0LUwFOvDcw2FiMUzDV3iR3LA2e8GLv6Bpz5M0+yKRCLiozCpKJAbQWFZTJiGGPrIiwh50t133x23XeRWRINE5WViNEOAbwhPclcbWSkyWYT7QICJUknIkZiMyVYIuECJTUzLAT8n/uDw4cNfzcvL+xdXo2p/DriPnAdZWEqKgLMCjmrQwT0wowAgE6TOcqIDaNSUMZA7jGFvmYJF0CmnqdyXbuvBynk4LXOoX/noUGCCdi2YGMbBUznopZ8qy4qRA1x7ApjmgRGTOeu6uq7btGnTfZSKuBr4u82NYAoejgpCciSDxDomMQJr8jfpW6eMVRBUYiQxx9jaFhUH0zCMCM02O3bsiKiMiXYaTkooYT2gglBdXf2sYRgjPgenZddngT3/4bT21KsXFE+7SIJRDeQe4E+vJYgTeswECFb0My51PkGM0au8wnYjEtDx8hVZEgfDVMm6Tfh+x8hx0e0RpHJ6vG0ITT16IkAycW++6PvAmvd4Glk0Gn149erVV9upoK10z6IgCAaB7yb+vnXrVitHgx3VoDIq8l0mUXqhguBiJYg7MEQ5UMMahd/adjHQrWApOhKHqrImUjmoqanhAjD1oPONHhsEflEKDGnMWMgHDIFOMwqGkRPJg2nGEDNz0DsItPfri9F3KmRKbUUAJyP1+n5Z46blAyR50l0Y7kg3iI4SWhF0SFFfH7qtB+UlAJVp3WVv3TCGYu4iqmQMfJYwSyMtbEGV5p4O1LQFxNE+waCZeZK8LYy6Ir6ClmQq9R39QJPm/B3ztgBXPeNJgqZpnlyxYsVZfL8IcZIkapJ00JLESRgWJdxRMg8nWxIyzc2QsRYEe8UsJSF59ZLAifzaUhJEQSD2gJ9Rkejt7Y3s2rXr0tmzZz/oahe07gbuJ6umpjKzcBAr5xVYG368MhwbAdGd6tJHCzzZ8Hn6oAk/SNAiaZhJx+ylEC/B05vuQgwCfcC6dPbQiqB7hbz3p5P3gDTlpC0OAq+z8+QQ4qbzQ4sqkaBdC+19wzjaykOM93Vw05IuT6bNpsIz0TOSIcpU7r0+T8Ya01sagSJPWXmjn/70pxfceuut/YTI2TgEy5KgKgh0NbDYysIoc6pKq5hpyoH1YnWzhqmqq0YwJAMTRXFQ0znTjMPPBZRIsIjtYrDwB4cOHfpKQUHBB12Nv+p24PG3uWoybmWegtcsAPiwcVqYN6C1FyChStCFpkqOjxp7EIXpbfky9pLmlgrM+YuDGBWgM+SRI2R2P2b5C0v6JKAzSoWz4Etrmb9MgGMKYzjWiz11xZ4ExSRR3GtBuRb6h7tx4FSBZ+XF6aTEokqmVDf3DZ8jDF/lgUpHedWjwKJLPfXU2tr6+i1btvxBrAjsxH7/WCGPNt2/9M0MjwlXBD9MjmbItEiGTFQQEsyJIlX6aJJdDMQeUCNTtDMrgoHuBYIT7bScZE/kgj2Sk5Nzsasd8OS7gMM/ctVk3Mp+EqdQY6ZFIWhFgTcomRbdKDFupNPUAxxvc9PiH3WDyiMxMDzyoNF1SNLN2eBNWmdyKxO7ag1t2BK+wGi94rrqLq19vahu8aYgUJmfEVBOjsHoMA415mkhExtPZqIYkI9lImvBRDLnAYogaB3lhd8GznGHX5fLDg0N/dfKlSs/W1hYGOc7R6IZSL0sdQSPkBzyKOGOKnES22SSJSEjFQSVp1p+37ZtG5kRTQF6qBYEO+eCJVv+J7kXaD3g39XV1bsMwzjH1V769XlA2x5XTcasrMt/SUWBLIW6fXDqoGkmp18zqJOJ11wIuglq1DkfaR7xbeoqZy0ASgJ6eOsaY7b240cJHUsm86YDywOwHvBaVS0DaO9zv1Hon+c9GkSJxftQ2WBiMOZNcXEyJt7LzITqVTFQr6GLuGnV24CX/MTJ6E+rE4vFnszNzb2MB1HJz8BKaiInMivyIEvCJJV6WTh9kjsNFYRJlkJlUUy2HkiWLMnayK6am5sjJKiwIxgsgiQhR7IVhGrDMNxxpN5eDEQ1gNjOLYsiL1ef3ZnJhmo7gU6NLzV1PfgA4ksuCNWRJ3YqCW7Z46blx7FuoQv/jIt7nQDRAxoz0+mmhnYxlTO6qmnG8exJfXuE68gIAZrzgyj76ocxGHXn0+NLldbIIBR43pOHGnvROxSMcsAkV0yTrlOe/bYF0O/6lF4MvPpJT73E4/GDS5cuPZ/KgaogsDPJz6C6GoQTQWVUVKIYZAy6bJqe5qQ2CuI14HtQySGONMGwU+E9EHIksifaF6NSYP1eWVlJM4/1e1VVlVFRUWGcPHmygevleGDM3PgTDejgiDGE8xdTOdD34JJJtPUCNe36QvVU4fjNdz+RoJmngZYQN0VXit3xrqkbi1BWMoDy0IzgZol91TUQx9HWiIXZ0VWCwh5wfNFYD3bXMeGRu+dCUDTp5Dp4vjHPAkjrLnRdEsMRhEuEkQ27mJjXZ5m+DLjmmKdOTNOsWbJkyVoqB8QhCFhRtSCotMusYLsaEjkcxEqukAKGCsIkq2GRJKnWA5pjGNaotqOCINELyQoClQPWtRWEdlp9HO+AaA9wu4Z8BdPyB7FuofPrOh6gXZEIY1oTiFHQXYJ6QHLMjP92y2RYXtKLspJgTjc8iVRqxCJwLc6rMJEbxFFP90JnQX+DURP76vUddoK2HtS0DqK5191zIQjCMOt1BuD5xl50D+q/txaVAHSx6luZ0zfrMyf8b+DC+cB1TZ76MU2zYcmSJStra62EYIxkMCXLIz+wSZOs7wQvR1eDhOpbX9iMgHb+QVkVT+PR3SjIpfM81mQXg4o/cKAgkCDJsh7QL8Ry7Ngxd/Z4XQpCbg5wnsZEQ+NJtGcIqGkF+KLTWegrpFlQd+keAA65vCELcoPNc6+TF4HyIp6D4aMZeYfpXtA09keFc199A4Zi7lyIEw2Z4Dme1oMoJvqwp9ZANO48PzcVFlKju0H6Oxq7MYyq5ka091U4qu60EpWZFXMBhigHWegWYcIrv4VMim+u89SLaZqNS5YsWV5bW2ud+qkgSEd0MdhRDBaAXoloMCU3g/AhZGrypkx9fCXTLFsJLiSSYevWrYYQUAhJEqMXuDAEMUr2xpqaGroYcPLkSfdggp/kAXGfPOkc0OaKOHIi7kyJnrYqgBPtIyBGnQaqoJQELy/kIOhuRdZBWBHOnj+MmSTxD0tgEmimq61VX/f08zOEUAeIbqxRneqO4aSaQtPB0IMC6R5v7UVTrz7LAQ1mFbOCzxYrIhuKRrG33r8WMmcT8DpvgHTTNFsjkcjiZcuWWU9dwSFIhkeJZpAU0DQYEGDPIlYEiWbgZ7YVQecT3MEGG79KxikIdpImi01ZsAcyfCFIEoCiUCxLeKPgDxi9wH+2X4jKBnOUuntJ370C6PHmlxol7jUL4phR6O7afpY0CGvCwplxLJ6ldw6MYWaIoRtuhKCtCFSwdIaT8oHJLHtBhY762SfZ0HY4PoA9te4jASaaOy1mVIqDKDzx7q0bQjTunByJp/ANi/QDE2vaO9Dcrc88SIvZ6vnBKVZjrIfZ2NNtnGjz7wte9kbg0ns8rbjqYqCSUFNTc1riJrXjFStWxJMjGcSKICyLtuPH03h0N8o4BYETVImSqFTZ1oMEBsEGJ46ZuVHlP6CSEI/Hjdra2lbDMNw9SB59I3D8Xv/y5ktt/SITEd1E7pMM7Xg70KzRmsCTAU8yOsupbuAk4SEuSnmJibKSYPYtlRXmaHAbZTHR8IMEfLoQWxZWjeNQ4yC6B52b6icTQtC5DWrau9Hc7e6FxpBGRhbpLCc79OGW+FijSyYIV+REc47GY9hfn+PqgDFef+f+G7DZc86dWsMwzqKlWqwHE+VmUEIdE1YC1c2QSSGOFFcwD1p/mznhXmA3agQD/x6LQZGfj5V/gQBFfnfixImThmHMdTWs/V8BnvmUqybjVl46J4YF0wOKl5pgiAyFrG4jalrPPIJQEtxyI0SMODaURbSGS6nSqe8C6jr0yEt6CeIhr3eEU6+3jv5uHGl297KdbJZBurAGYnV4rr7cFXUx8xHwVK6z6FQOaN0gaRMPQaktJk52dOBUlx6gyCvuB5Zc5WkGpmlWLVmyZKM0JhaB2DexJBCHwHfT/PnzLYplRjCIi4F/082QhD+wusoURsWMUhBs94IIJ4E5oMDUnAzEICj0ygSGRLgQnZ2dlhlcjWCwFYSDhmEsdbUDTv0Z+N0Ih7aWck5pDNMLUq8k8DR8uGkkx4OOsmxOK+ZPd6dsTXRdMqIxV4MbzvfCPBPrFxmBqLccBzNQ6qJx5dzpamD8elB+bR3rOpX6GI71Y0+dPssB516UD6wPICkY+x5xLUQRjTt/kzL3A5lNddKf61QO0mkZ6xgYxJEmd1EgE+3vN1QCs9Z6ugNM03yuoqLiBdZtHomYoiCIFYHveuIQmCdo69atzD48SkHYvn07LQmJlAxJnAhpxyJkrIIgq0ULgmAPhP+AGAQbpGi5GezkTBb/AV0MBCkKQJH9HD9+/K+RSORcVztgsB34+XzA1HT65kuCSOTUa9sj02Y4ZGOXHvP5qvnAbI3PZy+MaORvJ1I6iMIsjwRR6iwlRa04az5p+TLqntM5xZT0RQXuUFM/ejS6FjjwtUxYpu+dM0oWlaeG0TfkDqyqOxV7XWcP6jun+14j4mmWzgZ4/6Wj9A514sAp55w2k40xtxj4pw4g4lx3U7scGhp6aPny5W+or6/nx9bLXiwI/J2kfSy0IPBQq2IQJC9DaEGYbJH+8X2CEImAjaRETYZqmtm+fXtEVQ7kwatEMFgcCLW1tQQs3p+Tk/MK58Owa/72xUDTX1w3G7cBT5DrFsWRnybUGk/rpBbWcTqm6ZMmUB0lRt9/vXvSJ90PUXUufjJQjieTlfPimDNNL9hTh/ynUh+N3UM40e4c5OdkbkFmRjze3oumbndvU90ZTOs7G1HXWepEFBPWYZjl2aV62RDdDKpvuAMHGgpgQtODB8DGm4Att7gZxai6PT09nz377LO/RgWhoqJiVCRDcXFxnMB5mwPB+k7yBxGLwL+FUZG/q4oC/84EPEKmnWZG4Q+SaZZlZWhBUCMYVAsC60gOBloR+Hdvb+9N06ZN+6zrXXDyt8AfX+u62YQNaElYWzqMonx3Jwqdo3i+Cega8N/j6gXALE0AKi+ARc5g8WxgoV5XtCWYIMIe2e+GsiEU5up9wflfyanRQ+9QFAdOeTvqjTdD3o+MEggiZp8AXO5rt0UnZqW+qwF1Hf45ItLpUqD8ugd6cKjJvwUkeS2uegaYt8XtCiXqV1ZWXrh+/foDVALKysoSboZkwiQlFcCovAxK5ALd6KNcDZkQzZBRCoKKQZAVUEMd7URN1pjJSsUcDPzd1tIsgiQqBzblpTAp4vHHH9+yfPnyx13vgqEO4BcLgZgm/706AJ0ncNcTA1DXOUJ57Mb3n3wdAybWLDQwXdP7jmGPXsieFs3sRsUs/VoC5UNqaJ0lN9KHTeVFKY9q0TmHdPQVi4+wJboJi3UyTtIAkzVUb4ljxHLgfk/qBCY2dHWjtsP9GFRZUIGiEr5Au4ycS7ylrx7HWsqcN3BYs3gJcO1xh5XHrNa/cOHC+Y2NjZY1IFlB4Gc2HwJdDQZZFYV2WaIZVMIkNfVzCFIce1ksC4Ka/tIYYY5gqKOVyVHwB0KQROsB/Tz8TmVQFCsCwxxjsZjR0NDQaBiGO1Mfx3jg28BTH/KzicZvSxN52UzakoLpf7JeyWh4uNk/LoFgqmINSkLP4Ahg0UvhQ37pHL0efgtcVq8vCkTmNXIa40MlTQvvRcBpbEMl9khzHzoHmL9AXwmCV8M0o6g81Yf+YW8xwbRm6AAmtvUdQHXLOTB97DEywRKbkS7cFBNwHW9vQXNPMOkrX/ZLYPk1nveTaZrVkUhkY1lZmaUg1NfXmxLuyCgGO/sw1NTPAlYUBUFwCGwvFgQFqBiCFJNWh4qApQzw4Ul7i1gQRDlgffHjMM2zQpIkFoOEj5f82Fww4hBisdjfI5HICGLETek/BfxysR5WxbGuyxcrKXnTRdvPExlDDYd8skauXQQUa/CaeGFYFLnSTEwkuk6Ihx+lZaJ9tnj2EBbO0KBVudnMU7RuQ1cnajv0AdNEDLpextIfY/N31zJjlDflQFdq+Pb+51DVvN7Xaged+n2ywUXj/ag8ZWAoqsmHmXTBnIIRcGKO9+6j0ejjFRUVV7LnnJwck1EM/F0yO9qcPFYUA0MdxYLA9xezOhJ0r1oQVAXBHm2oIKjLJuyJNLUo/AdWFSZqUrI3Wi4GKgh2e1oPEhEMYj2gglBWVmbMmzfP2L1791ORSMTbTXPgO8BTH5xsS/v7nimW05kAkODFDncpK06bsA4lgQDKPd540RPjIVWuTt76Y61Ai8ZMgTLQs0t7MbPAvVXL306bWq1b+zpR3aJfOdCNXekZiuPgKe8AVJ7WNy7yr9zqQPkHRa/ubOeZ6OhvxJHmgGJO7UFc9ltg8audjWicWtFo9MG8vLxrk/AHrG1FMlBREMplWrmpIPBLuhlsCwJzMlhpBKxGdtImuVwIUkwSfHKSJtuaoCoIVAwSHAjSnG4GVUHg5wJQpILw/PPP3zh9+nRvVFnRXmD7KoCWhKDLnGnAinnpMzzr8LnrUBJ0jOOchdCGjaCVZbeVrU1/2bBoEIV5AcXX6R9uSntk1M2BAO473YyJbX0HcbTlHF+y4X0/16cHpWe4Awcb/NEn6w5hdiMUvj4PNDahbzAYl4I6ljnnAlc9DUT8GfH27dt3/qte9apDapgjL0OQotD9i5JgcyIwLN8Kh7SHk/jJ951EMmRKToaM8oGqFMsiLFoSbA1LwInkQLB+J/DDBigmlC6bA8EKceSHdC+YpsmgdvehMcNdwF0VwLAHJLKbG0OtS/P4WfNHsgGmo+h4KG8sB/xwQtHnvKvWPzZizUJAlxU/KFcDXUvnVQwiYqRpwdOxyRxcczjehT213kz1k3VPPhJdObRaeg/gWKs3lh0ZJzEHdHf40ABVMgAAIABJREFUKb3DwIEG7z1Y0VUL9cnF7Ug6B/pwuIlEcqm7D4oWAduqgFzviplpmjWLFi1aTxeDhDqKi8EGzI8KZ7TTP5MsKeFioKj4jlPTPocgxTE2kBrFIIqBYoIxaD1gM4VFkRgEUxgU+Z3NomhlcaRyMDg4+JP8/PyR9FluSrQPuOcsoM+nudvNNdW66Qwr4ol5P8F5Fjuot3JehT/mwPZ+oKrZ27XVVhvKulGY6w/JLf0dbwOamPdLc7FOtOWDiKTw4ah5Clq7i5kj+08HX0fywHS6FshO+nyj6QsIyPERg8QUyV5L33A3Khu873Fid9Yt9He/eh070IvKhl70DQdvNRhrjCVnA6/fD0S846e6uro+eNZZZ/1YVRLIqKiGOvIgy3dVchSDPSTL1SCudcWKEGIQktcsWUng9xSejUEY5WKQCIbBwUELf8AohoGBgVF+wBMnTjBRk3vrwf1bgNad3re9jpaGMYwVc/NA10OqC8mLGOHAk7OXwsgMZjL0Qy+8vwEYGPZy9X+04TjOK48hJ+Kf5ppRDXQ16EzmJCPNz+nHxvIiH5hzf3LKlNZBKgf0859XrmemI1gZatDecQccid+wxqF4O/bVzvKspPD6dCukw5bc0tuLmrYimKY/Gfpd0VU3AC/5qedeTNM8tWjRolUMdyRZErFvkv6Z0QxCt8wLiIIglMt2ZkdLERBQvg3ST7tywDGlY1tMuBAqDoEV1SgG/q2QJCVwB1QMWGg9sGkuDWIPjh8//pPc3Fz31oM9/wHscs+r5HmHTdZwmhXp0IscD2Gak/U90fc09R9rA1o9AvRottxYBvCE7KX0DtIn6aXl6DYLZozQw+oofUMjUR9BlKLcJmwonwnT9A6tDmJcqeqTysFz9cCQJnrz5HFzL+oK2TvQWI3ewRW+ReMHUBuND2F3XQQwvZFHMQNjKcOsfc/CXQcxk1aDOAaj3q0e7q44ee1LtwPL3jR5vXFqdHV1feCcc875Cb9WczJIuCM/T+ZBkPcZAYtjMSqGIMUkYY8FUpQ8DFJV5UFg6AitB6pyQP+PWBFOnDjRYBiGOwR0627gNxfoy8HgecslNeTLlmFQQeWqn2icNKvTvO6lEFNxbnkMEcOblqAjuoLjZrKkfG9DOG3aXlkfncivKP8UNiyadcYpCSYGLCKkoagPW/sEAl41D6DbTkcZjA5iX73/cfqhCh+OxbC/IQe09HkpOuXh5vrHWuvQ2ucuq6Wb/r3WzSmI4ZoTOSjy5umIx+N1ZWVlZ9OKsGzZsjjJ+iSSoaqqysrJQDZFDk9N2mRzJTBCz3IzsCiESWm3IqRadxxz+Wy3Ai0sFi+SDdCwwIniXkhWEKioCUESLSG25YDVrDn19PR8uLi42D3J9gMXAc1Pe91mwbfjS27FvB7MKEgttRn9rYc8nuZpASHhihdCqMEosM9KhOKvkJho9jQ9+523La0I/UP+xjRe6+kFvTin9MwJf+Q7rrLBxMCwnvVJlqvuxF4NXT2o7fB//3nF6ZgYxJ7aQUTj3kCcuojN3Oz+3sGjONJchuG4e3evm+v4qbvyeuCld3rtgRkbN23ZsuXoWEmb2KkQJilhjtzvVAwsEkCxItgKQtqVg8TL1KtENLYblYNBpVfmNexUzwQpJgCKQjyxc+dO+q8SCkJZWVmEJp4TJ07sNwxjpasx1twDPObeI+HqGroqzyw0cfaCYB6o443Rj3ndD+iSdMcMffRTFsyIY+lsfb5OntwYaRFUmVUUxer53kzHQY0pqH4PNfajW3N2RhkrcQebyvQSkR1qakL3gLejpoyLLi+6vtwWMjUebMxB75D7ez8dzIh0Gx1qbEPfEDOZZnYxIsDr9gCzN3gaZzQafTIvL++VatImWrRLSkridr4g5mGQpE2WcsB/ZFNMtiBYL+d/HJbTpiy432SeRDdpo+QkTZb1QNwLdCuwB0YvUPuSKAZxMSgpni25/vSnP512ww038Ljrzqb8mwuBlmcmHWzGVKDbgWbKRd4OEp7mQcbFykZv9MMVs/qxaKb7EwSjKfbW+QMH6sQhiOCYN4L5I4Iqc6b1YOU8/yfVoMano19dLqTxxqLTtSTXONwUQ+eAu2eLOj663QiW9GJRO9Hei0aX2SF57XREKpxoN9HUE4PpESOhY3+57WPFdcDWn7ltJfU7DcMoo4JAxYBuBjWSwQ5xpCXB4kLggVfwB+JekGgGURDSnbApoxQE0ZgU7gNLTtSwBHsgVgQqBwwdIUESK6lJmgYGBm4uKCj4pKtVbvob8NsXuWqSMZUJvGJmxaIUHTitMMgG90oCV4rpYr2EdHX2j0RVeC2rF/RjVqF75WSy65FhkUyLwZQ4ykoGUF6iyXkezCA991rTFkNzj/cX7WQXDsqUXt81hLoO7ww7DCmk281taevrxFEPrJK838jUmio6957BozjashRDsRQ9kNwKcoL6tCK8pQEo9GYgOnr06JatW7ceUBUEXk2SNtnKAT+yFARGM/APoVxWuRCsSqaZ1rTPGaEgJGdxVGmWGd5IQQnNskqxTKIkCXGkIkFyJIaYxOPxSsMwlrvaNk/fCFR+w1WTjKtMM/7Kud5OJm4n41VJ4OmJRDVeAIN+GBY3V/insR1PRkFRMVvqMYClc5swv9jbE8vtuqaqPteyruMffHK6r+vVhO9kHENRE3vrvT07V86Dp7DlwegQ9jfku86+SuWA6aO9WCucyEKtE42bONLUhp6huW6bZlT9i74NrP0XT0MaHh6+PT8//33k4WFJ5kMQK4LtWrCUA4Y6jpe0KbQgjGhJCXCi9Uw0DGFPtPAHYkHgd+Je4O/JmRxtKwLdFU0A3Jlmf7kE6D3paVNkVCNxOzDawdsjzPl0yAfA7IvEJrgpMwrjWLPAGx6guQeocRlRwQfkzAAjBy3QosdU1U7kFjHiOGfhEKblBTgJJwPRVIeA18NN/lxGEw3FD97F6RRbekZCgN0UMqSWeDBi8T57rqEPg1F3liTrwJAC6nbTjKG200BjN90J3hmH3MgyyLoLtwJX/snTFUzT7KioqChXEzfR1cDXHEGIaj4GfqimfZYLZhLdctCvEEdCVimWJd2zoDrl580332yBERUTjdAtC1bB+nvnzp0VmzdvPuyK46FtH/DrTY7G6rgSszTyBhVKV3IKEJFPKuPOAXgOT3I6AF535bx+FOV5eCI5vYit3zIDY3ufi0YYyTnhlXuevn+e2inLiQpdLyvnDqO4IPiHVlCpoWV++TlD2Fgeh4GprSQQtLavzh9L50RrTl87QYmpKHR7HW2d/F4mGdGS2d45GE519eNkh7v7uHTGyDWDLl2DJ1HTWorBqAefiYvBkUuFcqRrhtZHHoS4lxhJRDcfn626CiOyr28F8t1FyNuXHywvL5/D1M/8WwiT6HJguKNEMjDt87Zt2+JUGiSDsY1DSM7ZFLoY5GWuJrOycQiW9YDFdjGIgsCQENjuBVJaGrQe8N+RI0duKiwsdMdydPC7wN+8mZRO25PcuDwpzJjkOc6XHFkKW/uA7gFdW/v0fhjiRXOrzhTIY422vhOo63Q+Dx0Jc8iySErmroERcp1obASMNS2/H7OLiqzTWipVYLpdmImSymAQZWZBH84udXeKDGIcfvpkeKhbi5PT63FPkXgoJ4WLzrVmFtSOgZH7mXswEhnJJsoXGjO0MteC10LGRob5umHvXDoHWODOgOp6eNF4D462xNE1EAxCmi4RukfmFY/kpZmM4MovRilZAFf8ESh7hWux8B32xBNPnPXSl76UIU5WVkcWNbOjjT8wBX9gRzFYOATWTbIgWDgElnQQJ6XwThpb1snuBdaicjAOQVJivHaiJutvJmiickD8QSwWeyISiZzvamX/9n7g4P+6ajJuZS+o6YHoyEOmqVuvJiyDpNJSMWsQC6YXBOqL5Mua1gSnL8h0kbXoWemxe+FaMrLBqQzcjqW8pBNlJZ6ONm4vpb3+8faRPR5EIaU3mRKDVoSDGPtEfTZ1t+N4uzNTQCoSvdGd0NjdgtrOGTBN/coqlSlaP2YXuWdg1ZFoTtbi/C8Cmz7jabUHBgb+dfXq1RagjYoBfwrlsqR9tjM6kjTJAiqqoY6iIKgXT4dyYCklniSgr5EV3mintkz0SpOLqiCoYY6sZEcwJJQDYa2iknDixIkawzDcAbp+fynQ4M3nNEoUfpjR2BFfKnQ/kKkvCKsC3R7L58ZQ5JX72MHC8wVZ1eKMRGj+dGBZ5odHO5j16Cp8UJFUys2pz+lFmJ9j/cI+FOZNLSWBp2vKJAjjChVgAl8nO2U6lXEm1Xu+KYqugcmjAWipIN4gSAWpZ7ALx9qKMDDswyQyjnDpjqViQGuBn7cSI51oTfBbVr0VeMntnnqJRqNPLF269AqhXLY7SdApk1HRZlOkmyFxR5ALQfUvKO/FIO4aR3PzsxSOLjBJpVHXF2VBFARBd7IPO8yRrgVJ8UxypFHta2pqjHg8fsowDHdmr7tXAD3H/M9n82J95k2+ZHjaon9Nd+GNWDEr2LAnotTpdpjoJblwBsDsetlYglQSCnJj2FgWXHhgEOtB10sQ2RmpHDBs0I8ZP4j56uqTYE4eGsYrnD/voSBdCrF4H050RNHS4+65OpkM6EbguPlP1/qNJNGa7MqTf19+OfDKhyavN3aN7sWLF5fyK0n9TK4eG6hoUS4LYZI0pxXBDnW0dAT10JzOUMd0KwiUz2lKQnKCJlVB4O+iJAj2gJ/RisAwx5MnTxJa7A7IdccMYFhDGt8tS/xpv2NtNoJv+KLVrSgQ6LNkzogpL6jCsROX0NZ3usmdJx0+2LPx1CfyZLKpQwGh9RfO7MTiWVPDilDd6j3h10R7ky9Hch0IEDiofZzOfml5eX6MPcSXKy1wFSXBWg1a+wZwoi2OaFyfO0EUAxK86TZm8kCyU0M02tzzgKt3eVp50zT7lyxZYoV6qi4GO++CpSiIBUHIkpKzOsqF082mmG4FIcGgKORICqOUBVC0BWeleabQGOaYlOY5kcGRsacnT56kk9Pd6eo2DWLgC4+x9kEVedl6zaw43rhI1EdrQp63qENH0yV4j+Pmw47IYwK4aMXIZuVABMPTX1WzfneDYUSxqSyGvBz/SYMcLaLHSgTjMgRUt5GUygHDV2mSzvZCGZ7qAobjI+nT6U6gST5I4qOhWC+OtfWhq3++VvGS0bQsAMVABsl99uwJ/0Oevhy4ptprP1YkA10MQpgEgBlHrHwLalbHHTt2WG4GNZsjL6oCFc9kC8JpORgkQROFRByC4A9kpXbs2CFuhsRbXQUpmqbpMt4OgA4FITcyiPMqgn9aEQF+oh1gLLmuwocOkc9z9B0SdA0tK/qhcsSYed3AxcK8PmxYlNmLRsZNRpvoLIxSIDPgmaAc6JSbs76iaO3rQE1rMeKmPvMiIzoYTcUooyBLZigIw0oWYUbZWeqxyqbIv5k2gD/JhcCfxCCIaIRyOd04BA1HZ3+rrXIg2EmZrA6TCZL4mW09GNPFQIDir371q8UXXnjh865HdOdsYKjDdbPTGgThYhhvVAztO9mhN2SMpxLGTnthOfQvvezuISjmwDWl9ZhRkKLAf5dLRNcSo1p0FpqnCcYL0jWmc7xTqa+hWB+Otfagy2ciKnXODFXk4SNVbqAMcDEAGC4vL59lcyGMUhAoGiFLEiUh2YpA5SCZDOGMjGJISu8sWRut7UXrge1esLI4SqEFQXALxCBUVVVZSg7xB54VhF+tATrd6xWn3fs6QYpOHyxkFmS2Q5rxdRT6BBlZQI0/LHolQMtPo+Ywv5xIDJsr3LnU9M5q/N7oC9YZycE7vXxWapOTpUpW6b5OW28HjrUVIm66w2+NN266Eem65KEjlYV8KEzs5reUXQZc8bCnXkzTjEUikRl0eQtIkR2RKIlhjvb7jaRJVtImuhj4rhMeBFEQkqL7dDvpHM0t7RYEvuxpLVB8LtaYJJujuBioZUkeBsnBYAtd5mA8/fTT3iwIv9sKnPqzI4FNWKliNrDIQwpX/1cecTsw6kHXNqKvcHHAkQ465j3V+tAVhqXOe9lcYH5xZkmC4FSCa3UWkuYsn9o0/zrFoaWvWHwQx9qG0d6nh1mJWCzSvBNnkI5C6ndinfyWs98NXPwDT72YphldsmTJTPLykEmRHAirVq1KKAhMMiiMinQzKC6GMZM2nbEYhGSKZTUHg61lWVYEAhSpIJx//vkEKCZcDFQuBH/A+vF43Kirq3MfF/i3DwAH/8fTZjit0XkVQ8iNBEs7Ot5IGeJDCuKJwqLczJIgwrMXRFGQG7Dj0M2gpnhd4hDol9dJDUuw2vmLM0swuq0HxBucY0WOhUWXBPqGe3GkqUBL1kUe02gtoLKaSiZLVRbkYNlfr0c6F3wV2PBxT32ZpjlcUVExy+ZBYB8Wo6LQLQtZkmAQhCiJFW3qZcvFkMwPlI7ETRlhQRAqSTWSQcCKO3bsSMDriUEgSZKtPFiLp7gZrM9N0+xidImrlT38I+DJd7lqMm5lxvOuX5ia7GnjDYIARioKOl5CfPmsYpIZPZZHPUKe4r3wQUZkv07z+1kLjqKkcGVGSKbeztSoazAWhfKiYMP5dI11qvTT0tuGmtYSmC4jvsaaH/MjEBdCt0K6StwcybBJqmsdxSPVsn1pycdA17cVycDPk9kUqSDw4GsXi01RlAT+TKZcDhWEz38+4V6ggJjqWY1iaG5uTigLzMPAOgQnyk9aEGpra1sMw3DnQG9/Drhvg45tNdIH8x/QFJpu9YtuB/InxDTgE8pKTJSXpHtG+tYo3T019QDHXWYDnGjMhtGDLYv1mIn9yubZk/oiNrjjVnvMguh3HtnYnlTJJzr60NTt3xdKxa28ZISPIZ2FVrkjZFDUlNMmkgv8UzuQ621e5EGIRCLzKBIqCPyZjEWQlz1xCCtWrBj1gE5mVGT7MxKkyHknsUZZaZ6T8zAwUZPqXpC9aCdrUnMxsD8myXBPz6c73bOlJMxJryXB0pziQHXLSEIjv/iEudN7sHzO9LQrPul8GOm8tm48wubFjcgx0muH18mHT1mTZY8o+LD4lwBfpM839aF70B9ykJEkVirpDMCD0ApHnhFdygGlvGgr8Crv1PtM+RyJRMpFQaitrZUnL39avxODQHc5CZMEg8DPBaxIwKKavNB2N/h9grveQ+k+ESYUBEnzTAWBlgMRVhJBkqVM8T/6cXp7eyM02yg8CKRaPmoYxkLXkvj7x4Dnvu662YQNRvjRY8iJpB9l3jM0oij4dTvMLBwhqAmLfwlQeWOmPh0WHo6muABYm179wEKQE0muo/CEeq71nA2LXwnw1UIAH9k9/ZRMcCfI+Im54pz8PtOS5XHJj4HVb/cspaGhofuXL19+XX29hYfg+ynxYi8uLo4TpChsivzFdjNYdWy6ZQukTxeDwqRotfE8KI8N064gyLhFQeDftCDYtJQEKVphjsQf8LvOzs5RlH90MZBmmYpDWVmZcfz48V/m5ua+xrU8WncD92923WzSBvThrymNoThDyAWILGcyKD8vpWzOoTDpgmquQH4EhqnqKqnk4kgesy6SGuk3G7N96lpnt/0cbOxCz6D30ILMIlMz0TXQi+ebvPkAJpKdkQO8uRb4/+29CZhkVZUnfiJyz6xcaqP2DYqtShSqUFSGVmnQVlpR/FuAOkqDoi0u7cz02P21M6K2jto9NH8ap1uFFrq1tS2xQUVBgSlRWlBABaqAoqg9a8usJatyqVwi3ny/G/f3PHHzRWZGxIst877vyy8j3nLffeeeuO/cc37nd1ryX2Oy2b6+vg+tWbPmThgIxCDYd5R5wZNNkR4E8iDwGPF3THu0hgHefzPPQHDcKMYIgAeBhZpskSZjAFgBhiBF1mJgqWcYCJs3b76qq6vr9nx/P+b8uNIdo25eTWmDWLmCwAYVIwtVubWL+qW1If4faEEDV+MXwYsQ1ypozcJd0ta4oiISAWMk6i7EsbU3i5zlPVVxiFJ6BkR2Fjgu1RROgDAyIdNB6TtZXJgkl2CLSG+0TWLV37548eLANRDAqBhVtEkbCDrEgPb4fpypGAQIANmNRra6zDMNBOIPOJ621LMxGKyXIYkUEhoJFteATIb83fp77hX5af7Oh7x+xKfOE5nbElQenCAZFsYXekVGxvJ6BHNyfZ3Ied79m7/gIq44OpgpkR3H1lS/V166uIRFQSbo5JN7i/NM6aZRyAvubL8VK4FAntyTklSQf4pBS6PI6fOqo2YK8BOHBoZk95H8AOj5SC+RFHn78yIdq/O5yj13MJFInAIDgWmOmjAJdMu4ABUd8d8WbTIZDKw7lLELsnnZZyoGITQQGGIgQDHKQECRJgiVbFQWpBgWa7IjBRzCzkQiUViRkX9/mcjRp4pRkMmvhbsOXPKYACsd5EFvC60VcN4ykfpqeIDJRV71Z2w+EB9t9vnLsuvFluPh46K4RV/B4onMBb8VL4FjQxmEfz4bwqJIW6wGNlW8J/uGRV4sQcEzVyZnXi9y4VfykdS4c4MgOLBo0aLVdXV1xkDACVEVHfEOY9lngBSjmBRxbaXZFCs+u5MsiSWerXVFmmWEG4SpjkhzBI+1NhQ2b95MTEIClhpSHXfs2PG1xsbGdxY00kd+K3I3sAiF+t7zuCsNhbYqWSmhoFBvHmWvT53bJ3PbaqPkcB7DUpFTi3EDux1et+yY1CW6yvocg7ZqYxw39d6DOKSYaWPn0ePSc2Jq2AO8DRZ1ZlIXK71h+kVmQjkMA/MmTops2CHStryoJz98+PB75s2b9z28QBYvXiy2HoNhVKShAC8C6zFoJkXcmFUdFf7AhBlmZIiB4QUWaWKpZ2YxQGCwrNavX5+EIDVREo4xzXHp0qXGSAC1JXAIn/vc5zquueaa/QWP9P1/JNJ9f8GX530h6ElXzDkpc1srz0YE8CLS76ZCVwoviCdQynu4c14QF/vg8tl9sqC9vLM8OB3A7VDsBq8aDAS/xSOBqVJeo/gVwp+lLCE91Sc61H9Mdh3BXFi++XDNx0ReefNUexh5XhAEw4sWLTK5nwcPHjQGgg0zmPRG0C1jo4EAkCL2oxYD33X4Xi0ZDMZuKkoiMVys6ZZtcwkaCKoOg+mnLW4B7AHcM2H/XQMhlUol9u/fv62gdMd9D4rcd0kMT1ZAE3jK+e0jsmJ25V0KKNH77CHJyUyWSKTl/GVZGSUFPLG/REsA2QzIaih2q0/2yXlLy2sg/Hp3sb3OXL9stgiyZPwWjwRg8AMbkmsD8yvSliudZIUQ1c4jh+XIwNxyOG8jxXH5kyJzzytY7kEQ7F+0aNHpCC/gHYT/8CAQg4CGmeZIumXsA1GSCqmbVEcnxbEM7uzox660gZB1f7fcM7qseRAIUKSBwCyGnTt3mnbgPQBydMGCBYnt27f/eWtr66fyHu1vLwpk8EBl5QLQJmhLkeaFH3Alt1yGQjXk3FdSLqW4N7w2yOuOYzt/WUoSyNkqwxYn/uCli6sDFFcGsZXtFr/tFgFngN4AQDxjfuUNg6HRQXmhp0WGM4y4Fd1WXCHyh3cV3IU9e/a8Yfny5Y8sWLBAYBygIeIQmpub08hgYAjBhspDoiQaCLiGTIrEH8zYEAM9GCqVwzApwlAgqtP+h/KATRHlMV0PglEslHsG/gCfYb11d3f/uK6u7qK8RnvPD0V++ua8Lin5yXXJUVnUnpBFnfmjkOPsHCYYlJbefwL8l2Ny7tL6qnBHxvmM1dBWXJkA65YGUlcmf/Fkq9SpytWHF6YqqfzOw2/3d/tEgHkyJZhbKl/XIk4a+PykMcHZCZHLHxeZWxgfzuDg4Kfa2tpuWrx4saFOjuJBQJiBmQzz58835+lqjvZ9Z7IYNECxUkZC5a02RbcMw0DjEGzaB4yFYPv27cadzWJNxB9A4Ehx1GmO8CDs379/dyKRyI+j9UevEzkQFs+ITe1iaYheBcQJWyvsVYjlgXwjkRJAuiPSHovd1i1NS12yPCEgvICwSi1287TKxUqwuq/vH94mOw6vkuFUnWRn8VVPv1/y30Re8TcF9YcZDLgYGAS7cA102WfbcEi3TJCiCjFkYRBwfqWMA9y7agwEdIaZDDrVEX0EkyIzGGgg4HwYCW6xJuz/6le/uvCyyy7bltfz9e8S2XiaSBATTWxBKjbFi+rr0jK3LSHLu6ph/KbYaX/alCRw4LjInhiYFc9Z1CfNDeXBIRSSShcljFPnZgqd+W36SCAViMBbcHQwLal0eQzWYqSXbBB5T79IMn8YWBAEJ1mkyabBhdiB1atXp/GuAgaB3bNcCORDMJ4Elnu2nnRDh1ApDoSqMRDQESeTwYQYsOlqjij9TPwB/tNAAAYBaSQYAIQZtm3b9rmWlpY/y0tPnv+qyCMfyOuSip9MrwLchtWQs1xxgUyDDsT1sj1t3h6Z07qsLBKJC1x59kKRWflPzGV5Rn+T/CSAjJaDxwODLagYxC6/Lodn/+G/i6x4a0EX7969+z+94hWv+K0FKKKNcYWatPEAoiSctGnTprAWg30fhsbBjPUg6AwGXaxJr/wBUrTFLAwGAbUYEMOhlwEhhpMnTyZtxawkUkv27t3760QisSavEX7oHSI7v5vXJROe3NKQiffhP9IYsQHMBapQVFYE38DQaHz3Q3yxsxXVFuEX8hTI8Um2vC2B3RKkScVuS7r2yeKOxcU2M6XrQa8Msq1iNxRmQoEmv9WmBEZt5VhU9Cym1ov79LOaMiWlwReDuZTQGtwDRejgoRiL0fO79uMiFxRWuG94ePirK1as+C86g4HVHEG1jEeLSnNULIrGqCAGwVMtB0HoJgfnMss903NgWaYMSBGSW7t2LeotCDIYgApFJUfsd6iWd6BQbF6/sm90iYz05XVJzpNXzhGZN2vyAA6q3qG6GnKV4zIWEpKSlsY6WdyRKcnqt9qSAGivASgrdps/65AsjHq4AAAgAElEQVSsnJPfb6DQez53KFPXo9jt5cWR1BR7e399ARLAK6+n/7gcOtER2xyGbsAYwAILwFUsfibagGfYCZK3GIxU3GfBhSKX/aIAYZg3e3cymTyTngMWa0JjIEratm1b6FFQ3gMQAho2RXjOEWZAmqPuwIwkStJZDDbOEnIgQFj0HrCao85gcEIMYRYDkKNBEIBbdOpvx6H9It+KabGFokwrZuenXFAFpBMiS+Dgifyunejs5voxmd1ab5jRbL2L+Br3LZVEAvAw/WaCvPWp3nRe2x5ZNbc8IQakZk6FWGuivmNluK4yJSSmKlJ/npIAvKG7j6bl2FByXAploYLCHLWkQ2ROW/6prphDt/WIIERX7AYcwjUjBbUSBMHxZBKObFOsKeRAgHFAz7etIaRrMYQGAhkUsVBWmQwVC9JUGuRm7q/THO2osKpjiEHYtGkT0huN9yBXLQZSLXd3d4PSberPduiXIj98dUEKMe6i9cuKYyMDIhxGAkoyx4X0rUsOy9y2JlnSmZL6pPfhxjPSpWklrpTBWjMQ4DbGb8dv1S2BsXSf7DpcL33DbbGFEWAcYhEDgOpk3oKJpBOXcY17XNUt0lrQonFo4cKF8zUPAowD0iyjaZdqOarcs30vmlTHGYtBoDHg8iAQX6ABippm2bIomjAD2rAYBEOUtGnTpnNOP/30R/P6le35kchPL8vrksiToeBAYsexwVCAywzhh7gMBUzCc1qHZOWchCQS5aMxjUMeM6UNhJ1+F0PK4PxZh2XlnJiUcRLhoxhQHCs3H2KoXi0fS43JrqMpOTpYJ4HEw8kCw2D5bMxJxS2qtNSe3p/xxha7vfV3InNeWkgrYwsXLuwiSJEhhp07d+J9ZTwBCDOsX78eNYVYzdF4EHAMJElM9Yc3YUZnMehSzzQSNmzYkBVwQrlnm+oYINVRjxgMCfIgIJMBHoTf/va3fzR37lwUy5j6tu1fRB5+z9TPz3Xm6vkZEpI4N3oU4qDgZb8ABFvQLrJoajVc4nwc39YkEoir6NHizgOypLM8RQ1e7BU5EgN3w3lLi1tBeuWKXwJ4bXUf65dD/bNi8xiYUEJnZg6Km8sLgMU4wrTAIACLkP8WLFy4sJ0gRWTXsYmdO3eaegyuBwHHkcXAzD2NQVBkSRUJM0zdDZ+/oKZ8hS7ahJe+pp3U9RgQYtCNIs0R3wFQtHTLib6+vms7Ojr+fso3x4nbvy2y6eq8Lok8GSVSYQ2XYoOhgLAD8uTj2oAOhsejKZ4FQVzdmtHtHDsp8sKh4kVQzkqbUy0INNlTrV3kScAmk1E5jw+ODsmLPUk5OdYU220BPAQhFjO7YmvYNrTrqMih4nFcwWW/GEssuLCgifHTn/70/Ntuu20AKfegWkZ4gR4Esiiityz3bLP0sgwEYhFmtAfBDmmIQ0AWA/VFF2xCeIH7AVSEewbpjti3bds2eA7McQzIc88995H29vYv5KV3u38g8sBb8rok8mRkDaB+Qik3pMHtOx4P2x76WZ8ck1VzE9LV4rEJpRy3qbaN1Q9WQcVuaxf2SWtjeYiSkOKIVMdit1J44Irt00y9/sjAqOw40mBSs+PYkKYIr0Gp01ij6k4U0v8rNot05Zcpz9s88sgjZ23YsGGPreRoSj3DQGBFRzfNESB80i2TKMnEFuA6//0rMaaByE8YFfcguFwIMBJ0uWd4EGBhrV+/nniDsM+WbhkkScaLAANh69atH25ra/tiXmLo+bXID16R1yU5Tz5/WVoSKC5e4g1pZbuPicBgKHaDmw+Tsy/dXKwki79+B9K1YiibfN7SQOrj9t/meLzhMZGnYkjNxAtkcXlsmuIHahq3cHhwWLb3YsFQ0Ao6SzKdLZmsrnJ4KeMC+OIB3nlApHlBQYN83333rXrjG994iOWe0YgGKgKDwGqOoFomSRLrMBCDwFTHSqU4GgOlIAnEd1GC2AM0SaplCAhGgk51hIFg62eP40JA0Sx26ejRo1d3dXXdnlcXwX8AHoQ4tiWdgSzuLJ9cwdsPt5pbrS3fZ2lIjslLFtcXhSLO957+/PESiAtkVc5iTXGhxzuaM6WH/VY5CZwcG5LN+1uK9hyAv2B5l0h7GbHQcWFhGjpE/nPhnDiJRMLwhQOgiP+sxcBMBheD4BZrIgZBF2tSjIxl1Y3yvciiHyu8vwYp2jxRc4wYBGYxoEymLtiEcywGwXAhPP7445cuWLDgnryl+O0lIoMxrIJw45csyjAolnMDPmF/X4apsdBtSeeYLK5w1chC+z4drhtOiTwVQwYDZFEuTxbuFVe5Zzg8AFQsk+NjOqhM7M/wYu+oHBksfPKCpwBeoHllrqkRF0U5BLrgIpHLHi5UtOklS5a082JiEPBdGwjAH4AZGB4EHCNIkeWgdQbDjE1z1OEFCEnXY2DZZ3o5GGJQZEk6gwFxHgFQ8cEHHzzl4osvNgGfvLafvUvkxX/N65KcJwOAA8BVUwXC+nv7RHpOFGYo+BVcPONfaCsgygIjXLFbMjks65eiqEF5FgCY4h7fXWyvM9efPt/XFYlHkoW18tS+kzI8lv+yv74ukxW1MHw3Fnb/Qq4aGg3kmf3x6fq5nxRZ99lCeoJrRpYsWWKY8mAcsBELVDRZDGRTtKmOwUQYBFw/Y4s12ewFQxgFQSDEYA0DIDzDAYcXgUBFG7NhSMGkQNI4UMyM8A/lFz974Q6Rn/9JoUox/rpKGgnwInQfy6Se5eNR8AZCfONfSEtbe0T6YmCCW9DeJ8tnlzeYv/WQSF8MdMsAs4Gq3G+VkcAz+/Ojfa90yvTQ2Khs2R8fmBJS/6Ofiiy+pCD5B0EwuGjRolMaGhrSzGJAiAHVHNEgygPASwBPOL7rcs/MXMB+70H4vfgNDgFWEjwINBDoTQDdMk4lUBE4BBZtwn5d7hnf9+7dC7DivkQikd8EObBH5DunigRjBSlG5EUwEs46JcMnXokNxgGqqiHtZyoYhSVdYmo4+K38EoiLIAk9f8miQWlpKFG+bQ7RHB3KUN0Wu4FJ76VLROriWxAW26UZdT3IkA6dmNz12dyQ4TFAymKlNhjTW3tglebv8cjVZ+APAFCsK4zPJgiCo0tByCMioP0HdgBfGV5gPQZ4D7SBgM8ML7Bruh5DpYCKFf0V0nMAgdBAoHAsktOUfdaZDMQfkCSJBZsQXgCTojUStiUSiUV56+1P/1hkz715XzbpBeAaAL94JaUNbwKMBRSHikpdghFz9gIf/510MEt0Qlwlk9G985eFReRL1NvxzcaFQ0DLq+aWP4ZdNkFV+Y1QkXHz/ugFBbAh8DLCMMD/Sm3IADxwIiV7j01uyOTbx7UfE7ng5nyvCs9Pp9NPLlu27CLsyIU/wDFgEOxFYYhBsyg6xoExNAruVBEXVvKVBY5pc3/FN208CFaAIUgR3gPEaZQXAfiDsO/wItCTALfO7t27f1xXV/cHecul+6ci978+78umdAGqO67oSkNrpnR+qU5CKhCMhRPDv58EQJgEz4Ev6FQqqU/cLia8p/aLoJJjsVsyMSrrlyG8Vt7fdpw4BBira8tDAlmsuKfl9TD29vWJoGwztKixPoMLgVFQaQApPG07Dqfk+Mn4jQMM5uVPisw9r+BhPXHixCc6OjpuVdUcpbm5meEF/EoMOJGecIYYcEPtQWCxJvt+rIhxYO5dsCRiuFB7EGgoMLQQxajo1mOwJZ8NDsF6dUyI4ciRI2+dPXv2N/PuYnpU5LurRfpjAly5HUDI4fR5Y9LeDCOhsoZC3sLxF5RMAvDs7IoBnIgOLuo8Jks7Y8rZzfOJ40ozw23PXigyq0KhuTwf259eBgngFXlkIAPijYu8ye32yitELr6rmIdJ/+AHP1j1lre8pRcpjnv37g0sPk7XYYCxwEqO5l4qzdHsd2sxVNJIqKiBYEci7AMxCNiveRAgQJ3uiOMINViiJG3ohGGG7m6g9CT/dJ0dG0X+74ZilGTya8G4uHJ2WupLxTc6eRf8GVUiAUwJcOkOxVBgBo90/rLKeYLiJKrxgNkqUdAq6MZwalR29DYYr2cptyK9B0EQnFi6dKlxfTGDgTTLa9euNV4EHVpggSY+EkMMCodHQkV42SviRai0gZBFlARBIZPBeg/ATR32D0WbEGZwvAjmuE0dCSmXsW/37t1bE4lEYQXm771I5OAvSqmKmbaXdo3KgvaGirvtSv+k/g65JICKnTtioCnOLDPG5HwTXqjc9usYvW/ei1C5cayGO6fSaenuG5WDJ+KrBZHruU57p8hr8nc66+aCIHg6mUy+EgyK2Pbt2wcPQljqWVMs2zCDCTmwSBOugZGA/ya1r8Klns2UUmE9iDQQ6GJB/yg8DVRE/AaFm+BBgNBJuQyiJKSUINywbdu2v2lqarqhoOc7tkXk7peJpGOICU/WATgRkNY1u6U8FM2T9ccfL58EMBWAojgO7AF6vahjWJZ2lX4ynUhC23rjqxPS1iiyxmMRyqeQVXKnVDolvYN1svdo6cIJ+lEb2kWu2CLSVth6kk3t27fv8iVLljwAAwHGAbMXUMXRnmMMAnx+7WtfC4rlsMyzxh+4AMUZS5QEAwAPD6+B4p0OCZMgSGIRkO5I7wFZqEiaRAOBBg+yGT71qU+1Xn/99QcLjvVvvlnksY+X7xeDfGJkO7Q3Vc5FXL6n9XcyS4w+EVRCjGNLSCDnL6+0wY+KaSJP7I3jiTJt+IyG+GRZ7S2lg0CODo3IzsMJSQflA6AAdwD8QRFbEAR9yWRyyYIFC+TgwYMwDowhwBCDNQxCkCJrMGABnAuciOtnfLEmGgnu2JA0iWEGhhh6enqSMBB06efNmzeHxEmw2gBUxADt2rXriWQyeXbB4/6j14gcKJhys7DbwlBYOeeodDTP9qGHwkRYE1cBaPWbvfGtkBrquuXcJUuq4tmf3CsCPEIcG34PL1vsjeY4ZFmtbaQCeJ0Oya4jXWU1DCCPs/9U5FX/p2jJjIyM3Ld06dJ3AHtQV1cXOBgEYxiwQBM84PAg4KbA16HmEI5rcKLZkSnoWFEjoaIrjomyGOBRIB4BQqKBgM9kVQRQcfPmzUaGK1euTNiSmiarYcGCBYktW7ZcOWfOnPwKN2lVGT0h8t0zRIYOFK1AeTeAdCKsnrpaAkn6/MO85VftF8TFmsjnfNni49JYXw0sV2npHxZ59mB8WTpIEV7l2RWrXaXz7h8wBr0DSdlzDG/DvC8v+oLOs0Xe9pRIsmjYTvree+89/frrrzcvChoHCHfjPY9MBngSNAaBIQbg6l772tdmWdPam05DYUaCFDXVsgJkmBe+8hxAgCGbIgSKbdOmTUlYZAgvkAMBZElWacx/GAn79+9/rmCwIhoZ2Cvy3dNFUjHQyBaq0Qs7wFMQSF2lk5ALfQB/XZYEUIETsfr4tkBaGhPSVN8nrQ0ibY0d0lR/XBqSHVncFviRIRSRiYPyBZ4SSWTnlCeCtAQGn4S/wH4OzGVhFDUQGU4FMjw2ICdH22VwNJM3HxeewpVNJQqgxTc+viUtgVQ6kJ1HEyZtsVJbyyKRDdtF6oonfEqn088sXrz4lXgUeA+AP+BjEaSoSzzbhS2NAngOQu8BMQq6yrF5Ic7QLAatHiHlMnEJOAgMAlMceTIJk6ygw6JNOA4jAWEGECalUqnE9u3bP9ba2vq5ovQQNMwbV4ukR4pqpuiLAdo6bf4JaaqrQEWUonvvG4AE4iRFmkkSba4XOSeDDvdbDUoAr8zR1Al5/mC7nCwD+HsiEdU1iVy5W6Q5ltLiwY9//OPT3/SmN8F7EJrPfNGvXr06YP0FYufQNVZx1BwINr2RWQzmCSpZqMncvxpUTRdrgnslYaWiKjqGXgT0V4cY2H8NVLQ4BAFYcd++fajNgJTH4mYXlIL+t2UiQUyx1WIED0fCStA3t1bJCBbzMDPs2hd6RFCa1m/5S2BuWwbI67dakkAg+48nZO8xWAVF+/KLfvDG2SJX7hJB5kIMWzqdfqquru7VACfCe4AmoyiW4UGw1RtxSlYFR+wAUJFhdfsONL2rZAZD1RkItJi0BwFGggYqsuyzqskA4YahBlsMI0kvAgyEw4cPv3POnDlfLVofho+IfLPKJqiOFpEz5xf9aL6BMkgARbN2HS3DjabxLc44RaSzeLfwNJZQdTzaWCCyed8uGUmtqI4OiUjrkkxYIRlfgsQPf/jDM973vvft08YBnpcsim1tbWmLkzPAelZxfOKJJ9LIYABAkSEGghRpICiQYgUAGplRqxoPgi7WREuKisVUR3xXeIQEBA7h00DA8W3btoWESchmwD5gEfbt2/fzZDJZOMk2O5MaFtl4mshgd9XovekIvAor5ohglVUVo1pd4ql4b4bHMpwHfitOAtBzVHtsiA8DWVyH/NWhBPBG23c8IQeOZ5a+GRxLdWwr3ibyuu/EAUgMn2dkZOSe5cuXvws7dGojjQPsBweCJfIzL3nrRQA5UvjSn6RIEy6b2QaCTnUkWBEZDFqzAEp0KZe1F0HVZTCXWdIkUC+b7/fcc8+y888//+mC6JddFUeY4bGPiWxBTY4q25DwgHjtstl+pVUtQ4MKeU93iyCdy2/FSwDkYuuW9otIBWsNF/8Y06SFlBwbqpPth09IOmivSDbCZIJ8zTdEwJQYo70SBMHBd7/73Wc/+OCDBphGA4GZC9hn6zAQl2CKNLnYA5yH8AK9B+RW5nsQxysFUDT3nky25TyuqzuibyovNAwzkFERx22qSJjNAO8B+4vBGRkZSSIeBMAiQg2Dg4OfaWlp+S+xPdOh/xD54YWxNRd7Q8lEILOaE7J8tkhL5cN/sT9fLTRojIN98fEC1MIzl6OPqDAIfgS/VUYCx4cHZOdhAA/bSlY8KY4nu2pvJrQQ83bw4MGrzznnnB82NDSkAYbPRY6Elz/BiZYciZWJWZgp/K95D4g9YKZfzN2fcnNVayBYARGkEaY9MqNh06ZNCVhk2MCoyPLPSHm0fAjGi4DjNBAuuOCCukceeeSndXV1r5iyhCY7caRP5N/PEUGmQzVv9UmR9uZAlnYljIfBb6WXANDaWw5446BUkoYnAZkNPtxQKglntzs4clz29rUbnotUuqreHeMEcMa1Iq+6VaSuJXbZjIyMfG/58uXvQcM2rRGA+LD2At4/yF7AcXAf4D+wB/QeIAvPbmGKIxbDDkixKtyN1TbIWbUZiEsABkGPsvYiaBwCzkO8xxoJYWVHXgtL7zOf+UzH+9///mcTiURnrJqz/yGR+14vEqRibbYkjdXXicxqQrEo71koiYDhczwhFSOAKdUzVWO7wCScNq9fulp8uKEU4zMwckK6+2ZJ/3AgqXT1Az+QwvjmR0XmnFsKaWCx+fwb3vCGCx544IGxxYsXB3inwIuAmxF7YIHyLCJoQgyaOZEdI8Uy3ls2zFDx6o2u0KrNQACiM6mLVaDDusKjDS2ExEnMaoAXAQAQ4BIGBgaMImtOhH37DEAMDIvy8MMPrzvjjDMejAWPoCU6fFTklzeIbP9WSZSzJI2Cyra1UWRJJwh2SnKLGdfo84dEjleQWGvGCVwyKb+nzZuJTx7/Mx89OSwH+1IyNNoqY1WQ1j2VJ0wkRdZ8TGT9Z0Xq26ZyRd7nBEFw5Pbbb3/ZJz/5SZOKpHEHyJqznoI0eQ/wHSB6nd4IcCIyF9wMBlvAMatPlcQesCNVZSBo6mUWcHLBiug4AIv2v3np61ADMxqYzWBBI+Z5wYsAiw+ft27d+t6Ojo4v560lU7ng6NMiD10p0vfsVM6unnMQhmhpEAG17bzS/Miq52FL0BOwCb5wSGSkBrxIJXj8ijcJXAKqP/qQQ35DARug50SvHB6YIyfHkrHV0civF4WfPf8CkT/4Z5HOMwpvY5IrgyAY2rp166UXXXTR73BqT09PAA8CFp6o+0PvgQ1vh7UX5s+fn7b1g9JkAbb1F7JqL+iQunmpZdj1Kx5mqDoDgdWrXIHRUCCz4qZNm+C2oSfBGAlOdUcjZ4AVScUMLAJ20kh48cUXP9rW1vb5kmgV0iG77xN5+BqRkWMluUVJG4XrtqlepKM5YzCAwtdv0RJAzveLPd5rUC36Mdt6E6pqdqsW4dh+nBgekt7+FukfHpPhVH1VZh9MJrJZy0UuulNkUYZ+v5Tbzp07/+gVr3jFIzAMbMVGLDjDoky4N4wEvNQR5gb2gN4DHNPVG8l9gP2WDNDgD3TmgjUSvIEQMaghDgEuFoYcNLsirtEUzGRWRJUsm5lhpgYUcGL7NBJGR0eTAJbASIDBsHPnzj9rbW39bMmUC4bCtjtFfvlRkfRwyW5T8obhXYDBgHLUc9p8OAICR4YCkNx9JytTbKbkg17DN4CBC0Nh5ZwMR8hM36CjhwfSMjSSlpNjKKecXX+jluTT2CXyn24TWXG5SKL0gOve3t7r58+f/6358+eHhZggLhViMAWZ4D3Af5AjAZSIcLdLjITrWL0RnwE64OK3mgiSqA7V+svJ+FeCwLhayKyoCZRuvPFGpDmG/UdWA0tAg3YZ1zOjwQ4ezzXcCPQi4Lxt27Z9fNasWaUzEnCTk4dEnr9N5LefrWzhp7gmgjp4GBoynoX25sxkjH0zYQOKu/u4yAlvGFT9cMM4gBds2ewhaa6PH9JejQIYTWWMVhQFGx4bleGxekkHtf/jbOwUOf8LGU6DhvIULu3t7f3AmjVr/hXp8gcPHgTpnhlxGAdRmQu6KJNdsJpXGYmRALBHiOE73/lOGoteZi+EL+QqCS1UtYHg8CGEBgI6rRCfRuEt2APGgqnRgEFhuIHkSTrMgGuY9ojBxmcM/nPPPXdtV1fXLSX/vcNQAIjxyU+LjEwz2l0AHoFhAOgRnoZZzSL1tT8vGZ0AE+Khfk66JVcTf4MSSAB62dV8Uua1N0tT7S6gsyQDvAvCBSeGAhkaa5WTY6Mylppe8cDWRSIv+6TI6neJNMSbfDaBlo3u2bPnHevWrXuot7cXYQXj7ielMj43Njam3ZRGS6ts2H03b96chTug98C+sxg+MJkLTjXjiocWasJAcAePYQZrGCTgqoEXAXmlMBDIjWCrPOI0k/aIjSEG/gcNMyiYaRXCUHjuuefeMWfOnH/E2JdgespucvS4yO4fiDz+F5mS0tN1a6zLhCYa64eltbFJOppEmhuq3+2bDjKrsGODIv0jIidHp+sIzczngrGAVN/ZLTBmxyRRBl91MZIOZFBOnGySwZExGRhpMkBY8GyMTWNAbNdakfP/l8iS14sgfbFMWxAEfVu3br3ioosu+hVviUUkPsNzgP8WmIiQQoC0RvId4FguYiQYBmRNVCSACKPDkxBWcayG7IWqNxBcwAY67GY0QLAQOnkRYCRYxKix4Lgh5KAIlMJy0DwOlsX58+cbT8LDDz983umnn/79RCIxuyz6CIzCvgdEnvpfIgcfKcstq+ImxnBoEDFeh3oYEaPS3NBgjAngHcq5wRgYHMkYAgPWGBgaqTyGuGVhpnoovE7Taes8U2TOy0Tmnify7JcrbyAjDNHSMCYtDfUyq2lUWhsbjBes3M6v0dSYeekjJDA0AvBgQkbGAhlJ1QvCBjNlW/4WkTUfEVn0OpFEeT096XR6yxNPPLHhsssu29XT0yMad6ALMqnsOIASQ1IkYg7Imogh03UXyH3AoYRhQAZF7KuW7IVqNhAMSFFnM4SdtTEbIj91ESecs379+iQGRpeD1uRJ+vcFgwFeBI1HgDcBY3T//ffPv/jiizfW19dnqBrLtR3+jciWW0R2bBQZGyjXXavvPmDIg5FQX5eWhmRSQOyE7zAm8B/HMambc5QxUZdEHeUWSeGNb6d35HGn0mLyuc1fKiUjqTrBZDyarpeRMdDFVp8M2ldlCF9Qsx7epr7nRQa6My9TpM/i//HtIoN7qy9LpmmOSPtpIh32b9ZKkdZlIh2rRNpPzQaWnXhR5N4/EEE59WraYBw01I1JY31CGuvqpL4uZf5D92DcJpPDUp9okLpkRgHrkkckIS0ylv49zgFqiL+xdCBjaYCpMrqW0cO0jKaT9nNmv1HbGbqhwuLZN4iceZ0IPAcV2EZGRu763ve+9/Grr776KAwDbj09PUgExbsiK2sBngP84TybtZBVbwH7mW0H3IE2DvAOi6q7YI2EqlGEctvIUx52jUOghaXRntqb4AIWHQMBjFYhaBEDSqZFloQGYJGZDeggwg2XXnppw2233fbplpaWj0y503GdSEDj1n8SwQTqt5klgbblIm98UKQjEx6bdEMa7WifSP8ekZHjGYMBhgOIu/A5BbDaMZGxQRFQg8MrAaNjMtbP+lkiSYSDGkUa20UaOzIkNC0LROpaRVpOEWmcnYkLz1oqAhAZDJq6PMsxgzfkx5dMP0/JpAPnTzBepDM/ILL63SUjOJpMykEQjPb39/+PK6644h8feOCBlDYO4FXWuAN8p1FAxkS8+HXWgq65YDkPDFZOhxdcMkCFQaga48AYK5MJr9LHXcAi+gODgP1yaZg3btyIYyF5Es4DPwLxCCBQYlYDDQScA8ILi0o1bIswEuBiOnTo0BvnzZv39UQiUX7moPSoyMGfizz7f0R23lXpofD3L4cE8jUOytGnctzDGwnlkHJ13AMG56lXipz9IZF5Ly97GEELIZ1Ov7Bly5ZrzjnnnKdgGOiwglNnweAOcC34DhhW0FkLbNflPHBAicZz4PL92GuryjioBQMhDDfoSlc0EOCmecc73hEaCwQt4sGY0aBrNQCLwIqPMBKwgY4ZDIs0EvAf4EX8Z8jhzjvv7LzqqqtuaWxsvKJiv7Ch/SLPfS2TAdH3XMW64W9cQglgNXXpD0pSfa6EvY6v6ePbRH78hyIDu+Nr07dUPRKYt15k9XtFTn9v2dIUJ3r4kydPfuWLX/zi/7z11luHkKmAc4k5wNyPkIJ6LwRYUMJrsHPnTrOfhEjEHWAfjAN4DfDZ8h3gI5nrGn8AACAASURBVNIcTb0FfKH3IIoUsJoAijVhIOgBjiiHqUtCZ6U92utCTwIyG7BPcyQg1GAHXBsJxoPAjUYCFGfz5s1vnzdv3pcr4k3Qgjjwc5EXbhfZ+T2R0RPVMwH4nhQugSVvELn4O1UxcRb+EDFc2b9T5P9eJdLzWAyN+SYqLoHWxSIrrxA5609FutZUvDvoALwGL7744g0XXnjhL3WHmKmAfdp7gP26EBOOo94CXvwAw7vARIDl3dACTtasieblazl+qs0o0DKpiRCDzhHVAEabHkLBm4yGiVIf8eAMSZBlkWmPVnGy5IHsBuy31Jrm8+c///mWj3/8419qbm6+puLajljytn8W2fU9ke6fiCAjwm+1J4Fz/qvI+i+IJEvPClcTwkkNifzs3RkD2G+1JwGkJCI18Yz3iSx/c9VEsi3W4H9fd911f7Nx48ZRrvQhYIQW8MLHXO9iDnBAAxKtcQBQfJpkSKjWiPaQUYfzAU50cQc2tTGL94CDW61GQtUbCBQgwjYAJiItJAqDsHHjRoNcd9Mecb0LWrRtAouQRcXMWg3AI1iOBCiM4UpAGiTjU7j+0UcfvWD58uV/U19ff15V/IIBQHvhDpEd/5ZJl5wMgFYVnZ7hnQCo76J/EllRuchVVY/A038r8uT/mB7Mo1Ut6Bg6V9+aSUtc/R6RVRtiaDDeJkZHR3929913/8mGDRt6tWGAu5Al0d4RoYQsLABBiQgtIKzAao3kO3jiiSdQF8hcTsMAnwlKNJaHxR3w3eWEGaoOexAaLvEOQ+lay8g3257RHgSmPII4ie4dWxo6NBDQOxZ0wmcdbsB3m/qIjyb9kZumZaYRgWNz5sxJ/OpXv7quvb39Y4lEIgNqqIZt+IgIMiB23y3S8ysRgB39Vl0SwGT6B/8i0rakuvpVbb05tkXkwbd73E21jQv6U9ciMv/lIsveLLLmhsz3KtvS6fRz3d3df7lu3boHsUq3ngKDNcCmCZA45zNTgSFonEfcAXEEOqzAR6bhEcF1QC93SIZkXjJVRqscNXQ14UHQZaApWDf1EftpJMCLgA3uHngPNDcChUC2RUvHHBZ2igo50ECgJ4Ft0KOA/0NDQzc1NTVdnUgkZlXVbwSpbjAWdn5X5PCTIumRqurejOsMOOTP/3wm59tvU5NA6qTIb24U2XyzD6NNTWKlO6uhPUNyteKtmSyEKjQK8PDpdHrP4cOHbzzrrLO+ixc+QIjz5s3DIjNcrbuYA34HCRIAiS7uAFwHbhEmN6UR94Y3m3gD1lpwF7c4z4bLq9Z7YN61pdOk0rQcZSzokAPuSoZFO1ghHfP69evD59WeBItLMMdYlWvp0qXhuW6ZaNIzHzx4EN6KMDUG1+/evfvvmpqarkwkEu2lkUARrSIn/sV/FXnxGyLHnq0+gp0iHq3qLwWT77I3irzmmyKYZP2WvwRAprTpnSIHfpb/tf6KwiUA4isYBTBql12WP89F4XfO+8ogCHr7+/vv7Ojo+PS8efOwSrfe/Yz3wM1SYHq7axzobAV0Al4BXb6ZHXOzFmwIPAQkZtEk1ggwUQu9pgwEHWbQ9JTG0lGaAKuNRZ02bdqUtCGHcQWdmNmA6wcGBpIkvgA2AUU4YCQoa3JcFUhrqRqKZh16QD/37Nnzd83NzXBllKfsWN4/JcmAG5/7qghy0KuNya6Q56nWa5C+ePFdImBH9FvxEoAnDCBGGLl+i18CiaQI+DjmnZ/xEiAcVuVbEASH+/v77zj11FM/za4ypIBCS1zMkfiI5HgwEDS/AdPfiTtAW5YlEaDEQBUDxMIz0JgDGhL4j/cPKjZOJLZqBSbWrIFgO26Mmgj+auM5IDeCBi3ifKJL8ZmgRS0IeBQYbgAQxS3uhHNJzYzPUDBd6CmXIuzevfv/b25u/v+q2lBA54+/ILLl70X2PZih8QXTnt8KlwA45GevFbng70QWXVx4O/7K3BKAN+y3n8nQUPutOAnAS9C2VGTpZSJrPyqCOiA1sKXT6f1DQ0PfXLly5Wd6e3sFXgNsLt6gp6cHWQYAmsOlb0o1Y6PnQBsEuvgSvAa2MiOAiIbGH14DXKv5DpixgP0ML+BzBGOi8Wiwj9Uu4pryIFCYOsyAzAYMAjMcoBuqUpYhUkLqI8tCOwNieBLoSYAywEiwFqNhX6QXAVW7RkZGksxwsHmyofyYCqlDDhYQY87p6+v7RHt7+7WJRGJRtSuF6V/vrzPETAc2iZzs8eGIqQ4a6InnvETkknsytMN+K70EQLD0wOUi+O8xNlOTNwwCGAHL/ljkzPdPndZ7aq2X+ix4bHf39vZ+cu3atfe4N+PKnJ5daxRo4iNDegTvMOZ1eIvVZgwIXezPrc6Ic231YJPKiA0LUpIhsTKjbdNk1zklnasad6CFUZMGgmsouIWd8J24BAtcNIMHGmY7sGaA6Umg20gZCqFcGG7APeF+gmcB4QSXmtkSKpl0SJs2A8KlrNADvBhHjhx5V2dn58eTySSI9stctrCI3y0m323fENnxbRFkSQDP4LMjrEATIqhZv+bDIud8QgQu2hJvcKminFAikUAd3PLVws3vudJBEICcYxD/0ddEIjE3vybyOBupvY9+TGTXv/uQmRYb6mk0zc1kzKzckGEyRD2NGtuCIEilUqmnd+/e/d9e+cpXPsaFomVBNNlrOhWdhgG5DSLwBjAUEEYOiD0DhTJLN7uYA6QzUmSo0EimRG0QsDqj5u7BNda7bYo+wQCpFdFPCwMhl7CBSyAegRaetfaMocCNtMz0JiD9EUripkHifIYeYH2CotmGGgxfAo7TUCAbowtkZJrNY489dta6dev+ob6+/iUikmd1mypQL0zG3feLvHBnhndhrD/D6gjyppmwIYTQNDvjkn3V35cVeDg6OvpgY2PjW5mq9ZnPfKbzda973ZkLFy48o76+/qz6+voljY2N60SkERwv6i+ZSBjrBfugr6yli32uVYOBNINpUV4oeTlmQ3tjiURiLJ1Om30iMppOp7vHxsaeHx0dfX5oaGjf008//eQNN9yw5/nnn8+aDNPp9OOJROLMkqsIMDW//IjIwYdFTsKWqpk5uTjRgGwLmTIAwi6+VOSMa0Tmv6osRmtxHZ/w6v6RkZGH/uqv/ur9f/u3f4uKrSaUAMPAqbo4Ln0xivSIuDK0s3fv3jRCytjIb6CpkzXHAc7RHApuOqM1BAwuUXP2wMNdCymNUSNQywYC3TY6pmOe0a3bEFGzwVhxDDsokgsjDyfsAGyCMQxYCZKC1HUcLB0nJlnORCELI85n8Ser3Amt3Dt37vxiS0vLuxOJRPUCGqf669/3E5Edd4l035epHIgUtWnB8Ijy0q0icM2u+ajIWR8UaSh7RivCXBubmpreBz1zM2j0ENGLZSc1MsWZUzipavY4XktcjTZ2SRLGc/SkbIHD5jfIVDLNa6/7ROM4lUr9IplMvmyqKlX0eahjsuXWDOsovF8gFav5LZHJJqjHX5vIqqtETn2HyLxX1PyT2QeATh08fvz4LatXr75V4wtwXGMM6Kl1QwkUxL59+8ycjLCCNQroMTDER9xQeAm/K8z/9CozjRHnwGvAc+E9gLcgCoxI7wH7WWteA61AtWwgmOdwMxvccIMdpJy4BDXgwCMYeVj6TBTXMIeJTcBnFnuCK+rkyZNm1eVmOmAfaZrx2antYFIjVXxMK+jLV61a9U+JRGJpIoG8uGmywbsAt++e+0QO/YfI8OFMeAJ/1cr4iIpzdY0i7aszlefOuLbSmIL0wMDALStXrvyf1AoXBa1IX4weu9XprJFq6GS1p8v1erlap/k/+JK3yHDz8+L52vDAZxoN7Av+8/rR0dG76uvrL61IqnX/DpGtXxfZ9i8ZfA1wC9UaLsM0YEpuW8/A0jeJrPjjDPAVeJdptgVBMJJKpZ7btGnTVZdeeulePJ71FpjVuwWbZ3kOrF6ZlzcLLNk52LwiiDfAZ52lAI8BCy4xnKANA1yMLAWHfC+ydLPiOchasNYC18FEKlTzBoLzcGGGA3EIjAlt2LAhaXNZQ9Aiv6MNG08y11ucAmWjZWQ+6ywHpkNaQwGgxhB3QEAj++hM0OM4FDh5XnfddY0333zzn82aNeu/WzfxdBun3w8bXMGHHxc58EiG9bH3V5kwhQlV2P+BMezjnQqNpz2Zcb3iD54BALYWXJj5j+/Vs6W6u7vfuXTp0h+5ZC+6i4y/clWviWC07uEaNwMHqy9tOHCyRQiNKbw8B98bGhrS+/btMx4zeBgmExWNBW1EDA0N3dzc3PwnVYHFGezOZPDsvldk/wMZL4PRQ0RRghKEzhK/1z3YWNBBeKjAN4ASyEsuzngDGmdPJtrpcBxYlb7Dhw9/4uyzz/42HwheA+UpMxgD92EnKbCUBULEog5GgcWVAYhowsgKc2C8B8xSoIHAe7plm+3+sE9uZp32ZMc/gZVn2Cf9YZenG0XfZVzqI1pUmQ1hCqTOcGDtBlWWE+GFJONOPT09ScW3nWUw6DoOuJdrKPCJkE6jUyL15MxKkcpFxlVfgjG2u+6665S3vOUt/1hfX39JRVZbRQ9NTA0gVHFsc8b7gDTM/r0iI0dFhvsyv72BXdk3al2WqTPf2J4BaM1akimj3H6ayKyVmVVZDWxBEBz97ne/ux4c8pws3W7DMNC53jjOiRMxWE0VTv1T+hnA20UvF2O23BflXdBhCBoPLhcIQxz0lqVSKeAfsqhu0e/u7u6LFy9efHfV6zY8DCe2ifTvEoEx0d+d0cWRExk9HIUeqq3NMq/PsnrYviIDZIX+QQ8RHvAbQmbfvu222z7xqU996hgMAu0lcI1hTZNMY9Xqc5i2SJE2NjamSZ2PTAXs16mMNpzAFEbDcYBzCEQkmJ0vdhYCZFgBmDbWV9DDCDCiqrMQ86qm/AozXQwEIzmunJhWQgNBgUZMjio2TYWJDAfsoxcBoQarKGG5aKs8+GfOtbmxIT6BQ2dTZkK5aiAjjAVdIZLX0FDA9yjQDZ7rJS95Sd3tt99+/qpVq/65ZlIly6/P0+qOIyMjP3n1q1+94Yknnki7qydMlphAGe/Hgyu3v5EDM2q0UBQLaLgbblkivLlTZ+nYSVKHEkymjp2cs0Jo7gAApMt+8r/WcZx/++23z7/ssst+nEwmSw9enFYaUpsPMzY29tSWLVuuv/baa5/btWtXFqqZYTOl3wb5T0NTPzGNWRqnwBq4OAM1L4fpi/AawEBQRoEhPcK5mzZtikxhxDGbCWfOI4WyeSFk1wgyaY216jFwNWraGQh8QPIjcPC0ZWcNh9BQ4DVgXdQKwmJPPK4Jlvr6+pI604HnEKOA71F0zdjPzAe0r9y6Rqm0u5YWM67B5Ir/c+fOlde//vXNn/3sZ6/t7Oz8Qm1OEb7XE0kAcdh9+/a967Wvfe1P+vr60oy7Ug/UJBqGBTTOhW0fPHiQcdnwdvRm6VitBdga/VIeL7Mqcw0HzUDHiqfqWYh9yDIgqNOcyLV3gTp+ySWX1N1zzz2fbW1t/YjXjukngSAI+nt6ev70r//6r+//1re+ddK+WMO0RHLGwBDWITJ4qFhtkTqrdZAYA7THdEXrOQAA0eg/52mGEpClwDLNuUIK5DdQYemwvgLatJ0M8QZ6xGqBIXGqGjatDISIhzbPp0tsao4E93xbk4G826FsVI1v41GAcq1duzY8TrYtnRZJ8g2bX5vlUYiadNEXWMSjo6NJonFpOTu5vWG3169fX3f99dd3XnnllVd2dnZ+serdtFPVyhl83tjY2EOf+9znrr711luHtHfAzVhQOjJOWtbozDIOFNd8SBkOHIEqcQ6DIGs+IA2tLoNOo0FjbZTRa/qiwxXEMPD+mpI8api///3vL7vgggvuSyQSy2ewGkyLRw+C4ERvb+9HvvnNb/7ky1/+8sCxY8eyXO5u4SStG5rDQIe0VAjMvKfhMdChA+y0c+84jAHTF7VxgPNtpkJIeqSFr1MZSchn0xajwIg1UYApH+WalgaCZlrUhBVRtbh1yWj72ViKZMWyREthHQerTFmhB1aGhODBxMgBgCULZSVylmmRdsVmjGiu2vBfx33dFaFb60HHc3HtW9/61vr3vve9cy+55JL3zJo16y9BopOPIvhzKyuBIAiOP//885dfc801Tz722GMIKYRFwPTKmysq9FavrujSJIUsXu56dYUv5O6wuhamfjELhwRg5KanRPQ99X15nO1qHIK9vzmFXgm3z2QfZTsMPVx66aUN//AP//Dejo6Ov6vsqPi75yuBIAiO9fT0fPSBBx54+KabbjqG8JgaXw3oM+VzFH6G86HximGDB8zVZ9d9TyZEuxCLSls0bTGcoAwChhLMf2zwXsAg0O8BHYpWJEj0chiDwHqkpyUBzLQ0EKxCGp4EbjrkoNGlbtloMi/iOoVNYEwpzHKw5Eom3uTyJuBaImTxWZeQhpEApXbLSnNChduWNM5wqWmAIwFj9CzoH6+OSV922WUNH/zgB+ddeOGFb509e/anRKQt3x+6P798Ejh69Ognbrnllju010BVnQsZOVWmQci1Qber6yFQGILwR8AStgh96VUXdBJPy9UYwV3YxwmYlOM8TxsHjPtaAyNMK6NHAoYvdVlLlemT2kPG49h35513dm7YsOFLzc3N7yzfaPg75SuBdDp96PDhw//95z//+c8///nPHwaugDwvnJdoDLj4E4YPGGqNAMsazxbwBZw3baVF002bmQAsmGFAhDcX86MNDeCFnwDQ3BZWMsfwmZgeeIdtMT+zMOT8T4wB3huUBxkTGa5W5EfTBnPgjv10NhDCZ6VHgUaC0ZJEgu6gkFjJxSbQemToAdeBrhn/NVUzb6SrQ2IfQw48TnwCsQma0UtNuMYFjM0Bio0Dg9GroFPIHKSv8SzccMMNi9avX/+azs7Ov0gmkyvynQD8+aWRwMDAwM3333//zW9/+9sP64lTU3Xjzg6wcBxiW7vvCdSCbqkXvDFK8V17tPR3JyQWer2inpxtWMPC0NW6BoPWbTdEQd0m+6h+RvvZgNK43XvvvavPO++8L1nehNIMhm81LwmMjY093tvbe+ujjz76i7e97W2H4K3SWQd48UaxHeIm9Bq4426/Z3kNtDfLDSXg/La2NrNyZ7qiNRCwy6QsYmNmAsHnuo4CDQSGErTHQJdq1vw6NAwUKD4v2dXSyTPCQDDaEoDtMmMU6M0lVqLFqBUF59ObYBU8AQIN6z0w1b0AbqQ3AZUh8UUTLdl7Yj8m67ALmrrZrvC4mjN8Cro4FC9i2ppOMcMx5XLOmmD1j/Wee+5ZeO655561cOHCDzQ2Nv5xLSnrdOnrwMDATT/60Y9u/dCHPtTrApq4mnZZDmkkuMhtHX6AfBzPQNaLXr3YsRozXgQYrU5+uPm5aPZQ7ED+OHSXKzZia+h1YFvktKfRQJ2czGCgTisvmcnC4AvlggsuSH79619fc9ppp/1lY2PjW6aLLtTQcwydPHnyzu3bt2/85S9/+eJf/MVfHNFpiTAGoMsuADXC8DULHU2B7NZIgExo4GpyIydca3QU2Qi2Cm+YlUCZcl6OSlnkOTakEGa3cT+9Ba63WS0saz6FcSq6N2MMBApD4xNcASlypaySneq8BPNh8R8vXmsYmFM0EyNcWxYtixAEWBfh6jIYBTJ4kb5ZZz7YCpJZXdPFofQBN79dGwmusaCtXbr9rr766uZrr7125bJly17e1dV1TV1d3cunojT+nIIkANDhx3/9618/8KY3vemgCzpU1MjhxOO6W3FXAgdJ+63pv2kcuMe0IUCd40vfTrKG/AsbK5kSva0nYa2vNASUJIzREeGhAHlYpD5jJ71lPEHrtGZwpJcMhsIXvvCFxa961av+rKmp6QMFjYS/aCoSGEH9g76+vn97/vnnf3PLLbfs2bhx46hTTjkskKT1gNTcOjVRAw1xrgM2NHqgSy9z4cRwAvSN+s35k9TIBIwjlIC2GU5QFPqRNMk4V4cUtFB0mWbX2zydshQmU4QZbSBM5lHQ8ScqE11RDDvoUtK6ABTOR9qkzrXVmQ82FzdrfLhq05M448P2xBDUqMIPOBTGeDVDnnY969ADLoj6ftNNN3VecsklyxcvXryuo6Pj7Q0NDa+bTIH88YklMDY29mB3d/f/vuOOO5748pe/PJgj3p61GnHTuWgYOLnVYQU6/bJmapdrhLKX1hMQGgT2e1jelhk5ON8Nkblt8DuNDHy3n42esvqpjhkTmKtxC3w+ghlJ7qS9CTYlOGQptRiFOZdffvll7e3tCJ35rIfifozDIyMjP+rr6/v+jh07nvnGN76xi+mIbrOaq0Afs0av0WWXzptGgQKvhiBZ3QZLMHMOtMatPsUtxWw8tcxQ0F4D4MSiMhTcIkuYy7FPERzl8jSHKZjFibp2rp5xBgKGRtdvsN/HjRiNB+IW3NADDQZeyFRIMoEpz4KRsU2PNPUddFokXWR68o1gaQxBZDiP7jeAd1wGOz3ZalImENbgGFeu7g+bRgP5FvD9mmuuabnqqqtWLVu2bHVHR8cljY2Nb0gmk4tqR70r01NUNTxx4sRNzz777H9cfvnlu3KlK+aKxVqQari6VgBE80AKT2AmWYYLOKnqcrXUN5xHci/1IjfqTynpkBg/Wz03p2hyMOgt24ZXjPekUaFDFzR8NXbB9SqgfY1VsH0KGR7pEXNpn6HXZ555ZuKee+556bJly97Q0tLywUQi8XsAQ2VUoOrvmkqldgwPD//kyJEjP927d++OP//zP9/xi1/8ApU5Te0DCyo0OAJuugiXCoWFXBwk5qKBp8HWxMa4QNaoNEXtKeC9WTMB32EMEO+1efPmNEMI/I+iSio1ncRGBoSIjf/1IGnjgPsjwtEzIqyg5TIjDQQtgKhiTy6ntkKtjiv6xLZI1xxRIdKcosMP2ljQfdFgSE78+I+JlbFfDQjDsb1794b1HzSSHccskU0kuDEXctxFGesqfSBp+tKXvrRgzZo1p82fP/+lbW1tr6+rq7swkUi0VP2MWNoOgr/iyb6+vtteeOGFx1796ldvi6hNb3qgshPCVVYEcjvrxc1JVOuBdrnqsAAnUPzXWBjtGXB0LsTKcD8L17igW90GwWBcvTGERsOCHjJdSpc6zZCH/W6yfHSqJfa7HjKrz6aLUVTPGruxdevWdYsWLbq0tbX1nclk8tTSDn31tx4EwZHR0dGfDg4OPrJ///5nn3nmmReBf9E919UStYeANPD6XMqaGQgcGx020KEjh+HQ6LZK/TZNY36zaeHjUhWVkWte0Ap8GDIgsn/AhjEMrIosZRkH2lAgXbJrDLC9Wi3THJdWzngDwWhrEIyTQwRqNZS5rdAVGgs4ACOC7Fs20yFMRcNxHX4gI6OdVA3alsyMapI2NM6quEjosgVjGNPOolLMNGcCY7q05l1+BazAdDzczYJwDQZ3ooDH4Y477lh69tlnr5ozZ87q1tbWVyaTyfPq6+tBmztt9SudTm8fHh7+wYEDBx585plnnrnuuut6IBs3rUvRFIeuV5ynV1lk1iT5kC5AQ3Y4tfoeN5lyNR/1gqfrlS97sshxkuU1MCbsRByWu+VkzAp3ug181sQzUUYvKW01NwhDH2ibPCE0FLgP/12PgU4DzjX56ZLq1OlHH310+apVq9Z1dXVdWl9f/+ZkMjmdqx/hJbs1nU7/x+Dg4O96enq2PPXUUzuvv/76g1qnIL9caYdE9WsPAQ2AKBwBWQ1xjjbqdPaB9RqkdXotjV2lB+b34br/sY96hs+W5Ag6asIH1AWXitwu2EL2Q4LO6THTqYq5jAMrJ/OKiOuFW2vtTNsJvIiByJJJVNaDIscwmQzKIg3zYZn1QFcX+qPDDu4EjeOcdJX7LDQS7CQ6brxY+4ElTVVp0zBdUsvCRYsrUhJzGt2EMBx0ESl+jqLJZXoTgZB45q997Wud69atW3DKKaesnDVr1vLm5ubzGxsbz0kmk0DD1ZTHIQiC3tHR0ceHh4d/duTIkad+9atfPYviSaSF1a5XGgmcVCaiQMa5XGm5E3hUNsLOnTvNRKUBhcooMLqoQ1gEbUXpmjIMzEcnJcxwe5AUDKAvy/thVmwqtms8Y6xbQmAu9ZhGh9Y/xnvpYdDhNCd90lym2R11dVQHn2C8MS5Lo1uvAkbD3XffvXLFihVnd3V1rW9sbLyovr7+3EQi0VrEfFH2S0GqNTY2thllkU+ePPlMf3//zv379+/5yle+8uLtt98+Aj1giWSmGqKTk1UCtb9/8zyayTCKl4W8FmDjJFEWPAUWDyUslmTxJwaoqkG02lDUZZdxb3qqqL9aP62RAF4D008NEsdvjos0DorOUnAzE3COTn3XAzmTgIgTKbA3ECb+eRv5uNZmLg4Fq9woJ20mclvcw9QPtz+6nPLmBKwUOzzXpXLGOdqzwGsUWC0Ls4DjFrcQeX/mo+vKfW5RH816l6ugFH5U9Mbws/sfrsx77rlnwWmnnbZg9uzZS5uamhY0NzevbGpqWiYiK5LJ5OJkMrmk3LMuaGFTqdTz6XR61+jo6NbBwcEXjhw5sus3v/nN9o985COHYQREVZfjSlW7YnUhIzwHAVu6/gGfTyO3uY+cBEw35H6MeQTAitiAcJVDOnB7XTiZRkyoWWJ2J103touTVcpYllds06ZN49hFcb6OF+ubMaNH73MIxUwtE3hQdGaPm9HDFWxUxdSouiau7uL+Dz300JJTTz0VOJsVTU1NZzU2Np4BaEddXd2yChgPo+l0uieVSu0OgqB7dHR0++jo6N6BgYH9x44d279p06Y9H/7wh49obACegSGCKLwLZRz17Er+47JnOB/oYl705JByO4qtUxsDHNPm5mZTXdHlMnC9X9QZ9gseA5uVYPQA+kdvAQHi2hhwsxKweMvFZ8DrVLGlGespyDXfegNhgjeR5k5w+RJ4mQYxKjeWWzUyvIAWagAAHfFJREFUDD/wugjPgmH4wkSLc8jOyFRJFYczXgVrJJgcYHxm/I4rMidNyFjwbi66psO1LzLD4qgnXS0epp0x9qiL8BAEifMnCkuo5w9XNPQ80Lg499xzk9ddd93s1atXz+7s7Jzb1NTU1dLS0pZMJjvq6+s76urqWoIgaG5oaOhCe3hp1NfXd7pDmU6nTS3oVCp1IiOisWOpVKof34eHh4/19/cf6enpOfLQQw8duPHGG4foEUA7NGzICId9xGO4z+hSITulaE23OMnqMIKbokjDgLwEuM5JPzSUsdbNqtNnwzr2ZPiMcsEi9AUAF/+jfZWqayZg7OMkrNzNWfME4ryI7+JcFjfTXgXS4bIPOqTmhjxoKOjCZ9pQ4EtFsz0Cd+PEuE0WD/pDQ8HqgunjRHF0V2f4zNTFr3zlK3NWrFgxd86cOXNbW1vnNzQ0QO/mBkHQUldX14k/tFFfX9+VTkez7abT6WO2b0fT6fRIOp0ehBdgeHh4YHR01OjhwMDA8c2bN/d+7WtfO0GwoCp9bICD1EsdBrCsqsYwj9LVHMyFxjtILyFlYA2CUA9cvgJXVsQWMEuF+Cj7ne2EnBv6eoJauQ/eAnqgsA/eK+oNQwmW8dBcotPNXZIjtkmPAb9HhRLcRY37jDP9uzcQpqABuUiWcGkOCucsfIJS2JBHgUrOCVqv3sjSyKIierLDZ+1GxncNCFM5wmGqmVqRhjnpiojEzDsueyN2WgMiRJLricSlzo2K/7qTUxQwUotfA81wrcaGaBDVREOmVlLhpMrzcQxbFDIb++kNoKfALZIVZfjo0IDGebiZCGhfZyOQ9hj7NWBLpSlmpR7aZ8ha4VhPgfEQ6OwZGgGaIIYTKmWh8DJZ4tT73XNc9y1XcNrYRWN0+2oPhK6E6mIa2AHFhsfQ2jhSMZd9NKr4k0tPHoW74Xjz3rpy6mR6oDN9onRRZwBEZQNofWQoQOslddjFCeg+6vtG1e1QNQ5oDJhLdPohv+M/K3+yXXc+UPVjDCU3NxoHBBliv5uFQC4NnRmD8wiG1c+icQWqsm4WjwHOh5c2KhuBbbGwkjYScpDkea/BBBOqNxAmettwVs6wMGZV78KhKIvUoXPOkq9mY3Rv606yOM5VmZ100VZWjFm3wck1V+46VmJEizNNTq/U2FaUl4H1IRz8AtKbIvVHx4cZG56omp8LjOTk7RTdCuWved6dtE0Te42aWPXL3W1XvySiAJt2IjU5+DqtlHHaqNABrnHTE3kfNx4bpYK6NK0DCDQrM4YRNK882uHqcjK1jnLP6mu0Nwz7WcBMn8PMHaLF3XvyOF3D+rg2GLBfFzxzvWWunkawj5qXljJ6kxwTAufcEATumauypGuousaD6/Gyhif4/ceJ3SUosyeY3432CrgXTkbjGwUm1saqW2AL7Wv2QnzPVfpb90XPB9pToMm4WD2R6ba4XnsIbMYL9TbrhawNAt7XGphhNgL2R2ELiGdhGEGHftmWUzchrLaYaw6Y7Hcz0457A6G4Ec8qCBUVhnDrO3CytRPwuNCDnnSdlVg4Vhp05qaioX2mS+oUM4YeaN27k6524aINPTHoKoAUly5ZHTX5asSzxjZwYuYKh54H7QaOWs1x8p0oPTOqMEwugij0QzO9OaVms8IkeuJ1sRk6Pqtlg89uVUQbTzceAxLAaCbDqElV4wnoMeB9dBU6V41ZlU5Prtoo0IRfGtfg5oq7YTPXyGWbZF50DQ981+EI9If91sDHnp6epJteycI7uIYETNrbEpHya0CNWjedeiahUesasZTfRHqgZexQYofep6g4f5QnjfqH/65B4t6H50YZ0linuOW19fX0amGfazRhnzbcnewZ04xKsdX1PEzYAMdddkOGiiIya3RtBNM2jFv2FXMd+QuYqshjzEhw5k5zmPo5EfMhznOMB+81cCeMHN+9gTBFQUWdFgHIywI04hqbEhmWBY1qR9V90KmS/BEZOmedJonviO8yTRInKhS68TK42wSseFmhCF0nAm3AcJiM1EaX82WJVqbu8VgU6tw1HCYaCk27654XNcHmmnQ1OVGO0snGJavvoYwCs18BtLKogt0QgmYQJICUIQS0ExGHDTEGKouAemBc95hE9cSpKL9DQhg9cU5VvbVh4HoPptKeW9gMLmAYEzaEFqLL7WQfzjsqDJIFcsQ9o4qfEZyr8Rt8RuqqLj9NnpAI3EJYhroAPTDvHO29YkhMo98jUl4jDQm3noY2Qt0sI7fqITqC81Xl11BHcUwbS26mTJRuWC9MFksnz9NGrb7WNWwdkq2sokk5sg+MXmsumah0R31PhA7oHXCfIxc18mReman+VmbSed5AiGm0lbEQtpiLcMllZ9Rd0G4zZkFgBebGdelmZiqaasOMaZSRgP0TxXn1BOACxVwKVEzG7mrNxikNnkFPTJyodKhCexgcxjU+SiT2gTzvOMmdoHmhTsUkoNJNg9NAQu16dfK6jSw5+SoiGFPSWIcckNaljSnrLTCTtV5tuSldeux1vjf2kzbWwRQwQwZxWHM5jATlMcgybvji1yssXKOwMwYvo40CnKtpyF0gLmI9GnuDiToqJBHlJdMeBuJvNKCS2RAKfxOCMSN017yoNdW09iowxY6Moy4Zk+v5mkwPNJbBer7M6l3rgdY9dM6u+s2YuKBe1xDVukCwMPZpPAvYUV0aY4sfMEBN/gbdac2tdcDjGgTK0t5cJEQZBMpDEJa07+zsTGO8bGllY+Qq/c0Kh/G+BLpGZSQ4qYl6PjV6hx1aR+m5tXpo7u3Mvd5jUOB7zhsIBQrOvWwqZEuaP4GeBU6uaM9178JA0K5iWM2o76DvrYE8mq2R5zAbAt81+x2PE+CI+yia3CyXribpUfcOMyOwT3sZdAU/5rG7BgOucV3BRPgz3x0TXy6cgyt/N6TByRx9Qa42J1Ze56R0ZpVQdlj8Qi8BUNvuy0aRVoXscLpvmkveuuGzjDdNXMSXIl2vNArpNaBBAD3QrJvuhKrr2pOPwTVW3UnUvGkTZjrIwtpoD1hUjJftmFKpDo2ta+ziuBuCsPtM+ho27S3TxoKuY4LzojxiJF7SYQh+HhkZSbpGHFMm0V4uo9b1FkWlU9oXttFVl0xI60JUGrF7nG2xT/yd8Ls2APB7GR0dTeoKnzSCtDFk+QnMUGkPoS7xjYM6XODOB1p3FU8Bu29ewG44jPgCneGixnkcZ4EGHhJXwBCtNTZNxqLLXRDFZTDTGRDd+bHQ795AKFRyOa7TYQeXSTBKuTkx85jbrJpkMVYG6BOFSFfc4yb8oH+cfPHwB6zDEbyf63GIoMo1KzXt2sWKmYBHtEPSJsUeSPAYvQpm5c0tyhUcBRxzc6/piWCWhQYJ5oo5454uSEvLWtPBumPgIufJbojz1ArMMBzyWq60SIOs2NiMy5XAQ6Zz6SIzbMNlh3O9BC47nNYvViZ1Y7PmLREEYUyW+hfO9E45dK2f7mde4xY9s5NzqK84j321XjGDQNcFzxQtbmgs8MVCQKOjx8h0MDUgiFUg5gb3c3lCXM9CFEAX102UJRGBuwkNS3qeXENYg1ptbZRQR3RxKkcXw+qGLthQGd+UrwvQNEaA1kvNYGh/p6YPbiVPFvKCikR5IJGK6IYynSJJJlWbzwIvAVNeORcylGDnsKxMBAJhafDSU4X2JtJjBUQ091Mlmr3noMj3mzcQihTgVC7P5V3IlQXBH4QLcOQPyAWGsQ+M9xI17hSMMulwbk56FOudLkvNtt3JF/vd8r6kT3XLAk82Gbvx5ChQJPuhjYVcsmdJZE2qw4k6yjugVlhhkzRkFNUxfyvgnjC88XayNaBDsByyoAxd4TiuU7l0NgJvRCIYfGeqojYMFPiPGIPwZasBWu4qaiKqcBoJUfLTL/soj4FrhOQyOJzzxqX9ag9IlFcB7WqAo5v1oOtM8Dlcr4KuaEkvGHVN4xVwvUo7zZoTlR6Exi7vR48Xvmu9ojtfv9yJhcC5uYzgXKyauIb9JkZAU63Ti+WSECljQIdh+NI0RoCWWS4sAXVYp11roLRl0gxJtKLKLNO4ZTZCFMYgCnCIZ4iqussx8CRHU3kDFX6ONxAKl12+VxqLX2MVpuq+1WWnlZFAnnFMvgawgw7pdKAcNM+m3wxH4DPz0vVLK8qlq5HJUcV49AuSbaGqHyYzMqlxv8uqhglcr/K0q5RufVyr+RuivBGkeNXnuiDLqLY5uepwiltQBm3SS6CMILMSUyvZLJ4KveqirKEHrktdF5lRHqJwBeTmfHPM8Z96pD032vh0Um/NOz1f5eX5DnkY9C7JPujJXKcF2/3GSGB+Otujh8wtn47jmiOEwFx6XPTLSusqjVvExVHfBO24Ja4jjDujeznorUO9jNI9HU7TxoQyOsIVvquvPMfqqim65oYImPlCeUWAiEPGSQ2EdZ8Z1+O529raDJsTw41sNxew0J0fHM+ky8GRBUYlNkbrGmvWfOc730nreQ3nRGUi8FplrM64ksuF/lbjuM4bCHFIMc82FJpWu8NC16+ZwZWr11nJZVWU1K5bXKcxC5qalKsxuv3oTdB5yBGrNPNkXC3oXHW3xK82HrQHwnoZjOtPr7zRrorPh5kUFCVf1JzYuN/ldmd6JgFWOI8Tpf0f8sBz1eiutJjHrcoShxXl1MvEPAPaxCRrX2h8LryEzEuXEy0phufPn58mO6auY8DnseMRGnaMw7p4FAvKypBxZML9oY5o/dDIbrW6CvO/81TVyNPdCqj6pFweCAUgM8/gvhzs8xojms9uaXPHUZWrmHaY+aDZJfnZqUuhGUjDcJnuu36pungGxb1gxlyn/9Ew0+RXmlXQZYOErrpeNRoCvE4X6UIfdfhKkaHhUPgsan/IsKpCXOZRlTFrmAttvYMQCAq91UYAruF3FxOjWThdLgwXT6CBsJa8KEsPosotuzrOBZbNFAlDLHHotG8jWgLeQKigZjhkHVk9iYoTs4okXxL0GuBCdyWGfToU4XoYXAZHzcSnvQua8lQz4PEFSMCS/q6r96EfmKQGBgaSGrDHh1VcDVlGgnYJ00iIAlXBQ6FR7GzXBaq512phu7ncPKYnYs0pEQU2xDVRxgBlNlHlOYYR7JiN8xoQsGXeBolEFoYgyv1a6UIzU2Ue1RidKP4FPC9XnJSReilF1oLQ2Q/aYFPAOqNnOmTmTgG6kBCOaR2L0it3VW/1nPdhGeOQMTPXlOPge8z7UffVLXBEmZCpkL87HSpww10sz60BsRrjoTEEuLebYq3DXy6vhlsHwY5fCL7GdxoCOgtGy0PhB8xuO+cV7PGq4PQ+LW7tDYQKD6NajekfQda4ONUjQ64Fdl2Bwswu7Y7W6Wc67strNTET90VlRjCd0kUq4xpdBpjftQtTg8m4wmYpYP0911C4JYJdD4Czoho3+WOCdydbN0SQK/2Qhhf6poww01U92XI1piofGverg8rPQm5D9i5fPMeOflQrE+IPmCkQfr/xxhvTDjC2whqdqVmhi3TREIgqsWtxNrqejkGpRz2ELqkeVSdC6y3TgHU7xC1ow0GlTkZSmPN66JCiwTafrV5lEV8Rl0NvGbEpUdUL0TZrqLgGC70Z2nikDhM7QK+V9uZZPSU40LxjHbyA8QhGMRjSIMD/qKJImlqbdRF0OEx7ftAGwgjOHMX5KeGm0uKAyjxwgYbeW1ChX7U3ECok+IluG0EDyvyzcPLkD8xphy7ocSlnxC7YyTErTQ77+ONHIR+2qV9wmBC2b98eplgCmGRL/YZdUMaD+UHr8r84iV4G7W3gZE1Mg61gmNAvbBdIpc7NMgb0pMoXOjunPQBccdmwR9h/rrxcYCFPUP0O07pwTGM4rCEVFjNyV1waO4BrI1bOoaEYkcsd6oGaeKt+deVSE2t8Ag0E8yazKWxWJgZXk8vAVeBNIxOXSMyG14xsGOLBZ2aQOCWFs8jF1DibNGNcl0MHwxATztFGADEpelWv04jZf6YTWt0NQwN8+fP3oXUwCqDJdFl3XnELwOlwgWbijKinkUV1jHbdAknaeNYhBPaBqYn8HlELIcQT6LBVMRiZKpzOa7pL3kCojeHDRGnAiLny2fVEq8GQXI3pidaJB2alm+lJgIYDJ4co0KMu/8tJ2S1drVKjDL0qj+u0S0x69CZw8tZDE8XhoCsB6txst5iVO8S6fXcFaQ0Ls+py3bA6zY5piYp7IvQYRLEdaiPMrT7nhhD4ssT/agwhxPCTCQG7E4VM4IaIAGcasWguCOJr7KrWpElqb4I2HqKKRqFBlc0TZUSYRwYBkFszwuoLDFUzlxKL4+qw/p7rmHsOjQNWdCUBEfubAwCrf2PGuCGFsR43zcqpFgdZIGd6uNy5A+3kGBcNmDW3c0MGEfuq3sCNQd9rtglvINTe0I1bRepHiCINcV80TJ8kEZNeCbAtgsbciZhZEppCl/S5Dse+WV3ZFUwWN4MuaY37uelTNBZoFHBi5CTuTuZ6Bc+2tPeCE2kUhgL354qRn22fwrTQXO5YLXe+nDgh28k9Z2oiV1dRmSy5DAPer9IYg2J/MhqkO9FLhFwOrpeF99dETFaekVTlGl/jVpjUGJuo53J1Rp+j9ZH7+TLXBgW5AtiW+s/ia6FBqo1mUqnTwI4qgez+lnBfXR45V/GuqJoZOgNKpyESIGvHyui0GxrS310QrT2GcEMYKqi2sFixOj1dr/cGQu2O7LgMiFyP4q7SeJ6bPhm1UojCLeB6VakvC2XuxIHNrVz+ddcdbCftUBejJkSX7InPoFf6dlKOTNuMIIkyTeSKz+pKmgwTuAA5tz49+6TBodzHSVbLOMsd5HgLIngMpt1KywXpqnRNIzaXWCyKF4TypYHA764nzOpslncB+4jMj6J7xnHNXZGLfAznaf1kHzRAlZ6LXFieKDCwajf0TrHtiDTZrN+Z9mLhGl2cy/UYaGMgwugyt2SKKo0DpqtGZR/kyMCadvpbu6+OqffcGwhTl1WtnGkMhyijwM2HZ2aDRhbrh2RYw3250fNgJ46Q2ZGFg+zEO45KlasZehycSRmXmRVGDgMiNDaYE8++YnKNci/rF4BO69QMfVExWV4XFSrQk6uSVRYzIJngOLEypu4qkJuSqF+QEdwG03aCzZXNM0GqL9HtJgRBIxZyj9JVaxwY8VNHNSmVGzqL0j+OnRu6UGRkoX46xkCW3kZNIu7vQIftXKCrCw7Uz6NBhEyftTpIzpSsmhsuhoCVOmkwuPU7FPI0ZCzMwaLpAq6nre7Wykuh0H56A6FQyVXndXThZZWhdq1+fNeWfxSjo8u9oFH1GsPAXHUCi7TxgPsw9cmGG1ABL2uy0JOzfslzItT51aoSoAEBRhSwwi3N5KUpXd2UTiezIGSAY6x2olQuPpN96WRRxapndTNJwtisjsk68dmQRMtYSonEjJpUo4C5UbKysgl/fW4tk6jYOPXV5VVwX6jUKVcPqD/uqlzRm2eBUl1GU21c6MJbNERd5kHHYGGozjBtuqt/XbBLhw3c/cyW0enQhbAZOsyF47AkM1F3q/NVEE+vvIEQjxyrvpWoVZrr0jVv14z3IUyTcs4ZV7XPWSVnrVDctCdN1qTLFEfVlnC4AUIENe5Ho0F7JDQ2wnX9R02cXE3qiZSDqIsiaf4IljDmeVFFkgg4dJnf3BcbX36OV2dGGQWT/GjoCYtkH7V6Z9LldE49wxJsW+MXIkJoZv7T+qfj8BPogdFB3iPXizsK9W8Ny/DRXb11ZeJ6rHi+DvEFQZDesGFDmGE0SfGuceECGg+6GiL7Mcl8QIO86uc/38HCJOANhMLkVnNX6VroDl1uFmsjX2Ta/e2QmphUSpynSwbrfe4qTk/WXMXp/H/7EkZIIqG5AdwUN3f1FGUguLnaeqCisAE8rlf/bkEhGAY0hHR7iuY4ZIXjc6nVb+h8iYqxW3l7w2DiX1SWR8wNn7kGgpXpOMZGGhPUK5f2GddNogemly6duUuTrY0AXXtAezDsC55ZBmYe1uyD7kpfE0Y5Ohh+Vb8XhgCiynKb9FGdJp0rJMmGHXZMbbB5va25N0F+HfYGQn7ymlZnu3UhaBzoh9ThBxfDkCvlkhOKrt2uy7bal+24PPfJhOuWOHYnXL26igKp6Uk4lyvanXx1TFsbOjaVNDxdIe7dVNSs0IFuf6aFESYb34mOu1wK7rlR8o8yJPQYui9UGoE5UvhC75iuG+EaDLlSBrVHzP080XO7xozi0cBl435DNFpzFe+aZAyyjNmI+cAbBMUocQ1e6w2EGhy0UnQ5wsMwLiY+FWpoM2vZMMVEngoAnjghuy9lBwQ5LufaneSjro8qBjOR3FzAFjEVUWEYdf+Qm2KyKoie/KV4rc2lo25hKL7YrMs8ZJpkD6K4JWjMRuiBuUx7s9wn0R6nXHwjug1tgLjtTnQf7Z2iQaSxRC5XihsqdIzTcbVftMEaJeviR9C3UGsS8AZCrY1YGfurPQzui19NtiGimROzC3p0edd1/B3X0N1JwBlrTdiXc1igyPVm6KIvNDhUMSNNz2o+O1kDoQvarSKngG9ZxC9ujDYqZKAm2RDAZeXiV1+l1d0we0fpauQdo7Ijolbcrh7YcSQOh+Pp4nK4qg+P6+JULqcA76sIzYzOaYIzbVy6oSv+5vjM+jcYYUSE2CIrGB8uKK1O1nzr3kCo+SGs3AO4BgQnHVWEJwvsGBWicCsOTvQ0mhtAhy+iQJVRVQ3dNELcK5crNip84kzC49yx3hConC46dw6NhVLpgVtXwg2rWY8ByYGs6pgaFWFXdew/KgU5ik49h17qtMNxIS1f/bBq9LLmOuINhJobsurqsGZE0yEIx8Ng3p3cF5X/H+V90JOuCyhziVp4vV7lu6sth456HBFPlGT1Cs9O2Dk9Jh5TUD26qYugTaCXIStpLgZSPpGrB66+6tV6FAdJLrIyl3XQlWCu0JUDNIzEudAwUJkI1TNAvic1IQFvINTEMNV2J3OV/9WxYztRTgqSctviSz9qpei4ZiN1faJaANoj4Klha1sH3d67RkO+ekADwbZrjEbXq+BmV0S8sEOddDkxrMvBcBPRuNYeB++tml76WK1P4w2Eah0Z368oCWh9HRe+cEFcKqQQxoM9WNArVowSyKotQC8C2lcpsG7BIo9FiXEAfFOllYA3EEorX996CSWgkdb2Nm4d+RLe3TftJZAtgVxl2nV1VR+G8lpTSxLwBkItjZbvq5eAl4CXgJeAl0CZJOANhDIJ2t/GS8BLwEvAS8BLoJYk4A2EWhot31cvAS8BLwEvAS+BMknAGwhlErS/jZeAl4CXgJeAl0AtScAbCLU0Wr6vXgJeAl4CXgJeAmWSgDcQyiRofxsvAS8BLwEvAS+BWpKANxBqabR8X70EvAS8BLwEvATKJAFvIJRJ0P42XgJeAl4CXgJeArUkAW8g1NJo+b56CXgJeAl4CXgJlEkC3kAok6D9bbwEvAS8BLwEvARqSQLeQKil0fJ99RLwEvAS8BLwEiiTBLyBUCZB+9t4CXgJeAl4CXgJ1JIEvIFQS6Pl++ol4CXgJeAl4CVQJgl4A6FMgva38RLwEvAS8BLwEqglCXgDoZZGy/fVS8BLwEvAS8BLoEwS8AZCmQTtb+Ml4CXgJeAl4CVQSxLwBkItjZbvq5eAl4CXgJeAl0CZJOANhDIJ2t/GS8BLwEvAS8BLoJYk4A2EWhot31cvAS8BLwEvAS+BMknAGwhlErS/jZeAl4CXgJeAl0AtScAbCLU0Wr6vXgJeAl4CXgJeAmWSgDcQyiRofxsvAS8BLwEvAS+BWpKANxBqabR8X70EvAS8BLwEvATKJAFvIJRJ0P42XgJeAl4CXgJeArUkAW8g1NJo+b56CXgJeAl4CXgJlEkC3kAok6D9bbwEvAS8BLwEvARqSQLeQKil0fJ99RLwEvAS8BLwEiiTBLyBUCZB+9t4CXgJeAl4CXgJ1JIEvIFQS6Pl++ol4CXgJeAl4CVQJgl4A6FMgva38RLwEvAS8BLwEqglCXgDoZZGy/fVS8BLwEvAS8BLoEwS8AZCmQTtb+Ml4CXgJeAl4CVQSxLwBkItjZbvq5eAl4CXgJeAl0CZJOANhDIJ2t/GS8BLwEvAS8BLoJYk4A2EWhot31cvAS8BLwEvAS+BMknAGwhlErS/jZeAl4CXgJeAl0AtScAbCLU0Wr6vXgJeAl4CXgJeAmWSgDcQyiRofxsvAS8BLwEvAS+BWpLA/wMDCf3RwqSaEgAAAABJRU5ErkJggg==;" vertex="1" parent="1">
                    <mxGeometry x="635" y="680" width="200" height="200" as="geometry"/>
                </mxCell>
                <mxCell id="7" value="" style="shape=image;verticalLabelPosition=bottom;labelBackgroundColor=default;verticalAlign=top;aspect=fixed;imageAspect=0;image=data:image/jpeg,/9j/4AAQSkZJRgABAQEBLAEsAAD/4QCaRXhpZgAASUkqAAgAAAADAA4BAgBQAAAAMgAAABoBBQABAAAAggAAABsBBQABAAAAigAAAAAAAABNb2JpbGUgcGhvbmUgd2l0aCB2b2ljZSBtZXNzYWdlLiBWb2ljZSBub3Rlcy4gQXVkaW8gbWVzc2FnZS4gVmVjdG9yIGlsbHVzdHJhdGlvbiwBAAABAAAALAEAAAEAAAD/4QVvaHR0cDovL25zLmFkb2JlLmNvbS94YXAvMS4wLwA8P3hwYWNrZXQgYmVnaW49Iu+7vyIgaWQ9Ilc1TTBNcENlaGlIenJlU3pOVGN6a2M5ZCI/Pgo8eDp4bXBtZXRhIHhtbG5zOng9ImFkb2JlOm5zOm1ldGEvIj4KCTxyZGY6UkRGIHhtbG5zOnJkZj0iaHR0cDovL3d3dy53My5vcmcvMTk5OS8wMi8yMi1yZGYtc3ludGF4LW5zIyI+CgkJPHJkZjpEZXNjcmlwdGlvbiByZGY6YWJvdXQ9IiIgeG1sbnM6cGhvdG9zaG9wPSJodHRwOi8vbnMuYWRvYmUuY29tL3Bob3Rvc2hvcC8xLjAvIiB4bWxuczpJcHRjNHhtcENvcmU9Imh0dHA6Ly9pcHRjLm9yZy9zdGQvSXB0YzR4bXBDb3JlLzEuMC94bWxucy8iICAgeG1sbnM6R2V0dHlJbWFnZXNHSUZUPSJodHRwOi8veG1wLmdldHR5aW1hZ2VzLmNvbS9naWZ0LzEuMC8iIHhtbG5zOmRjPSJodHRwOi8vcHVybC5vcmcvZGMvZWxlbWVudHMvMS4xLyIgeG1sbnM6cGx1cz0iaHR0cDovL25zLnVzZXBsdXMub3JnL2xkZi94bXAvMS4wLyIgIHhtbG5zOmlwdGNFeHQ9Imh0dHA6Ly9pcHRjLm9yZy9zdGQvSXB0YzR4bXBFeHQvMjAwOC0wMi0yOS8iIHhtbG5zOnhtcFJpZ2h0cz0iaHR0cDovL25zLmFkb2JlLmNvbS94YXAvMS4wL3JpZ2h0cy8iIHBob3Rvc2hvcDpDcmVkaXQ9IkdldHR5IEltYWdlcy9pU3RvY2twaG90byIgR2V0dHlJbWFnZXNHSUZUOkFzc2V0SUQ9IjEzNzkyNzkxNjAiIHhtcFJpZ2h0czpXZWJTdGF0ZW1lbnQ9Imh0dHBzOi8vd3d3LmlzdG9ja3Bob3RvLmNvbS9sZWdhbC9saWNlbnNlLWFncmVlbWVudD91dG1fbWVkaXVtPW9yZ2FuaWMmYW1wO3V0bV9zb3VyY2U9Z29vZ2xlJmFtcDt1dG1fY2FtcGFpZ249aXB0Y3VybCIgPgo8ZGM6Y3JlYXRvcj48cmRmOlNlcT48cmRmOmxpPllvR2ludGE8L3JkZjpsaT48L3JkZjpTZXE+PC9kYzpjcmVhdG9yPjxkYzpkZXNjcmlwdGlvbj48cmRmOkFsdD48cmRmOmxpIHhtbDpsYW5nPSJ4LWRlZmF1bHQiPk1vYmlsZSBwaG9uZSB3aXRoIHZvaWNlIG1lc3NhZ2UuIFZvaWNlIG5vdGVzLiBBdWRpbyBtZXNzYWdlLiBWZWN0b3IgaWxsdXN0cmF0aW9uPC9yZGY6bGk+PC9yZGY6QWx0PjwvZGM6ZGVzY3JpcHRpb24+CjxwbHVzOkxpY2Vuc29yPjxyZGY6U2VxPjxyZGY6bGkgcmRmOnBhcnNlVHlwZT0nUmVzb3VyY2UnPjxwbHVzOkxpY2Vuc29yVVJMPmh0dHBzOi8vd3d3LmlzdG9ja3Bob3RvLmNvbS9waG90by9saWNlbnNlLWdtMTM3OTI3OTE2MC0/dXRtX21lZGl1bT1vcmdhbmljJmFtcDt1dG1fc291cmNlPWdvb2dsZSZhbXA7dXRtX2NhbXBhaWduPWlwdGN1cmw8L3BsdXM6TGljZW5zb3JVUkw+PC9yZGY6bGk+PC9yZGY6U2VxPjwvcGx1czpMaWNlbnNvcj4KCQk8L3JkZjpEZXNjcmlwdGlvbj4KCTwvcmRmOlJERj4KPC94OnhtcG1ldGE+Cjw/eHBhY2tldCBlbmQ9InciPz4K/+0AmlBob3Rvc2hvcCAzLjAAOEJJTQQEAAAAAAB+HAJQAAdZb0dpbnRhHAJ4AFBNb2JpbGUgcGhvbmUgd2l0aCB2b2ljZSBtZXNzYWdlLiBWb2ljZSBub3Rlcy4gQXVkaW8gbWVzc2FnZS4gVmVjdG9yIGlsbHVzdHJhdGlvbhwCbgAYR2V0dHkgSW1hZ2VzL2lTdG9ja3Bob3Rv/9sAQwAKBwcIBwYKCAgICwoKCw4YEA4NDQ4dFRYRGCMfJSQiHyIhJis3LyYpNCkhIjBBMTQ5Oz4+PiUuRElDPEg3PT47/8IACwgCZAJkAQERAP/EABsAAQADAQEBAQAAAAAAAAAAAAAFBgcBBAMC/9oACAEBAAAAAbmAAAAAAAAAAAAAAAAAAAAAAAAAAAAAAAAAAAAAAAAAAAAAAAAAAAAAAAAAAAAAAAAAAAAAAAAAAAAAAAAAAAAAAAAAAAAAAAAAAAAAAAAAAAAAAAAAAAAAAAOQ8R8gAAHfbPekAAAAAAABHZ9FgAAA/dyuHQAAAAAAA8OX+edsnoAAAfmLqnnt14AAAAAAADNoK63EAAAHkzHxahLAAAAAAAHjyWU1HoAAAFfzm0X4AAAAAAAgM4uF2AAAAfPHZXUQAAAAAACu53dbiAAAA5jkhqgAAAAAABXc7utxAAAAcxyQ1QAAAAAAArud3W4gAAAOY5IaoAAAAAAAV3O7rcQAAAHMckNUAAAAAAAK7nd1uIAAADmOSGqAAAAAAAFdzu63EAAABzHJDVAAAAAAACu53dbiAAAA5jkhqgAAAAAABXc7utxAAAAcxyQ1QAAAAAAArud3W4gA+Pz9PQA5jkhqgAAAAAABXc7utxAEHS4l97RcvqAcxyQ1QAAAAAAArud3W4gFYoD7euOSumfUBzHJDVAAAAAAACu53dbiA8eUfhoViyTzLfdwHMckNUAAAAAAAK7nd1uICn0lOW6cz6v/AC++vdA5jkhqgAAAAAABXc7utxAZ/WV4kZ2p1Hxtc9QHMckNUAAAAAAAK7nd1uICiVRd/NM+Ok/JsP1A5jkhqgAAAAAABGVqdmwFfzl6bn9q9XktqADlK9FuAAAAAAAOdAHMxiFjsGe87pU2AOdAAAAAAB+ION/AASM1nMQPpfJurAB31TfuAAAAAAVujeYABdLfBQnykbJ8M68AACx3v0AAAAABUaOAAEjaJX6eKv1z8gACQ070AAAAAEXl3AAAAAAAsmhAAAAAGeVwAu8TXh9ZyvfrTaBHzPj8Q99xz99PmANZ9oAAAAHMh+ALXWvjqUHSZ6RqE/o2O/vYM1g9SgqVO+6qWDRcc/WvZnE2aNiwX60AAAAAfjHAfXYc2gtSg6TeJjL5/Rsd/ewZrB6nA0q8y2YWDRcc+uv5pCanA0oF0uQAAAAH4xwH12HNoLUoOk3iYy+f0bHf3sGawepwNKvMtmFg0XHPrr+aQmpwNKBdLkAAAABzHvmHb5TvHqUHSbTK0Gf0bHf3sGawepwNKs8lRrBouOfvYM0hbrEQIL3awAAAAGaQgBo0JVB6rVS/3ruaRVojYkSt+y3knG8ANSlAAAAAEBnAAAHeAAACY03oAAAADlArIAAAAAA+2oSAAAAAA/NIqfAAAAAAJDQ5MAAAAACPrcb+AAPxCj2yAAHfVN2H9AAAAAABzoAFKpz2af6wAc6AAAAAAAeOIkpEAOUOA0yQADle+s6AAAAAAAV3O7rcQAOdABzHJDVAAAAAAACu53dbiAAAA5jkhqgAAAAAABXc7utxAAAAcxyQ1QAAAAAAArud3W4gAAAOY5IaoAAAAAAAV3O7rcQAAAHMckNUAAAAAAAK7nd1uIAAADmOSGqAAAAAAAFdzu63EAAABzHJDVAAAAAAACu53dbiAAAA5jkhqgAAAAAABXc7utxAAAAcxyQ1QAAAAAAArud3W4gAAAOY5IaoAAAAAAAV3O7rcQAAAHMckNUAAAAAAAK7nd1uIAAADmOSGqAAAAAAAFdzu63EBW48B20esDmOSGqAAAAAAAFezq6XIBknkAL9aAOY3I6oAAAAAAARGYWXQQEZ4wHZr6AeHJ5zSgAAAAAAD8ZJ89U9wAAAFCq16tgAAAAAAAqlE92gy4AAA+VMqPt1T6gAAAAAADlGqb2egAABzwfP16TJAAAAAAAAQNSifmAAAeyxW/0AAAAAAAADnAAAHegAAAAAAAAAAAAAAAAAAAAAAAAAAAAAAAAAAAAAAAAAAAAAAAAAAAAAAAAAAAAAAAAAAAAAAAAAAAAAAAAAAAAAAAAAAAAAAAAAAAAAAAAAAAAAAAAAAAAAAAf/xAAwEAAABQIFAwQCAgEFAAAAAAAAAgMEBQE1ERUWMlAGMEATFCAzEBIhMZAiJDQ2Qf/aAAgBAQABBQL/ABnrSrREG6gKNQVGoKjUFRqCo1BUagqNQVGoKjUFRqCo1BUagqNQVGoKjUFRqCo1BUagqNQVGoKjUATnW5gi4RXpyTt6kzTdyC7uvkEOZMzCaxryDt0RoguudwqGsQ4c0TgmpRkzIZMyGTMhkzIZMyGTMhkzIZMyGTMhkzIZMyGTMhkzIZMyGTMhkzIZMyGTMhkzIZMyFYVlULwH8LIKtziIkalNx8s69w7ETGU/XyHLZN0k7bHaLiNde6aca7V9BqI5t7p55Uw29ZmIJb9XPGzVcI4dPl/1eUcv7p/+xdf1keNm7eOn9vlm3R1w42bt46f2+WbdHXDjZu3jp/b5Zt0dcONm7eOn9vlm3R1w42bt46f2+WbdHXDjZu3jp/b5Zt0dcONm7eOn9vlm3R1w42bt46f2+WbdHXDjZu3jp/b3DKpkFHKFRjj3Tbo64cbN28dP7e09lEWgcSbpx+U11UatJw1AmoRUnaNujrhxs3bx0/t7MrJe3p/dQkioudaPdNyfhg/OyVTUKqn2Tbo64cbN28dP7ew6Xo2bnOZQ/wCIRIpWVaUNRynRJz+IN3gfsm3R1w42bt46f29ifVwJ+Eo71I6HtoKy99Jqp+ksEFaor/32Tbo64cbN28dP7exPV/3v4af9fh7aI67PP+b+G1cWvYNujrhxs3bx0/t7E+TBx+IcxV2DB5lx3Ew2STiUzIoqn9RUf2Ey/ol2Dbo64ca/a1eN9PnEcwqxp2Jlv6zL8N3CjZYryPkSnaRjCsjKVdU/EY39w+7NYA9atoUyDjmK0xpIsqs1/wARtWBU13UW5FcMRSmNYxl7RvypjlIVWZaJivUBRqAagGoBqAagGoBqAagGoBqAagDOYI6VXQTcpPY5Zmb4ETOqeNiqNg5ckao6gGoBqAagGoBqAagGoBqAagGoBqAEnkKhB43ccO/lyNgu5WcG70fMUw/gxXEM1WB4BWgpAuQlAEoEGyLYrt8izK7eKPFe7/QZzCyARWTcJ8HLSXp+E2fuGoRnk6gsqyMKyTOgUm2hA4m11AY1TG8Bm8UZqorEXS4GQd+0a1rWteJhnnor8DNr+o87MZGIHbSzEjQ/wSTOsorCuUkgWn7GTjGhEnzejV4GkWu7I6aKs1Pgybe7crQjaqP4omepez/VWa3uGnALn9Rx8k4FQySyR0FRG27qD6xFx5XhpKKSQbiFuIPvR+8TNyEbb+oNojI/3ppGJI3QEJcAbemX9lSkKQkomVKQDGH9yi/YmYq/KBPi088235JfaJm5CNt3UH1iA+mUtohbgD70fvEzchHW/qDYID6JW2iEuANvQ+8TFyEdb+oNvy6f/rzzbfkl9wmbiI23dQfWID6ZS2iFuAPvR+8TNyEdb+oNggPolbaIS4A29D7xMXIR1v6g2/Lp/wDrgFC/or8aVwqnOoek7cVdORG27qD6xCvEkKyz5D2ghbgD70fvEzchHW/qDYId6k2rKyCBmohLgDb0q4LCXrSskI6VQTbSr4rxT5QBMG/AS6PpP+zEuUjspxymqb4NnBmq6s8WqQIb9VCKkUTk1SrPwwmPbIyD+r5T4RrgrZ4tINkka/zUEknaaVa1rXsxyPoMeAl2nuGvh41w8aMae6dcFLR3oH4hFE66rNoVmhwVaUNR/DGLWtK0rwrVis7MzYpMicK4Yt3QVgBWEeUGTPRkz0ZM9GTPRkz0ZM9GTPRkz0ZM9GTPRkz0ZM9GTPQaIeEL8GzRZ3XJnoyZ6MmejJnoyZ6MmejJnoyZ6MmejJnoyZ6MmejJnoyV6CQLioQhWyQoWhacvLRv5atVHazZum1R5py5I1SzxoGr1J5TuScXVMyDZVwozaEZo9zO2lAlLtlleNm7eOn9vlm3R1w42bt46f2+WbdHXDjZu3jp/b5Zt0dcONm7eOn9vlm3R1w42bt46f2+WbdHXDjZu3jp/b5Zt0dcONm7eOn9vlm3R1w42bt46f2+WbdHXDjZu3jp/b5Zt0dcONm7eOn9vlm3R1w42bt46f2+WbdHXDjZu3jp/b5Zt0dcONm7eOn9vYdzKbZXUA1ANQDUA1ANQDUA1ANQBs4I6R7Bt0dcONm7eOn9vYd0rR32YGlaM+wbdHXDjZQnqRwg1v0d9hxHtnRslZDJWQyVkMlZDJWQyVkMlZDJWQyZkCEKmT5vVvQZiHT/AHkeNMWhiuEat10zmSUaOiO0PJmXtFTiCb/qlx00y9UgaO1WarWSbuqeMooRIr+Z/egaNjO10yFST4+Siakr+E3jlIZm9GZvRmb0Zm9GZvRmb0Zm9GZvRmb0Zm9GZvRmb0Zm9GZvRmb0Zm9GZvRmb0Zm9GZvRWSeVB1DqVDdsq6UZMyM0uRdxKDkLRDtEGSUIMBgMBgMBgMBgMBgMBgMBgMBgMBgMBgMKhNk5VDaCNUIoJtycrhQYUGFBhQYUGFBhQYUGFBhQYUGFBhQYUGFBhQYUGFBhQYUGH+NL//EADwQAAEDAAQKCAYBBAMBAAAAAAEAAgMQETRxEiExMkFQUXKSogQTIjAzQIGCICNCUmGhsRRikcFDkNFz/9oACAEBAAY/Av8ArPq6zDOxmNdjo5N7lZuZWbmVm5lZuZWbmVm5lZuZWbmVm5lZuZWbmVm5lZuZWbmVm5lZuZWbmVm5lZuZWbmWPo3Mu2x7P2q4pA67WeE849Ddq7TsFn2jzOExxaRpCEfSvR+sTI70G1GSQ1k0YTvls2ldsveb14Z4l4Z4l4Z4l4Z4l4Z4l4Z4l4Z4l4Z4l4Z4l4Z4l4Z4l4Z4l4Z4l4Z4l4Z4l4Z4l4Z4l4Z4l4Z4l4Z4lmuHuVcEvo9YErC00Do0p7JzDs1gWg9iPEKB0idtZOa0+Z6uQXHYjE/0O2hrjntxO1dJJ9raGsOaMbvNmQZ0eP0odFoeNXO/JFEz7h5tzTpFVEN+rvcKJ7x5wqHe1d7hRPePOFQ72rvcKJ7x5wqHe1d7hRPePOFQ72rvcKJ7x5wqHe1d7hRPePOFQ72rvcKJ7x5wqHe1d7hRPePOFQ72rvcKJ7x3vbka28rFNHxLF3pUO9q73Cie8d3gjtyfaNCxyYLdjcVNccjm3FYPSRWPuCD2ODmnSO7Kh3tXe4UT3juuphPzDlP2qs0YETC4/hYckRDduWnbGc5qD2GtrsndFQ72rvcKJ7x3L5T9IRe41udjNPWfU841URWCpIxka4ik9GccRxt7oqHe1d7hRPeO5ih24zS7pXWVEV9mpMvP80dJaX4Ia4lPjrrwXVUMkH0mvuiod7V3uFE947lo/spkucmXn+aOmX/7U/8A9D/NMR/sHclQ72rvcKJ7x3Mb9raqZeik48f+CndE6UC0V4iiY39Y/QApemT4sPHj2J7/ALjXS1uwVdyVDvau6oOwcddatDeFPBeH4X47nCGWPHSJYzjCDekNwX/n/wBQfIMejCxrqohgxfzSwfS3tHurQOFMl64HBNdVWuaisXhuzTST0qrrA7FXWh1zw6rJlRqyUVBdrxH43a2wnuDRtKxOMm6F2ejn1crNzqzc6s3OrNzqzc6s3OrNzqzc6s3OrNzqzc66t7OrJyY8qMcgrBVedHocPhDGNLnHQF1s2OTQPtRkkPptVm51ZudWbnVm51ZudWbnVm51ZudWbnVm51ZudWbnXbje39r5UoJ2adTmOLtyfoLCleXd+IulG5//AKtBBVba4j/auxMw34ljfGvnTE/hoVUUYau2a3aGjKsN+TQ3Z34bN8xn7CEkbsJp1IejwHtfU7Z5L5b+z9pyL50Rb+W4141V4VoauyXPuCqiAiH+SsJxJJ0nyOE3G36m7U2SM1tOoi8ZxxNVZxk6q6lx7En6Oour0Rj9902aZuGX/pMdFia/Rs+ERsFbnZFh1tdVlAoDdpWAYWu2k5U+JuQZKOsFTW7TpWBJ6EafhbFXUNJREVbX6DXThBjiNtXdVqOXSRj1DI/7nE/HhPlDXH6ak6J47TaId1Q3mhzpCcBmzSjNBWMHKDQN00G9M3hQ+4UQ7qhvNDi8kMbs0rroXGoZQaBumg3prTpNSDGipo0KRrBUMtHWyPwAcgCAJwmuyH43s+12oD8bN6h9woh3VDeaJd5TXUDdNDr0zeFD7hRDuqG80S7ymu/3QN00G9R7wok9P4oh3VB6/HP6agN3xs3hQ+4UQ7qhvNEu8prqBumh16ZvCh9woh3VDeaJd5TXf7oG6aDeo94USen8UQ7qg9fjn9NQuZsNXxVhVyNcH7AE6YiqvRRDuqG80Pildg4WMEp0LHh7n/aclA3TQ69M3hQ+4UQ7qhvND45Tgh2MFGGJ4e5+zRQN00G9MJ0OFElX4obDOcEsyGrKmiPMZp2/HI/a6rULjof2u6ZHhAPZiIUcTHYRZlq+FsrcoVUURDzt0UNdsKEjHAtOlSOYaxkro6mVhcBkIQODgsbkHwte/NyFGTrWu2AHKq6OrbMcFVnL3UbTlqrOocJo7ceMeUqr8uKx2GY3ajM8Q+W7KPt1SI4xW4oRty/Uduo6iKwUZOiitv2bFUcR1NVG3s6XHIqm43HK7bqb5keP7hlXyZvRwWLAPuWY3iWY3iWY3iWY3iWY3iWY3iWY3iWY3iWY3iWY3iWY3iWY3iWY3iRd1YxbD8JETa6sqzG8SzG8SzG8SzG8SzG8SzG8SzG8SzG8SzG8SzG8SzG8SzG8SzG8SzG8S7cjG/tVvrlP5yKpoqH41wekwDfb/ukRs9TsQjjGIfvXfWSV1V1Yl/yf4Tuqr7OWsd713R21sOVo0LAjYT/pYDcv1Hb3v1/4TY24dbjixau9wonvHnCod7V3uFE9484VDvau9wonvHnCod7V3uFE9484VDvau9wonvHnCod7V3uFE9484VDvau9wonvHnCod7V3uFE9484VDvau9wonvHnCod7V3uFE9484VDvau9wonvHnCod7V3uFE9484VDvau9wonvHcmJrOsIy46lZudWbnVm51ZudWbnVm51ZudWbnVm5kJY8h/XclQ72rvcKJ/TuZQcuGe6edr+5Kh3tXSjZjodGf+QdzhSM7W0LNdxLNdxLNdxLNdxLNdxLNdxLNdxLNdxLMdxIMYMFo0DuJJNgxUMP2gnVxachT4nfSU17cRaawhI31GzzX9PGeyzO/JofOfrxDV/8AURjtNzrqMOM3jasTsF/2u8vhSODR+UYujYhpfQI2+p2BNYwVNaKhrAzdHbW3S0aKamTvAvVocrQ5WhytDlaHK0OVocrQ5WhytDlaHK0OVocrQ5WhytDlaHK0OVocrQ5Wh6re4uP5NGBE2v8AOxYLcbjnO26ywm/LftCxM6wbWrtMcLx5XIuxC8+ir6Q+ofa1YETA0a2yLIsiyLIsiyLIsiyLIsiyLIsiyLIsiyLJ/wBaf//EACsQAAECAwcDBQEBAQAAAAAAAAEAETFh8BAhQVFxofEwUJEgQIGx4cHRkP/aAAgBAQABPyH/AJnEgByWCPkmOB9oIU3FpKWropauilq6KWropauilq6KWropauilq6KWropauilq6KWropauilq6KWropauilq6KWropauiBv9H5R9pyzEw9zXj47nfJHCihcMoh/vuQWEIjFOSAJuD/AFAghwXB7hfPmGcX0f1IWCDRoBvOgQDZALlS5UuVLlS5UuVLlS5UuVLlS5UuVLlS5UuVLlS5UuVLlS5UgDCcBIDinqvCOZg42PB7guLLuB95iOJsBiwYSZ9yTOx8hZhXoDX5DNAsXCcy/ks+3MvEja4Ily5Qg1/BBQDD3QhDDndYY8Ykaij24o+W3f8AlgTigAb/AOe7FARiRDEMkUoYt8gjuFVmfuzBborb+4VWZ+7MFuitv7hVZn7swW6K2/uFVmfuzBborb+4VWZ+7MFuitv7hVZn7swW6K2/uFVmfuzBborb+4VWZ+7MFuitv7hVZn1drJCLsUZCgAOQIl1DBborb+4VWZ9Nx1s3FEi7pZEklyXNj2SgsJe7xqFABB0gwW6K2/uFVmfSNCloP9RJIRyYk2CBDwTOTAEAPFrkBJv6CaBNEch0TBborb+4VWZ9GT2DM4J98HLW2F7dIXMjkYBiDioApNHtNsc5xHRMFuitv7hVZn0SgDGfih/bcfxDEAVUzWDvVgAfFGMuGfmxsjPDQEACIHoGC3RW39wqsz6JDggP2fQuqZrN49DIhiJLt0DBborb+4VWZ9EmB7Y/trKr6D/UywXsu34hUiC4faKNn/kJ+UQ7E/mbACQAiVLv8B0DBborb+3Mmm1wOuUf6nrZEGM3RIQbn8calawqwsCMigi4IGeQIAcFeJF/wncBReP5tMQDl8P70igxTm/1E+PdkfeQEA4NxCNQBifytPEDk8D4msePgurWi6wgAEk3ABX0O0ZDuxsAYkYI+Qa+LyUIb0NH+Kvgq+Cr4Kvgq+Cr4Kvgq+Cr4Kvgq+CnW68FlBb5dA5hFBA4S+8vTCBABEA38Z+lcRBDEWSr4Kvgq+Cr4Kvgq+Cr4Kvgq+Cr4Kvghnq+Efaehk+nM8D2ckCB3E0unGzAGA0HWBILi4opiGGbTFSzaghECMn4eESumQ/6RBuY1P8AiMA6CN1NmDiflOV8mieiwQoB1gSTgsQihRzz92KCSxAw7IW6uG2CfsjLeQoHAJaBD7hkIEGc/DehV96f2h5POKCaJYjk+xGzuaAJpobpdiFlT5ozOSHJOPaiR9MNnsRWphvlH+dKLyQBNwJ+p1fLuHpdNxgRyJ4OWXsOOiIILujc73yjSEtF2RvsebDj6SaOLw8AHpLeqvyAEyhRePczRDFjhYTCGIEw6QJABYiC/WGx7Ccz+h6ooXAZ4jalMsiMbKqaokrBODV0RIoVwfPdYNiXNcqJnZRcrAZYb+m6wLau+IkdHWX7/I9Ct6QoUGXlCRiMAQdFywYOHsMM+Dl5mmYqdtvWUxL0I7Bc0z69k+7KllZVTVElZtX0tg+x6Ob4qJnZRcreosrNr+lsH09Ct6VKzs2n0WbGt5/PrO6n/fYN+9dQzsrWVlVNUSVm1fS2D7Ho5viomdlFyt6iys2v6WwfT0K3pUrOzafRZsa3n8+vff32A3hkc1E+71EFEBcI0QqL3AJkryU3ZBhZVTVElYBwJiBPkrkOhEY/o5viomdlFyt6iysfDsEwBmmxiOb4B3j6Fb0hHzAg+VEOE6p2ZsLDkBGcEB8IPpvGIRH1kyL8B+9hO1Yb+79JtEXJv1QiTgmTgPh6RVg4JxCOQKZzDf6UU9EBFC4E95Q8yAYsLABm7uiuLCz1+vpufyBJk+KgY1xkoTmawWGAGDgEj5REQkryTj0jizH8o39hJfb5QYj2gGQEAYh/bmplXdjJeLXWL/O0ubar6gr812M5GAYg4rFSRxaM0RAIIg9muuNCJouO49mCLo6TyV+Tc0nCOXNH/S4ouKLii4ouKLii4ouKLii4ouKLii4oj0IAcgJPpuafeJYBcUXFFxRcUXFFxRcUXFFxRcUXFFxRcUQyD4IzdcnJHA2dPghcQUADAd4bhMQfS0Rc8AM0yMiHEsz3vA2rh1S/aPmDgo9SKNzb0JH/AIg4wJvLXakP3534pdUnEYa4qF2jrvcKrM/dmC3RW39wqsz92YLdFbf3CqzP3Zgt0Vt/cKrM/dmC3RW39wqsz92YLdFbf3CqzP3Zgt0Vt/cKrM/dmC3RW39wqsz92YLdFbf3CqzP3Zgt0Vt/cKrM/dmC3RW39wqsz92YLdFbf3CqzP3Zgt0Vt/cKrM+iYnczuAclVwVXBVcFVwVXBVcFVwVXBAXvuS/KLQYBBiWXQMFuitv7dGsjuJ/30QutiNekUAuI3gdAwKvaiv8AbucBEB4l7BHDC51FHo/MemJXJFyRckXJFyRckXJFyRARdzUkPCCwwOgAkWJRqNwsMwXGfDf3twGXCxCiUMajBFDvQRD74ZzL3Q24M5Ci6ww3eXwj9+u3lC8CwDHN8WQQDHgCGgDGMx+M/bl4vxJlfJJcS4nSy7vBv3hXIQDuD25vjtMrQkhIVQBUAVAFQBUAVAFQBUAVAFQBUAVAFQBUAVAFQBUAVAFQBUAQNj8BZTD89YMvGOAJrN+MQu5HTfeDcdQjR1VfaKIMdmBOyKdkU7Ip2RTsinZFOyKdkU7Ip2RTsinZFOyKdkU7Ip2RTsinZFOyKdkUDQI/CN/OFg8lFgPrB8oFEOWPdpDwpTwpTwpTwpTwpTwpTwpTwpTwpTwpTwpTwpTwpTwpTwpTwpTwpTwpTwpTwmCAH/NL/9oACAEBAAAAEAAAAAAAAAAAAAAAAAAAAAAAAAAAAAAAAAAAAAAAAAAAAAAAAAAAAAAAAAAAAAAAAAAAAAAAAAAAAAAAAAAAAAAAAAAAAAAAAAAAAAAAAAAAAAAAAAAAAAAAAgAAAAAAAAAAADAAAAoAAAAAAABAAAGAAAAAAAAEAAAAAAAAAAAAIAAAAAAAAAAACgAAADAAAAAAAEAAAAIAAAAAAAIAAAAQAAAAAAAQAAAAgAAAAAAAgAAABAAAAAAABAAAACAAAAAAACAAAAEAAAAAAAEAAAAIAAAAAAAIAAAAQAAAAAAAQACAAgAAAAAAAgAVQBAAAAAAABABkwCAAAAAAACAGQAEAAAAAAAEAIFAIAAAAAAAIADZAQAAAAAAAQACkAgAAAAAAA4ABIBQAAAAAABAACQAgAAAAAAP/wCAX/wAAAAAAYAD8gAHAAAAABAAACAADAAAAAAAAAAAAAAAAAAAAwXYMAEAAAAAwEoiw+IAAAAABABTEpygIAAAAAASmJTlAAAAAAGBEMS3yAAAAAAEAYTkAgBAAAAAIAACAAACAAAAAYAAAAAAQAAAAAYAAAAABgAAAAAH/wD4P/5AAAAAAAgAJgAQAAAAAABwAcADgAAAAAACAAIAEAAAAAAAEAAAAIAAAAAAAIAAAAQAAAAAAAQAAAAgAAAAAAAgAAABAAAAAAABAAAACAAAAAAACAAAAEAAAAAAAEAAAAIAAAAAAAIAAAAQAAAAAAAQAAAAgAAAAAAAgAAABAAAAAAABAAAACAAAAAAACAD/wABAAAAAAAAQAAIBgAAAAAAAgEAABAAAAAAAGgAAAAAAAAAAAEAAAAsAAAAAAAI/wD/APhAAAAAAAAIAAA0AAAAAAAAP/8A/gAAAAAAAAAAAAAAAAAAAAAAAAAAAAAAAAAAAAAAAAAAAAAAAAAAAAAAAAAAAAAAAAAAAAAAAAAAAAAAAAAAAAAAAAAAAAAAAAAAAAAAAAAAAAAAAAAAAAAAAH//xAArEAEAAQEFBwUBAQEBAAAAAAABEQAhMUFR8BBQYXGBwfEwQJGh0SCxkOH/2gAIAQEAAT8Q/wCZyIAEqsBWM1GgOtJDACD+Af8Aa8jr5HXyOvkdfI6+R18jr5HXyOvkdfI6+R18jr5HXyOvkdfI6+R18jr5HW6iKZRw3wB8W/VQs4lPkLx1N52U1Zdv2ONOQltSE45uf17lVVSkHUqwmAKBeHDmdc6BABIjIm8LAovML3H7wpsj+hwDANhCWuknne/MUDzYo6QE/daj71qPvWo+9aj71qPvWo+9aj71qPvWo+9aj71qPvWo+9aj71qPvWo+9aj71qPvWo+9aj71qPvTFPxb7miIQuIt6XagTK0BYMxuTlsdUiR5DcnDJs5bvlMOiNn6RHINghgB1gwLFcDC/l7gbb2h1xg/7Q+YDIHuGr6QERGRMKfrKNF3UQ/O7mXQw+Oz7JSIiqyrjVoMZZ4XVg60AAAFgGHujgtmC1wfi3psujjuv/j8N3CFiX5bA9S37IVP+PdjBJRwRKZm9JSnXj5d03df679mkZe73nKtWzrROO7r/Xfs0jL3e85Vq2daJx3df679mkZe73nKtWzrROO7r/Xfs0jL3e85Vq2daJx3df679mkZe73nKtWzrROO7r/Xfs0jL3e85Vq2daJx3df679mkZe73nKtWzrROO7r/AF37NIy93vOVatnWicd3X+u/ZpGXq9IE5tcKdJf9oo1XKkfUvOVatnWicd3X+u/ZpGXp3LEGAP8AFyvoWbXOgZKWvVpEpL1ZXYZPmbYHmXPWgdvZZuMFj0jk0DYZZI+lecq1bOtE47uv9d+zSMvSoSko8TLi+i3KnwOlEq5uy0qVFcZrcHFqKAfbhJjrtAAJa2J9A+7qBcHGh9G85Vq2daJx3df679mkZejIobzx7B1UpLbKcV2hjyMNskOSxetJ8INIG8axHMciD62zZAZW4uOZb0c/RvOVatnWicd3X+u/ZpGXo4iQK4WP9fDaLcTagvMs3tu3ooxiklYhElEYSiQSCfrYgaWExBtOpJTlSEjmehecq1bOtE47uv8AXfs0jL0aGwfrt9G47elpTS60HNtvBmc0+hecq1bOtE47uv8AXfs0jL0cZrRPij27SyBCMbBJyl9UyUICDb7C1USJ4tICOicFJYfdIaU4EMJ6k2cuNClCYyke+wypSAMWvE/B29C85Vq2daJx3cjUJBFk2RPHZAl0lFr5mufo2SVYFrd+sO1dAYq3FBiNWB3TAiwwk4McqmVQjkRMWxvLypHeMCO6Yu4NtsJLwhSHWB6KSJUV2RigfoSSPBM7uy9MMB1BIjeUr07hAxbmf5DtG0ARwQRLmKg2ubQrUTEBkVzKW8ps2JhcAlVuCrPNjwPZm3ivpt267pBJh1aCJcJfoHxNPDAyC+BVOnOnOnOnOnOnOnOnOnOnOnZeS3zYQhyzo1lwSzBJglMhLghwOL6/lgaRILQzR5G3rY8WGGdRfDgnghxqdOdOdOdOdOdOdOdOdOdNdMZtI4VlpFkh9j9VCizG/wCQ7ntC0JtuMXuB1aRzfaI5ZYdPWBIgyIwjUYvhd2QyPlnQzh4CS+kq1YkrtvPZ8RTzJU59Ujmah6C1y8x+Uv0VGtpYk89WtOSilk/icWk1rI3ps3Nx9Yy5EiMI1dktJYcP8H5KuoYXiyTB4bkelQhtpcb7OHO5VZbX2I5bKW2umHSKxw3UTjDCfdAFdxefJUkI4lfRSKB3CD5jVivCLY80g6HWl1BLCOK+xeskFf8AxJg1a5SWKxHJGzcTFF8M5fyCX4zpVIFJU3ruoXYFK2XC63fG4gcskcLxfEOnpRlcrSahYJKxNtFnBpFhXLbCOOX8quhDi9jGrG9uiF8SW7FIACuCsU2wsyi4uI6RThylpQADymOmx1L6u2i+AXcaEy0zTnB7fzM7JMWiljjh1oAXaocIDZDwikYIVCbL9mbucxHpOCQKLxoUkQWcDZ9h3A2E0iUvRFJ/QKAJW4Ki29Sngkv5DVmStGRxE4Ij12aDirW8tiBuhaETZOABbzKMJuwtSEi2iKbAVQYU4WU3UAIQAAc61bJs0DLsIQBZbObQWYmCemzBPdZzLgW6wteVNosFIFAQDFLNmo8Kbq1DOpNiLMkFHomZABhSh0kUCBQYErsk23FpDEpuJKIa0ORi8TBJPn+1amV4AP8Ao7gagvG+qbVf6tm6Rs0HLs0HFWt5bGu5ttrW8tmlZtatk2aBl2fX/wCta5l/LBJqPCm6tQzrXcv8rOaVl/dMtL9bg2i0RTe/1omTZpOXZoOKtby2NdzbbWt5bNKza1bJs0DLs+v/ANa1zL+WCTUeFN1ahnWu5f5WM0rL+953AwIrkiiFhccRHb+mugyZJUalJ2ZKbnjQqIwTMQA+DZoOKtby2HBSJEQinDC2kWb8AgFVLMIjjs1vLZpWbWrZNmgZdn1/+ta5lsGeKFYCEySRbwpfcBEIEtyWIjZqPCm6tQzo8CgcAC0ICCJImNMhgqmCEmx0PCyTJcUS6oYvsEwJYwLCP7YxAA52m4QtgI+Etn0Pz6QhUBZCVAN5DSUInQQCRjYz/KHlZumIR6NI7yGHcSLYcilUqytqtEGVKGMI1ElTAgOOVD0NYSRBThI7JvCzyAsyGJtW2aICYXK1enNg+P5bpEUmIwcGKvAavNFgBopVL0rssQMFHIRJ2pz6qEqb1fSsShLeXJ5CHTcLu2Igtj/yB6cfaXKGhA9PbgzKCpYg2db9TV24npMgN73fTZlulkcABcGKuAZ1F1dpbjvLANxpIAPIG8SkANMv/wArhfzpy4wCEck3MGWDAI6uLwLacxgRegZHDcyZikFhdF/WaSC5LloypsD5xf4K1n3rWfetZ961n3rWfetZ961n3rWfetZ961n3rWfetZ961n3pr6kIDIG2kRhsf4vb4EyBLjwrWfetZ961n3rWfetZ961n3rWfetZ961n3rWfetZ961n3rWfekMPFNRjNMwdID7pcbci8cndaI7cCA4BurL1p9qpNuzD/TrntgRzazi1+Y1AWEvzCZvqt27rv3eJLMWTwrh/DQhyIQMSItcn1EAiSN40+jWROMgeHKo7dFQWawKGUipPDMD1FgmmKTSNmhLx0US4s7uv8AXfs0jL1oBcBy9W85Vq2daJx3df679mkZe73nKtWzrROO7r/Xfs0jL3e85Vq2daJx3df679mkZe73nKtWzrROO7r/AF37NIy93vOVatnWicd3X+u/ZpGXu95yrVs60Tju6/137NIy93vOVatnWicd3X+u/ZpGXu95yrVs60Tju6/137NIy93vOVatnWicd3X+u/ZpGXu95yrVs60Tju6/137NIy93vOVatnWicd3X+u/ZpGXu95yrVs60Tju6/wBd+zSMvRtT+wcmMMpjUqMqMqMqMqMqMqMqMTMStZWq7kwcAvRn6F5yrVs60Tju4K5gr97AtFs0dPRpqB0vWtPSakNNuYJjr6DBm4KQkuW/dFGZH6d3G7JzpL6HZZRBnjbn16IZPiCsmExf19G666666646iDdDfuoH8EgHoBo4iO8JstmvnAPsbum2K7ESGjuZ4XmLqQ1CXTIIzRJhFptx12zPdE9mSsuY5Wurw2RsbRGNa9d3ixYdrTu5v8ctggzEdHnjk4U11lgScV3Rbw9vegQOPulblo0DI3nNt5UsstD8osNhX/jjQxAAYAbvQREkbxpiik6cxGPBhyu2BRK6ZHRsrxP4rxP4rxP4rxP4rxP4rxP4rxP4rxP4rxP4rxP4rxP4rxP4rxP4rxP4rxP4rxP4rxP4rxP4rxP4rxP4piEOUvkK4mMj+XYzS9azPLAofdRBHZBgbyxr0zH02kPOnAAulPlH0pmbXjn2V4avDV4avDV4avDV4avDV4avDV4avDV4avDV4avDV4avDV4avDUnC2QmiQI3N+oPur18F5eDcOk1hUGNqzW9eLvVBISTjXjVeFV4VXhVeFV4VXhVeFV4VXhVeFV4VXhVeFV4VXhVeFV4VXhVeFUKkXI/5pf/2Q==;clipPath=inset(11.67% 20.67% 12.33% 20%);" vertex="1" parent="1">
                    <mxGeometry x="120" y="314" width="156.14" height="200" as="geometry"/>
                </mxCell>
                <mxCell id="8" value="" style="shape=image;verticalLabelPosition=bottom;labelBackgroundColor=default;verticalAlign=top;aspect=fixed;imageAspect=0;image=data:image/png,iVBORw0KGgoAAAANSUhEUgAAAgAAAAIACAYAAAD0eNT6AAAABHNCSVQICAgIfAhkiAAAAAlwSFlzAAAOxAAADsQBlSsOGwAAABl0RVh0U29mdHdhcmUAd3d3Lmlua3NjYXBlLm9yZ5vuPBoAACAASURBVHic7d173Gdjvf/x1z1jGIMxg4wzOzEKySGEdgahosiuZIt+dlsJ2R1p94uU2pScOvzsDmrTASUpUQ4RwnYK4zhymJIZpzFjMAf3zP374xrRzD0z9/da11rXOryej8f14KGudb+/h7XW57vWta4LJEmSJEmSJEmSJEmSJEmSJEmSJEmSJEmSJEmSJEmSJEmSJEmSJEmSJEmSJEmSJEmSJEmSJEmSJEmSJEmSJEmSJEmSJEmSJEmSJEmSJEmSJEmSJEmSJEmSJEmSJEmSJEmSJEmSJEmSJEmSJEmSJEmSJEmSJEmSJEmSJEmSJEmSJEmSJEmSJEmSJEmSJEmSJEmSJEmSJEmSJEmSJEmSJEmSJEmSJEmSJEmSJEmSJEmSJEmSJEmSJEmSJEmSJEmSJEmSJEmSJEmSJEmSJEmSJHVaX+4A0hKsBbwR2BgYv+CfqwMrLGhj80WT/u4Z4HngOeBJ4H5g0oJ/3gxMyRdNWjwLANXJ8sDbgV2BCcAmeeNISdwLXAVcCVwKzMobRwosAFQHWwMHAf8KrJo5i1SmGcCvgLMJBcFA3jiSVL1hwN7ArYSDoM3WtXYXofBdBknqgGHAB4E/k/8AbLPVoT1AKAS8IiuptbYA/kj+A67NVsd2M2HQqyS1xnLAKUA/+Q+yNlud24vA1wj7jFQqLzmpbOsD5wHb5Q4iNchtwPsIt8qkUgzLHUCtth9wJ578pV5tBdwC7Js7iNpreO4Aaq3DgbOAkbmDSA01EngvMBO4IXMWtZAFgMpwNOGev7eYpGL6gD0Ik2RdkTmLWsYCQKl9DTg2dwipZXYiTH99ee4gag8LAKV0NJ78pbLsSFhz4PrcQdQOFgBK5WDgG3jZXyrTW4GHCINrJSm7rYHZlPNc9HzCwe404BDgTcDawJgSX892kVlvLDFT1/2QuM/k4AqyjSF8J3cgfEdPByYSvrtl7BOzgC0reF2StEQrU860vncCnwDWrO6l/N3rIvIOAPdkyNoVvyTuM3l3jrALrAV8kvBdTr1/TAJGV/dSJGlR55P2wHY1sHuVL2AQ6xGX/QWcW6MsdxD3meyWI+wg9gCuIe2+8tNKX4EkvcI+pDuY/YW8v9ZeaXlgHnGvY+MMedtuJOGyd8znsVmGvEvyL8BfSbff7F1tfEkKjyRNJs1B7BxgpWrjL9VDxL2WD+cI23K7EPdZ9FPPiahWAn5Cmn3nYWBUtfEldd2JFD94vQgcWnXwIbqUuNfkc9rpfYu4z+LBHGF78BHCPlB0Pzqh6uCSumtN4i/JvtSeB/aqOngPvkzc65oHjM+Qt61WBJ4m7rP4WYa8vdqbMHak6L40rurgkrrpaxQ7YM0h/0C/pdmV+Nf38wx52+po4j+Hj2bIG2MPwj5RZJ86sfLUkjpnVcLiJLEHqvnA/pWn7t3yxM9tMB/YvvrIrbMmMIP479om1UeOdgDF5g14Flil8tSSOuUYiv1SObn6yNEuIv513kEoIhRnGeB3xL//91YfubBTKbZvfab6yJK65B7iD1A3AyOqjxxtP4odkM/GqZFjFT0Z/mf1kQtbFriF+Nd8V/WRJXXFG4k/OPXTvOlLlwOeotiJ6HQsAnp1JMXe837CZE5NtA0hf+xr36r6yJK64HTiD0zfypA3heMpdjIaAH6Ez2oPxXDgKxR/v8+tOnhi/038az8lQ15JHTCJuIPSHGCdDHlTKDro8aV2F2GRIQ1uI+Aqir/P84HNK86e2nrEPxXgehSSkluX+IPy9zPkTSl2ToCF2zzCuIDXVhu/1tYm3O9PtZrk+dXGL81ZxL8Ha2XIK6nFDiL+gNT0R+JGAY+Q5gT10q/U64CPE8ZFLFvZK8lvOGGipA8DvyHNTHgvtZmEQrUNdiD+ffjXDHnVQMvkDqDG2Cmy3yTgxpRBMngBOIqwJG0KfcCOCxqEKwN/IzzzPjfR36ib4YSlo9ciDK4swxcJC+20wQ2EZbZfE9F3J+DHaeNI6rJrifs18vUcYUtS5LKsrdx2NaHIaJPTiHsvrsoRVlJ7PUncwajO8/33aiRwO/lPdrZ/bI/Tzvve7yLu/ZiSI6ykdlqF+IPzahnylmlj4oshW/o2C3jLEj+x5lqd+Pdl5Qx5JbXQFsQdhJ7MEbYC25Lm0UBbsdZPmK2xzaYR995sliOsmmVY7gBqhJUi+/05aYr6uAnYB3gud5AOmwccClyQO0jJYveh0UlTqJUsADQUsQXAM0lT1MuVwATgidxBOmgOYUXJs3IHqcC0yH6x+6w6xAJAQ7FiZL+2/0K+hfDI1Z25g3TIo4TC6+e5g1Tk2ch+XgHQUlkAaChin9uekzRFPT1AmOL3jNxBOuAKwmI5N+QOUqHYfaisuRbUIhYAUnGzCRMFvQN4KHOWNnoSOATYnfDIn6QELACkdC4hjL4+DpieOUsbzAa+CWwC/IAwul1SIhYAUlqzCFPSbgB8DpiaNU0zPUtY1nZD4EjiB8JJWgILAKkcMwhr269LmA3xPNo/KLKIOcClwAHAGsAngceyJpJazsWApHL1E1a9+w1hf9uWMIp9S8KqeBvRvQFb/YSxEvcTnqC4CriecPVEUkUsAKTq9BNOdNe/4r8NJzyyNYbw7PaIDLmqMI9waX86YRbFF/PGkWQBIOU1jzBhUpsnTZJUQ44BkCSpgywAJEnqIAsASZI6yAJAkqQOsgCQJKmDLAAkSeogCwBJkjrIAkCSpA6yAJAkqYMsACRJ6iCnAs5vJLB87hBLsUJkv2WBsSmDFDAd15OXpL+zAKjGMOANwM7A5sAmwKuBVQmLwbTVexe0ungBmApMAu4DbiKsRDc1ZyhJysECoDzDgF2Agwjrwdfll3CXjSIUXq8G9nzFf58InAf8CJicIZckqQVGAf8B/IVwydnWnDYPuBR48yKfqpTHOcR9lw/MEVbN4iDAdIYDHwMeAU4F1s2aRjGGEa4MXANcDWyZNY0klcgCII3tgFuA04FXZc6iNN4C3AycAayUOYskJWcBUEwfcBRwLWGQn9plOHAkcCt+vpJaxgIg3orAxcBpwIjMWVSujYAbgINzB5GkVCwA4qwCXAa8PXcQVWYk8APgC5lzSFISPgbYu9UIg8RemzuIKtcHHEconI/NnEWSCvEKQG9GAb/Ck3/XfR74eO4QklSEBcDQDQN+BrwpdxDVwsnAO3OHkKRYFgBD9xm856+XDQN+CGyQN4YkxbEAGJrtgC/lDqHaGQv8GPcjSQ3kIMClGw6cSbnv1TMlbluwHGH8Rhl2AA4lfEckSS3yMdLON38v8F+EmebWISyZq/KtRBi8uT9wLjCDdJ/pNJwBUuVwLQApk1HAE6Q5SVyDAwjrZDnCok1Pkebz/Wq18dURFgBSJv9Bml+H7646uIZsZeA7FP+cZwKrVpxd7WcBIGUwjLA2fJGTwn3AxlUHV5TDgRcp9nl/rvLUajsLACmD3Sh+8h9beWoVsR8wn/jPfFL1kdVyFgAqjY8vLd5BBfo+Q5gkxtH9zXIBYarfWBsB2yfKIkmlsgAY3DBgrwL9/w1/DTbVCYSFnmI5O6CkRrAAGNwbiL98fy1wYcIsqtYA8CnCrYAYExJmkaTSWAAMbucCfY9OFULZTCTM8BdjG8KcA5JUaxYAg3t9ZL97gBtSBlE2Z0X2WwZXi5TUABYAgxsf2e+ipCmU07WESYJixH5/JKkyFgCD2zCy32+TplBO84ArIvtulDKIJJXBAmBwsQMAH06aQrk9FNlvTNIUklQCC4BFjSRu5b/5wNTEWZTXY5H9RidNIUklsABY1AqR/WYQppJVezwe2W/FpCkkqQQWAIvqi+w3L2kK1UHsXACx3yFJqkzMpW7lNQL4Z2AzYBzdKuJmAY8CVwMP5o0iSc1mAdAsHwK+BKyRO0gNXEZYrvne3EEkqYm69OuxyfqA7y5onvyD3YEbcepdSYpiAdAMnyH8+tc/Gk1YwW/93EEkqWksAOpvHPD53CFqbCzhtogkqQcWAPX3HuIfTeyK9+ICPJLUEwuA+tsud4AGWI74BZwkqZMsAOpv1dwBGmK13AEkqUksAOovdkW6rnkydwBJahILgPq7IXeABpgF3J47hCQ1iQVA/f0cmJk7RM2dC7yQO4QkNYkFQP09CRyXO0SNPQUcmzuEJDWNBUAznAp8M3eIGnoG2JewPoAkqQcWAM1xJPAB4C+5g9TAAPAr4I3AdZmzSFIjuRhQs/wI+AmwPbAFYSrcLpkPPAb8AX/1S1IhFgDNMx+4fkGTJCmKtwAkSeogCwBJkjrIAkCSpA6yAJAkqYMsACRJ6iALAEmSOsgCQJKkDrIAkCSpgywAJEnqIAsASZI6yAJAkqQOsgCQJKmDLAAkSeogVwNsrjHAKrlDVKwfeAKYnTuIJDWdBUCzrA4cDbwXWCdzllzmATcA3wbOIyyPLEnqkbcAmmM34D7gE3T35A8wHNgJ+AlwCeFKiCSpRxYAzbAd8GtgbO4gNbMHcCEwIncQSWoaC4D6Gw6cBYzMHaSmdgYOzx1CkprGAqD+3gG8LneImvsk0Jc7hCQ1iQVA/e2eO0ADrANsljuEJDWJBUD9rZ87QEP4PklSDywA6m9O7gANMSt3AElqEguA+rsvd4AGGADuzx1CkprEAqD+fpE7QAPcBDyaO4QkNYkFQP3dBlyUO0TNHZc7gCQ1jQVAM3wIeDB3iJo6Cfhd7hCS1DQWAM3wFLADcHnuIDXyAmFa5GNyB5GkJnIxoOZ4gjAnwK7A+wjPvY/Lmqh6c4C/Ab8Hzl7w75KkCBYAzXPlgiZJUjRvAUiS1EEWAIsaiOznXPSSpMawAFjU7Mh+rtbXPitE9ns+aQpJKoEFwKJeAOZF9Bu1oKk9XhXZb2bSFJJUAguARQ0Az0b06wM2SZxFeb02st+MpCkkqQQWAIN7OLLfHklTKLfdIvs5aZOk2rMAGNykyH7vSppCOW0NbBDZ14WJJNWeBcDgJkb2eyOwUcogyub9kf0GgHtTBpGkMlgADO6ayH7DgBNSBlEWawOHRfadCDydMIsklcICYHA3A7Mi+74H2DZhFlXvBOKf6LgqZRBJKotTAQ9uDnAJsF9E3z7gx8B2wLSUoVSJ/YGDC/S/JFWQlhgGjFnQVgRG5I3TOKtG9tuAMI6lzmYCzwHTCY9fq2LOXrd4+wE/L9D/SmBPoD9NHFVga+BaYPnI/lOAdYmbR6IN+oDNgQnAjsDGwHicJEtL9zfC4Nm7CIt9/YFQGEhZjASeJAzqim2/AVauOriiTCAsu1zk8/5a5anrYUvgVEIBVOT9s9leav2EQuCDwEpIGXyB4l/ke3CCoDrrA44A5lLsc54LrF9x9pz6gHcCN5L/ZGFrd5sJnAysiVShVxHmdS/6BZ4LfANYvdr4WopdgFtIc5A6q+LsOe0E/In8JwZbt9os4CTi1+iQevYF0n2BZwI/Bd4HjK7wNehlmwDHAP9Lus91NrBhlS8ik7HAD4D55D8Z2Lrb/kK4+qSCHAS4dKOA+wiDu1KaT/giP8bgI2DnA48DdxAGI05O/PcXNgLYG9iV8FpjB8LV1WqEkdFjStj2l4BjS9hunWwHnEv87IhSat8APk14aksqzV7k/dUzFzgFWLak1zcBeCjj62tye4D2FUsL+xDFx0jYbGW0m/DWqirwbfJ/2S8j/XPU/04YcZv7tTWxzQG26f0tb5T/xEv+tnq3B4BXI5VoFOkGjBVpJyV8TR7ci7WP9f6WN8oXyf8e22xDaY/i7SmVbC3CffucX/TZC3IU0Ud4bjv3Ttvk9q2e3/VmOYL877HN1ku7n/DkllSazQiD83J+0T9aIP8I4OzM+Zvefka719F4O2E2w9zvs83Wa7sOp5tWycYTLjnl+pKfGZl7OeAXGXO3oZ1Duw8w61B8BkybLWc7Ealk/wTcTp4veMwaBWMJ1XHunbPJ7STa/ehsH2E1w9zvs81WpM0nPM6spXA1wHgPExY8+R5hBbkq9XoSWgv4LWGhFvVuBvBvwAW5g5TsIGDnkrb9HOGq2fMlbV/NMgwYR3iEL/V5qI/w1NbrcY4AVeD9VHvZtJcT0Ub4jH+RdiXdeMRoDGnHtkwGziBMt+zUrVqcYYTR+x8Bfkfa+SY+V93LUNetTqg6q5gwZagFwJbA1ArytLE9SijsuuLzpHnf/gr8H2B4tfHVEv8E/Jg0g1CfwdVYVbGNCfOlz6K8k9NQCoCdCZeuc59Im9YeITxl0aU17Fek+FLIA8BptH9WRFVjW8K+WPQ76VUAZbEaYZ7qm0k/2c7SCoB9KLcAaVubRZjnfi+6OS7moxR7/+YQxkhIKa1O8YHLU2n3UztqgHUJ86l/D7iTMJlPWQXAITi179LaFMJo9xOBtxJmeeyyIisjzgfeU31kdcRI4EaK7e97VZ66Idr8SFPdrUG4x3xKRN9fAPsN8t+PBv6LdJ/rC4QZ4TYmLKHbqyupzzO50wnLMU8l3BpRMJ6w2mWs4wlLZktlWZNwJXXtyP7nE5Zgl2rl3aS5AtAHnBy5rcW1p4E3Ldj+gZHbOKfY26MKfIL478g1+CNC1ZhA/Pd0Ot28tbdUbZ7OtCuGA98BPplwm1MIj2/dkHCbqqddCvQ9hnCAlcp2FXBJZN+Vga0SZmkNC4BmWx64kDC+IJVJwA7AHQm3qXoaBrw5su8vgesTZpGW5rMF+r4lWYoWsQBorjGEiTP2TrjNWwknhEcSblP1tR4wOrKvt3dUtTuJ/2GyacogbWEB0EzjgKuJ//U2mKsIl4OfSLhN1dvGkf1mE4pPqWq/jOy3SdIULWEB0Ew7Alsk3N4vgLcBzybcpupvw8h+1+Oc/srj8sh+XZjOu2cWAPofwiMyLprRPbHTpE5OmkIautjv3pikKVrCAqDbziDM296fO4iyWDGy32NJU0hDN5WwTkCvRtCt6b2HxAKgmwYIz38fhY9xdVnsDIjTkqaQhq6f8Fx/DFelXIiTI3TPPOBQ4KzcQdRYFo3KKfb756RVC7EA6JY5wAGEQX+SpA6zAOiO6YQ5A67LHUSSlJ8FQDdMJTzmd3vuIJKkerAAaL+Hgd2BP+cOIkmqD58CaLe7gJ3w5C9JWogFQHv9gXDy95ltSdIiLADa6deEe/4zcgeRJNWTBUD7nA28G5iVO4iUyHDgYMICRFMJz4Hb8rVZwH2EmUQ3WsLnppqzAGiXM4AP4tS+ao8NgFuAHxIGs47LGUZAmFJ3PHAkcDfwmbxxFMunANphADgG+GruIFJCawDXAOvmDqLFGgGcBCwHfClzFvXIKwB5pZhStR84BE/+ap8z8eTfFMcDW+cOod5YAOQ1pWD/OcD+hMujUptsCrwrdwgNWR/w2dwh1BtvAeQ1iXAVIGaRihnAOwmXSKW22St3APVsT8I5xTFIDeEVgLymAZdE9HscmIAnf7XXa3IHUM9WANbMHUJDZwGQ35cJS/QO1UPAjsCfyokj1cL83AEUxaWiG8QCIL8bCI/TDMUdhJP/g+XFkWrhodwB1LPnCfM0qCEsAOrh/wEfYvEz9w0A5wBvxh1M3XBx7gDq2W/x/n+jOAiwPr4PXAjsC+wGrEa4NfBH4ALgnnzRpMrdDfwS2Cd3EA3JfOAruUOoNxYA9TKNUAh8P3cQqQYOIzxb7lwA9XcscFvuEOqNtwAk1dVUwm0vTyz1NRf4NGEwsxrGKwCS6mwysC1wwIL2BsJ6ADFzZyiNWcAjwGXAN3BQcmNZAEiqu3mEQbDn5A4itYm3ACRJ6iALAEmSOsgCQJKkDrIAkCSpgywAJEnqIAsASZI6yAJAkqQOsgCQJKmDLAAkSeogCwBJkjrIAkCSpA6yAJAkqYMsACRJ6iALAEmSOsgCQJKkDrIAkCSpgywAJEnqIAsASZI6yAJAkqQOsgCQJKmDLAAkSeqgZXIHkKQhGgVsAqySO0jHzQX+CjycO4iKsQCQVHcbA8cD7wKWz5xFL3sA+DrwfaA/cxZF8BaApDrbF/gTsD+e/OtmI+BM4BJgdOYsimABIKmudgLOJVz6V329lfA59eUOot5YAEiqo+GEX5fL5g6iIXkb4SqNGsQCQFIdTQA2zR1CPTkidwD1xgJAUh1NyB1APdseb9c0igWApDpaK3cA9WwYsGbuEBo6CwBJdTQzdwBFmZE7gIbOAkBSHU3MHUA9ewx4OncIDZ0FgKQ6ugiYlTuEenI+MJA7hIbOAkBSHT1BmGVOzTANODF3CPXGAkBSXR1PmGVO9TYbeB/weO4g6o0FgKS66ifM/38SMCdzFg1uIvDPwBW5g6h3LgYkqc76gWOAbwL7AVsB4wgzBSqP54BHgN8BlwHzs6ZRNAsASU3wKHB67hBSm3gLQJKkDrIAkCSpgywAJEnqIAsASZI6yAJAkqQOsgCQJKmDLAAkSeogCwBJkjrIAkCSpA6yAJC6qz+y3/JJU0i9if3+vZg0RQtYAEjd9VxkvzWTppCGbgywQkS/AeK/761lASB118zIfhYAymWtyH4vAPNSBmkDCwCpu6ZG9ntD0hTS0G0Z2e+xpClawgJA6q77I/ttCGyeMog0RPtE9puUNEVLWABI3TWJcG80RuyBWIq1PLBHZF8LgEFYAEjd9Rxwd2TfI4HRCbNIS3M4sFJk3+tTBmkLCwCp234f2e9VwCdSBpGWYAxwTGTfAeCahFlawwJA6rYrCvT9FLBpqiDSEnwdWDWy7x3AEwmztIYFgNRtvwOejuy7AnAx4WqAVJaPAYcU6P/TVEHaxgJA6ra5wM8K9N8AuAAYmySN9I/eQ/j1H2s+cF6iLFInHUi4j9ZrOydHWPVsK+I+31e2+4HxVQdXa/UBxxFO4EW+lxdVHVxqGwuA9ruU4kXAdMK4gJEVZ1e7bAFcTvHv4wCwQ8XZpdaxAGi/HUlzwB0AJgNHAGtX+grUZMsAEwjHjHmk+R5eXukraKBlcgeQVAt/BM4F9k+wrfWAbwBnALcANwJTgL8BsxJsX72bBfwVmEi4rF6FVYDXAeMYfLzZOMK6Eq8G3kr8KP/B9AMfT7g9qbO8AtANawEzSHclwFa/NhX4v5R7m2YL4NeE5Xdzvc7TS3x9UqdYAHTHIeQ/SdnKb7cB65LeQcCczK/tHmBUCa+tdXwMUNIrnYWFWxdsCVwHbJJwm3sQvj/LJtxmr2YTfrC8kDFDY1gASFrYYcCtuUOodOsB1wJvTLCtZYFvA8MTbCvWAOEK1m0ZMzSKBYCkhT0PvB14IHcQlW414Epg14Lb2YMwmC+nY3HWv55YAEgazBPA7sCDuYOodCsBvwH+pcA2JiTKEus44ITMGRrHAkDS4jxCmB/gT5lzqHzLER4D/XBk/zUTZunFfMKqlF/M9PcbzQJA0pI8DrwF51PvguHAmcDnIvrmGPg3HdgLODXD324FCwBJSzOTMEHQYTi6ugtOAE4jzMdfV9cA2xCmsFYkCwBJQ3UmsClhkhe121HA2cCI3EEWMh04kjDmwPEpBVkASOrFI8A7gbcB1+eNopIdCFxIPSbVmQ2cDGwIfJPqpjNuNQsASTF+SxgguAtwPuEArfZ5B3AZMDbT338EOIYwa+GngWmZcrSSiwFJKuKqBW0MsC9hUZcJwBo5QympHYE/EJ71n1Ly3+oH7iYUmBcCNxEm+FEJLAAkpTAd+MGCBmFSmPGEqWbXAkYDK+NVx15tC6wf0e8mwsl0h0Q5NidMHbwH8OdE24SwZO/1wKPA/YRZ/J5PuH1JBbkYkJTHOcTtewcSRvGfGtl/cW0qYR2BhV0Qub13F3t7VITVuCS10wDwccI99FTGER7B2y3hNpWJBYAktdtJwBGkGzm/InAxsF+i7SkTCwBJar9vEW4LvJhoe8sRZof8UKLtKQMHAUpSN/yUsMjThYQFgIoaDnwHWCXBtpSBVwAkqTuuJIzkT/U8fR/hFsPuibanClkASFK33AC8mfDoXSorJtyWKmIBIEndcw+wE+HZe3WUBYAkddNkwkRB/5s7iPKwAJCk7ppGeKb/8txBVD0LAEnqtueAvYGf5w6ialkASJLmAPsD380dRNWxAJAkAcwDPgwcnzuIqmEBIEl6yQDwBeAo0k0drJqyAJAkLewM4GDSTR2sGrIAkCQN5keE5Xpn5Q6iclgASJIW52JgT2BG7iBKzwJAkrQk1xBmDfxb7iBKywJAkrQ0dxHWD/hz7iBKxwJAkjQUDxOKgNtzB1EaFgCSpKGaCkwArs0dRMVZAEiSejGdMDDw4gTbmptgG4pkASBJ6tULwL7AOQW389cEWRTJAkCSFKOfMFnQaZH9/0IYXKhMLAAkSbEGgI8Dxyz4916cQlh/QJlYAEiSijoJ+AhDP6FfC/x3eXE0FBYAkqQUvgO8B3huKf+/G4B9gNmlJ9ISWQBIklK5EHg98F3gqYX+t4nA4YRZBadVnEuDWCZ3AElSqzwMHAocBqwPjAYeB6bkDKVFWQBIksowD3godwgtnrcAJEnqIAsASZI6yAJAkqQOsgCQJKmDLAAkSeogCwBJkjrIAkCSpA6yAJAkqYMsACRJ6iALAEmSOsgCQJKkDrIAkCSpgywAJEnqIAsASZI6yAJAkqQOsgCQJKmDLAAkSeogCwBJkjrIAkCSpA6yAJAkqYMsACRJ6iALAEmSOsgCQJKkDrIAkCSpg5bJHUBqkFcDawPL5Q6if9APTAEeAOZnziI1hgWAtGTLAh8BjiIUAKqvKcD3gK8BMzNnkWrPWwDS4q0KXAmcjif/JlgT+DxwM/CazFmk2rMAkAY3ArgQ2Cl3EPVsPHApMDZ3EKnOLACkwR0KvDl3CEV7DeFqgKTFsACQBndE7gAq7N+BkblDSHVlASAtam1gk9whVNiKwLa5Q0h1ZQEgLWqt3AGUzNq5A0h1ZQEgLeq53AGUjI8DSothASAt6mEsAtpiYu4AUl1ZAEiLmg1clDuECrsRmJw7hFRXFgDS4I4HZuUOoWjzgc/mDiHVmQWAXGo+CwAABNVJREFUhmJuZL9lk6ao1gPABwnzzKt5PgtcnTtEArHrTsxJmkKtZAGgoYgdSLVS0hTVOx/YE3godxAN2RPAAcBXcwdJZHRkv2eTplAruRiQhiK2AGjDVKxXAq8F9gJ2BdbDyWXqZi7wGPAH4Je0awDnKpH9fPpBUhKvBwYi2lM5wkotMo24fW+zHGEltc8qxB2EBoDVMuSV2mAc8fvdyhnyqmEcA6ChmAY8Gdn3TSmDSB0Su+9MAWakDKJ2sgDQUN0f2W9C0hRSd8TuO7H7qjrGAkBDdW9kv72AvpRBpA7oA94R2fe+lEHUXhYAGqrrIvttBGyfMojUATsCG0b2vTZlEElah/gBSWdlyCs12Q+I29fmA2tmyCup5e4n7qA0F1g/Q16pidYjzOQXs6/dnSGvGspbAOrFpZH9RgDHpAwitdjniZ9GO3YflaQl2ob42wDzgG2rjyw1yjaEfSV2P3tD9ZEldcXdxB+cbqHZCwRJZVoWuI34/Wti9ZEldcnRxB+gBoBTqo8sNcLpFNu3Pl19ZEldsgphpbHYg9R8wmptkl72AcK+EbtfzaAdi29JqrmTKPZLZQ6wR+WppXrak/CkTJF96iuVp5bUSeOAFyh2wJoN7Fd1cKlm9qb4vvQ8sHrVwSV115cpdtAaAF4EDqs6uFQThwP9FN+Pjq86uKRuGwU8TPGD1wDwE2ClauNL2YwGziXNvvMgsHy18SUJ3kWag9gA8BhwULXxpcrtDUwm3X6zV7XxJellqX7JvNSuJQyKktrkbcAfSbuv/LjSVyBJCxkNPEDaA9sAYVKTTwFrV/dSpKTWITybP5H0+8f9eNtMBblOu1LYCrgeWK6k7d8N/B64k3DgmwzMBJ4p6e9JvRhLKITXA8YDWwC7AK8r6e/NBt4E3F7S9tURFgBK5QPA/+B3SirTAGFf8/K/ChueO4Ba407gaeDtuYNILfYp4Du5Q6gdLACU0k3ACsCOuYNILfRV4Eu5Q6g9LACU2uWEe5S75Q4itchJwDG5Q6hdLABUhj8CTxEe53NMgBRvHnAEcGLuIGofCwCV5WbCuIC3ASMzZ5GaaDrwfhzwp5L460xlWw84D9g+dxCpQW4F3keY6lcqhVcAVLYZwDmEqwDbAcPyxpFq7UXgZOBAwm00SWqF8cAVpJ8VzWZrQ7sG2BxJaqk+wkQmk8h/wLXZ6tDuAw7AW7KSOmIYYWW0W8h/ALbZcrSJhBUwvRWrLKw4VQdbEw6EBwCrZc4ilWkG8CvgbOBKQiEgZWEBoDoZCewB7EpYTGXTvHGkwgZ4eTGrK4DLgDlZE0kLWACoztYgXB3YBNiYMIhwNcIyqCsRVmGTcnuGsDrlTOBJwviW+wn39m8FHs8XTZIkSZIkSZIkSZIkSZIkSZIkSZIkSZIkSZIkSZIkSZIkSZIkSZIkSZIkSZIkSZIkSZIkSZIkSZIkSZIkSZIkSZIkSZIkSZIkSZIkSZIkSZIkSZIkSZIkSZIkSZIkSZIkSZIkSZIkSZIkSZIkSZIkSZIkSZIkSZIkSZIkSZIkSZIkSZIkSZIkSZIkSZIkSZIkSZIkSZIkSZIkSZIkSZIkSZIkSZIkSZIkSZIkSZIkSZIkSZIkSZIkSZIkSZIkSZIkSZIkSZIkSZIkSZIkSZKkxfj/I4edhD0CRR8AAAAASUVORK5CYII=;clipPath=inset(13.33% 13.33% 13% 13.33%);" vertex="1" parent="1">
                    <mxGeometry x="1320" y="313.45" width="200" height="200.91" as="geometry"/>
                </mxCell>
                <mxCell id="30" style="edgeStyle=orthogonalEdgeStyle;curved=1;rounded=1;html=1;entryX=0;entryY=0.5;entryDx=0;entryDy=0;strokeWidth=4;elbow=vertical;" edge="1" parent="1" target="9">
                    <mxGeometry relative="1" as="geometry">
                        <mxPoint x="280" y="414" as="sourcePoint"/>
                    </mxGeometry>
                </mxCell>
                <mxCell id="31" value="Voice Message" style="text;html=1;strokeColor=none;fillColor=none;align=center;verticalAlign=middle;whiteSpace=wrap;rounded=0;strokeWidth=3;fontSize=27;fontStyle=1" vertex="1" parent="1">
                    <mxGeometry x="78.07" y="530" width="240" height="30" as="geometry"/>
                </mxCell>
                <mxCell id="32" value="Google Cloud VM" style="text;html=1;strokeColor=none;fillColor=none;align=center;verticalAlign=middle;whiteSpace=wrap;rounded=0;strokeWidth=3;fontSize=27;fontStyle=1" vertex="1" parent="1">
                    <mxGeometry x="488" y="489.90999999999997" width="240" height="30" as="geometry"/>
                </mxCell>
                <mxCell id="33" value="Telegram Bot" style="text;html=1;strokeColor=none;fillColor=none;align=center;verticalAlign=middle;whiteSpace=wrap;rounded=0;strokeWidth=3;fontSize=27;fontStyle=1" vertex="1" parent="1">
                    <mxGeometry x="770" y="489.90999999999997" width="240" height="30" as="geometry"/>
                </mxCell>
                <mxCell id="34" value="Huggingface&lt;br&gt;&lt;span style=&quot;font-weight: normal;&quot;&gt;&lt;font style=&quot;font-size: 26px;&quot;&gt;voice2text&lt;/font&gt;&lt;/span&gt;" style="text;html=1;strokeColor=none;fillColor=none;align=center;verticalAlign=middle;whiteSpace=wrap;rounded=0;strokeWidth=3;fontSize=27;fontStyle=1" vertex="1" parent="1">
                    <mxGeometry x="615" y="871" width="240" height="30" as="geometry"/>
                </mxCell>
                <mxCell id="35" value="Notion" style="text;html=1;strokeColor=none;fillColor=none;align=center;verticalAlign=middle;whiteSpace=wrap;rounded=0;strokeWidth=3;fontSize=27;fontStyle=1" vertex="1" parent="1">
                    <mxGeometry x="1300" y="816.45" width="240" height="30" as="geometry"/>
                </mxCell>
                <mxCell id="36" value="Transcription" style="text;html=1;strokeColor=none;fillColor=none;align=center;verticalAlign=middle;whiteSpace=wrap;rounded=0;strokeWidth=3;fontSize=27;fontStyle=1" vertex="1" parent="1">
                    <mxGeometry x="1304" y="524.45" width="240" height="30" as="geometry"/>
                </mxCell>
            </root>
        </mxGraphModel>
    </diagram>
</mxfile>